<?xml version="1.0" encoding="UTF-8"?>
<svg width="41px" height="38px" viewBox="0 0 41 38" version="1.1" xmlns="http://www.w3.org/2000/svg" xmlns:xlink="http://www.w3.org/1999/xlink">
    <!-- Generator: sketchtool 52.6 (67491) - http://www.bohemiancoding.com/sketch -->
    <title>53FB5038-07D1-4FB6-AEAB-20F9C063A30B</title>
    <desc>Created with sketchtool.</desc>
    <g id="Symbols" stroke="none" stroke-width="1" fill="none" fill-rule="evenodd">
        <g id="logo/amazon">
            <g id="amazon">
                <path d="M0.0762,28.7443 C0.2022,28.5463 0.4002,28.5353 0.6722,28.7113 C6.8512,32.3573 13.5912,34.2073 20.8892,34.2623 C25.7552,34.2983 30.5652,33.4283 35.3212,31.6513 C35.4452,31.6023 35.6262,31.5293 35.8622,31.4323 C36.0992,31.3343 36.2672,31.2613 36.3662,31.2123 C36.7402,31.0663 37.0312,31.1423 37.2402,31.4423 C37.4492,31.7413 37.3782,32.0143 37.0292,32.2603 C36.5802,32.5793 36.0062,32.9473 35.3082,33.3643 C33.1632,34.6143 30.7732,35.5773 28.1362,36.2523 C25.4992,36.9283 22.9272,37.2563 20.4202,37.2383 C16.5472,37.2093 12.8912,36.5053 9.4502,35.1263 C6.0092,33.7473 2.9332,31.8193 0.2212,29.3413 C0.0722,29.2163 -0.0008,29.0913 0.0002,28.9673 C0.0002,28.8923 0.0262,28.8183 0.0762,28.7443 Z M33.3248,29.6255 C33.3748,29.5265 33.4508,29.4275 33.5508,29.3295 C34.1738,28.9115 34.7718,28.6305 35.3438,28.4865 C36.2898,28.2445 37.2088,28.1155 38.1028,28.0975 C38.3518,28.0745 38.5868,28.0885 38.8098,28.1395 C39.9268,28.2475 40.5958,28.4385 40.8168,28.7135 C40.9148,28.8625 40.9628,29.0865 40.9608,29.3845 L40.9588,29.6455 C40.9528,30.5145 40.7088,31.5365 40.2288,32.7125 C39.7478,33.8875 39.0828,34.8325 38.2338,35.5465 C38.1088,35.6445 37.9968,35.6935 37.8968,35.6925 C37.8478,35.6925 37.7978,35.6795 37.7488,35.6545 C37.5998,35.5785 37.5638,35.4415 37.6398,35.2435 C38.5748,33.0905 39.0448,31.5925 39.0518,30.7485 C39.0538,30.4755 39.0048,30.2765 38.9068,30.1515 C38.6608,29.8515 37.9668,29.6975 36.8248,29.6885 C36.4028,29.6855 35.9058,29.7065 35.3348,29.7525 C34.7138,29.8225 34.1418,29.8925 33.6198,29.9625 C33.4708,29.9615 33.3718,29.9365 33.3228,29.8865 C33.2738,29.8365 33.2618,29.7865 33.2868,29.7365 C33.2868,29.7125 33.2998,29.6745 33.3248,29.6255 Z" id="Combined-Shape" fill="#E79934"></path>
                <path d="M24.3552,14.0657 C24.3492,14.8597 24.3352,15.4307 24.3232,15.7797 C24.3112,16.1277 24.2302,16.5827 24.0902,17.1337 C23.9502,17.6947 23.7432,18.2057 23.4592,18.6787 C22.8892,19.7397 22.0712,20.4017 21.0322,20.6747 C20.9742,20.6737 20.8872,20.6827 20.7512,20.7017 C20.6162,20.7297 20.5092,20.7387 20.4322,20.7377 C19.6082,20.7317 18.9622,20.4367 18.4822,19.8517 C18.0022,19.2667 17.7662,18.4907 17.7732,17.5227 C17.7892,15.3817 18.8942,14.0157 21.0872,13.4117 C21.8242,13.2137 22.9192,13.1257 24.3622,13.1357 L24.3552,14.0657 Z M32.1592,20.7577 C31.7662,20.2317 31.4882,19.8517 31.3152,19.6087 C31.1432,19.3747 30.9622,18.9857 30.7822,18.4517 C30.6022,17.9177 30.5092,17.3267 30.5142,16.6777 L30.5812,7.6717 C30.5822,7.5757 30.5752,7.2557 30.5502,6.7227 C30.5342,6.1897 30.4982,5.8417 30.4512,5.6767 C30.4042,5.5117 30.3282,5.2207 30.2352,4.8027 C30.1412,4.3767 30.0272,4.0557 29.9032,3.8327 C29.7792,3.6087 29.6162,3.3457 29.4052,3.0637 C29.1942,2.7717 28.9732,2.5087 28.7242,2.2547 C27.1462,0.7807 24.9442,0.0277 22.1162,0.0067 L21.1872,-0.0003 C18.9682,0.1097 17.0372,0.6957 15.3832,1.7487 C13.7192,2.8007 12.6702,4.4297 12.2282,6.6447 C12.2082,6.7407 12.1972,6.8277 12.1972,6.8957 C12.1942,7.2447 12.3962,7.4687 12.8212,7.5787 L17.0972,8.1337 C17.4952,8.0587 17.7492,7.7697 17.8492,7.2767 C18.0302,6.4847 18.4222,5.8677 19.0162,5.4267 C19.6192,4.9857 20.3282,4.7297 21.1522,4.6577 L21.4422,4.6597 C22.5662,4.6687 23.3762,5.0517 23.8942,5.7917 C24.2382,6.3467 24.4052,7.4127 24.3932,9.0017 L24.3882,9.6407 C22.8772,9.7457 21.7812,9.8437 21.1132,9.9067 C19.1452,10.1437 17.4962,10.5377 16.1462,11.0987 C14.6792,11.7077 13.5202,12.6197 12.6582,13.8327 C11.8072,15.0377 11.3792,16.5057 11.3672,18.2107 C11.3502,20.3797 11.9482,22.0497 13.1692,23.2407 C14.3902,24.4207 15.9552,25.0237 17.8722,25.0377 C19.1112,25.0467 20.1482,24.9387 21.0022,24.6937 C22.3422,24.3257 23.7142,23.3967 25.1202,21.8967 C25.2162,22.0127 25.3882,22.2567 25.6282,22.6267 C25.8772,22.9867 26.0592,23.2297 26.1642,23.3567 C26.2802,23.4737 26.4622,23.6787 26.7222,23.9517 C26.9812,24.2247 27.2792,24.5177 27.6252,24.8197 C28.0502,24.9977 28.4092,24.9717 28.7112,24.7507 C28.8762,24.6067 30.0072,23.6467 32.0832,21.8707 C32.2782,21.7267 32.3762,21.5537 32.3772,21.3497 C32.3782,21.1757 32.3122,20.9817 32.1592,20.7577 Z" id="Fill-4" fill="#292929"></path>
            </g>
        </g>
    </g>
</svg>