<?xml version="1.0" encoding="UTF-8"?>
<svg width="42px" height="49px" viewBox="0 0 42 49" version="1.1" xmlns="http://www.w3.org/2000/svg" xmlns:xlink="http://www.w3.org/1999/xlink">
    <!-- Generator: sketchtool 52.6 (67491) - http://www.bohemiancoding.com/sketch -->
    <title>4FBDAF83-0B7C-42C8-A96A-EC3877D36A0C</title>
    <desc>Created with sketchtool.</desc>
    <g id="Symbols" stroke="none" stroke-width="1" fill="none" fill-rule="evenodd">
        <g id="icon/bell" transform="translate(1.000000, 0.000000)">
            <g id="bell">
                <path d="M20,40.7054818 C9.1872,40.7054818 2.5,38.8107321 2.5,35.8160576 C2.5,34.8991928 3.0624,34.2882103 5.1872,32.9434231 C7.3752,31.5986359 8.7496,29.2767462 8.7496,26.7092117 L8.7496,17.8472282 C8.7496,11.6748192 13.7504,6.60155267 19.8752,6.54053265 L20,6.54053265 C26.1872,6.54053265 31.2504,11.4909768 31.2504,17.5421282 L31.2504,26.8320341 C31.2504,29.3987862 32.6248,31.7214582 34.8128,33.0654632 C36.9376,34.3492304 37.5,34.9602128 37.5,35.9380976 C37.5,38.8717521 30.8128,40.7054818 20,40.7054818 M20,45.5949059 C18.3752,45.5949059 16.9376,44.5560011 16.4376,43.0891738 C17.5624,43.1501939 18.7504,43.1501939 20,43.1501939 C21.2496,43.1501939 22.4376,43.1501939 23.5624,43.0891738 C23.0624,44.6170211 21.6248,45.5949059 20,45.5949059 M16.3128,4.58476299 C10.3128,6.2964526 6.2504,11.7358392 6.2504,17.8472282 L6.2504,26.7710141 C6.2504,28.4819214 5.3752,30.0707886 3.8752,30.9266334 C1.7504,32.2104007 0,33.4933856 0,35.8160576 C0,38.6886921 2.5624,42.050269 13.8752,42.9061138 C14.4376,46.2058884 17.6872,48.4675404 21.1248,47.917578 C23.7496,47.4896556 25.7496,45.4728659 26.2496,42.9061138 C37.4376,42.050269 40,38.7497121 40,35.8160576 C40,33.4933856 38.2496,32.2104007 36.1248,30.9266334 C34.6248,30.0097686 33.7496,28.4209014 33.7496,26.7710141 L33.7496,17.4811082 C33.7496,11.2468968 29.3752,5.80751018 23.1248,4.40170295 C23.1248,4.40170295 21.4056,3.96752208 19.8184,4.00194363 C18.0208,4.04027671 16.3128,4.58476299 16.3128,4.58476299" id="Fill-1" stroke="#DADADB" stroke-width="0.5" fill="#DADADB"></path>
                <circle id="Oval" fill="#FFB848" cx="32.5" cy="8.5" r="8.5"></circle>
            </g>
        </g>
    </g>
</svg>