<?xml version="1.0" encoding="UTF-8"?>
<svg width="54px" height="70px" viewBox="0 0 54 70" version="1.1" xmlns="http://www.w3.org/2000/svg" xmlns:xlink="http://www.w3.org/1999/xlink">
    <!-- Generator: sketchtool 52.6 (67491) - http://www.bohemiancoding.com/sketch -->
    <title>023291BE-CDDB-4E87-A7D8-4937497EC15F</title>
    <desc>Created with sketchtool.</desc>
    <g id="Symbols" stroke="none" stroke-width="1" fill="none" fill-rule="evenodd">
        <g id="icon/box" transform="translate(2.000000, 2.000000)">
            <g id="box" transform="translate(-2.000000, -2.000000)">
                <path d="M45.4693081,58.2981685 C43.7216985,59.0755663 41.9735189,59.852964 40.2207793,60.6297868 C38.1157817,61.5687592 36.0062243,62.5025565 33.9017967,63.4415288 C32.0709676,64.2551515 30.2452684,65.0693492 28.4150093,65.8777969 C28.29474,65.9312717 28.1739007,65.9841716 28.0530614,66.0370714 L28.0530614,66.0031465 L28.0530614,65.9979715 L28.0530614,60.1709381 L28.0530614,60.1657632 L28.0530614,53.1444581 L28.0530614,53.1392832 L28.0530614,47.0673004 C28.0530614,47.0581005 28.0530614,47.0494755 28.0530614,47.0408505 C28.0530614,46.3847774 28.0644614,45.7292792 28.0644614,45.0749311 C28.3654196,44.9415315 28.6658078,44.8081319 28.968476,44.6724323 C30.6180462,43.9370093 32.2727464,43.2067614 33.9223166,42.4713385 C34.7619216,42.0987396 35.6009567,41.7255656 36.4405617,41.3518167 L36.4405617,44.8552817 L36.4405617,45.6953543 C36.4405617,46.514152 37.1541974,47.2967248 37.9920925,47.2599249 C38.8345475,47.2237 39.5430533,46.5716518 39.5430533,45.6953543 L39.5430533,39.9729706 C39.7744719,39.8700459 40.0053205,39.7671212 40.2361692,39.6647715 C42.1445178,38.8143489 44.0522965,37.9696763 45.9606452,37.1192538 C46.2695834,36.9818291 46.5779516,36.8449795 46.8863197,36.7075549 L46.8863197,36.7334299 L46.8863197,42.5650633 L46.8863197,49.5921182 L46.8863197,55.669276 C46.8863197,56.337999 46.8771998,57.0067221 46.8771998,57.6737202 C46.4080926,57.8818697 45.9384153,58.0900191 45.4693081,58.2981685 M19.8462501,63.7807779 C17.7418226,62.8418055 15.6322651,61.9080082 13.5272676,60.9690359 C11.6970084,60.1554132 9.87130925,59.3412155 8.0410501,58.5327678 C7.39923391,58.2492936 6.7608377,57.9462695 6.11731151,57.6622203 L6.11731151,56.2534743 L6.11731151,50.4212659 L6.11731151,43.3947859 L6.11731151,37.3176282 C6.11731151,37.1112038 6.11845151,36.9047794 6.1201615,36.69778 C7.83414133,37.4608028 9.54812117,38.2238256 11.262671,38.9868484 C13.3773585,39.9258208 15.4926159,40.8647931 17.6073034,41.8089404 C19.4273026,42.6173881 21.2478718,43.4258358 23.073001,44.2394585 C23.4571787,44.409083 23.8407864,44.5810075 24.2243941,44.752357 C24.4643627,44.8616067 24.7043313,44.9702814 24.9454398,45.0766561 L24.9454398,46.4831021 L24.9454398,52.3147355 L24.9454398,59.3412155 L24.9454398,65.4189482 C24.9454398,65.6276726 24.9442999,65.836397 24.9431599,66.0445464 C23.2457099,65.2901486 21.54883,64.5351757 19.8462501,63.7807779 M15.9662831,31.4376949 C16.5864394,31.6952942 17.2037458,31.9528935 17.8244721,32.2104927 C19.5726517,32.9355657 21.3151314,33.6606386 23.062741,34.3857115 C25.1779985,35.262009 27.287556,36.1383065 29.4028134,37.0146041 C30.9708741,37.6649272 32.5400748,38.3181253 34.1115555,38.9690235 C34.0403059,39.0012234 33.9679163,39.0328483 33.8960968,39.0650482 C32.0658376,39.8786709 30.2401384,40.6922936 28.4098793,41.5013163 C27.7686331,41.7847905 27.115987,42.0550397 26.4747408,42.3454139 C26.0164635,42.1424395 25.5581862,41.93889 25.1004789,41.7359156 C23.3522993,40.9585178 21.6046897,40.18112 19.8513801,39.4042972 C17.7469525,38.4653249 15.6373951,37.5315276 13.5323975,36.5925553 C11.8754174,35.8559823 10.2224272,35.1194094 8.56658699,34.3868615 C9.84451941,33.878563 11.1235918,33.3696894 12.3998143,32.8573659 C13.5888272,32.3841422 14.7778401,31.9109186 15.9662831,31.4376949 M26.5186305,27.2488319 C27.104017,27.4822812 27.6899736,27.7140055 28.2753601,27.9486049 C30.0178398,28.6426279 31.7660194,29.3360759 33.5084991,30.0352739 C35.6180566,30.8753465 37.728184,31.7148441 39.8377415,32.5549167 C41.3681825,33.16499 42.8980534,33.7750633 44.4279243,34.3822615 C43.0251626,35.0061348 41.6224009,35.629433 40.2156493,36.2533062 C39.4832036,36.5799053 38.749618,36.9059294 38.0166023,37.2319534 C37.4203859,36.9835541 36.8258794,36.7357298 36.2285229,36.4879056 C34.4809133,35.7628326 32.7378636,35.0377597 30.990254,34.3126867 C28.8749965,33.4363892 26.7654391,32.5600917 24.6501816,31.6837942 C23.1334206,31.054746 21.6155196,30.4233978 20.0953386,29.7931996 C21.4707405,29.2446512 22.8461423,28.6966777 24.2209741,28.1521543 C24.9836296,27.8508551 25.761675,27.5685309 26.5186305,27.2488319 M49.7921625,33.530114 C49.7727826,33.4996391 49.7522627,33.4697391 49.7311729,33.4398392 C49.6017836,33.2414648 49.4273647,33.0729903 49.2181759,32.9510906 C49.0847967,32.8723158 48.9508475,32.818841 48.8168983,32.7866411 C48.0992725,32.4991419 47.3816468,32.2162427 46.664021,31.9287435 C44.9107114,31.2295455 43.1579718,30.5309225 41.4097922,29.8368995 C39.2951047,28.9916519 37.1747173,28.1521543 35.0600299,27.3069067 C33.2343307,26.5818337 31.4092015,25.8515858 29.5835023,25.1265129 C28.7096975,24.7769139 27.8410227,24.39109 26.951828,24.0777159 C26.4810107,23.9109664 26.1601026,24.041491 25.762245,24.1978905 C25.3073877,24.38074 24.8519604,24.5630145 24.3971031,24.740689 C22.7475329,25.3979121 21.0928327,26.0551352 19.4432625,26.7123584 C17.338265,27.552431 15.2287075,28.3919286 13.12371,29.2320012 C11.2210612,29.9881241 9.3229725,30.7448219 7.42032378,31.5061197 C6.38064995,31.9183936 5.34154611,32.3358424 4.30700225,32.7475412 C4.27793242,32.7607662 4.2482926,32.7722661 4.21808278,32.7837661 C4.07216364,32.814816 3.92567451,32.8705908 3.77975538,32.9562656 C3.30893817,33.2328398 3.00911995,33.7543633 3.00911995,34.3075118 L3.00911995,36.7386048 L3.00911995,42.5702382 L3.00911995,49.5972932 L3.00911995,55.6744509 C3.00911995,56.6651731 2.98860007,57.6564703 3.00911995,58.6425925 L3.00911995,58.6839924 C3.00911995,59.1848159 3.29354826,59.8213391 3.77975538,60.0352385 C4.50878105,60.3589626 5.23780673,60.6821117 5.9674024,61.0052608 C7.71501204,61.7826585 9.46262167,62.5600563 11.2159313,63.3374541 C13.3203588,64.2764264 15.4304863,65.2102238 17.5349138,66.1491961 C19.3657429,66.9628188 21.1908721,67.7764415 23.0217013,68.5848892 C23.905766,68.9816381 24.7949607,69.3726369 25.6795955,69.7693858 C25.6898554,69.7745608 25.7052453,69.7797358 25.7155053,69.7849108 C25.7177853,69.7860608 25.7200653,69.7866358 25.7217752,69.7877858 C25.9531939,69.9303854 26.2205223,70.0108851 26.5015306,69.9988102 C26.5306004,69.9976602 26.5596703,69.9953602 26.5881701,69.9924852 C26.6924795,69.9884602 26.7990689,69.9723602 26.9102182,69.9413103 C27.0339075,69.9073854 27.1604467,69.8521856 27.280146,69.7808858 C27.281286,69.7803108 27.281856,69.7797358 27.282426,69.7797358 C28.0114517,69.4560117 28.7404773,69.1328626 29.470073,68.8091385 C31.2176827,68.0323158 32.9652923,67.254918 34.7186019,66.4775202 C36.8230294,65.5385479 38.9331569,64.6047505 41.0375844,63.6657782 C42.8684136,62.8521555 44.6935427,62.0385328 46.5243719,61.2300851 C47.4084366,60.8385112 48.3135913,60.4733873 49.1822661,60.0455885 C49.192526,60.0404135 49.207916,60.0352385 49.2181759,60.0300635 C49.4222347,59.9397888 49.6103336,59.7327894 49.7465628,59.509115 C49.8993219,59.2722157 49.9888113,58.9898915 49.9888113,58.6788174 L49.9888113,56.2482993 L49.9888113,50.4160909 L49.9888113,43.3896109 L49.9888113,37.3124532 C49.9888113,36.3717559 50.0070512,35.4316336 49.9910913,34.4961112 C50.0252911,34.1666372 49.9614515,33.7969132 49.7921625,33.530114" id="Fill-1" fill="#DADADB"></path>
                <path d="M28.25,13.8095703 C28.25,14.7760686 27.4664983,15.5595703 26.5,15.5595703 C25.5335017,15.5595703 24.75,14.7760686 24.75,13.8095703 L24.75,2 C24.75,1.03350169 25.5335017,0.25 26.5,0.25 C27.4664983,0.25 28.25,1.03350169 28.25,2 L28.25,13.8095703 Z M45.8701285,18.8982612 C45.2688611,19.6549623 44.1680101,19.7809662 43.4113091,19.1796988 C42.654608,18.5784314 42.5286041,17.4775804 43.1298715,16.7208794 L50.1298715,7.91130906 C50.7311389,7.154608 51.8319899,7.02860412 52.5886909,7.62987152 C53.345392,8.23113892 53.4713959,9.33198987 52.8701285,10.0886909 L45.8701285,18.8982612 Z M9.87838667,15.7313541 C10.473869,16.492616 10.3394781,17.5924746 9.5782162,18.187957 C8.81695427,18.7834394 7.7170957,18.6490485 7.12161333,17.8877865 L0.621613329,9.5782162 C0.0261309617,8.81695427 0.160521857,7.7170957 0.921783795,7.12161333 C1.68304573,6.52613096 2.7829043,6.66052186 3.37838667,7.4217838 L9.87838667,15.7313541 Z" id="Combined-Shape" fill="#1BB869" fill-rule="nonzero"></path>
            </g>
        </g>
    </g>
</svg>