<?xml version="1.0" encoding="UTF-8"?>
<svg width="65px" height="13px" viewBox="0 0 65 13" version="1.1" xmlns="http://www.w3.org/2000/svg" xmlns:xlink="http://www.w3.org/1999/xlink">
    <!-- Generator: sketchtool 52.6 (67491) - http://www.bohemiancoding.com/sketch -->
    <title>467D6512-1675-4BCD-AB68-926AC6C70678</title>
    <desc>Created with sketchtool.</desc>
    <g id="Symbols" stroke="none" stroke-width="1" fill="none" fill-rule="evenodd">
        <g id="content/logos/boxed" fill="#6C8092">
            <path d="M8.00023368,5.63233824 C10.1054681,6.167976 11,7.3763748 11,8.69018712 C11,10.0245679 9.97951394,11.075275 8.42093784,11.5483502 C7.40045178,11.8423082 6.09464091,12 4.51635769,12 C3.14799813,12 1.87389001,11.916012 1.13701511,11.7797458 C0.252765228,11.622054 7.10542736e-15,11.1806885 7.10542736e-15,10.4136552 L7.10542736e-15,1.61805456 C7.10542736e-15,0.809027282 0.252765228,0.431081274 1.13701511,0.251964005 C1.9475775,0.0942722468 3.13685932,-5.32907052e-15 4.51635769,-5.32907052e-15 C6.23173391,-5.32907052e-15 7.48442125,0.189401514 8.31640442,0.431081274 C9.72674871,0.840737038 10.5792958,1.66004856 10.5792958,2.87958863 C10.5792958,4.04599343 9.75845147,5.10698472 8.00023368,5.56891873 L8.00023368,5.63233824 Z M56.672018,-5.32907052e-15 C61.0624156,-5.32907052e-15 65,1.82632893 65,5.99443453 C65,10.1625401 61.0624156,12 56.672018,12 C55.6763691,12 55.0021005,11.9683197 54.227907,11.8527292 C53.3213803,11.7268641 53,11.285908 53,10.4665002 L53,1.5326436 C53,0.714092044 53.3213803,0.283410631 54.227907,0.147270781 C55.0021005,0.0316803425 55.6763691,-5.32907052e-15 56.672018,-5.32907052e-15 Z M19.5052454,-5.32907052e-15 C23.2426929,-5.32907052e-15 26.0104907,2.58630137 25.9999701,6.46118721 C25.9999701,10.3689498 23.2426929,13 19.4947247,13 C15.7677978,13 13,10.4136986 13,6.53972603 C13,2.63105023 15.7572772,-5.32907052e-15 19.5052454,-5.32907052e-15 Z M52,1.06008277 C52,2.17325532 51.0599536,3.62209219 48.4638953,4.17867846 L48.4638953,4.25146282 C50.3102849,4.45097759 51.0262504,5.17539603 51.0262504,5.99486228 C51.0262504,6.82374768 50.3102849,7.54816612 48.4638953,7.73740545 L48.4638953,7.8110461 C51.0599536,8.37790781 52,9.82674468 52,10.9399172 C52,11.3706294 51.8433256,11.5701441 51.35053,11.6848865 C50.522524,11.8741259 48.7881749,12 46.3824942,12 C45.0061279,12 43.2262339,11.9058085 42.2306227,11.7585272 C41.3133488,11.6326531 41,11.1916655 41,10.4047381 L41,1.59526188 C41,0.808334523 41.3133488,0.377622378 42.2306227,0.241472813 C43.2262339,0.104466962 45.0061279,-5.32907052e-15 46.3824942,-5.32907052e-15 C48.7881749,-5.32907052e-15 50.522524,0.1147424 51.35053,0.314257171 C51.8323948,0.429855858 52,0.629370629 52,1.06008277 Z M36.2502723,5.80031424 L38.8514801,9.98257392 C39.0561682,10.3296672 39.0561682,10.6656192 38.8084341,10.9390087 C38.2145751,11.58006 37.1788359,12 35.9261096,12 C34.5020779,12 33.3143599,11.4429367 32.5052709,10.4762177 L32.4622249,10.4762177 C31.653136,11.4429367 30.4873802,12 29.0730119,12 C27.8211641,12 26.774883,11.58006 26.1915659,10.9390087 C25.9438318,10.6656192 25.9438318,10.3296672 26.1485199,9.98257392 L28.7383073,5.80031424 L26.3646283,2.06970433 C26.1160157,1.67033281 26.1485199,1.35494929 26.4507203,1.0404228 C27.0551212,0.430224254 28.1883728,-5.32907052e-15 29.2891203,-5.32907052e-15 C30.6059763,-5.32907052e-15 31.696182,0.473075275 32.4833087,1.32409656 L32.5272332,1.32409656 C33.303818,0.461934009 34.3834818,-5.32907052e-15 35.6994593,-5.32907052e-15 C36.8010853,-5.32907052e-15 37.9448788,0.430224254 38.5378593,1.0404228 C38.8400598,1.35494929 38.8725639,1.67033281 38.6248298,2.06970433 L36.2502723,5.80031424 Z" id="boxed-copy"></path>
        </g>
    </g>
</svg>