<?xml version="1.0" encoding="UTF-8"?>
<svg width="20px" height="13px" viewBox="0 0 20 13" version="1.1" xmlns="http://www.w3.org/2000/svg" xmlns:xlink="http://www.w3.org/1999/xlink">
    <!-- Generator: sketchtool 52.6 (67491) - http://www.bohemiancoding.com/sketch -->
    <title>9A6C9863-B1FC-4830-B430-F8DDB0A82459</title>
    <desc>Created with sketchtool.</desc>
    <g id="Desktop" stroke="none" stroke-width="1" fill="none" fill-rule="evenodd">
        <g id="RD-Gorgias" transform="translate(-616.000000, -1984.000000)" fill="#6C8092">
            <g id="lose-the-wait" transform="translate(315.000000, 1823.000000)">
                <g id="Group-17" transform="translate(301.000000, 149.000000)">
                    <path d="M3.7862,11.9999 C5.1462,11.9999 6.2492,13.1029 6.2492,14.4629 C6.2492,15.8239 5.1462,16.9259 3.7862,16.9259 C2.4262,16.9259 1.3232,15.8239 1.3232,14.4629 C1.3232,13.1029 2.4262,11.9999 3.7862,11.9999 Z M6.9211,18.852 C6.2941,19.389 5.8461,20.151 5.7121,21.046 L5.4881,22.883 C4.9281,22.95 4.3461,22.972 3.7641,22.972 C2.5991,22.972 1.4801,22.86 0.4271,22.636 C0.1591,22.569 -0.0209,22.3 0.0021,22.032 L0.2481,19.904 C0.4051,18.583 1.5241,17.598 2.8461,17.598 L4.6821,17.598 C5.6221,17.598 6.4731,18.091 6.9211,18.852 Z M16.2362,11.9999 C17.5962,11.9999 18.6992,13.1029 18.6992,14.4629 C18.6992,15.8239 17.5962,16.9259 16.2362,16.9259 C14.8762,16.9259 13.7732,15.8239 13.7732,14.4629 C13.7732,13.1029 14.8762,11.9999 16.2362,11.9999 Z M16.2362,22.9497 C15.6542,22.9497 15.0722,22.9277 14.5122,22.8827 L14.2882,21.0467 C14.1982,20.1507 13.7502,19.3897 13.1012,18.8517 C13.5492,18.0907 14.3772,17.5977 15.3182,17.5977 L17.1542,17.5977 C18.4752,17.5977 19.5722,18.5837 19.7522,19.8817 L19.9982,22.0097 C20.0202,22.3007 19.8412,22.5467 19.5722,22.6137 C18.5202,22.8377 17.4002,22.9497 16.2362,22.9497 Z M10.9293,18.8296 C12.2503,18.8296 13.3703,19.8146 13.5263,21.1356 L13.7733,23.2636 C13.7953,23.5546 13.6163,23.8006 13.3473,23.8676 C12.2953,24.0916 11.1753,24.2036 10.0113,24.2036 C8.8473,24.2036 7.7273,24.0916 6.6743,23.8676 C6.3833,23.8006 6.2273,23.5316 6.2493,23.2636 L6.4953,21.1356 C6.6523,19.8146 7.7723,18.8296 9.0933,18.8296 L10.9293,18.8296 Z M10.0112,13.2315 C11.3712,13.2315 12.4742,14.3345 12.4742,15.6945 C12.4742,17.0545 11.3712,18.1575 10.0112,18.1575 C8.6512,18.1575 7.5482,17.0545 7.5482,15.6945 C7.5482,14.3345 8.6512,13.2315 10.0112,13.2315 Z" id="customers"></path>
                </g>
            </g>
        </g>
    </g>
</svg>