<?xml version="1.0" encoding="UTF-8"?>
<svg width="40px" height="13px" viewBox="0 0 40 13" version="1.1" xmlns="http://www.w3.org/2000/svg" xmlns:xlink="http://www.w3.org/1999/xlink">
    <!-- Generator: sketchtool 52.6 (67491) - http://www.bohemiancoding.com/sketch -->
    <title>B42281E5-3BA0-45E0-B669-2B6C243FC9D6</title>
    <desc>Created with sketchtool.</desc>
    <g id="Symbols" stroke="none" stroke-width="1" fill="none" fill-rule="evenodd">
        <g id="content/logos/dell" fill="#6C8092">
            <path d="M4.05807079,4.39777588 L4.7654491,4.39777588 C5.87462542,4.39777588 6.81987527,5.31479897 6.83502065,6.54747648 C6.83502065,6.54833191 6.83502065,6.54918734 6.83502065,6.55004277 C6.81987527,7.78272027 5.97707945,8.69717707 4.86790313,8.69717707 L4.05807079,8.69717707 L4.05807079,4.39777588 Z M32,12 L24,12 L24,8.47870162 L17.0601738,13 L10.5812357,8.81946705 C9.65559228,11.1095923 7.36877656,12 5.49153641,12 L0,12 L0,1 L4.11954321,1 C6.7305522,1 9.53801689,1.68535049 10.5798749,4.18083023 L17.0093604,-5.32907052e-15 L19.6373969,1.70776256 L19.6266994,1.70045662 L13.8794295,5.44200913 L13.8767551,5.44200913 L14.8555828,6.11506849 L20.4744818,2.49315068 L22.9982171,4.13059361 L17.4283486,7.74794521 L18.3920214,8.41826484 L24,4.80608922 L24,1 L28.2325363,1 L28.2325363,8.52208398 L32,8.52208398 L32,1 L36.2325363,1 L36.2325363,8.5311381 L40,8.5311381 L40,12 L32,12 Z" id="dell-copy"></path>
        </g>
    </g>
</svg>