<?xml version="1.0" encoding="UTF-8"?>
<svg width="31px" height="13px" viewBox="0 0 31 13" version="1.1" xmlns="http://www.w3.org/2000/svg" xmlns:xlink="http://www.w3.org/1999/xlink">
    <!-- Generator: sketchtool 52.6 (67491) - http://www.bohemiancoding.com/sketch -->
    <title>F2D3A3EE-DFD6-415C-A0B8-5C52366E696B</title>
    <desc>Created with sketchtool.</desc>
    <g id="Symbols" stroke="none" stroke-width="1" fill="none" fill-rule="evenodd">
        <g id="icon/logos/desk" fill="#239EDA">
            <path d="M10.5964028,7.70010703 C10.9206111,6.94497154 11.6607361,6.4173392 12.5218472,6.4173392 C13.3829583,6.4173392 14.1230833,6.94497154 14.4468611,7.70010703 L10.5964028,7.70010703 Z M5.15891667,10.4590204 C4.863125,10.61346 4.53504167,10.6939611 4.20222222,10.6939611 C3.041875,10.6939611 2.10154167,9.73669784 2.10154167,8.55543142 C2.10154167,7.37460251 3.041875,6.4173392 4.20222222,6.4173392 C5.36213889,6.4173392 6.30290278,7.37460251 6.30290278,8.55543142 C6.30290278,9.02531295 6.1535,9.45975649 5.90119444,9.81238639 C5.93908333,10.0670149 6.07815278,10.3500814 6.44670833,10.6003348 C6.62538889,10.721524 5.92659722,10.9149017 5.15891667,10.4590204 Z M29.853,4.74431595 L27.621,4.29018463 L25.1272222,7.16153705 L25.1272222,0 L23.0265417,0.855761895 L23.0265417,9.76032317 C22.7557222,8.41149192 21.4309028,8.04398681 20.3368611,7.7412326 C19.5347361,7.51985453 18.8419722,7.32778936 18.87125,6.76909409 C18.9000972,6.22089897 19.4352778,6.00433346 19.952375,6.03189634 C20.5633333,6.06558431 21.0597639,6.32240038 21.4296111,6.79621947 L22.9731528,5.39926255 C22.1357222,4.44899934 20.7773194,4.2376839 20.0315972,4.19743334 C18.3154028,4.10380704 16.5385,4.87644278 16.4364583,6.8132822 C16.4334444,6.87322054 16.4321528,6.93272137 16.4321528,6.9926597 C15.8186111,5.40407512 14.2996111,4.27880948 12.5214167,4.27880948 C10.4861806,4.27880948 8.79022222,5.75232996 8.40401389,7.70841965 L8.40401389,0.00262503649 L6.30376389,0.857949426 L6.30376389,4.85281745 C5.66525,4.47612472 4.94019444,4.27793446 4.20179167,4.27880948 C1.88109722,4.27880948 0,6.19333609 0,8.55543142 C0,10.9175268 1.88109722,12.8324909 4.20179167,12.8324909 C6.32270833,12.8324909 8.07506944,11.2325311 8.36138889,9.15437725 C8.64770833,11.2329686 10.4005,12.8324909 12.5214167,12.8324909 C14.1179167,12.8324909 15.5064583,11.9259783 16.2173056,10.5911472 L13.9435417,10.1282658 C13.5569028,10.4922708 13.0488472,10.6943987 12.5218472,10.6939611 C11.6607361,10.6939611 10.9206111,10.1663288 10.5964028,9.41119332 L16.6388194,9.41119332 C16.7245,8.98068733 16.7451667,8.5396812 16.6995278,8.10305013 C17.1808889,8.95224944 18.2267083,9.24012844 19.1158056,9.48513184 C19.9493611,9.71482254 20.6696806,9.91301279 20.6369583,10.5255213 C20.6141389,10.9674024 20.1271806,11.2054058 19.3358194,11.1620927 C18.6012917,11.1222796 18.0299444,10.8072752 17.5438472,10.1737664 L16.0028889,11.7374132 C16.9074861,12.7270519 18.3472639,12.947555 19.1351806,12.9904306 C19.9777778,13.0363687 22.6321528,13.0022432 23.0265417,10.8475258 L23.0265417,12.8333659 L25.1272222,12.8333659 L25.1272222,9.09443891 L28.3736111,12.8324909 L31,12.8324909 L26.9144583,8.12798798 L29.853,4.74431595 Z" id="desk"></path>
        </g>
    </g>
</svg>