<?xml version="1.0" encoding="UTF-8"?>
<svg width="74px" height="30px" viewBox="0 0 74 30" version="1.1" xmlns="http://www.w3.org/2000/svg" xmlns:xlink="http://www.w3.org/1999/xlink">
    <!-- Generator: sketchtool 52.6 (67491) - http://www.bohemiancoding.com/sketch -->
    <title>05CE565F-1EB9-4FF8-A761-FFDCB787AAA8</title>
    <desc>Created with sketchtool.</desc>
    <g id="Symbols" stroke="none" stroke-width="1" fill="none" fill-rule="evenodd">
        <g id="logo/ebay">
            <g id="ebay">
                <path d="M3.99,13.5238095 C3.99,10.3809524 6.84,8.57142857 9.69,8.57142857 C12.92,8.57142857 15.105,10.5714286 15.105,13.5238095 L3.99,13.5238095 Z M9.785,6 C4.465,6 0,8.28571429 0,15.1428571 C0,20.5714286 3.04,24 9.975,24 C18.145,24 18.715,18.5714286 18.715,18.5714286 L14.725,18.5714286 C14.725,18.5714286 13.87,21.5238095 9.69,21.5238095 C6.365,21.5238095 3.895,19.2380952 3.895,16 L19,16 L19,13.2380952 C18.715,10.1904762 16.53,6 9.785,6 Z" id="Fill-1" fill="#DF333B"></path>
                <path d="M28.5454545,9.01149425 C32,9.01149425 34.2727273,11.5862069 34.2727273,15.1724138 C34.2727273,18.9425287 31.7272727,21.4252874 28.6363636,21.4252874 C24.9090909,21.4252874 22.9090909,18.4827586 22.9090909,15.2643678 C22.8181818,12.137931 24.6363636,9.01149425 28.5454545,9.01149425 M22.8181818,9.1954023 L22.8181818,0 L19.0909091,0 L19.0909091,13.5172414 C19.0909091,13.7931034 19.0909091,13.9770115 19.1818182,14.2528736 L19.1818182,16.183908 L19.0909091,16.183908 L19.0909091,20.5977011 C19.0909091,21.7931034 19,23.3563218 19,23.3563218 L22.6363636,23.3563218 C22.6363636,23.3563218 22.7272727,22.1609195 22.7272727,21.1494253 C22.7272727,21.1494253 24.5454545,24 29.3636364,24 C34.4545455,24 38,20.4137931 38,15.2643678 C38,10.4827586 34.8181818,6.62068966 29.3636364,6.62068966 C24.4545455,6.43678161 22.8181818,9.1954023 22.8181818,9.1954023" id="Fill-3" fill="#2B61AA"></path>
                <path d="M18.55,13.8275862 C18.55,13.5172414 18.55,13.3103448 18.45,13 L18.45,16 L18.55,16 L18.55,13.8275862 Z" id="Fill-5" fill="#2B61AA"></path>
                <path d="M50.8963731,16.5157895 C50.8963731,17.9368421 50.0569948,21.5368421 44.8341969,21.5368421 C42.0362694,21.5368421 40.8238342,20.1157895 40.8238342,18.4105263 C40.8238342,15.3789474 44.9274611,15.3789474 50.8963731,15.3789474 L50.8963731,16.5157895 Z M38.2124352,11.1157895 L42.1295337,11.1157895 C42.1295337,11.1157895 42.3160622,8.55789474 46.3264249,8.55789474 C48.9378238,8.55789474 50.9896373,9.78947368 50.9896373,12.0631579 L50.9896373,12.9157895 L46.3264249,12.9157895 C40.1709845,12.9157895 37,14.7157895 37,18.4105263 C37,22.1052632 39.984456,24 44.0880829,24 C49.5906736,24 51.3626943,20.8736842 51.3626943,20.8736842 C51.3626943,22.1052632 51.4559585,23.3368421 51.4559585,23.3368421 L55,23.3368421 C55,23.3368421 54.8134715,21.8210526 54.8134715,20.8736842 L54.8134715,12.5368421 C54.8134715,11.5894737 54.7202073,10.8315789 54.4404145,10.1684211 L53.507772,8.46315789 C51.9222798,6.47368421 49.1243523,6 46.6062176,6 L46.5129534,6 C38.6787565,6 38.2124352,10.4526316 38.2124352,11.1157895 Z" id="Fill-7" fill="#F2AE0D"></path>
                <path d="M61.6415929,23.563786 L58.2964602,30 L62.4778761,30 L74,7 L70.0044248,7 L63.6858407,19.9670782 L57.3672566,7 L53,7 L53.9292035,8.79835391 C54.300885,9.27160494 54.579646,9.83950617 54.8584071,10.5020576 L61.6415929,23.563786 Z" id="Fill-9" fill="#85B727"></path>
            </g>
        </g>
    </g>
</svg>