<?xml version="1.0" encoding="UTF-8"?>
<svg width="57px" height="47px" viewBox="0 0 57 47" version="1.1" xmlns="http://www.w3.org/2000/svg" xmlns:xlink="http://www.w3.org/1999/xlink">
    <!-- Generator: sketchtool 52.6 (67491) - http://www.bohemiancoding.com/sketch -->
    <title>C3329446-E265-456A-85C6-26ACE187E2E3</title>
    <desc>Created with sketchtool.</desc>
    <g id="Symbols" stroke="none" stroke-width="1" fill="none" fill-rule="evenodd">
        <g id="icon/faq" fill="#1BB869">
            <path d="M21.9072,20.9087 L21.9312,20.9347 C22.1042,21.1947 22.1922,21.4417 22.1922,21.6687 C22.1922,21.9867 22.0942,22.2447 21.9012,22.4367 C21.6222,22.6247 21.3752,22.7127 21.1482,22.7127 C20.8302,22.7127 20.5712,22.6157 20.3802,22.4217 C20.1922,22.1447 20.1042,21.8977 20.1042,21.6687 C20.1042,21.3967 20.1752,21.1687 20.3132,20.9907 L20.3032,20.9777 L20.4732,20.8207 L20.4862,20.8317 C20.9022,20.5547 21.5182,20.5807 21.9072,20.9087 Z M17.9521,12.2202 C17.7051,12.1932 17.4881,12.0842 17.3301,11.9082 C17.1421,11.6982 17.0581,11.4152 17.0931,11.1112 C17.0921,9.8502 17.6291,8.7122 18.6031,7.9192 C19.5681,7.1342 20.7891,6.8312 22.0501,7.0712 C23.6301,7.3752 24.8961,8.6422 25.2011,10.2232 C25.5081,11.8142 24.9291,13.3892 23.6891,14.3342 C22.7391,15.1162 22.1921,16.1642 22.1921,17.2082 C22.1921,17.7642 21.7041,18.2522 21.1481,18.2522 C20.5931,18.2522 20.1041,17.7642 20.1041,17.2082 C20.1041,15.5012 20.9311,13.8672 22.3731,12.7252 C23.0111,12.2462 23.2821,11.5072 23.1201,10.6972 C22.9591,9.9492 22.3241,9.3132 21.5761,9.1522 C20.9841,9.0452 20.3481,9.2062 19.8681,9.5812 C19.3741,10.0192 19.1211,10.5602 19.1211,11.1832 C19.1211,11.6972 18.7041,12.1532 18.2021,12.2192 L18.2021,12.2272 L17.9521,12.2202 Z M10.8008,27.1021 C11.1668,27.2241 11.4328,27.5951 11.4328,27.9841 L11.4328,33.8861 L17.3298,28.1041 C17.4988,27.9361 17.7308,27.8511 18.0198,27.8511 L27.4048,27.8511 C34.5198,27.8511 40.3078,22.0631 40.3078,14.9491 C40.3078,7.8341 34.5198,2.0461 27.4048,2.0461 L14.8328,2.0461 C14.7978,2.0451 14.7628,2.0451 14.7278,2.0451 C11.3598,2.0451 8.1898,3.3521 5.7908,5.7311 C3.3388,8.1641 1.9878,11.4161 1.9878,14.8911 C1.9878,20.4571 5.5298,25.3641 10.8008,27.1021 Z M42.3538,14.8911 C42.3538,23.1021 35.6728,29.7811 27.4618,29.7811 L18.4538,29.7671 L12.4078,35.8131 C12.0798,36.1401 11.6338,36.3281 11.1838,36.3281 C10.2248,36.3281 9.4448,35.5481 9.4448,34.5891 L9.4768,28.7521 C3.7558,26.4981 0.0498,21.1251 0.0008,15.0161 L-0.0002,15.0161 L0.0008,14.7661 C0.0678,6.6121 6.7218,0.0001 14.8918,0.0001 L27.4618,0.0001 C35.6728,0.0001 42.3538,6.6801 42.3538,14.8911 Z M56.5469,29.6553 L56.5479,29.6553 L56.5469,29.9053 C56.4959,34.5113 53.6259,38.7343 49.3629,40.4663 L49.3629,44.7853 C49.3629,45.4123 48.9979,45.9493 48.3859,46.2213 C48.1969,46.2833 48.1099,46.3103 48.0039,46.3303 C47.9309,46.3433 47.8619,46.3503 47.7979,46.3503 C47.3699,46.3503 46.9869,46.1923 46.6899,45.8933 L42.1849,41.3683 L35.4569,41.3683 C31.0609,41.3683 27.0939,38.9343 25.1069,35.0173 C24.9789,34.7933 24.9479,34.5263 25.0259,34.2713 C25.1099,33.9943 25.3139,33.7583 25.5859,33.6213 C25.8099,33.4933 26.0779,33.4643 26.3309,33.5423 C26.6079,33.6263 26.8449,33.8303 26.9819,34.1043 C28.6229,37.3323 31.8709,39.3383 35.4569,39.3383 L42.5829,39.3383 C42.8119,39.3383 43.0619,39.4273 43.3259,39.6053 L47.2759,43.6663 L47.2759,39.8033 C47.2759,39.3713 47.5689,38.9603 47.9749,38.8263 C51.8529,37.5133 54.4589,33.9013 54.4589,29.8383 C54.4589,25.2833 51.2039,21.3603 46.7199,20.5083 C46.1209,20.3593 45.7599,19.8333 45.8899,19.3093 C45.9599,19.0293 46.1169,18.7893 46.3319,18.6353 C46.5569,18.4743 46.8219,18.4193 47.0829,18.4873 C52.5229,19.4113 56.4879,24.0983 56.5469,29.6553 Z" id="faq"></path>
        </g>
    </g>
</svg>