<?xml version="1.0" encoding="UTF-8"?>
<svg width="18px" height="18px" viewBox="0 0 18 18" version="1.1" xmlns="http://www.w3.org/2000/svg" xmlns:xlink="http://www.w3.org/1999/xlink">
    <!-- Generator: sketchtool 52.6 (67491) - http://www.bohemiancoding.com/sketch -->
    <title>29288E06-BA0D-40BC-9ECD-3B9A7CE240D4</title>
    <desc>Created with sketchtool.</desc>
    <g id="Symbols" stroke="none" stroke-width="1" fill="none" fill-rule="evenodd">
        <g id="icon/logos/freshdesk" fill="#25C16F">
            <path d="M8.34781935,0.1974375 L15.2383355,0.0939375 C16.5250452,0.0748125 17.5510452,1.038375 17.5713677,2.284875 L17.6782065,8.9600625 C17.7560129,13.8555 13.6856903,17.9229375 8.63291613,17.998875 L8.54059355,18 C3.48027097,17.631 -0.354890323,13.4150625 0.0260129032,8.512875 C0.323883871,4.1461875 3.85304516,0.709875 8.34781935,0.1974375 Z M8.00493123,4.00047757 C5.79428816,4.035206 3.9647519,5.86613455 4.00051559,8.20888051 L4.04298497,11.0013881 C4.05416113,11.7221455 4.68281974,12.3427027 5.38971142,12.3313163 L6.53917876,12.3136675 L6.49000368,9.07025952 L4.89851949,9.09530954 L4.8845493,8.19464754 C4.85716772,6.39275424 6.25139281,5.01955783 7.93172742,4.99279985 C9.69979484,4.96490324 11.0481977,6.3853531 11.0744617,8.09672475 L11.087873,8.99795606 L9.49638885,9.02300608 L9.54556392,12.2658447 L10.6067397,12.2493345 L10.6084161,12.3392868 C10.6190334,13.0600441 10.0971071,13.6088672 9.38965659,13.6202536 L8.15133883,13.6396104 C8.06304722,13.6407491 7.97587323,13.7324094 7.97754965,13.8223617 C7.97866727,13.9128834 8.0686353,14.0011277 8.15692691,13.9999891 L9.39524466,13.9806323 C10.2792784,13.9663993 10.9755527,13.2348249 10.9621413,12.3335936 L10.9593473,12.1536889 C11.5751533,11.9635365 12.0093469,11.4158521 11.9998471,10.7856164 L11.9584954,8.0830611 C12.0126997,5.82969817 10.2155743,3.96574914 8.00493123,4.00047757 Z" id="fd"></path>
        </g>
    </g>
</svg>