<?xml version="1.0" encoding="UTF-8"?>
<svg width="34px" height="35px" viewBox="0 0 34 35" version="1.1" xmlns="http://www.w3.org/2000/svg" xmlns:xlink="http://www.w3.org/1999/xlink">
    <!-- Generator: sketchtool 52.6 (67491) - http://www.bohemiancoding.com/sketch -->
    <title>D5F10076-665F-49DD-B676-7D9C14CBE290</title>
    <desc>Created with sketchtool.</desc>
    <g id="Symbols" stroke="none" stroke-width="1" fill="none" fill-rule="evenodd">
        <g id="logo/gorgias" fill="#211F1F">
            <path d="M30.3703189,35 C30.1892352,35 30.0081515,34.9485672 29.8529369,34.8457017 L24.9119396,31.3739897 C24.756725,31.2711242 24.5756413,31.2196914 24.3945577,31.2196914 L4.08731719,31.2196914 C1.83670583,31.2196914 2.87769808e-13,29.3938281 2.87769808e-13,27.1307862 L2.87769808e-13,4.08890522 C2.87769808e-13,1.82586334 1.83670583,0 4.08731719,0 L21.6006953,0 C23.8513066,0 25.6880125,1.82586334 25.6880125,4.08890522 L25.6880125,7.07200588 L29.2838168,7.07200588 C31.5344282,7.07200588 33.371134,8.89786921 33.371134,11.1609111 L33.371134,34.0999265 C33.371134,34.5885378 32.9572285,35 32.4657157,35 L30.3703189,35 Z M25.558667,28.056576 C25.7397507,28.056576 25.9208343,28.1080088 26.0760489,28.2108744 L29.3872932,30.525349 C29.7494606,30.7825129 30.2668425,30.525349 30.2668425,30.0624541 L30.2668425,11.3152094 C30.2668425,10.8265981 29.8529369,10.4151359 29.3614241,10.4151359 L25.8173579,10.4151359 L25.8173579,23.3247612 C25.8173579,23.8133725 25.4034524,24.2248347 24.9119396,24.2248347 L8.6920163,24.2248347 C8.20050348,24.2248347 7.78659794,23.8133725 7.78659794,23.3247612 L7.78659794,8.07494489 C7.78659794,7.58633358 8.20050348,7.17487142 8.6920163,7.17487142 L22.5578518,7.17487142 L22.5578518,4.24320353 C22.5578518,3.75459221 22.1439463,3.34313005 21.6524335,3.34313005 L4.24253177,3.34313005 C3.75101894,3.34313005 3.3371134,3.75459221 3.3371134,4.24320353 L3.3371134,27.1307862 C3.3371134,27.6193975 3.75101894,28.0308597 4.24253177,28.0308597 L25.558667,28.0308597 L25.558667,28.056576 Z M22.066339,20.8559882 C22.32503,20.8559882 22.5061136,20.6502572 22.5061136,20.4188097 L22.5061136,10.3122704 L11.304795,10.3122704 C11.0461041,10.3122704 10.8650204,10.5180015 10.8650204,10.7494489 L10.8650204,20.4188097 C10.8650204,20.6502572 11.0719731,20.8559882 11.304795,20.8559882 C11.304795,20.8559882 22.066339,20.8559882 22.066339,20.8559882 Z" id="gorgias"></path>
        </g>
    </g>
</svg>