<?xml version="1.0" encoding="UTF-8"?>
<svg width="191px" height="209px" viewBox="0 0 191 209" version="1.1" xmlns="http://www.w3.org/2000/svg" xmlns:xlink="http://www.w3.org/1999/xlink">
    <!-- Generator: sketchtool 52.6 (67491) - http://www.bohemiancoding.com/sketch -->
    <title>3D50689B-E542-4598-894C-53E6FAF3DA50</title>
    <desc>Created with sketchtool.</desc>
    <defs>
        <polygon id="path-1" points="0.3345 0.417 32.1885 0.417 32.1885 32.2697 0.3345 32.2697"></polygon>
    </defs>
    <g id="Desktop" stroke="none" stroke-width="1" fill="none" fill-rule="evenodd">
        <g id="RD-Gorgias" transform="translate(-315.000000, -1835.000000)">
            <g id="lose-the-wait" transform="translate(315.000000, 1823.000000)">
                <g id="Group-180" transform="translate(0.000000, 11.000000)">
                    <g id="Group-3" transform="translate(54.000000, 0.583000)">
                        <mask id="mask-2" fill="white">
                            <use xlink:href="#path-1"></use>
                        </mask>
                        <g id="Clip-2"></g>
                        <path d="M32.1885,16.3437 C32.1885,25.1397 25.0575,32.2697 16.2615,32.2697 C7.4655,32.2697 0.3345,25.1397 0.3345,16.3437 C0.3345,7.5477 7.4655,0.4167 16.2615,0.4167 C25.0575,0.4167 32.1885,7.5477 32.1885,16.3437" id="Fill-1" fill="#C0D0D8" mask="url(#mask-2)"></path>
                    </g>
                    <path d="M84.9082,16.9233 C84.9082,21.7723 82.5622,26.0583 78.9402,28.7253 C77.8632,29.5233 76.6652,30.1723 75.3952,30.6503 C74.8252,30.8643 74.2332,31.0423 73.6352,31.1853 C73.2702,31.2703 72.9072,31.3423 72.5362,31.3993 C71.7952,31.5203 71.0392,31.5773 70.2622,31.5773 C68.7502,31.5773 67.2882,31.3423 65.9122,30.9213 C59.9432,29.0673 55.6152,23.4983 55.6152,16.9233 C55.6152,14.6343 56.1422,12.4733 57.0772,10.5483 C58.2182,8.1813 59.9792,6.1703 62.1542,4.7293 C62.6602,4.3873 63.1952,4.0813 63.7442,3.8023 C64.9352,3.2113 66.2192,2.7753 67.5662,2.5263 C68.4432,2.3623 69.3422,2.2773 70.2622,2.2773 C76.4792,2.2773 81.8002,6.1553 83.9102,11.6253 C84.5592,13.2653 84.9082,15.0553 84.9082,16.9233" id="Fill-4" fill="#EFF4F4"></path>
                    <path d="M70.2617,17.665 C70.0477,17.665 69.8337,17.572 69.6887,17.392 L64.8447,11.421 C64.5877,11.104 64.6367,10.64 64.9527,10.383 C65.2687,10.128 65.7357,10.173 65.9907,10.491 L70.8347,16.462 C71.0917,16.778 71.0427,17.243 70.7267,17.5 C70.5897,17.611 70.4257,17.665 70.2617,17.665" id="Fill-6" fill="#808791"></path>
                    <path d="M73.1367,16.9267 C73.1367,18.5137 71.8497,19.8007 70.2617,19.8007 C68.6747,19.8007 67.3877,18.5137 67.3877,16.9267 C67.3877,15.3387 68.6747,14.0517 70.2617,14.0517 C71.8497,14.0517 73.1367,15.3387 73.1367,16.9267" id="Fill-8" fill="#C0D0D8"></path>
                    <path d="M62.8623,26.1997 C62.6903,26.1997 62.5183,26.1397 62.3793,26.0187 C62.0703,25.7517 62.0373,25.2857 62.3043,24.9777 L69.7043,16.4437 C69.9703,16.1337 70.4373,16.1017 70.7453,16.3687 C71.0533,16.6367 71.0873,17.1017 70.8193,17.4097 L63.4203,25.9447 C63.2743,26.1127 63.0683,26.1997 62.8623,26.1997" id="Fill-10" fill="#C0D0D8"></path>
                    <path d="M188.2109,38.9677 L161.9029,115.4917 C161.4609,116.7807 160.0559,117.4677 158.7659,117.0247 L115.9749,102.3137 C114.6859,101.8697 113.9989,100.4647 114.4429,99.1757 L140.7499,22.6517 C141.1929,21.3617 142.6009,20.6687 143.8899,21.1117 L186.6819,35.8227 C187.9709,36.2657 188.6539,37.6787 188.2109,38.9677" id="Fill-12" fill="#C7D8E2"></path>
                    <path d="M190.1367,39.6298 L163.8287,116.1538 C163.3857,117.4428 161.9807,118.1298 160.6917,117.6868 L117.9007,102.9758 C116.6107,102.5318 115.9247,101.1268 116.3687,99.8378 L142.6747,23.3138 C143.1187,22.0238 144.5267,21.3308 145.8157,21.7738 L188.6077,36.4848 C189.8967,36.9278 190.5797,38.3398 190.1367,39.6298" id="Fill-14" fill="#DCE8EF"></path>
                    <path d="M184.6914,41.3974 L174.6924,70.4634 L174.6904,70.4734 L166.5424,94.2014 L166.5404,94.2114 L162.8264,104.9874 L161.9544,107.5294 C161.7204,108.2254 160.9534,108.6004 160.2584,108.3574 L139.8184,101.3264 L123.9844,95.8844 C123.2784,95.6484 122.9134,94.8824 123.1474,94.1864 L132.8504,65.9564 L145.8834,28.0544 C146.1114,27.3874 146.8184,27.0094 147.5034,27.1994 C147.5324,27.2064 147.5614,27.2124 147.5894,27.2294 L153.7674,29.3554 L167.5244,34.0884 L183.8534,39.6994 C184.5594,39.9354 184.9344,40.7034 184.6914,41.3974" id="Fill-16" fill="#F0F7F7"></path>
                    <path d="M139.9863,108.3222 C138.7733,107.9052 138.1283,106.5832 138.5453,105.3702 C138.9623,104.1572 140.2833,103.5112 141.4973,103.9282 C142.7103,104.3452 143.3553,105.6672 142.9383,106.8812 C142.5213,108.0932 141.2003,108.7392 139.9863,108.3222" id="Fill-18" fill="#C7D8E2"></path>
                    <path d="M150.4775,26.8022 C149.9855,26.6332 149.7225,26.0962 149.8915,25.6022 C150.0615,25.1092 150.5985,24.8472 151.0915,25.0162 C151.5845,25.1862 151.8465,25.7232 151.6775,26.2162 C151.5075,26.7092 150.9705,26.9712 150.4775,26.8022" id="Fill-20" fill="#C7D8E2"></path>
                    <path d="M159.043,90.5185 L157.99,90.1565 L159.565,85.5725 C160.306,83.4195 160.163,81.1075 159.165,79.0625 L156.265,73.1245 C155.346,71.2425 156.129,68.9645 158.011,68.0455 L163.949,65.1455 C165.994,64.1465 167.528,62.4115 168.269,60.2585 L169.844,55.6745 L170.897,56.0375 L169.321,60.6215 C168.484,63.0545 166.75,65.0175 164.438,66.1465 L158.499,69.0465 C157.17,69.6955 156.616,71.3065 157.265,72.6355 L160.165,78.5745 C161.295,80.8865 161.456,83.5005 160.618,85.9345 L159.043,90.5185 Z" id="Fill-22" fill="#CEE8EF"></path>
                    <path d="M136.958,82.9267 L135.905,82.5647 L137.482,77.9797 C138.318,75.5467 140.053,73.5837 142.365,72.4547 L148.304,69.5547 C149.633,68.9057 150.187,67.2947 149.538,65.9657 L146.638,60.0277 C145.508,57.7157 145.347,55.1007 146.184,52.6667 L147.76,48.0827 L148.813,48.4447 L147.236,53.0287 C146.497,55.1817 146.64,57.4937 147.638,59.5387 L150.538,65.4767 C151.457,67.3587 150.674,69.6367 148.792,70.5557 L142.854,73.4557 C140.809,74.4547 139.274,76.1897 138.534,78.3427 L136.958,82.9267 Z" id="Fill-24" fill="#CEE8EF"></path>
                    <path d="M171.0459,57.2021 C170.9259,57.2021 170.8039,57.1821 170.6839,57.1411 L147.2489,49.0851 C146.6679,48.8851 146.3589,48.2511 146.5579,47.6691 C146.7579,47.0881 147.3889,46.7801 147.9739,46.9781 L171.4079,55.0351 C171.9889,55.2351 172.2989,55.8681 172.0999,56.4501 C171.9409,56.9121 171.5089,57.2021 171.0459,57.2021" id="Fill-26" fill="#B2CAD3"></path>
                    <path d="M159.1914,91.6836 C159.0714,91.6836 158.9494,91.6636 158.8294,91.6226 L135.3944,83.5666 C134.8134,83.3666 134.5044,82.7326 134.7034,82.1506 C134.9034,81.5696 135.5344,81.2606 136.1194,81.4596 L159.5534,89.5156 C160.1344,89.7166 160.4444,90.3496 160.2454,90.9316 C160.0864,91.3926 159.6544,91.6836 159.1914,91.6836" id="Fill-28" fill="#B2CAD3"></path>
                    <path d="M149.4717,57.2705 L153.8387,66.2155 C154.0407,66.6285 154.5397,66.8005 154.9527,66.5985 L163.8977,62.2305 C164.5647,61.9045 164.5047,60.9355 163.8027,60.6945 L150.4897,56.1185 C149.7877,55.8765 149.1457,56.6035 149.4717,57.2705" id="Fill-30" fill="#FFDD92"></path>
                    <path d="M145.4932,81.2597 L149.3072,79.3977 C149.7212,79.1957 150.2202,79.3667 150.4212,79.7807 L152.2842,83.5947 C152.6092,84.2607 151.9672,84.9887 151.2642,84.7467 L145.5882,82.7957 C144.8872,82.5547 144.8272,81.5857 145.4932,81.2597" id="Fill-32" fill="#FFDD92"></path>
                    <path d="M151.6983,77.0366 C151.5363,77.5096 151.0213,77.7606 150.5483,77.5986 C150.0763,77.4356 149.8253,76.9206 149.9873,76.4486 C150.1493,75.9756 150.6653,75.7246 151.1373,75.8866 C151.6093,76.0486 151.8613,76.5636 151.6983,77.0366" id="Fill-34" fill="#FFDD92"></path>
                    <path d="M152.9863,73.292 C152.8233,73.765 152.3083,74.016 151.8363,73.853 C151.3633,73.691 151.1123,73.176 151.2743,72.704 C151.4363,72.231 151.9523,71.98 152.4243,72.142 C152.8973,72.305 153.1483,72.819 152.9863,73.292" id="Fill-36" fill="#FFDD92"></path>
                    <path d="M154.2734,69.5473 C154.1104,70.0203 153.5954,70.2713 153.1234,70.1093 C152.6504,69.9463 152.3994,69.4313 152.5614,68.9593 C152.7244,68.4863 153.2394,68.2353 153.7124,68.3973 C154.1844,68.5603 154.4354,69.0743 154.2734,69.5473" id="Fill-38" fill="#FFDD92"></path>
                    <path d="M184.0889,106.914 L186.2529,129.23 C186.3699,130.44 185.4869,131.514 184.2769,131.631 L153.6969,134.597 C152.4879,134.714 151.4149,133.83 151.2979,132.621 L149.1329,110.304 C149.0159,109.095 149.8999,108.021 151.1089,107.904 L181.6889,104.938 C182.8979,104.821 183.9719,105.704 184.0889,106.914" id="Fill-40" fill="#CAD3DB"></path>
                    <path d="M184.5723,103.1015 L188.1543,125.2355 C188.3473,126.4345 187.5353,127.5625 186.3353,127.7555 L156.0063,132.6635 C154.8063,132.8575 153.6793,132.0445 153.4853,130.8445 L149.9043,108.7105 C149.7103,107.5115 150.5233,106.3835 151.7223,106.1905 L182.0513,101.2825 C183.2513,101.0885 184.3793,101.9015 184.5723,103.1015" id="Fill-42" fill="#D8E1EA"></path>
                    <path d="M184.5723,103.1015 L185.3673,108.0115 L150.6983,113.6225 L149.9043,108.7105 C149.7103,107.5115 150.5233,106.3835 151.7223,106.1905 L182.0513,101.2825 C183.2513,101.0885 184.3793,101.9015 184.5723,103.1015" id="Fill-44" fill="#00BE5A"></path>
                    <polygon id="Fill-46" fill="#FFFFFF" points="185.626 109.6084 150.957 115.2174 150.698 113.6224 185.367 108.0114"></polygon>
                    <path d="M160.709,107.4375 C160.941,108.8715 159.967,110.2215 158.533,110.4535 C157.1,110.6855 155.75,109.7105 155.518,108.2775 C155.286,106.8435 156.26,105.4945 157.693,105.2615 C159.127,105.0305 160.478,106.0035 160.709,107.4375" id="Fill-48" fill="#85D3A6"></path>
                    <path d="M179.1084,104.4609 C179.3404,105.8949 178.3664,107.2439 176.9324,107.4769 C175.4994,107.7079 174.1494,106.7339 173.9174,105.3009 C173.6844,103.8669 174.6594,102.5169 176.0924,102.2849 C177.5264,102.0529 178.8774,103.0269 179.1084,104.4609" id="Fill-50" fill="#85D3A6"></path>
                    <path d="M158.1113,109.6552 C157.2443,109.6552 156.4813,109.0272 156.3393,108.1442 L155.7163,104.2992 C155.5573,103.3192 156.2233,102.3962 157.2043,102.2372 C158.2003,102.0802 159.1073,102.7462 159.2653,103.7252 L159.8873,107.5702 C160.0473,108.5512 159.3813,109.4732 158.4003,109.6322 C158.3023,109.6482 158.2063,109.6552 158.1113,109.6552" id="Fill-52" fill="#00A251"></path>
                    <path d="M176.5108,106.6787 C175.6438,106.6787 174.8808,106.0507 174.7388,105.1677 L174.1158,101.3217 C173.9568,100.3417 174.6228,99.4187 175.6038,99.2597 C176.5958,99.1057 177.5068,99.7687 177.6648,100.7477 L178.2868,104.5937 C178.4468,105.5737 177.7808,106.4967 176.7998,106.6547 C176.7018,106.6717 176.6058,106.6787 176.5108,106.6787" id="Fill-54" fill="#00A251"></path>
                    <polygon id="Fill-56" fill="#A5BDD6" points="159.2383 119.6377 155.8663 120.1837 155.4023 117.3197 158.7753 116.7737"></polygon>
                    <polygon id="Fill-58" fill="#A5BDD6" points="182.5332 115.8681 179.1602 116.4141 178.6962 113.5501 182.0692 113.0041"></polygon>
                    <polygon id="Fill-60" fill="#A5BDD6" points="176.709 116.8105 173.336 117.3565 172.873 114.4925 176.246 113.9465"></polygon>
                    <polygon id="Fill-62" fill="#A5BDD6" points="170.8858 117.7529 167.5128 118.2989 167.0498 115.4349 170.4218 114.8889"></polygon>
                    <polygon id="Fill-64" fill="#A5BDD6" points="165.0625 118.6953 161.6895 119.2413 161.2255 116.3773 164.5985 115.8313"></polygon>
                    <polygon id="Fill-66" fill="#A5BDD6" points="159.9922 124.292 156.6192 124.838 156.1552 121.974 159.5282 121.428"></polygon>
                    <polygon id="Fill-68" fill="#A5BDD6" points="183.2861 120.5224 179.9131 121.0684 179.4491 118.2044 182.8221 117.6584"></polygon>
                    <polygon id="Fill-70" fill="#A5BDD6" points="177.4619 121.4648 174.0899 122.0108 173.6259 119.1468 176.9989 118.6008"></polygon>
                    <polygon id="Fill-72" fill="#A5BDD6" points="171.6387 122.4072 168.2657 122.9532 167.8027 120.0892 171.1757 119.5432"></polygon>
                    <polygon id="Fill-74" fill="#A5BDD6" points="165.8154 123.3496 162.4424 123.8956 161.9794 121.0316 165.3514 120.4856"></polygon>
                    <polygon id="Fill-76" fill="#A5BDD6" points="160.7451 128.9463 157.3721 129.4923 156.9081 126.6283 160.2811 126.0823"></polygon>
                    <polygon id="Fill-78" fill="#A5BDD6" points="184.0391 125.1767 180.6661 125.7227 180.2031 122.8587 183.5751 122.3127"></polygon>
                    <polygon id="Fill-80" fill="#A5BDD6" points="178.2158 126.1191 174.8428 126.6651 174.3788 123.8011 177.7518 123.2551"></polygon>
                    <polygon id="Fill-82" fill="#A5BDD6" points="172.3916 127.0615 169.0186 127.6075 168.5556 124.7435 171.9286 124.1975"></polygon>
                    <polygon id="Fill-84" fill="#A5BDD6" points="166.5684 128.0039 163.1954 128.5499 162.7324 125.6859 166.1044 125.1399"></polygon>
                    <path d="M20.1201,91.0854 C20.1201,94.9384 16.9971,98.0614 13.1441,98.0614 C9.2921,98.0614 6.1691,94.9384 6.1691,91.0854 C6.1691,87.2334 9.2921,84.1094 13.1441,84.1094 C16.9971,84.1094 20.1201,87.2334 20.1201,91.0854" id="Fill-86" fill="#C4CBD6"></path>
                    <path d="M44.708,46.1821 C43.697,46.1821 42.875,47.0041 42.875,48.0141 C42.875,49.0241 43.697,49.8461 44.708,49.8461 C45.718,49.8461 46.54,49.0241 46.54,48.0141 C46.54,47.0041 45.718,46.1821 44.708,46.1821 M44.708,51.8461 C42.595,51.8461 40.875,50.1271 40.875,48.0141 C40.875,45.9011 42.595,44.1821 44.708,44.1821 C46.821,44.1821 48.54,45.9011 48.54,48.0141 C48.54,50.1271 46.821,51.8461 44.708,51.8461" id="Fill-88" fill="#C4CBD6"></path>
                    <path d="M18.8438,52.3852 L9.6418,70.4072 C9.1318,71.4052 9.5288,72.6282 10.5268,73.1382 L45.2398,90.8632 C46.2378,91.3722 47.4608,90.9762 47.9698,89.9782 L57.1728,71.9562 C57.4428,71.4292 57.4538,70.8332 57.2628,70.3162 C57.0848,69.8602 56.7578,69.4652 56.2868,69.2252 L21.5738,51.5002 C21.1048,51.2612 20.5928,51.2272 20.1198,51.3502 C19.5878,51.4982 19.1138,51.8572 18.8438,52.3852" id="Fill-90" fill="#6F7475"></path>
                    <path d="M20.1201,51.3501 L28.8081,70.5111 C30.1701,73.5041 33.4241,75.1661 36.6471,74.5131 L57.2631,70.3161 C57.0851,69.8601 56.7581,69.4651 56.2871,69.2251 L21.5741,51.5001 C21.1041,51.2611 20.5931,51.2271 20.1201,51.3501" id="Fill-92" fill="#8A9596"></path>
                    <path d="M42.5674,39.9062 L48.0934,52.8922 C48.3994,53.6122 49.2314,53.9472 49.9514,53.6412 L74.9654,42.9962 C75.6834,42.6902 76.0194,41.8582 75.7134,41.1382 L70.1864,28.1522 C70.0244,27.7722 69.7124,27.4992 69.3484,27.3702 C69.0254,27.2612 68.6684,27.2602 68.3294,27.4042 L43.3154,38.0492 C42.9764,38.1932 42.7294,38.4522 42.5844,38.7602 C42.4254,39.1112 42.4054,39.5262 42.5674,39.9062" id="Fill-94" fill="#00A251"></path>
                    <path d="M42.584,38.7602 L56.724,42.6832 C58.935,43.2942 61.279,42.2962 62.373,40.2792 L69.349,27.3702 C69.025,27.2612 68.668,27.2592 68.329,27.4042 L43.315,38.0492 C42.977,38.1932 42.73,38.4522 42.584,38.7602" id="Fill-96" fill="#00BE5A"></path>
                    <path d="M64.2051,61.956 L62.9181,61.956 L62.9181,63.244 C62.9181,63.827 62.4461,64.298 61.8631,64.298 C61.2801,64.298 60.8091,63.827 60.8091,63.244 L60.8091,61.956 L59.5201,61.956 C58.9381,61.956 58.4671,61.484 58.4671,60.901 C58.4671,60.319 58.9381,59.847 59.5201,59.847 L60.8091,59.847 L60.8091,58.56 C60.8091,57.977 61.2801,57.505 61.8631,57.505 C62.4461,57.505 62.9181,57.977 62.9181,58.56 L62.9181,59.847 L64.2051,59.847 C64.7881,59.847 65.2601,60.319 65.2601,60.901 C65.2601,61.484 64.7881,61.956 64.2051,61.956" id="Fill-98" fill="#B5B5B5"></path>
                    <path d="M17.4463,164.9463 C11.6853,164.9463 6.9973,169.6333 6.9973,175.3983 C6.9973,181.1633 11.6853,185.8503 17.4463,185.8503 C23.2143,185.8503 27.9023,181.1633 27.9023,175.3983 C27.9023,169.6333 23.2143,164.9463 17.4463,164.9463 M17.4463,192.8483 C7.8243,192.8483 0.0003,185.0203 0.0003,175.3983 C0.0003,165.7763 7.8243,157.9483 17.4463,157.9483 C27.0683,157.9483 34.8993,165.7763 34.8993,175.3983 C34.8993,185.0203 27.0683,192.8483 17.4463,192.8483" id="Fill-100" fill="#F0F6F7"></path>
                    <path d="M4.2134,139.8818 C3.9374,139.8818 3.7134,139.6578 3.7134,139.3818 C3.7134,134.2618 4.2694,129.1558 5.3664,124.2048 C6.8524,117.5028 9.3214,111.0678 12.7054,105.0768 C12.8404,104.8368 13.1464,104.7508 13.3864,104.8878 C13.6274,105.0238 13.7124,105.3288 13.5764,105.5688 C10.2404,111.4728 7.8074,117.8158 6.3434,124.4218 C5.2614,129.3018 4.7134,134.3348 4.7134,139.3818 C4.7134,139.6578 4.4894,139.8818 4.2134,139.8818" id="Fill-102" fill="#C8CDCE"></path>
                    <path d="M6.499,157.6064 C6.278,157.6064 6.075,157.4584 6.016,157.2344 C5.49,155.2404 5.047,153.1924 4.7,151.1494 C4.654,150.8774 4.837,150.6194 5.11,150.5724 C5.379,150.5234 5.64,150.7104 5.687,150.9814 C6.028,152.9964 6.464,155.0134 6.983,156.9784 C7.053,157.2464 6.894,157.5194 6.627,157.5894 C6.585,157.6014 6.542,157.6064 6.499,157.6064" id="Fill-104" fill="#C8CDCE"></path>
                    <path d="M138.2793,139.3818 C138.2793,175.1328 109.2983,204.1138 73.5463,204.1138 C37.7953,204.1138 8.8133,175.1328 8.8133,139.3818 C8.8133,103.6308 37.7953,74.6488 73.5463,74.6488 C109.2983,74.6488 138.2793,103.6308 138.2793,139.3818" id="Fill-106" fill="#C8CDCE"></path>
                    <path d="M131.9834,139.3779 C131.9834,158.7019 122.6094,175.8289 108.1624,186.4669 C103.8604,189.6389 99.1064,192.2269 94.0234,194.1259 C91.7444,194.9879 89.4034,195.6969 87.0004,196.2619 C82.6774,197.2889 78.1804,197.8219 73.5494,197.8219 C67.5024,197.8219 61.6704,196.9089 56.1864,195.2039 C32.3854,187.8119 15.1054,165.6119 15.1054,139.3779 C15.1054,130.2499 17.2004,121.6249 20.9264,113.9349 C25.4964,104.4989 32.5304,96.4799 41.1954,90.7089 C43.2284,89.3539 45.3434,88.1219 47.5514,87.0329 C52.2954,84.6709 57.4194,82.9259 62.7984,81.9299 C66.2804,81.2829 69.8744,80.9439 73.5494,80.9439 C105.8214,80.9439 131.9834,107.1069 131.9834,139.3779" id="Fill-108" fill="#B5B5B5"></path>
                    <path d="M130.46,139.3789 C130.46,158.1979 121.329,174.8789 107.26,185.2379 C103.069,188.3279 98.44,190.8489 93.489,192.6979 C91.27,193.5379 88.989,194.2289 86.649,194.7779 C82.44,195.7779 78.06,196.2989 73.55,196.2989 C67.659,196.2989 61.98,195.4079 56.64,193.7479 C33.46,186.5489 16.63,164.9289 16.63,139.3789 C16.63,130.4879 18.67,122.0889 22.3,114.5989 C26.749,105.4079 33.6,97.5989 42.039,91.9789 C44.02,90.6579 46.079,89.4589 48.23,88.3989 C52.85,86.0989 57.84,84.3989 63.079,83.4279 C66.47,82.7979 69.97,82.4679 73.55,82.4679 C104.98,82.4679 130.46,107.9479 130.46,139.3789" id="Fill-110" fill="#EFF4F4"></path>
                    <path d="M73.5488,142.3828 C72.4678,142.3828 71.4228,141.7968 70.8878,140.7728 C70.1198,139.3038 70.6878,137.4908 72.1558,136.7238 L102.7138,120.7398 C104.1848,119.9698 105.9948,120.5388 106.7628,122.0078 C107.5308,123.4768 106.9628,125.2888 105.4948,126.0568 L74.9368,142.0398 C74.4918,142.2728 74.0168,142.3828 73.5488,142.3828" id="Fill-112" fill="#00BE5A"></path>
                    <path d="M85.2295,139.3818 C85.2295,145.8338 79.9995,151.0648 73.5455,151.0648 C67.0935,151.0648 61.8635,145.8338 61.8635,139.3818 C61.8635,132.9288 67.0935,127.6978 73.5455,127.6978 C79.9995,127.6978 85.2295,132.9288 85.2295,139.3818" id="Fill-114" fill="#6F7475"></path>
                    <path d="M73.5488,142.3818 C72.5428,142.3818 71.5608,141.8768 70.9928,140.9578 L46.9268,101.9738 C46.0568,100.5648 46.4938,98.7158 47.9038,97.8458 C49.3158,96.9738 51.1618,97.4128 52.0318,98.8228 L76.0988,137.8058 C76.9688,139.2158 76.5308,141.0648 75.1218,141.9348 C74.6308,142.2368 74.0858,142.3818 73.5488,142.3818" id="Fill-116" fill="#6F7475"></path>
                    <path d="M138.2793,139.3789 C138.2793,160.7379 127.9293,179.6879 111.9793,191.4789 L83.1783,78.1149 C82.9473,77.2009 82.8293,76.2609 82.8293,75.3179 C114.1793,79.8089 138.2793,106.7779 138.2793,139.3789" id="Fill-118" fill="#C8CDCE"></path>
                    <path d="M46.5664,207.249 L100.5224,207.249 C101.3884,207.249 102.0894,206.548 102.0894,205.682 C102.0894,204.816 101.3884,204.114 100.5224,204.114 L46.5664,204.114 C45.7004,204.114 44.9994,204.816 44.9994,205.682 C44.9994,206.548 45.7004,207.249 46.5664,207.249" id="Fill-120" fill="#E2E2E2"></path>
                    <path d="M122.458,209.583 L151.103,209.583 C151.968,209.583 152.67,208.881 152.67,208.016 C152.67,207.149 151.968,206.448 151.103,206.448 L122.458,206.448 C121.592,206.448 120.891,207.149 120.891,208.016 C120.891,208.881 121.592,209.583 122.458,209.583" id="Fill-122" fill="#E2E2E2"></path>
                    <polygon id="Fill-124" fill="#D6DDEA" points="131.9092 202.9218 130.5752 194.6278 134.3052 193.4998 134.8992 202.2888"></polygon>
                    <path d="M135.041,201.4013 C135.29,201.4363 135.526,201.5283 135.715,201.6843 C137.035,202.7803 141.047,204.7393 143.107,205.0373 C145.314,205.3553 145.427,206.4483 142.32,206.4483 C139.215,206.4483 136.938,206.1713 135.554,206.2063 C134.169,206.2413 134.528,206.4483 131.124,206.4483 C128.51,206.4483 129.328,203.1153 130.263,201.5653 C130.548,201.0933 130.931,200.8263 131.499,200.9073 L135.041,201.4013 Z" id="Fill-126" fill="#ED9558"></path>
                    <polygon id="Fill-128" fill="#D6DDEA" points="119.8984 195.1894 125.1054 188.5964 128.4594 190.5834 122.3864 196.9634"></polygon>
                    <path d="M123.1367,196.4677 C123.2787,196.6747 123.3707,196.9107 123.3827,197.1557 C123.4687,198.8687 124.7947,203.2457 126.3317,204.6487 C127.9167,206.0957 126.8947,206.4477 124.3417,205.2427 C121.5327,203.9177 120.9057,201.0907 119.9437,200.0947 C118.9817,199.0987 119.0727,199.5037 116.7697,196.9947 C115.0017,195.0707 118.0097,193.4187 119.7837,193.0597 C120.3237,192.9497 120.7807,193.0517 121.1047,193.5247 L123.1367,196.4677 Z" id="Fill-130" fill="#ED9558"></path>
                    <path d="M117.5977,55.3369 C117.5977,55.3369 116.5787,62.1289 118.5487,65.2529 C120.5187,68.3769 120.8017,68.8529 120.8017,68.8529" id="Fill-132" fill="#ED8C62"></path>
                    <path d="M122.6025,71.8886 C122.0425,72.2186 121.4135,72.3786 120.8025,72.3786 C119.6025,72.3786 118.4325,71.7686 117.7725,70.6586 C117.7325,70.6086 117.3825,70.0186 115.5625,67.1386 C114.2825,65.1086 113.8735,62.3386 113.8125,59.9086 C113.7325,57.5286 114.0025,55.4786 114.1025,54.8086 C114.3925,52.8786 116.2025,51.5486 118.1235,51.8486 C120.0525,52.1286 121.3825,53.9286 121.0925,55.8586 C120.9425,56.8786 120.8625,58.0486 120.8625,59.1686 C120.8625,60.3086 120.9425,61.3986 121.1325,62.2286 C121.2325,62.7086 121.3625,63.0986 121.5325,63.3686 C123.5425,66.5586 123.8325,67.0486 123.8325,67.0486 C124.8325,68.7186 124.2825,70.8886 122.6025,71.8886" id="Fill-134" fill="#FFAF84"></path>
                    <path d="M109.5625,110.7588 C110.3025,100.6288 106.8925,75.4588 105.1425,65.4388 C104.8825,63.9188 106.0525,62.5288 107.5925,62.5288 L128.4135,62.5288 C129.5325,62.5288 130.5225,63.2788 130.8125,64.3688 C133.1925,73.4588 134.7125,110.7588 134.7125,110.7588 L109.5625,110.7588 Z" id="Fill-136" fill="#E8E8E8"></path>
                    <path d="M143.9629,89.6484 C143.6119,87.7584 141.2929,82.8784 138.6829,77.7784 C135.9129,72.3684 132.8219,66.7084 131.3929,64.1384 C130.5929,62.6984 128.7819,62.1684 127.3329,62.9684 C125.8929,63.7684 125.3619,65.5884 126.1629,67.0284 C128.3619,70.9984 130.6329,75.2284 132.5929,79.0084 C134.8329,83.3184 137.0149,85.9864 137.8949,88.1064 C136.2699,89.5234 132.2699,89.6144 129.0699,89.4234 C128.1949,89.3214 124.8059,89.0814 122.5489,91.1534 C121.6659,91.9624 120.6369,93.4234 120.7419,95.7824 C120.8149,97.3854 121.0489,98.0464 122.4779,98.7424 C123.0559,99.0234 123.8369,99.1014 124.4779,99.0234 C126.1159,98.8234 126.2589,97.9294 126.2749,96.0074 C126.2849,94.6604 126.9779,93.2774 126.9779,93.2734 C126.9779,93.2734 131.8089,94.4564 135.8529,94.9604 C139.8969,95.4654 141.5229,94.6784 143.0029,93.0084 C143.8329,92.0784 144.1829,90.8584 143.9629,89.6484" id="Fill-138" fill="#FFAF84"></path>
                    <path d="M110.6582,127.1269 C110.6582,127.1269 107.5952,121.5109 109.5652,110.7589 L134.7112,110.7589 C134.7112,110.7589 135.0672,118.9419 134.4912,127.1269 L110.6582,127.1269 Z" id="Fill-140" fill="#278BD0"></path>
                    <path d="M138.6826,77.7783 L135.7526,78.3683 L132.5926,79.0083 C130.6326,75.2283 128.3626,70.9983 126.1626,67.0283 C125.3626,65.5883 125.8926,63.7683 127.3326,62.9683 C128.7826,62.1683 130.5926,62.6983 131.3926,64.1383 C132.8226,66.7083 135.9126,72.3683 138.6826,77.7783" id="Fill-142" fill="#ED8C62"></path>
                    <path d="M110.3623,64.8686 C109.9723,63.2686 108.3423,62.2886 106.7433,62.6886 C99.5323,64.4586 94.5223,66.0986 91.0323,67.5586 C83.0123,70.9386 83.0833,73.4386 83.1123,74.7286 C83.1513,76.1876 83.4353,79.0086 100.7403,85.3146 C100.7523,85.8116 100.1923,87.7936 99.8473,88.4306 C99.0613,89.8816 99.8793,91.2726 100.7403,92.6796 C101.0343,93.1586 101.6963,93.7426 102.5403,93.7426 C103.6013,93.7426 104.9223,92.3976 105.1033,91.2766 C105.7583,87.2426 105.6453,84.8716 105.4463,84.3986 C105.4453,84.3956 105.4443,84.3926 105.4423,84.3896 C105.4413,84.3866 105.4383,84.3796 105.4373,84.3766 C105.4203,84.3356 105.3923,84.3006 105.3743,84.2606 C105.3083,84.1256 105.2413,83.9916 105.1563,83.8666 C105.1043,83.7906 105.0413,83.7256 104.9823,83.6546 C104.9183,83.5766 104.8593,83.4946 104.7863,83.4226 C104.6713,83.3086 104.5443,83.2096 104.4133,83.1166 C104.3903,83.0996 104.3723,83.0796 104.3483,83.0646 C104.1443,82.9266 103.9253,82.8176 103.6943,82.7326 C97.8393,80.3236 92.3653,76.4266 89.9633,74.6986 C90.8023,74.2186 92.0033,73.6586 93.4723,73.0686 C97.1823,71.5786 102.6123,69.8586 108.1733,68.4886 C109.7723,68.0886 110.7533,66.4786 110.3623,64.8686" id="Fill-144" fill="#FFAF84"></path>
                    <path d="M139.1524,76.4785 L135.1424,77.2485 L131.9934,77.8485 L131.9824,77.8485 L129.3224,78.3585 C125.8924,71.6285 125.0724,70.0885 124.9424,67.7885 C124.8024,65.1885 125.5034,63.8985 127.1924,62.9685 C128.8824,62.0285 131.0124,62.6385 131.9524,64.3285 C131.9934,64.4085 135.6734,69.6385 139.1524,76.4785" id="Fill-146" fill="#E8E8E8"></path>
                    <path d="M150.1025,160.3984 C149.7325,162.8684 148.3925,165.5184 146.5225,168.7884 C143.3825,174.2384 138.5825,180.2684 134.2725,185.3384 C131.2725,188.8684 128.5225,191.9284 126.7525,194.0084 C125.9825,194.8984 125.4025,195.6084 125.0525,196.0984 L121.5025,191.4984 C122.8225,189.6384 124.0525,187.1284 125.5925,184.7884 C125.6325,184.7284 125.6725,184.6684 125.7125,184.6084 C128.6125,180.2384 131.6825,175.3084 134.1725,170.8284 C134.2725,170.6784 134.3525,170.5284 134.4325,170.3784 C137.0625,165.6384 139.0125,161.4384 139.3825,158.9784 C140.0425,154.5884 133.4935,140.9284 127.0125,128.8784 C126.2725,127.4984 125.5325,126.1384 124.8025,124.8184 C124.5525,124.3684 124.4135,123.8684 124.3825,123.3584 C124.1925,121.1384 125.8225,118.5884 127.8025,117.4984 C130.2325,116.1584 133.3735,115.4684 134.7125,117.8984 C137.4525,122.8684 151.7225,149.6584 150.1025,160.3984" id="Fill-148" fill="#278BD0"></path>
                    <path d="M134.2725,185.3388 C131.2725,188.8678 128.5225,191.9288 126.7525,194.0088 C126.4725,191.5488 126.1725,188.8788 125.8735,186.1788 C125.8125,185.6578 125.7625,185.1388 125.7125,184.6088 C128.6125,180.2378 131.6825,175.3088 134.1725,170.8278 C134.2825,175.2588 134.2925,180.4388 134.2725,185.3388" id="Fill-150" fill="#1870A0"></path>
                    <path d="M133.6231,161.748 C132.3921,151.688 123.9441,124.66 122.6341,121.68 C121.5231,119.14 115.4231,118.599 112.8731,119.719 C110.3331,120.828 109.1731,123.799 110.2931,126.339 C113.6831,134.068 123.3301,154.714 124.2901,162.023 C124.8511,166.394 125.6021,175.179 126.9821,182.668 C127.9521,187.898 128.9231,192.988 129.6431,196.688 C130.2631,199.898 130.2661,199.311 130.3251,199.631 L136.3521,198.711 C136.3521,198.711 135.0741,173.612 133.6231,161.748" id="Fill-152" fill="#278BD0"></path>
                    <path d="M108.1729,68.4882 C102.6119,69.8582 97.1829,71.5782 93.4729,73.0682 L91.0319,67.5582 C94.5229,66.0982 99.5319,64.4582 106.7429,62.6882 C108.3429,62.2882 109.9729,63.2682 110.3619,64.8682 C110.7529,66.4782 109.7729,68.0882 108.1729,68.4882" id="Fill-154" fill="#ED8C62"></path>
                    <path d="M106.7881,62.6035 C108.7021,62.3275 110.0811,63.2325 110.5951,65.0965 C111.1091,66.9585 109.8201,68.4225 108.1531,69.4015 C106.1021,70.6065 105.4131,70.8335 96.7811,73.8045 L91.9831,67.1485 C103.0171,62.8835 103.5851,63.0665 106.7881,62.6035" id="Fill-156" fill="#E8E8E8"></path>
                    <path d="M121.1328,62.2285 C120.9728,62.2385 120.8128,62.2385 120.6528,62.2385 C118.0828,62.2385 115.7018,61.3685 113.8128,59.9085 C113.7328,57.5285 114.0028,55.4785 114.1028,54.8085 C114.3928,52.8785 116.2018,51.5485 118.1228,51.8485 C120.0528,52.1285 121.3828,53.9285 121.0928,55.8585 C120.9428,56.8785 120.8628,58.0485 120.8628,59.1685 C120.8628,60.3085 120.9428,61.3985 121.1328,62.2285" id="Fill-158" fill="#ED8C62"></path>
                    <path d="M131.1377,49.6728 C129.7277,56.1488 126.1107,60.9018 119.9087,60.9018 C113.7067,60.9018 109.7897,56.2108 108.6797,49.6728 C107.6407,43.5588 113.7367,37.5648 119.9387,37.5648 C126.1397,37.5648 132.4567,43.6128 131.1377,49.6728" id="Fill-160" fill="#FFAF84"></path>
                    <path d="M131.9805,199.666 L131.9525,199.487 C130.2505,188.97 127.6815,173.075 126.3795,163.08 C125.4305,155.802 116.4235,134.161 113.0335,126.437 C113.0075,126.38 112.9905,126.321 112.9745,126.264 C112.9655,126.233 112.9575,126.203 112.9465,126.174 C112.3965,124.685 110.7255,119.156 112.3145,110.478 L112.8065,110.568 C111.2405,119.121 112.8755,124.542 113.4145,125.999 C113.4305,126.041 113.4435,126.085 113.4565,126.128 C113.4655,126.164 113.4745,126.2 113.4905,126.235 C116.8895,133.978 125.9185,155.679 126.8755,163.016 C128.1765,173.003 130.7455,188.893 132.4455,199.408 L132.4745,199.586 L131.9805,199.666 Z" id="Fill-162" fill="#5AB4E5"></path>
                    <path d="M123.9024,62.5283 C123.9024,64.0383 123.3024,66.5883 119.3224,66.5883 C116.4224,66.5883 112.7824,65.3583 111.4424,63.0283 L111.1524,62.5283 L123.9024,62.5283 Z" id="Fill-164" fill="#C8D6DB"></path>
                    <path d="M112.3106,62.5268 C113.3726,64.3778 116.5606,65.5858 119.3216,65.5858 C122.0826,65.5858 122.8996,64.2158 122.8996,62.5268 L112.3106,62.5268 Z" id="Fill-166" fill="#FFAF84"></path>
                    <path d="M127.4316,93.8984 C127.4306,93.8674 127.5816,92.1694 125.8296,89.6884 L127.4646,88.7174 C129.5396,91.7944 129.3316,94.0244 129.3316,94.1694 L127.4316,93.8984 Z" id="Fill-168" fill="#82AACE"></path>
                    <path d="M126.1367,88.7465 C127.0757,88.3105 128.3207,88.5145 128.9157,89.2005 C129.5127,89.8865 129.2347,90.7955 128.2957,91.2315 C127.3567,91.6675 126.1127,91.4645 125.5167,90.7775 C124.9197,90.0915 125.1987,89.1825 126.1367,88.7465" id="Fill-170" fill="#4E7CAF"></path>
                    <path d="M130.8525,41.3569 C127.4775,35.8989 119.1125,35.4399 117.4815,35.5239 C116.6205,35.5669 114.7725,36.0599 113.9505,37.3519 C113.8945,36.4489 113.9565,35.6699 113.9565,35.6699 C113.2195,36.5739 113.1005,37.3219 113.2375,37.9019 C112.7355,37.2389 112.3765,36.4979 112.3765,36.4979 C112.2295,37.4519 112.5035,37.9819 112.8655,38.2919 C110.5825,38.8249 107.6655,42.0549 108.6655,48.6799 C109.1015,51.5679 115.6095,49.3589 117.4565,46.4649 C118.6945,48.4479 121.1505,48.8659 121.1505,48.8659 C120.2865,48.0089 119.5525,46.7329 118.9645,45.4529 C122.4325,47.5759 127.0725,49.8609 127.6015,51.2739 C127.6015,51.2739 128.6015,49.0059 127.8515,47.5649 C127.8515,47.5649 130.6035,48.2499 130.9515,50.9999 C130.9515,50.9999 134.4665,47.2019 130.8525,41.3569" id="Fill-172" fill="#424344"></path>
                    <polygon id="Fill-174" fill="#5AB4E5" points="124.9951 127.5713 122.2471 110.5633 122.7411 110.4833 125.4891 127.4913"></polygon>
                    <path d="M124.7246,124.3408 L124.6476,123.8468 C124.6586,123.8448 125.7026,123.6718 126.2726,122.8838 C126.6066,122.4238 126.7176,121.8348 126.6046,121.1348 L124.8636,110.3588 L125.3576,110.2778 L127.0986,121.0548 C127.2336,121.8938 127.0906,122.6088 126.6746,123.1818 C125.9786,124.1378 124.7756,124.3328 124.7246,124.3408" id="Fill-176" fill="#5AB4E5"></path>
                    <path d="M108.2803,49.0258 C107.7873,50.1228 107.8403,51.3268 108.3223,52.3328 C108.8873,53.5108 110.5993,53.4458 111.1343,52.2528 L112.5893,49.0138 C113.1243,47.8218 112.0343,46.4988 110.7783,46.8598 C109.7073,47.1678 108.7723,47.9288 108.2803,49.0258" id="Fill-178" fill="#FFAF84"></path>
                </g>
            </g>
        </g>
    </g>
</svg>