<?xml version="1.0" encoding="UTF-8"?>
<svg width="276px" height="276px" viewBox="0 0 276 276" version="1.1" xmlns="http://www.w3.org/2000/svg" xmlns:xlink="http://www.w3.org/1999/xlink">
    <!-- Generator: sketchtool 52.6 (67491) - http://www.bohemiancoding.com/sketch -->
    <title>8790E1E5-8DA6-4C74-B899-F5BCF0FCA0C6</title>
    <desc>Created with sketchtool.</desc>
    <defs>
        <polygon id="path-1" points="0 267.063097 236.685612 267.063097 236.685612 0.255868836 0 0.255868836"></polygon>
    </defs>
    <g id="Desktop" stroke="none" stroke-width="1" fill="none" fill-rule="evenodd">
        <g id="RD-Gorgias" transform="translate(-891.000000, -179.000000)">
            <g id="Group-4" transform="translate(891.000000, 178.000000)">
                <circle id="Oval" fill="#F6F7F8" cx="138" cy="139" r="138"></circle>
                <g id="Group-80" transform="translate(30.000000, 0.000000)">
                    <polygon id="Fill-1" fill="#E3E6E9" points="102.849057 260.704682 235.211321 260.704682 235.211321 251.802579 102.849057 251.802579"></polygon>
                    <g id="Group-79" transform="translate(0.000000, 0.763268)">
                        <polygon id="Fill-2" fill="#C5CBD1" points="217.592441 233.007595 117.305971 233.007595 103.31491 251.697214 235.386788 251.697214"></polygon>
                        <path d="M194.367892,241.05387 C194.367892,244.261826 183.215994,246.862093 169.457096,246.862093 C155.69981,246.862093 144.547912,244.261826 144.547912,241.05387 C144.547912,237.845914 155.69981,235.245647 169.457096,235.245647 C183.215994,235.245647 194.367892,237.845914 194.367892,241.05387" id="Fill-4" fill="#E97C31"></path>
                        <path d="M194.367892,239.506503 C194.367892,242.714459 183.215994,245.314726 169.457096,245.314726 C155.69981,245.314726 144.547912,242.714459 144.547912,239.506503 C144.547912,236.298548 155.69981,233.698281 169.457096,233.698281 C183.215994,233.698281 194.367892,236.298548 194.367892,239.506503" id="Fill-6" fill="#ED9558"></path>
                        <mask id="mask-2" fill="white">
                            <use xlink:href="#path-1"></use>
                        </mask>
                        <g id="Clip-9"></g>
                        <polygon id="Fill-8" fill="#ED9558" mask="url(#mask-2)" points="166.170857 236.601912 170.61098 236.601912 170.61098 75.1262885 166.170857 75.1262885"></polygon>
                        <polygon id="Fill-10" fill="#E97C31" mask="url(#mask-2)" points="168.943918 237.710144 170.61098 237.710144 170.61098 75.1262885 168.943918 75.1262885"></polygon>
                        <polygon id="Fill-11" fill="#ED9558" mask="url(#mask-2)" points="165.466629 15.9678145 166.81769 10.9096075 184.244445 10.9096075 184.850649 13.8648925 177.298894 27.5170941 163.976914 28.7036858"></polygon>
                        <polygon id="Fill-12" fill="#F6F7F8" mask="url(#mask-2)" points="159.910188 23.7935629 165.130637 18.7865296 170.817024 23.1235063 183.737555 17.7854428 186.365514 17.06901 193.3288 30.5884796 166.573596 90.087579 158.59782 83.4781671"></polygon>
                        <path d="M181.558122,23.8917525 C181.558122,23.8917525 177.917673,37.7694385 173.238939,43.097907 C168.558592,48.4279747 160.673102,48.2568624 160.673102,48.2568624 L162.925408,75.9354737 L173.845143,76.4504097 L188.750347,21.7008756 L181.558122,23.8917525 Z" id="Fill-13" fill="#E5E8EB" mask="url(#mask-2)"></path>
                        <path d="M152.641059,118.728257 C152.641059,118.728257 155.971957,124.8867 166.270978,125.487992 C176.568386,126.089284 186.499814,118.728257 186.499814,118.728257 L172.176631,88.5357345 L152.641059,118.728257 Z" id="Fill-14" fill="#FFFFFF" mask="url(#mask-2)"></path>
                        <path d="M163.952247,19.6229008 C163.952247,19.6229008 156.985737,24.7306825 152.139329,26.5329586 C147.294533,28.3352347 145.068022,29.0868494 145.068022,29.0868494 C145.068022,29.0868494 152.593982,75.6517791 152.897084,79.8576231 C153.200186,84.0650662 146.83988,122.8196 146.83988,122.8196 C146.83988,122.8196 152.897084,126.123506 157.591941,121.917662 C162.286798,117.711818 165.466145,104.79364 165.466145,104.79364 L165.466145,72.9491645 C165.466145,72.9491645 159.712043,29.8368649 163.952247,19.6229008" id="Fill-15" fill="#2C3E4F" mask="url(#mask-2)"></path>
                        <path d="M186.365353,17.0693299 C186.365353,17.0693299 188.480618,20.6738821 195.144027,23.6787417 C201.807435,26.6836013 204.653047,26.8099366 204.653047,26.8099366 L194.840924,54.622879 C194.840924,54.622879 193.615618,73.1717704 193.328639,83.2418083 C192.925578,97.3753631 195.300414,121.016044 195.300414,121.016044 C195.300414,121.016044 179.095741,127.476732 174.552435,122.669597 C170.009129,117.862461 166.223578,110.952403 165.465822,101.039085 C164.70968,91.1241676 165.465822,72.9478852 165.465822,72.9478852 C165.465822,72.9478852 186.516904,19.7735436 186.365353,17.0693299" id="Fill-16" fill="#2C3E4F" mask="url(#mask-2)"></path>
                        <polygon id="Fill-17" fill="#2C3E4F" mask="url(#mask-2)" points="145.0677 29.0873291 129.424088 116.960683 138.492965 119.087593 154.486435 55.0740077"></polygon>
                        <path d="M204.230155,26.8323251 C207.374033,26.2662153 208.339767,34.2797074 209.09591,38.8933423 C209.853665,43.5053781 220.591216,120.414753 220.591216,120.414753 L210.367971,121.710088 C210.367971,121.710088 195.749747,58.2274312 195.598196,48.9138056 C195.446645,39.60018 197.566747,28.0333095 204.230155,26.8323251" id="Fill-18" fill="#2C3E4F" mask="url(#mask-2)"></path>
                        <path d="M171.423229,22.8775524 C171.423229,22.8775524 171.927861,22.0763631 173.644902,24.3791826 C175.360331,26.6836013 176.471167,27.9341603 176.471167,27.9341603 C176.471167,27.9341603 183.411882,24.639849 185.166004,21.2799714 C186.920127,17.9200937 184.851616,13.8645727 184.851616,13.8645727 C184.851616,13.8645727 184.901596,15.5165259 182.528371,17.3699757 C180.156759,19.2218264 171.423229,22.8775524 171.423229,22.8775524" id="Fill-19" fill="#FFFFFF" mask="url(#mask-2)"></path>
                        <path d="M165.466629,15.9678145 C165.466629,15.9678145 165.011976,17.1192243 166.930547,19.3724692 C168.849118,21.6257141 170.216302,22.6651813 170.216302,22.6651813 C170.216302,22.6651813 169.100629,22.3773288 167.485159,23.6790615 C165.86969,24.9807942 164.154261,27.4339367 164.154261,27.4339367 C164.154261,27.4339367 162.941853,21.6257141 163.952731,19.6235405 C164.961996,17.6197677 165.466629,15.9678145 165.466629,15.9678145" id="Fill-20" fill="#FFFFFF" mask="url(#mask-2)"></path>
                        <path d="M169.92368,22.8737144 C169.92368,22.8737144 165.841476,19.9088343 164.582312,20.6236678 C163.900333,21.0106694 164.2647,22.3459849 164.074455,23.6557135 C163.872924,25.0406036 163.153863,26.4095019 163.750394,26.9836076 C164.782231,27.9766985 169.42872,26.0816699 169.42872,26.0816699 L169.92368,22.8737144 Z" id="Fill-21" fill="#278BD0" mask="url(#mask-2)"></path>
                        <path d="M177.690831,21.1996925 C176.438116,20.1842131 171.47079,22.9747826 171.47079,22.9747826 L171.47079,25.968448 C171.47079,25.968448 175.789994,29.1700068 177.105586,28.3864084 C177.881076,27.9242454 177.332912,26.1683455 177.463504,24.6395292 C177.595708,23.0931219 178.398606,21.7737982 177.690831,21.1996925" id="Fill-22" fill="#278BD0" mask="url(#mask-2)"></path>
                        <path d="M170.541976,26.6022031 C169.613322,26.5382359 168.907159,25.732249 168.973261,24.8127204 L169.036139,23.9203778 C169.100629,22.99925 169.911588,22.2988091 170.840241,22.3627763 C171.767282,22.4267435 172.473445,23.2327303 172.408955,24.1538582 L172.346078,25.0462007 C172.281588,25.9657293 171.469016,26.6661703 170.541976,26.6022031" id="Fill-23" fill="#278BD0" mask="url(#mask-2)"></path>
                        <path d="M146.417471,36.0421639 L151.26388,69.9367887 L138.493288,119.087593 L134.520716,118.115291 C134.520716,118.115291 145.15992,78.5483742 146.027308,68.2160708 C146.893084,57.8837674 146.417471,36.0421639 146.417471,36.0421639" id="Fill-24" fill="#1F3245" mask="url(#mask-2)"></path>
                        <path d="M165.466629,72.9485248 C165.787465,72.1361413 188.750669,37.9840485 188.750669,37.9840485 L186.499976,34.1156315 L190.527363,31.6656874 L193.113404,22.6750962" id="Stroke-25" stroke="#727983" stroke-width="0.323" mask="url(#mask-2)"></path>
                        <polyline id="Stroke-26" stroke="#727983" stroke-width="0.323" mask="url(#mask-2)" points="165.130153 71.838214 156.07901 36.0421639 158.597337 33.1268584 156.07901 30.5489799 156.403071 24.4832893"></polyline>
                        <path d="M168.249847,77.0528209 C168.249847,77.9067831 167.551745,78.6008273 166.689194,78.6008273 C165.828255,78.6008273 165.130153,77.9067831 165.130153,77.0528209 C165.130153,76.1988586 165.828255,75.5048144 166.689194,75.5048144 C167.551745,75.5048144 168.249847,76.1988586 168.249847,77.0528209" id="Fill-27" fill="#1F3245" mask="url(#mask-2)"></path>
                        <path d="M168.249847,86.9882078 C168.249847,87.84217 167.551745,88.5362142 166.689194,88.5362142 C165.828255,88.5362142 165.130153,87.84217 165.130153,86.9882078 C165.130153,86.1342455 165.828255,85.4402013 166.689194,85.4402013 C167.551745,85.4402013 168.249847,86.1342455 168.249847,86.9882078" id="Fill-28" fill="#1F3245" mask="url(#mask-2)"></path>
                        <path d="M184.309741,10.9100872 C184.309741,11.5801437 180.408108,12.123865 175.597169,12.123865 C170.784618,12.123865 166.882986,11.5801437 166.882986,10.9100872 C166.882986,10.2400307 170.784618,9.69630944 175.597169,9.69630944 C180.408108,9.69630944 184.309741,10.2400307 184.309741,10.9100872" id="Fill-29" fill="#F1AC7C" mask="url(#mask-2)"></path>
                        <path d="M169.382127,219.315414 L167.128208,219.315414 C165.770698,219.315414 164.658249,218.213579 164.658249,216.86547 C164.658249,215.517361 165.770698,214.415525 167.128208,214.415525 L169.382127,214.415525 C170.741249,214.415525 171.852086,215.517361 171.852086,216.86547 C171.852086,218.213579 170.741249,219.315414 169.382127,219.315414" id="Fill-30" fill="#ED9558" mask="url(#mask-2)"></path>
                        <path d="M168.25549,218.112031 C166.277265,218.112031 164.658571,219.717607 164.658571,221.679802 L164.658571,234.83146 C164.658571,236.793654 166.277265,238.399231 168.25549,238.399231 C170.233714,238.399231 171.852408,236.793654 171.852408,234.83146 L171.852408,221.679802 C171.852408,219.717607 170.233714,218.112031 168.25549,218.112031" id="Fill-31" fill="#ED9558" mask="url(#mask-2)"></path>
                        <polygon id="Fill-32" fill="#E3E6E9" mask="url(#mask-2)" points="1.56274898 258.567292 4.04399388 252.109802 10.8025245 253.828921 7.85695306 259.416457 2.91703469 260.40475"></polygon>
                        <polygon id="Fill-33" fill="#E3E6E9" mask="url(#mask-2)" points="57.1889061 256.343152 56.9535184 259.411979 64.3166408 259.674245 64.6632735 258.426884 64.9663755 255.591538"></polygon>
                        <path d="M74.9827694,119.602049 L75.6260551,135.118895 C75.6260551,135.118895 73.1689939,185.107669 71.9243408,201.436899 C70.8409122,215.661607 66.8312592,257.334644 66.8312592,257.334644 L56.5612592,257.334644 C56.5612592,257.334644 55.1505449,235.744112 55.4681571,228.555797 C55.8244633,220.524714 57.2093816,204.489734 57.2964429,196.450655 C57.3657694,190.097112 57.5511776,177.404418 57.4431571,171.052474 C57.3351367,164.764498 57.1271571,145.953341 57.1271571,145.953341 L60.2371776,120.035427 L74.9827694,119.602049 Z" id="Fill-34" fill="#278BD0" mask="url(#mask-2)"></path>
                        <path d="M63.6333714,145.477425 L54.0727592,146.176267 C54.0727592,146.176267 40.8813714,183.817771 36.0655959,196.278583 C30.1405959,211.606725 11.1096571,257.333685 11.1096571,257.333685 L1.84569796,255.357098 C1.84569796,255.357098 17.6747184,204.8278 22.3728,188.468187 C25.6408204,177.08842 33.7133306,144.397978 33.7133306,144.397978 L35.8076367,135.201093 L40.7798,118.478465 L60.9828408,120.483837 L63.6333714,145.477425 Z" id="Fill-35" fill="#278BD0" mask="url(#mask-2)"></path>
                        <path d="M59.4492735,120.332235 C59.4492735,120.332235 60.9921918,134.341054 59.4492735,138.123115 C57.9063551,141.905176 55.5669878,141.991532 55.5669878,141.991532" id="Stroke-36" stroke="#44AAE2" stroke-width="0.323" mask="url(#mask-2)"></path>
                        <path d="M56.8966061,120.078605 L55.5665041,146.245991 C55.5665041,146.245991 58.1428714,145.519963 59.2472592,146.808902 C60.3516469,148.097842 60.417749,189.874826 60.0920755,196.321121 C59.766402,202.769016 57.9155449,232.811215 59.2472592,255.182148" id="Stroke-37" stroke="#44AAE2" stroke-width="0.323" mask="url(#mask-2)"></path>
                        <path d="M45.1823571,120.078605 C45.1823571,120.078605 45.056602,129.269094 39.6523571,145.000229 C37.4838878,151.312194 32.988949,171.009297 26.5319082,191.637122 C16.8971327,222.418143 4.79239796,255.986535 4.79239796,255.986535" id="Stroke-38" stroke="#44AAE2" stroke-width="0.323" mask="url(#mask-2)"></path>
                        <polygon id="Fill-39" fill="#FFFFFF" mask="url(#mask-2)" points="63.2859327 62.1925986 49.3174429 61.5849101 42.2735449 61.6744642 34.6282796 74.1864503 37.3755449 115.427709 72.9642388 118.907525 68.7143612 79.2766409"></polygon>
                        <path d="M42.6714469,68.2165506 C42.6714469,68.2165506 34.8407735,94.8157152 44.402998,105.954005 C47.5904061,109.667302 63.8950388,113.092746 71.2162429,107.538793 C78.5100388,102.002431 72.9655286,123.570575 72.9655286,123.570575 C72.9655286,123.570575 57.3170796,127.360632 43.8628959,123.647335 C39.8226102,122.531108 42.6714469,68.2165506 42.6714469,68.2165506" id="Fill-40" fill="#F6F7F8" mask="url(#mask-2)"></path>
                        <path d="M93.653049,80.3273023 L65.0921306,62.1366273 L62.7898449,62.1366273 L72.2456612,139.14675 L82.2190082,138.943654 L72.8808857,78.8800442 L97.6111102,95.888925 C98.5123551,96.2743275 100.553457,95.6922259 101.364416,94.3393194 C97.1919265,92.3995138 93.8013755,85.204802 93.653049,80.3273023" id="Fill-41" fill="#8BD5A4" mask="url(#mask-2)"></path>
                        <path d="M36.6682531,135.598009 L43.863702,118.982527 L43.8121102,61.5671592 L41.4485592,61.5847502 C41.4485592,61.5847502 37.0229469,72.0753724 34.2337633,76.1948607 L34.4191714,76.0429386 L24.9875388,134.225913 L36.6682531,135.598009 Z" id="Fill-42" fill="#8BD5A4" mask="url(#mask-2)"></path>
                        <path d="M34.418849,76.042139 C34.4736653,73.6897449 37.1870735,73.6129842 37.1870735,73.6129842 C36.2987265,76.2404373 35.0040939,78.402529 34.9041347,86.6127202 C34.6284408,109.154765 43.8633796,118.983326 43.8633796,118.983326 L36.4260939,139.14739 L24.9872163,134.225113 L34.418849,76.042139 Z" id="Fill-43" fill="#6DCA8C" mask="url(#mask-2)"></path>
                        <path d="M43.5109429,38.0648071 C46.0405551,38.4470111 48.1848408,41.3367298 49.4859224,44.1017124 C45.822902,33.9213311 52.6040041,27.2431545 60.0799837,22.0346245 C59.8687796,23.0021286 68.6635755,32.9730172 68.6635755,32.9730172 L66.7949837,34.6825409 L68.6716367,38.152762 L63.8735959,39.4273086 L69.0601878,39.3537463 L71.2834735,47.3096679 C71.2834735,47.3096679 61.3278612,52.2255479 60.1251265,54.8322117 C58.9223918,57.4388755 60.5878408,62.0828948 60.5878408,62.0828948 C60.5878408,62.0828948 59.1561673,67.0931265 53.9324939,66.8196666 C49.9228408,66.6117732 46.4516776,61.5679588 46.4516776,61.5679588 C46.4516776,61.5679588 47.2835959,48.8768646 42.0905551,38.4150275 C42.4275143,38.1111833 42.8821673,37.9704554 43.5109429,38.0648071" id="Fill-44" fill="#FCBAA2" mask="url(#mask-2)"></path>
                        <path d="M62.1618755,7.99973914 C62.0071,7.21294247 61.8136306,6.43414171 61.5959776,5.66493602 C61.2622429,4.92771394 60.9268959,4.19688857 60.499651,3.51084026 C60.6528143,4.29923611 60.8124265,5.07323934 60.9188347,5.85683764 C61.1413245,6.60685317 61.3251204,7.36646377 61.4766714,8.13087192 C61.7668755,9.66288657 61.9329367,11.2140914 61.7813857,12.7557011 C61.6556306,14.3037076 61.3460796,15.8501149 60.9978347,17.3805303 C60.8446714,18.0281983 60.6786102,18.6742671 60.5044878,19.3187368 C60.6560388,18.0218016 60.8043653,16.3170755 60.9204469,14.076624 C61.3299571,6.17187615 53.803998,0.256508508 53.803998,0.256508508 C53.803998,0.256508508 53.9571612,1.87168053 51.8241612,7.92457767 C49.6911612,13.9758756 35.5856306,27.3818034 35.5856306,27.3818034 C35.5856306,27.3818034 37.4284265,28.4564525 41.6702429,37.4630356 C41.8137327,37.768479 41.953998,38.088315 42.0910388,38.4145478 C42.427998,38.1107035 42.882651,37.9699757 43.5114265,38.0643273 C46.0410388,38.4465314 48.1853245,41.3378492 49.4864061,44.1012327 C45.8217735,33.9208514 52.6044878,27.2426748 60.0804673,22.0341448 C60.4561204,21.3225096 60.7640592,20.5852875 61.0897327,19.8496646 C61.3009367,19.0820581 61.4960184,18.3112532 61.678202,17.5356508 C62.0312837,15.9828468 62.3456714,14.4172494 62.4778755,12.8116724 C62.6358755,11.1980996 62.4617531,9.57013412 62.1618755,7.99973914" id="Fill-45" fill="#2C3E4F" mask="url(#mask-2)"></path>
                        <path d="M37.5757857,35.0218869 C37.4532551,35.013891 37.3371735,34.9403288 37.2823571,34.8219894 C35.9135612,31.8683035 34.0014388,29.565484 33.9837041,29.5430955 C33.8595612,29.3959709 33.8805204,29.1768832 34.0288469,29.0553455 C34.1771735,28.9338078 34.3964388,28.9545972 34.5205816,29.1017218 C34.6011939,29.1976726 36.5100918,31.4972937 37.9175816,34.5309386 C37.9965816,34.7052493 37.9208061,34.9115435 37.7450714,34.9915025 C37.6902551,35.0154902 37.6322143,35.0250853 37.5757857,35.0218869" id="Fill-46" fill="#2C3E4F" mask="url(#mask-2)"></path>
                        <path d="M62.1351122,32.8300505 C61.7385,33.1482874 60.9968673,32.8892202 60.4793367,32.2543457 C59.9601939,31.6178719 59.8634592,30.8438687 60.2600714,30.5256318 C60.6566837,30.2089941 61.3983163,30.4664622 61.9158469,31.1029359 C62.4349898,31.7394096 62.5317245,32.5118137 62.1351122,32.8300505" id="Fill-47" fill="#2C3E4F" mask="url(#mask-2)"></path>
                        <path d="M62.6352306,38.4124688 C61.874251,39.4279483 60.057251,39.3687786 58.575598,38.2781377 C57.0939449,37.1874968 56.5103122,35.4795723 57.2712918,34.4624937 C58.0306592,33.4470143 59.8476592,33.5077831 61.3293122,34.598424 C62.8109653,35.6890649 63.3962102,37.3969894 62.6352306,38.4124688" id="Fill-48" fill="#FCA889" mask="url(#mask-2)"></path>
                        <path d="M56.4276041,52.7408038 C52.3502367,52.4305628 50.9637061,48.1383631 50.9637061,48.1383631 L50.9637061,48.1399623 C50.3026857,45.8195518 49.5207469,44.0812429 48.8339306,42.8418782 C48.783951,42.7539233 48.7355837,42.6643692 48.6839918,42.5780135 C48.6743184,42.5620217 48.6662571,42.5460299 48.6565837,42.5300381 C48.2003184,41.757634 46.9975837,38.6632203 46.4284612,38.012354 L43.4167878,38.0587302 C42.8396041,37.9915646 42.4107469,38.1258958 42.0899102,38.4153474 C47.2845633,48.8771844 46.4526449,61.5666794 46.4526449,61.5666794 C46.4526449,61.5666794 49.9238082,66.6104939 53.9334612,66.8199865 C55.3554612,66.8935488 56.4872571,66.5705144 57.394951,66.069971 C57.1837469,65.9164497 56.9241755,65.7805193 56.6017265,65.6701759 C55.7681959,65.3839226 55.1345837,64.8226104 54.6186653,64.0598014 C54.5154816,63.7063826 53.2385837,59.1423222 55.4538082,57.2121117 C57.2176041,55.6737003 59.6230735,54.5254889 60.6565224,54.0713217 C61.8802163,52.6944276 64.6226449,50.9609162 67.0168286,49.5936171 C63.4279714,51.4038891 58.8540327,52.9263087 56.4276041,52.7408038" id="Fill-49" fill="#FCB399" mask="url(#mask-2)"></path>
                        <path d="M48.1824224,30.6187041 C46.2928714,30.1181607 40.0728306,22.9122546 40.0728306,22.9122546 C37.5254837,25.5381086 35.5859531,27.3819634 35.5859531,27.3819634 C35.5859531,27.3819634 37.428749,28.4566125 41.6689531,37.4615963 C41.8140551,37.7686389 41.9543204,38.0884749 42.0913612,38.4147077 C42.4283204,38.1108635 42.8813612,37.9701356 43.5101367,38.0644872 C46.039749,38.4466913 48.1856469,41.3380091 49.4867286,44.1013926 C47.5762184,38.7937134 48.5080959,34.4407449 50.8942184,30.7482377 C50.1122796,30.8377918 49.1094633,30.8633787 48.1824224,30.6187041" id="Fill-50" fill="#1F3245" mask="url(#mask-2)"></path>
                        <path d="M40.5594061,43.5040988 C41.5090184,45.6422027 43.5017531,46.8399887 45.0108143,46.1811265 C46.5198755,45.520665 46.9729163,43.2546266 46.0233041,41.1165227 C45.0736918,38.9784187 43.0793449,37.7806327 41.5718959,38.439495 C40.0628347,39.0983572 39.6097939,41.3659948 40.5594061,43.5040988" id="Fill-51" fill="#FCB399" mask="url(#mask-2)"></path>
                        <path d="M41.9115959,42.79934 C41.9857592,43.5013802 42.5468204,44.1218621 43.4109837,44.2929744 C44.4025143,44.4896735 45.1570449,43.9043736 45.3069837,43.3558548 C45.4553102,42.8073359 45.2054122,41.7134967 44.3928408,40.5812771 C43.8753102,39.8584476 43.0740245,39.2251722 43.0740245,39.2251722 C43.0740245,39.2251722 43.8962694,40.2630402 44.1090857,40.9314975 C44.3509224,41.6863106 44.1671265,41.8286376 44.1671265,41.8286376 C44.1671265,41.8286376 43.6141265,41.3904623 43.0288816,41.4208467 C42.4420245,41.4512311 41.8213102,41.9501753 41.9115959,42.79934" id="Fill-52" fill="#F29C81" mask="url(#mask-2)"></path>
                        <path d="M85.7686878,53.8781408 C84.5208102,51.0811746 82.2749531,49.0678067 79.7759735,46.6802306 C78.1153612,45.0922446 75.7743816,45.6359659 74.5297286,45.8790413 C73.1254633,46.1541003 69.0787286,46.5650896 69.3237898,48.18346 C69.4672796,49.1365714 69.9283816,49.3508616 70.4039939,49.2900927 C69.8429327,49.6770943 69.667198,49.9553517 69.8300347,50.5358541 C69.963851,51.0092115 70.5394224,51.2155057 70.9134633,51.3418409 C70.4797694,51.6057057 70.1992388,51.9511286 70.2846878,52.4036966 C70.3701367,52.8578638 70.8344633,53.116931 71.4342184,53.2624564 C70.9795653,53.4447629 70.7006469,53.7054293 70.766749,54.0796375 C71.0472796,55.6788177 76.0162184,55.0647325 76.5015041,55.0007653 C77.8396673,56.622334 79.516402,58.325461 81.023851,58.8659839 C83.3986878,59.7183469 86.6296265,59.0850716 86.6296265,59.0850716 C87.4196265,57.6074291 86.2426878,54.9383973 85.7686878,53.8781408" id="Fill-53" fill="#FCBAA2" mask="url(#mask-2)"></path>
                        <path d="M65.8176408,78.0096104 L70.8559061,77.1764375 C70.8559061,77.1764375 73.5644776,85.0300116 70.170702,85.8615853 C66.7769265,86.6947582 65.8176408,78.0096104 65.8176408,78.0096104" id="Fill-54" fill="#A7DFBA" mask="url(#mask-2)"></path>
                        <polygon id="Fill-55" fill="#6DCA8C" mask="url(#mask-2)" points="37.1872347 73.6131441 13.9193163 95.9313033 35.3089694 77.5647185"></polygon>
                        <polygon id="Fill-56" fill="#6DCA8C" mask="url(#mask-2)" points="72.8810469 78.880524 71.8798429 73.1746489 97.6112714 95.8894048"></polygon>
                        <polygon id="Fill-57" fill="#6DCA8C" mask="url(#mask-2)" points="62.7904898 62.1361475 72.2463061 139.147869 70.9855306 138.023646"></polygon>
                        <path d="M51.7116265,121.581354 C51.1102592,119.305721 40.5823,120.792959 39.1651367,119.587177 C38.4670347,118.992282 40.0937898,117.984798 40.4694429,117.661764 C41.3352184,116.913347 42.5524633,115.587627 41.6383204,114.474598 C40.7918918,113.446325 39.5956061,115.870682 38.9281367,116.216105 C37.6963816,116.854178 34.0946265,119.505619 34.0946265,119.505619 L32.6242592,121.259919 C31.6391776,122.801529 29.3691367,122.91667 30.1365653,124.600607 C31.740749,128.1252 36.5387898,128.35868 38.5041163,128.830438 C39.9696469,129.182258 47.2392592,130.997328 47.784198,129.681202 C48.2066061,128.667322 42.6556469,128.107609 42.9539122,127.445548 C43.2973204,126.682739 51.2182796,128.318701 51.6987286,126.786686 C52.3033204,124.856476 43.6858714,125.84317 43.7987286,124.957224 C43.9357694,123.871381 52.8031163,126.188593 52.820851,124.49666 C52.8450347,122.356957 44.3114224,123.40442 44.3323816,122.473697 C44.3533408,121.542974 52.2307694,123.545148 51.7116265,121.581354" id="Fill-58" fill="#FCB297" mask="url(#mask-2)"></path>
                        <path d="M13.9189939,95.9321029 L34.6282796,77.8741598 C37.6157694,73.8953995 40.5290959,66.3360745 41.4722592,61.5849101 L3.57644286,92.2300007 C1.40636122,93.5141424 1.24674898,96.5733742 3.27172857,98.0734052 L30.3155245,125.278659 L34.4106265,119.273737 L13.9189939,95.9321029 Z" id="Fill-59" fill="#8BD5A4" mask="url(#mask-2)"></path>
                        <polygon id="Fill-60" fill="#6DCA8C" mask="url(#mask-2)" points="31.6243449 115.75826 26.7489163 121.360188 26.1926918 120.749301 31.1713041 115.185753"></polygon>
                        <path d="M64.6634347,258.427684 C64.6634347,258.427684 68.0459245,260.186782 72.1200673,261.131898 C76.192598,262.077013 86.7657,262.33608 87.0252714,263.281196 C87.2848429,264.226311 87.0252714,265.601606 87.0252714,265.601606 L56.9536796,265.601606 C56.9536796,265.601606 56.0089041,260.477833 56.9536796,259.412779 L64.1426796,259.459155 L64.6634347,258.427684 Z" id="Fill-61" fill="#D68158" mask="url(#mask-2)"></path>
                        <path d="M9.33264082,258.632699 C9.0698449,263.433438 16.3088245,264.312987 16.5683959,265.258102 C16.8295796,266.203218 16.5683959,267.063577 16.5683959,267.063577 L2.31131429,267.063577 L-0.000644897959,263.842828 L1.56323265,258.567132 C1.56323265,258.567132 2.34194694,259.657773 2.95943673,259.147635 C4.4878449,257.884282 9.42615102,256.916778 9.33264082,258.632699" id="Fill-62" fill="#D68158" mask="url(#mask-2)"></path>
                        <path d="M86.4576,55.8699197 L79.7861306,58.4206122 L88.3165184,82.7073622 L87.8779878,82.7265524 C90.8364571,86.6253538 96.8275592,95.1425876 101.364416,94.3397992 C102.293069,92.9868927 100.982314,90.4346011 100.919437,90.2458978 L86.4576,55.8699197 Z" id="Fill-63" fill="#8BD5A4" mask="url(#mask-2)"></path>
                        <path d="M88.877902,61.8254268 C88.4087388,62.3195735 86.6433306,63.3366521 85.2035959,63.9363447 C83.5333102,64.6335873 81.9645959,64.5728184 81.9645959,64.5728184 L82.1999837,65.2412758 C82.8432694,65.3804044 84.3265347,64.9790102 85.6985551,64.427293 C87.8960449,63.5429464 89.1584327,62.4842891 89.1584327,62.4842891 L88.877902,61.8254268 Z" id="Fill-64" fill="#6DCA8C" mask="url(#mask-2)"></path>
                        <polygon id="Fill-65" fill="#5AB4E5" mask="url(#mask-2)" points="56.1706122 257.867811 67.3063878 257.867811 67.3063878 254.816575 56.1706122 254.816575"></polygon>
                        <polygon id="Fill-66" fill="#5AB4E5" mask="url(#mask-2)" points="13.1077122 254.965938 2.2685898 252.429639 1.56242653 255.399316 12.401549 257.935616"></polygon>
                        <path d="M67.8266592,260.555073 L69.6468837,260.104104" id="Stroke-67" stroke="#5AB4E5" stroke-width="0.229" stroke-linecap="round" mask="url(#mask-2)"></path>
                        <path d="M69.6465612,261.131578 L71.4667857,260.680609" id="Stroke-68" stroke="#5AB4E5" stroke-width="0.229" stroke-linecap="round" mask="url(#mask-2)"></path>
                        <path d="M71.3603776,261.582866 L73.180602,261.131898" id="Stroke-69" stroke="#5AB4E5" stroke-width="0.229" stroke-linecap="round" mask="url(#mask-2)"></path>
                        <path d="M5.39763469,261.468365 L9.70716531,260.71835" id="Stroke-70" stroke="#5AB4E5" stroke-width="0.229" stroke-linecap="round" mask="url(#mask-2)"></path>
                        <path d="M5.83116735,262.53214 L10.140698,261.782124" id="Stroke-71" stroke="#5AB4E5" stroke-width="0.229" stroke-linecap="round" mask="url(#mask-2)"></path>
                        <path d="M6.49363878,263.433278 L10.8031694,262.683262" id="Stroke-72" stroke="#5AB4E5" stroke-width="0.229" stroke-linecap="round" mask="url(#mask-2)"></path>
                        <path d="M43.8127551,61.5673191 C43.8127551,61.5673191 47.4435306,68.2167105 55.0259184,68.2167105 C61.2443469,68.2167105 62.7904898,62.1366273 62.7904898,62.1366273 L60.5881633,62.0838543 C60.5881633,62.0838543 59.0420204,66.2785041 55.1323265,66.2785041 C49.3427551,66.2785041 46.452,61.5673191 46.452,61.5673191 L43.8127551,61.5673191 Z" id="Fill-73" fill="#FB8A60" mask="url(#mask-2)"></path>
                        <path d="M213.257276,11.9741817 C210.711541,11.4272621 208.70752,9.4394811 208.156133,6.91437553 C208.120663,6.74965996 207.890112,6.74965996 207.854643,6.91437553 C207.303255,9.4394811 205.299235,11.4272621 202.7535,11.9741817 C202.587439,12.0093637 202.587439,12.2380465 202.7535,12.2732284 C205.299235,12.8201481 207.303255,14.8079291 207.854643,17.3330347 C207.890112,17.4977502 208.120663,17.4977502 208.156133,17.3330347 C208.70752,14.8079291 210.711541,12.8201481 213.257276,12.2732284 C213.423337,12.2380465 213.423337,12.0093637 213.257276,11.9741817" id="Fill-74" fill="#FFDC90" mask="url(#mask-2)"></path>
                        <path d="M128.633927,83.2635571 C126.088192,82.7166375 124.084171,80.7288565 123.532784,78.2037509 C123.497314,78.0390353 123.266763,78.0390353 123.231294,78.2037509 C122.679906,80.7288565 120.675886,82.7166375 118.130151,83.2635571 C117.96409,83.2987391 117.96409,83.5274218 118.130151,83.5626038 C120.675886,84.1095234 122.679906,86.0973045 123.231294,88.62241 C123.266763,88.7871256 123.497314,88.7871256 123.532784,88.62241 C124.084171,86.0973045 126.088192,84.1095234 128.633927,83.5626038 C128.799988,83.5274218 128.799988,83.2987391 128.633927,83.2635571" id="Fill-75" fill="#FFDC90" mask="url(#mask-2)"></path>
                        <path d="M142.385086,28.2776642 C141.111412,28.0042044 140.110208,27.0111135 139.834514,25.7477611 C139.81678,25.6646037 139.70231,25.6646037 139.682963,25.7477611 C139.408882,27.0111135 138.406065,28.0042044 137.132392,28.2776642 C137.050167,28.2952552 137.050167,28.408797 137.132392,28.4279871 C138.406065,28.6998478 139.408882,29.6945379 139.682963,30.9578902 C139.70231,31.0394484 139.81678,31.0394484 139.834514,30.9578902 C140.110208,29.6945379 141.111412,28.6998478 142.385086,28.4279871 C142.468922,28.408797 142.468922,28.2952552 142.385086,28.2776642" id="Fill-76" fill="#FFDC90" mask="url(#mask-2)"></path>
                        <path d="M233.063382,103.255709 C231.789708,102.982249 230.788504,101.989158 230.51281,100.725806 C230.495076,100.642648 230.380606,100.642648 230.361259,100.725806 C230.087178,101.989158 229.084361,102.982249 227.810688,103.255709 C227.728463,103.2733 227.728463,103.386841 227.810688,103.406032 C229.084361,103.677892 230.087178,104.672582 230.361259,105.935935 C230.380606,106.017493 230.495076,106.017493 230.51281,105.935935 C230.788504,104.672582 231.789708,103.677892 233.063382,103.406032 C233.147218,103.386841 233.147218,103.2733 233.063382,103.255709" id="Fill-77" fill="#FFDC90" mask="url(#mask-2)"></path>
                        <path d="M236.643533,60.3218776 C235.800329,60.1411702 235.137696,59.4823079 234.955512,58.6475359 C234.942614,58.5931637 234.866839,58.5931637 234.855553,58.6475359 C234.673369,59.4823079 234.009124,60.1411702 233.167533,60.3218776 C233.111104,60.3330718 233.111104,60.4098325 233.167533,60.4210267 C234.009124,60.6017341 234.673369,61.2605964 234.855553,62.0953684 C234.866839,62.1497406 234.942614,62.1497406 234.955512,62.0953684 C235.137696,61.2605964 235.800329,60.6017341 236.643533,60.4210267 C236.698349,60.4098325 236.698349,60.3330718 236.643533,60.3218776" id="Fill-78" fill="#FFDC90" mask="url(#mask-2)"></path>
                    </g>
                </g>
            </g>
        </g>
    </g>
</svg>