<?xml version="1.0" encoding="UTF-8"?>
<svg width="237px" height="237px" viewBox="0 0 237 237" version="1.1" xmlns="http://www.w3.org/2000/svg" xmlns:xlink="http://www.w3.org/1999/xlink">
    <!-- Generator: sketchtool 52.6 (67491) - http://www.bohemiancoding.com/sketch -->
    <title>34D818FC-B13F-4DCE-9969-E5830895C9A6</title>
    <desc>Created with sketchtool.</desc>
    <defs>
        <polygon id="path-1" points="0.788872535 0.8295 2.28887253 0.8295 2.28887253 2.30293455 0.788872535 2.30293455"></polygon>
        <polygon id="path-3" points="0.975635053 0.8295 2.47563505 0.8295 2.47563505 2.09848557 0.975635053 2.09848557"></polygon>
        <polygon id="path-5" points="0.172526869 0.8295 1.67252687 0.8295 1.67252687 2.01503728 0.172526869 2.01503728"></polygon>
        <polygon id="path-7" points="0.370805061 0.8295 1.87080506 0.8295 1.87080506 2.00565122 0.370805061 2.00565122"></polygon>
        <polygon id="path-9" points="0.0692962205 0.8295 1.56929622 0.8295 1.56929622 2.07130214 0.0692962205 2.07130214"></polygon>
        <polygon id="path-11" points="0.256492574 0.8295 1.75649257 0.8295 1.75649257 2.25943991 0.256492574 2.25943991"></polygon>
        <polygon id="path-13" points="0.4684875 0.282653333 30.5462375 0.282653333 30.5462375 6 0.4684875 6"></polygon>
        <polygon id="path-15" points="0.0896470588 0.879800156 19.7304706 0.879800156 19.7304706 8.22844286 0.0896470588 8.22844286"></polygon>
    </defs>
    <g id="Desktop" stroke="none" stroke-width="1" fill="none" fill-rule="evenodd">
        <g id="RD-Gorgias" transform="translate(-906.000000, -960.000000)">
            <g id="Group-481" transform="translate(906.000000, 960.000000)">
                <path d="M60.5527103,31.2221122 C60.7077103,31.2521122 60.8057103,31.3991122 60.7797103,31.5511122 C60.7527103,31.7031122 60.6057103,31.8051122 60.4507103,31.7791122 C60.2957103,31.7531122 60.1927103,31.6061122 60.2207103,31.4501122 C60.2477103,31.2931122 60.3997103,31.1921122 60.5527103,31.2221122" id="Fill-1" fill="#A8AAAB"></path>
                <path d="M60.5640521,29.2242322 C60.7170521,29.2602322 60.8100521,29.4112322 60.7770521,29.5622322 C60.7440521,29.7132322 60.5930521,29.8092322 60.4400521,29.7772322 C60.2870521,29.7442322 60.1890521,29.5922322 60.2230521,29.4382322 C60.2560521,29.2832322 60.4120521,29.1882322 60.5640521,29.2242322" id="Fill-3" fill="#A8AAAB"></path>
                <path d="M60.5721996,28.2266022 C60.7231996,28.2676022 60.8141996,28.4226022 60.7751996,28.5726022 C60.7361996,28.7226022 60.5801996,28.8126022 60.4281996,28.7746022 C60.2761996,28.7366022 60.1851996,28.5816022 60.2251996,28.4286022 C60.2661996,28.2756022 60.4211996,28.1856022 60.5721996,28.2266022" id="Fill-5" fill="#A8AAAB"></path>
                <path d="M61.5831548,26.2292537 C61.7341548,26.2762537 61.8141548,26.4322537 61.7721548,26.5812537 C61.7291548,26.7302537 61.5721548,26.8152537 61.4211548,26.7722537 C61.2711548,26.7282537 61.1841548,26.5702537 61.2281548,26.4182537 C61.2711548,26.2662537 61.4341548,26.1832537 61.5831548,26.2292537" id="Fill-7" fill="#A8AAAB"></path>
                <path d="M61.593221,25.2325857 C61.741221,25.2835857 61.820221,25.4445857 61.769221,25.5905857 C61.717221,25.7365857 61.561221,25.8175857 61.411221,25.7685857 C61.262221,25.7205857 61.178221,25.5585857 61.231221,25.4095857 C61.283221,25.2605857 61.445221,25.1815857 61.593221,25.2325857" id="Fill-9" fill="#A8AAAB"></path>
                <path d="M62.601262,24.2360818 C62.747262,24.2920818 62.821262,24.4560818 62.766262,24.6000818 C62.711262,24.7450818 62.547262,24.8190818 62.399262,24.7650818 C62.252262,24.7120818 62.178262,24.5490818 62.234262,24.4010818 C62.290262,24.2530818 62.455262,24.1800818 62.601262,24.2360818" id="Fill-11" fill="#A8AAAB"></path>
                <path d="M62.6095609,22.2395439 C62.7535609,22.3015439 62.8225609,22.4665439 62.7625609,22.6095439 C62.7025609,22.7525439 62.5365609,22.8205439 62.3915609,22.7625439 C62.2455609,22.7035439 62.1775609,22.5375439 62.2375609,22.3925439 C62.2985609,22.2465439 62.4655609,22.1775439 62.6095609,22.2395439" id="Fill-13" fill="#A8AAAB"></path>
                <path d="M63.6183747,21.2436806 C63.7603747,21.3106806 63.8233747,21.4786806 63.7583747,21.6196806 C63.6933747,21.7596806 63.5253747,21.8216806 63.3823747,21.7586806 C63.2383747,21.6946806 63.1763747,21.5266806 63.2423747,21.3826806 C63.3083747,21.2386806 63.4763747,21.1766806 63.6183747,21.2436806" id="Fill-15" fill="#A8AAAB"></path>
                <path d="M63.6281207,20.2479327 C63.7671207,20.3199327 63.8241207,20.4909327 63.7541207,20.6289327 C63.6841207,20.7669327 63.5131207,20.8229327 63.3731207,20.7539327 C63.2321207,20.6849327 63.1751207,20.5139327 63.2471207,20.3729327 C63.3181207,20.2319327 63.4891207,20.1759327 63.6281207,20.2479327" id="Fill-17" fill="#A8AAAB"></path>
                <path d="M64.6382703,18.2538035 C64.7742703,18.3318035 64.8242703,18.5038035 64.7492703,18.6388035 C64.6732703,18.7738035 64.5002703,18.8228035 64.3622703,18.7488035 C64.2242703,18.6738035 64.1752703,18.5018035 64.2522703,18.3638035 C64.3292703,18.2248035 64.5022703,18.1758035 64.6382703,18.2538035" id="Fill-19" fill="#A8AAAB"></path>
                <path d="M65.6491789,17.2599014 C65.7821789,17.3429014 65.8241789,17.5169014 65.7431789,17.6489014 C65.6621789,17.7809014 65.4871789,17.8219014 65.3521789,17.7419014 C65.2171789,17.6629014 65.1751789,17.4879014 65.2581789,17.3529014 C65.3411789,17.2189014 65.5161789,17.1769014 65.6491789,17.2599014" id="Fill-21" fill="#A8AAAB"></path>
                <path d="M65.6604232,16.2670548 C65.7894232,16.3560548 65.8234232,16.5320548 65.7364232,16.6590548 C65.6494232,16.7870548 65.4724232,16.8210548 65.3414232,16.7350548 C65.2104232,16.6500548 65.1754232,16.4740548 65.2654232,16.3430548 C65.3544232,16.2120548 65.5314232,16.1780548 65.6604232,16.2670548" id="Fill-23" fill="#A8AAAB"></path>
                <path d="M66.6717231,15.2754789 C66.7967231,15.3704789 66.8227231,15.5464789 66.7297231,15.6694789 C66.6357231,15.7924789 66.4577231,15.8184789 66.3297231,15.7274789 C66.2027231,15.6354789 66.1767231,15.4594789 66.2717231,15.3324789 C66.3677231,15.2064789 66.5467231,15.1804789 66.6717231,15.2754789" id="Fill-25" fill="#A8AAAB"></path>
                <path d="M67.6838762,14.2844862 C67.8038762,14.3854862 67.8208762,14.5624862 67.7208762,14.6794862 C67.6198762,14.7964862 67.4438762,14.8164862 67.3218762,14.7204862 C67.1978762,14.6224862 67.1758762,14.4414862 67.2808762,14.3214862 C67.3828762,14.2004862 67.5638762,14.1834862 67.6838762,14.2844862" id="Fill-27" fill="#A8AAAB"></path>
                <path d="M68.6931153,12.2927863 C68.8081153,12.3997863 68.8151153,12.5757863 68.7091153,12.6877863 C68.6061153,12.8027863 68.4321153,12.8167863 68.3131153,12.7127863 C68.1961153,12.6107863 68.1811153,12.4267863 68.2871153,12.3087863 C68.3961153,12.1927863 68.5781153,12.1857863 68.6931153,12.2927863" id="Fill-29" fill="#A8AAAB"></path>
                <path d="M69.7012571,11.3010727 C69.8122571,11.4150727 69.8042571,11.5860727 69.7012571,11.7000727 C69.5952571,11.8120727 69.4172571,11.8140727 69.3052571,11.7050727 C69.1922571,11.5960727 69.1892571,11.4150727 69.2982571,11.2990727 C69.4052571,11.1820727 69.5932571,11.1900727 69.7012571,11.3010727" id="Fill-31" fill="#A8AAAB"></path>
                <path d="M70.7084955,10.3081212 C70.8114955,10.4261212 70.8044955,10.6071212 70.6914955,10.7121212 C70.5794955,10.8171212 70.4014955,10.8091212 70.2944955,10.6941212 C70.1874955,10.5801212 70.1944955,10.3991212 70.3114955,10.2901212 C70.4274955,10.1821212 70.6054955,10.1901212 70.7084955,10.3081212" id="Fill-33" fill="#A8AAAB"></path>
                <path d="M71.7206735,9.32176439 C71.8176735,9.44576439 71.7986735,9.62476439 71.6796735,9.72176439 C71.5606735,9.81976439 71.3826735,9.80076439 71.2826735,9.68076439 C71.1816735,9.56076439 71.1996735,9.38076439 71.3226735,9.28076439 C71.4456735,9.17976439 71.6236735,9.19776439 71.7206735,9.32176439" id="Fill-35" fill="#A8AAAB"></path>
                <path d="M72.7321041,9.33671183 C72.8221041,9.46571183 72.7921041,9.64271183 72.6671041,9.73171183 C72.5421041,9.82071183 72.3641041,9.79071183 72.2711041,9.66571183 C72.1771041,9.53971183 72.2061041,9.36271183 72.3351041,9.27071183 C72.4651041,9.17871183 72.6431041,9.20771183 72.7321041,9.33671183" id="Fill-37" fill="#A8AAAB"></path>
                <path d="M74.7432173,8.35352098 C74.8252173,8.48752098 74.7852173,8.66052098 74.6542173,8.74052098 C74.5232173,8.82052098 74.3462173,8.77952098 74.2602173,8.64852098 C74.1732173,8.51752098 74.2132173,8.34452098 74.3492173,8.26152098 C74.4842173,8.17852098 74.6612173,8.21952098 74.7432173,8.35352098" id="Fill-39" fill="#A8AAAB"></path>
                <path d="M75.7496897,7.36821117 C75.8236897,7.50621117 75.7736897,7.67521117 75.6366897,7.74621117 C75.5016897,7.82021117 75.3336897,7.77921117 75.2546897,7.64221117 C75.1766897,7.50821117 75.2196897,7.32721117 75.3596897,7.25021117 C75.5006897,7.17721117 75.6756897,7.23021117 75.7496897,7.36821117" id="Fill-41" fill="#A8AAAB"></path>
                <path d="M76.7535346,6.3714353 C76.8195346,6.5124353 76.7625346,6.6854353 76.6255346,6.7564353 C76.4895346,6.8264353 76.3205346,6.7704353 76.2495346,6.6304353 C76.1785346,6.4904353 76.2355346,6.3184353 76.3775346,6.2454353 C76.5185346,6.1724353 76.6865346,6.2284353 76.7535346,6.3714353" id="Fill-43" fill="#A8AAAB"></path>
                <path d="M77.761904,6.38964005 C77.819904,6.53564005 77.752904,6.70164005 77.610904,6.76264005 C77.468904,6.82264005 77.303904,6.75464005 77.240904,6.61064005 C77.177904,6.46764005 77.244904,6.30064005 77.391904,6.23864005 C77.537904,6.17664005 77.703904,6.24364005 77.761904,6.38964005" id="Fill-45" fill="#A8AAAB"></path>
                <path d="M79.7695463,5.40973997 C79.8195463,5.55873997 79.7415463,5.71873997 79.5965463,5.76773997 C79.4505463,5.81773997 79.2875463,5.73873997 79.2325463,5.59173997 C79.1785463,5.44473997 79.2555463,5.28373997 79.4065463,5.23273997 C79.5565463,5.18173997 79.7195463,5.26073997 79.7695463,5.40973997" id="Fill-47" fill="#A8AAAB"></path>
                <path d="M80.7730929,5.42885041 C80.8150929,5.57985041 80.7280929,5.73385041 80.5790929,5.77185041 C80.4300929,5.81185041 80.2760929,5.73785041 80.2290929,5.58585041 C80.1830929,5.43785041 80.2650929,5.26885041 80.4180929,5.22685041 C80.5720929,5.18685041 80.7310929,5.27785041 80.7730929,5.42885041" id="Fill-49" fill="#A8AAAB"></path>
                <path d="M82.7752434,4.42969528 C82.8092434,4.58269528 82.7162434,4.73769528 82.5672434,4.77669528 C82.4172434,4.81469528 82.2652434,4.72269528 82.2262434,4.57069528 C82.1882434,4.41869528 82.2812434,4.26369528 82.4352434,4.22369528 C82.5892434,4.18469528 82.7412434,4.27669528 82.7752434,4.42969528" id="Fill-51" fill="#A8AAAB"></path>
                <path d="M83.7795976,4.45001643 C83.8055976,4.60501643 83.7045976,4.75201643 83.5525976,4.77901643 C83.4005976,4.80701643 83.2525976,4.70401643 83.2215976,4.55001643 C83.1915976,4.39601643 83.2925976,4.24901643 83.4485976,4.22101643 C83.6055976,4.19301643 83.7535976,4.29501643 83.7795976,4.45001643" id="Fill-53" fill="#A8AAAB"></path>
                <path d="M84.781479,4.47068924 C84.800479,4.62668924 84.691479,4.76568924 84.538479,4.78168924 C84.384479,4.79468924 84.242479,4.69568924 84.219479,4.53968924 C84.196479,4.38468924 84.303479,4.23168924 84.461479,4.21868924 C84.619479,4.20268924 84.762479,4.31468924 84.781479,4.47068924" id="Fill-55" fill="#A8AAAB"></path>
                <path d="M86.7818188,4.47008509 C86.7938188,4.62608509 86.6788188,4.76608509 86.5258188,4.78308509 C86.3718188,4.79908509 86.2348188,4.68608509 86.2188188,4.53008509 C86.2028188,4.37408509 86.3168188,4.23408509 86.4748188,4.21708509 C86.6328188,4.20008509 86.7698188,4.31408509 86.7818188,4.47008509" id="Fill-57" fill="#A8AAAB"></path>
                <path d="M87.7831603,4.49 C87.7881603,4.647 87.6681603,4.778 87.5131603,4.784 C87.3591603,4.789 87.2261603,4.667 87.2171603,4.51 C87.2081603,4.354 87.3291603,4.222 87.4871603,4.216 C87.6451603,4.211 87.7781603,4.333 87.7831603,4.49" id="Fill-59" fill="#A8AAAB"></path>
                <path d="M89.7830147,4.50498716 C89.7810147,4.66398716 89.6560147,4.77798716 89.5010147,4.78398716 C89.3470147,4.78998716 89.2200147,4.66698716 89.2170147,4.50998716 C89.2140147,4.35398716 89.3400147,4.22198716 89.4990147,4.21598716 C89.6570147,4.20998716 89.7850147,4.35098716 89.7830147,4.50498716" id="Fill-61" fill="#A8AAAB"></path>
                <path d="M90.7827859,4.5105 C90.7727859,4.6675 90.6397859,4.7895 90.4857859,4.7835 C90.3327859,4.7775 90.2117859,4.6465 90.2167859,4.4895 C90.2217859,4.3325 90.3547859,4.2105 90.5127859,4.2165 C90.6717859,4.2225 90.7927859,4.3535 90.7827859,4.5105" id="Fill-63" fill="#A8AAAB"></path>
                <path d="M92.7810671,4.5325 C92.7630671,4.6885 92.6240671,4.8005 92.4710671,4.7825 C92.3180671,4.7645 92.2050671,4.6235 92.2180671,4.4675 C92.2320671,4.3115 92.3700671,4.1995 92.5280671,4.2175 C92.6860671,4.2355 92.7990671,4.3765 92.7810671,4.5325" id="Fill-65" fill="#A8AAAB"></path>
                <path d="M93.7793395,4.55197536 C93.7533395,4.70697536 93.6093395,4.80797536 93.4583395,4.77897536 C93.3053395,4.76197536 93.1983395,4.62197536 93.2193395,4.46597536 C93.2413395,4.31097536 93.3863395,4.19997536 93.5443395,4.21797536 C93.7003395,4.24797536 93.8053395,4.39697536 93.7793395,4.55197536" id="Fill-67" fill="#A8AAAB"></path>
                <path d="M95.7773367,4.55365511 C95.7433367,4.70665511 95.5933367,4.80765511 95.4413367,4.77865511 C95.2903367,4.74965511 95.1913367,4.60065511 95.2213367,4.44665511 C95.2503367,4.29265511 95.4013367,4.19165511 95.5563367,4.22165511 C95.7123367,4.25165511 95.8113367,4.40065511 95.7773367,4.55365511" id="Fill-69" fill="#A8AAAB"></path>
                <path d="M96.772531,5.57370375 C96.730531,5.72470375 96.576531,5.81470375 96.427531,5.77470375 C96.278531,5.73570375 96.188531,5.57970375 96.225531,5.42670375 C96.262531,5.27470375 96.417531,5.18470375 96.570531,5.22570375 C96.723531,5.26670375 96.814531,5.42270375 96.772531,5.57370375" id="Fill-71" fill="#A8AAAB"></path>
                <path d="M97.7679424,5.59259155 C97.7189424,5.74159155 97.5609424,5.82159155 97.4149424,5.77159155 C97.2699424,5.71759155 97.1849424,5.56759155 97.2299424,5.41659155 C97.2739424,5.26659155 97.4359424,5.17459155 97.5849424,5.22959155 C97.7349424,5.28159155 97.8169424,5.44359155 97.7679424,5.59259155" id="Fill-73" fill="#A8AAAB"></path>
                <path d="M99.7669762,5.59229543 C99.7109762,5.73829543 99.5469762,5.81729543 99.4009762,5.76729543 C99.2549762,5.71629543 99.1789762,5.55629543 99.2309762,5.40829543 C99.2829762,5.26029543 99.4469762,5.18229543 99.5969762,5.23329543 C99.7469762,5.28529543 99.8229762,5.44629543 99.7669762,5.59229543" id="Fill-75" fill="#A8AAAB"></path>
                <path d="M100.759946,6.60999037 C100.696946,6.75399037 100.530946,6.82199037 100.388946,6.76199037 C100.245946,6.70299037 100.178946,6.53599037 100.237946,6.39099037 C100.295946,6.24599037 100.462946,6.17699037 100.608946,6.23899037 C100.754946,6.29999037 100.822946,6.46599037 100.759946,6.60999037" id="Fill-77" fill="#A8AAAB"></path>
                <path d="M101.752791,6.62611189 C101.683791,6.76711189 101.515791,6.82511189 101.376791,6.75711189 C101.238791,6.68811189 101.179791,6.51711189 101.244791,6.37511189 C101.310791,6.23211189 101.478791,6.17411189 101.620791,6.24411189 C101.762791,6.31411189 101.821791,6.48511189 101.752791,6.62611189" id="Fill-79" fill="#A8AAAB"></path>
                <path d="M103.748857,7.63626511 C103.672857,7.77526511 103.505857,7.82026511 103.367857,7.74926511 C103.229857,7.68126511 103.175857,7.51226511 103.247857,7.37326511 C103.318857,7.23326511 103.492857,7.17726511 103.634857,7.24826511 C103.775857,7.32026511 103.823857,7.50026511 103.748857,7.63626511" id="Fill-81" fill="#A8AAAB"></path>
                <path d="M104.744779,8.64143895 C104.663779,8.77543895 104.488779,8.82243895 104.354779,8.74543895 C104.220779,8.66843895 104.175779,8.49643895 104.252779,8.35943895 C104.330779,8.22343895 104.505779,8.17743895 104.642779,8.25543895 C104.779779,8.33443895 104.825779,8.50743895 104.744779,8.64143895" id="Fill-83" fill="#A8AAAB"></path>
                <path d="M105.736085,9.65543864 C105.649085,9.78643864 105.474085,9.82343864 105.345085,9.73943864 C105.215085,9.65443864 105.178085,9.47843864 105.262085,9.34543864 C105.345085,9.21343864 105.520085,9.17543864 105.653085,9.26243864 C105.785085,9.34843864 105.823085,9.52443864 105.736085,9.65543864" id="Fill-85" fill="#A8AAAB"></path>
                <path d="M106.727401,9.66848334 C106.635401,9.79548334 106.460401,9.82448334 106.335401,9.73248334 C106.211401,9.64048334 106.181401,9.46348334 106.269401,9.33548334 C106.359401,9.20448334 106.535401,9.17448334 106.662401,9.26848334 C106.790401,9.36248334 106.819401,9.54148334 106.727401,9.66848334" id="Fill-87" fill="#A8AAAB"></path>
                <path d="M108.724319,10.6730998 C108.627319,10.7960998 108.453319,10.8150998 108.327319,10.7260998 C108.202319,10.6340998 108.177319,10.4580998 108.271319,10.3330998 C108.365319,10.2070998 108.545319,10.1810998 108.673319,10.2750998 C108.802319,10.3670998 108.821319,10.5500998 108.724319,10.6730998" id="Fill-89" fill="#A8AAAB"></path>
                <path d="M109.717892,11.6807383 C109.615892,11.7997383 109.436892,11.8167383 109.316892,11.7187383 C109.197892,11.6207383 109.180892,11.4427383 109.279892,11.3207383 C109.378892,11.1997383 109.558892,11.1827383 109.680892,11.2827383 C109.802892,11.3837383 109.819892,11.5617383 109.717892,11.6807383" id="Fill-91" fill="#A8AAAB"></path>
                <path d="M110.708106,12.6919216 C110.601106,12.8069216 110.423106,12.8159216 110.308106,12.7119216 C110.194106,12.6069216 110.186106,12.4279216 110.290106,12.3099216 C110.394106,12.1919216 110.572106,12.1839216 110.689106,12.2899216 C110.806106,12.3969216 110.815106,12.5769216 110.708106,12.6919216" id="Fill-93" fill="#A8AAAB"></path>
                <path d="M111.698189,13.7025697 C111.587189,13.8135697 111.409189,13.8135697 111.300189,13.7035697 C111.192189,13.5935697 111.191189,13.4135697 111.298189,13.3015697 C111.408189,13.1865697 111.587189,13.1845697 111.698189,13.2975697 C111.809189,13.4105697 111.809189,13.5915697 111.698189,13.7025697" id="Fill-95" fill="#A8AAAB"></path>
                <path d="M112.692609,14.7074998 C112.575609,14.8154998 112.403609,14.8024998 112.294609,14.6944998 C112.185609,14.5844998 112.188609,14.4064998 112.301609,14.2974998 C112.414609,14.1884998 112.596609,14.1914998 112.707609,14.3044998 C112.819609,14.4154998 112.806609,14.6024998 112.692609,14.7074998" id="Fill-97" fill="#A8AAAB"></path>
                <path d="M113.687335,15.7126174 C113.567335,15.8136174 113.387335,15.8026174 113.284335,15.6876174 C113.182335,15.5716174 113.193335,15.3936174 113.311335,15.2896174 C113.428335,15.1856174 113.608335,15.1966174 113.713335,15.3146174 C113.818335,15.4326174 113.807335,15.6116174 113.687335,15.7126174" id="Fill-99" fill="#A8AAAB"></path>
                <path d="M114.67611,16.7223119 C114.55211,16.8183119 114.37411,16.7993119 114.27711,16.6783119 C114.18011,16.5573119 114.20111,16.3793119 114.32211,16.2803119 C114.44311,16.1803119 114.62211,16.2003119 114.72111,16.3243119 C114.82011,16.4473119 114.80011,16.6263119 114.67611,16.7223119" id="Fill-101" fill="#A8AAAB"></path>
                <path d="M115.664178,18.7312196 C115.536178,18.8222196 115.359178,18.7932196 115.269178,18.6682196 C115.180178,18.5432196 115.208178,18.3652196 115.334178,18.2712196 C115.459178,18.1772196 115.636178,18.2052196 115.728178,18.3342196 C115.821178,18.4622196 115.792178,18.6402196 115.664178,18.7312196" id="Fill-103" fill="#A8AAAB"></path>
                <path d="M115.651232,19.7401135 C115.519232,19.8251135 115.345232,19.7881135 115.262232,19.6581135 C115.179232,19.5281135 115.218232,19.3501135 115.345232,19.2631135 C115.477232,19.1731135 115.650232,19.2111135 115.736232,19.3451135 C115.821232,19.4781135 115.783232,19.6551135 115.651232,19.7401135" id="Fill-105" fill="#A8AAAB"></path>
                <path d="M116.638866,20.7460432 C116.502866,20.8240432 116.331866,20.7780432 116.256866,20.6440432 C116.180866,20.5090432 116.216866,20.3410432 116.352866,20.2580432 C116.484866,20.1770432 116.666866,20.2150432 116.744866,20.3540432 C116.822866,20.4930432 116.774866,20.6680432 116.638866,20.7460432" id="Fill-107" fill="#A8AAAB"></path>
                <path d="M117.626734,21.752417 C117.484734,21.823417 117.321734,21.765417 117.249734,21.630417 C117.174734,21.495417 117.225734,21.326417 117.362734,21.251417 C117.500734,21.176417 117.675734,21.228417 117.752734,21.367417 C117.827734,21.507417 117.765734,21.682417 117.626734,21.752417" id="Fill-109" fill="#A8AAAB"></path>
                <path d="M118.612598,22.759371 C118.466598,22.821371 118.310598,22.753371 118.240598,22.616371 C118.173598,22.477371 118.234598,22.311371 118.376598,22.244371 C118.518598,22.177371 118.689598,22.240371 118.758598,22.383371 C118.831598,22.525371 118.754598,22.699371 118.612598,22.759371" id="Fill-111" fill="#A8AAAB"></path>
                <path d="M118.59488,24.7665515 C118.44488,24.8175515 118.29388,24.7395515 118.23288,24.5985515 C118.17588,24.4565515 118.24788,24.2945515 118.39388,24.2375515 C118.53988,24.1795515 118.70688,24.2535515 118.76588,24.4015515 C118.82888,24.5485515 118.74188,24.7165515 118.59488,24.7665515" id="Fill-113" fill="#A8AAAB"></path>
                <path d="M119.570132,25.7736598 C119.414132,25.8126598 119.276132,25.7206598 119.226132,25.5756598 C119.180132,25.4306598 119.264132,25.2756598 119.414132,25.2296598 C119.564132,25.1836598 119.725132,25.2706598 119.773132,25.4236598 C119.825132,25.5746598 119.718132,25.7366598 119.570132,25.7736598" id="Fill-115" fill="#A8AAAB"></path>
                <path d="M119.537435,27.7799888 C119.382435,27.8019888 119.241435,27.6979888 119.222435,27.5479888 C119.189435,27.3999888 119.286435,27.2549888 119.440435,27.2229888 C119.593435,27.1909888 119.746435,27.2919888 119.781435,27.4499888 C119.802435,27.6099888 119.692435,27.7579888 119.537435,27.7799888" id="Fill-117" fill="#A8AAAB"></path>
                <path d="M119.503477,28.783486 C119.346477,28.784486 119.217477,28.663486 119.216477,28.514486 C119.220477,28.364486 119.327477,28.231486 119.483477,28.217486 C119.639477,28.204486 119.786477,28.322486 119.783477,28.486486 C119.785477,28.649486 119.660477,28.782486 119.503477,28.783486" id="Fill-119" fill="#A8AAAB"></path>
                <path d="M119.465898,30.7792903 C119.310898,30.7522903 119.199898,30.6112903 119.217898,30.4652903 C119.234898,30.3182903 119.376898,30.2072903 119.532898,30.2172903 C119.689898,30.2262903 119.800898,30.3672903 119.781898,30.5312903 C119.761898,30.6952903 119.620898,30.8062903 119.465898,30.7792903" id="Fill-121" fill="#A8AAAB"></path>
                <path d="M119.396406,31.762488 C119.247406,31.698488 119.200406,31.551488 119.229406,31.407488 C119.268406,31.266488 119.422406,31.185488 119.574406,31.226488 C119.725406,31.267488 119.812406,31.430488 119.766406,31.591488 C119.731406,31.755488 119.534406,31.822488 119.396406,31.762488" id="Fill-123" fill="#A8AAAB"></path>
                <path d="M118.324678,32.7196016 C118.203678,32.6196016 118.174678,32.4456016 118.260678,32.3316016 C118.349678,32.2196016 118.525678,32.1866016 118.655678,32.2606016 C118.797678,32.3416016 118.832678,32.5186016 118.728678,32.6536016 C118.626678,32.7906016 118.445678,32.8196016 118.324678,32.7196016" id="Fill-125" fill="#A8AAAB"></path>
                <path d="M117.27134,33.6669038 C117.18534,33.5389038 117.21734,33.3759038 117.31734,33.2729038 C117.42434,33.1779038 117.59834,33.1929038 117.70634,33.3069038 C117.81434,33.4209038 117.79934,33.6049038 117.67234,33.7169038 C117.54934,33.8369038 117.36034,33.7999038 117.27134,33.6669038" id="Fill-127" fill="#A8AAAB"></path>
                <path d="M116.233608,34.5944487 C116.179608,34.4474487 116.247608,34.2874487 116.385608,34.2374487 C116.528608,34.1984487 116.677608,34.2314487 116.753608,34.3754487 C116.824608,34.5084487 116.773608,34.7104487 116.613608,34.7584487 C116.457608,34.8154487 116.287608,34.7414487 116.233608,34.5944487" id="Fill-129" fill="#A8AAAB"></path>
                <path d="M114.219395,34.5530149 C114.193395,34.3980149 114.291395,34.2500149 114.437395,34.2220149 C114.583395,34.1940149 114.735395,34.2950149 114.775395,34.4460149 C114.816395,34.5980149 114.719395,34.7460149 114.557395,34.7770149 C114.396395,34.8080149 114.245395,34.7080149 114.219395,34.5530149" id="Fill-131" fill="#A8AAAB"></path>
                <path d="M113.216375,35.5144089 C113.214375,35.3574089 113.333375,35.2244089 113.483375,35.2164089 C113.632375,35.2094089 113.766375,35.3304089 113.782375,35.4864089 C113.797375,35.6424089 113.678375,35.7754089 113.515375,35.7834089 C113.352375,35.7924089 113.218375,35.6714089 113.216375,35.5144089" id="Fill-133" fill="#A8AAAB"></path>
                <path d="M112.219908,35.4694087 C112.243908,35.3144087 112.382908,35.2014087 112.529908,35.2174087 C112.676908,35.2334087 112.790908,35.3734087 112.782908,35.5304087 C112.775908,35.6864087 112.636908,35.7994087 112.472908,35.7824087 C112.308908,35.7644087 112.195908,35.6244087 112.219908,35.4694087" id="Fill-135" fill="#A8AAAB"></path>
                <path d="M110.23246,34.4194135 C110.28846,34.2724135 110.44746,34.1864135 110.58746,34.2274135 C110.72846,34.2684135 110.81246,34.4254135 110.77646,34.5784135 C110.73946,34.7304135 110.58046,34.8164135 110.42046,34.7704135 C110.26146,34.7234135 110.17646,34.5664135 110.23246,34.4194135" id="Fill-137" fill="#A8AAAB"></path>
                <path d="M109.260968,34.3536309 C109.345968,34.2296309 109.513968,34.1916309 109.647968,34.2506309 C109.776968,34.3166309 109.825968,34.4846309 109.756968,34.6256309 C109.686968,34.7656309 109.509968,34.8176309 109.360968,34.7416309 C109.207968,34.6716309 109.168968,34.4886309 109.260968,34.3536309" id="Fill-139" fill="#A8AAAB"></path>
                <path d="M108.308604,33.291892 C108.424604,33.186892 108.596604,33.189892 108.692604,33.300892 C108.798604,33.399892 108.815604,33.562892 108.713604,33.684892 C108.614604,33.802892 108.419604,33.822892 108.297604,33.708892 C108.187604,33.583892 108.192604,33.396892 108.308604,33.291892" id="Fill-141" fill="#A8AAAB"></path>
                <path d="M107.355985,32.2529847 C107.491985,32.1739847 107.663985,32.2119847 107.739985,32.3379847 C107.817985,32.4629847 107.773985,32.6439847 107.653985,32.7349847 C107.522985,32.8319847 107.353985,32.7919847 107.266985,32.6509847 C107.179985,32.5099847 107.219985,32.3319847 107.355985,32.2529847" id="Fill-143" fill="#A8AAAB"></path>
                <path d="M106.392384,30.2346385 C106.539384,30.1806385 106.705384,30.2476385 106.763384,30.3856385 C106.820384,30.5226385 106.752384,30.6886385 106.611384,30.7576385 C106.469384,30.8256385 106.303384,30.7576385 106.240384,30.6066385 C106.176384,30.4556385 106.245384,30.2886385 106.392384,30.2346385" id="Fill-145" fill="#A8AAAB"></path>
                <path d="M106.426787,29.2241276 C106.579787,29.1911276 106.736787,29.2821276 106.775787,29.4271276 C106.814787,29.5721276 106.724787,29.7261276 106.573787,29.7711276 C106.423787,29.8161276 106.267787,29.7251276 106.225787,29.5681276 C106.182787,29.4111276 106.273787,29.2571276 106.426787,29.2241276" id="Fill-147" fill="#A8AAAB"></path>
                <path d="M105.458736,28.2187812 C105.614736,28.2037812 105.759736,28.3137812 105.781736,28.4627812 C105.803736,28.6127812 105.696736,28.7537812 105.541736,28.7787812 C105.386736,28.8047812 105.241736,28.6947812 105.218736,28.5347812 C105.194736,28.3747812 105.302736,28.2337812 105.458736,28.2187812" id="Fill-149" fill="#A8AAAB"></path>
                <path d="M105.487038,26.2168154 C105.644038,26.2168154 105.777038,26.3408154 105.784038,26.4928154 C105.790038,26.6438154 105.669038,26.7738154 105.512038,26.7828154 C105.356038,26.7908154 105.223038,26.6678154 105.216038,26.5068154 C105.209038,26.3458154 105.330038,26.2168154 105.487038,26.2168154" id="Fill-151" fill="#A8AAAB"></path>
                <path d="M105.5135,25.2173807 C105.6695,25.2303807 105.7905,25.3653807 105.7835,25.5173807 C105.7765,25.6703807 105.6435,25.7893807 105.4865,25.7833807 C105.3305,25.7773807 105.2095,25.6433807 105.2165,25.4833807 C105.2245,25.3223807 105.3575,25.2043807 105.5135,25.2173807" id="Fill-153" fill="#A8AAAB"></path>
                <path d="M105.53671,23.2198128 C105.69171,23.2448128 105.80071,23.3878128 105.78171,23.5398128 C105.76171,23.6908128 105.61871,23.7998128 105.46371,23.7818128 C105.30771,23.7638128 105.19771,23.6198128 105.21871,23.4618128 C105.23971,23.3038128 105.38171,23.1948128 105.53671,23.2198128" id="Fill-155" fill="#A8AAAB"></path>
                <path d="M106.558312,22.2240024 C106.711312,22.2590024 106.809312,22.4090024 106.778312,22.5590024 C106.746312,22.7090024 106.596312,22.8070024 106.442312,22.7780024 C106.288312,22.7490024 106.189312,22.5990024 106.222312,22.4430024 C106.255312,22.2870024 106.405312,22.1890024 106.558312,22.2240024" id="Fill-157" fill="#A8AAAB"></path>
                <path d="M106.578427,21.2287459 C106.728427,21.2727459 106.816427,21.4287459 106.774427,21.5767459 C106.731427,21.7237459 106.574427,21.8117459 106.422427,21.7737459 C106.270427,21.7347459 106.182427,21.5787459 106.226427,21.4257459 C106.270427,21.2727459 106.428427,21.1847459 106.578427,21.2287459" id="Fill-159" fill="#A8AAAB"></path>
                <path d="M106.597304,19.2349663 C106.745304,19.2879663 106.822304,19.4479663 106.769304,19.5929663 C106.717304,19.7369663 106.552304,19.8149663 106.404304,19.7679663 C106.253304,19.7189663 106.177304,19.5589663 106.231304,19.4099663 C106.286304,19.2599663 106.449304,19.1819663 106.597304,19.2349663" id="Fill-161" fill="#A8AAAB"></path>
                <path d="M107.612433,18.2391761 C107.756433,18.3001761 107.823433,18.4641761 107.761433,18.6041761 C107.706433,18.7481761 107.546433,18.8201761 107.399433,18.7641761 C107.253433,18.7081761 107.177433,18.5401761 107.234433,18.3921761 C107.298433,18.2461761 107.468433,18.1781761 107.612433,18.2391761" id="Fill-163" fill="#A8AAAB"></path>
                <path d="M108.616145,16.2429097 C108.755145,16.3109097 108.820145,16.4809097 108.758145,16.6219097 C108.695145,16.7629097 108.529145,16.8249097 108.386145,16.7599097 C108.243145,16.6959097 108.179145,16.5259097 108.243145,16.3809097 C108.308145,16.2359097 108.473145,16.1729097 108.616145,16.2429097" id="Fill-165" fill="#A8AAAB"></path>
                <path d="M108.632451,15.2507796 C108.769451,15.3267796 108.822451,15.4987796 108.751451,15.6347796 C108.679451,15.7717796 108.508451,15.8237796 108.369451,15.7517796 C108.229451,15.6807796 108.176451,15.5087796 108.250451,15.3677796 C108.324451,15.2267796 108.495451,15.1747796 108.632451,15.2507796" id="Fill-167" fill="#A8AAAB"></path>
                <path d="M109.649177,14.2601912 C109.782177,14.3431912 109.825177,14.5171912 109.744177,14.6481912 C109.663177,14.7791912 109.488177,14.8211912 109.352177,14.7431912 C109.217177,14.6641912 109.174177,14.4901912 109.257177,14.3551912 C109.341177,14.2191912 109.516177,14.1771912 109.649177,14.2601912" id="Fill-169" fill="#A8AAAB"></path>
                <path d="M110.665541,13.2703463 C110.794541,13.3603463 110.825541,13.5343463 110.736541,13.6603463 C110.644541,13.7833463 110.471541,13.8193463 110.341541,13.7343463 C110.208541,13.6483463 110.170541,13.4693463 110.265541,13.3423463 C110.357541,13.2123463 110.536541,13.1803463 110.665541,13.2703463" id="Fill-171" fill="#A8AAAB"></path>
                <path d="M111.670942,11.2743731 C111.793942,11.3703731 111.813942,11.5443731 111.726942,11.6713731 C111.637942,11.7963731 111.462942,11.8233731 111.335942,11.7313731 C111.209942,11.6383731 111.181942,11.4583731 111.273942,11.3293731 C111.363942,11.1983731 111.546942,11.1773731 111.670942,11.2743731" id="Fill-173" fill="#A8AAAB"></path>
                <path d="M111.681404,10.2829795 C111.800404,10.3859795 111.816404,10.5649795 111.718404,10.6839795 C111.620404,10.8029795 111.442404,10.8189795 111.321404,10.7199795 C111.199404,10.6209795 111.182404,10.4409795 111.283404,10.3189795 C111.384404,10.1959795 111.563404,10.1799795 111.681404,10.2829795" id="Fill-175" fill="#A8AAAB"></path>
                <path d="M112.696818,9.29649802 C112.809818,9.40549802 112.814818,9.58349802 112.708818,9.69549802 C112.602818,9.80649802 112.421818,9.81149802 112.305818,9.70649802 C112.189818,9.60149802 112.183818,9.42249802 112.293818,9.30749802 C112.403818,9.19249802 112.583818,9.18749802 112.696818,9.29649802" id="Fill-177" fill="#A8AAAB"></path>
                <path d="M113.709916,8.31028943 C113.816916,8.42528943 113.810916,8.60128943 113.695916,8.70428943 C113.578916,8.80428943 113.408916,8.81028943 113.296916,8.69728943 C113.187916,8.58828943 113.181916,8.39828943 113.302916,8.29528943 C113.420916,8.18828943 113.602916,8.19528943 113.709916,8.31028943" id="Fill-179" fill="#A8AAAB"></path>
                <path d="M114.71199,7.31144652 C114.81199,7.43244652 114.80099,7.61344652 114.68699,7.71644652 C114.57299,7.81944652 114.39599,7.80844652 114.29099,7.69044652 C114.18699,7.57344652 114.19799,7.39244652 114.31599,7.28544652 C114.43499,7.17944652 114.61199,7.19144652 114.71199,7.31144652" id="Fill-181" fill="#A8AAAB"></path>
                <path d="M116.725921,6.32824313 C116.818921,6.45424313 116.795921,6.63224313 116.674921,6.72624313 C116.552921,6.82024313 116.374921,6.79624313 116.276921,6.67424313 C116.179921,6.55124313 116.202921,6.37324313 116.328921,6.27624313 C116.454921,6.17924313 116.632921,6.20224313 116.725921,6.32824313" id="Fill-183" fill="#A8AAAB"></path>
                <path d="M117.739282,6.3470437 C117.825282,6.4780437 117.790282,6.6520437 117.661282,6.7360437 C117.532282,6.8190437 117.354282,6.7830437 117.264282,6.6550437 C117.173282,6.5270437 117.208282,6.3530437 117.341282,6.2660437 C117.475282,6.1800437 117.653282,6.2160437 117.739282,6.3470437" id="Fill-185" fill="#A8AAAB"></path>
                <path d="M118.743264,5.35666544 C118.823264,5.49466544 118.772264,5.65566544 118.645264,5.74366544 C118.516264,5.82766544 118.344264,5.78766544 118.261264,5.65466544 C118.178264,5.52066544 118.219264,5.34266544 118.353264,5.25666544 C118.484264,5.16566544 118.666264,5.22266544 118.743264,5.35666544" id="Fill-187" fill="#A8AAAB"></path>
                <path d="M119.751327,4.36713767 C119.821327,4.50713767 119.769327,4.68013767 119.633327,4.75213767 C119.498327,4.82513767 119.327327,4.77213767 119.252327,4.63413767 C119.176327,4.49713767 119.229327,4.32413767 119.369327,4.24913767 C119.510327,4.17413767 119.681327,4.22713767 119.751327,4.36713767" id="Fill-189" fill="#A8AAAB"></path>
                <path d="M121.761674,3.38907014 C121.823674,3.53307014 121.759674,3.69907014 121.618674,3.75907014 C121.476674,3.82007014 121.308674,3.75407014 121.241674,3.61207014 C121.173674,3.47107014 121.238674,3.30507014 121.384674,3.24207014 C121.530674,3.17907014 121.699674,3.24507014 121.761674,3.38907014" id="Fill-191" fill="#A8AAAB"></path>
                <path d="M122.765076,3.40422077 C122.820076,3.55422077 122.741076,3.70322077 122.600076,3.76422077 C122.459076,3.82522077 122.297076,3.75622077 122.238076,3.61122077 C122.179076,3.46522077 122.250076,3.29622077 122.397076,3.23422077 C122.543076,3.17122077 122.712076,3.25922077 122.765076,3.40422077" id="Fill-193" fill="#A8AAAB"></path>
                <path d="M123.770165,2.41197355 C123.815165,2.56197355 123.733165,2.72297355 123.587165,2.77097355 C123.441165,2.81897355 123.282165,2.73697355 123.232165,2.58897355 C123.182165,2.43997355 123.264165,2.27897355 123.415165,2.22997355 C123.566165,2.17997355 123.725165,2.26197355 123.770165,2.41197355" id="Fill-195" fill="#A8AAAB"></path>
                <path d="M125.776976,2.43620895 C125.812976,2.58920895 125.720976,2.74020895 125.570976,2.77520895 C125.421976,2.81020895 125.266976,2.71520895 125.224976,2.56420895 C125.183976,2.41320895 125.275976,2.26120895 125.430976,2.22520895 C125.585976,2.18920895 125.740976,2.28320895 125.776976,2.43620895" id="Fill-197" fill="#A8AAAB"></path>
                <path d="M126.777487,2.44448434 C126.804487,2.59648434 126.703487,2.74048434 126.554487,2.77948434 C126.404487,2.81448434 126.256487,2.71848434 126.224487,2.56448434 C126.191487,2.41148434 126.290487,2.25748434 126.445487,2.22148434 C126.599487,2.18248434 126.749487,2.28748434 126.777487,2.44448434" id="Fill-199" fill="#A8AAAB"></path>
                <g id="Group-203" transform="translate(126.000000, 0.000000)">
                    <mask id="mask-2" fill="white">
                        <use xlink:href="#path-1"></use>
                    </mask>
                    <g id="Clip-202"></g>
                    <path d="M1.9605,1.49445 C1.989,1.72845 1.827,1.94295 1.599,1.97445 C1.3695,2.00745 1.155,1.84395 1.119,1.61145 C1.083,1.37895 1.245,1.16445 1.4805,1.13145 C1.7175,1.09845 1.932,1.26045 1.9605,1.49445" id="Fill-201" fill="#A8AAAB" mask="url(#mask-2)"></path>
                </g>
                <g id="Group-206" transform="translate(128.000000, 0.000000)">
                    <mask id="mask-4" fill="white">
                        <use xlink:href="#path-3"></use>
                    </mask>
                    <g id="Clip-205"></g>
                    <path d="M2.14995,1.32765 C2.16645,1.56165 1.99245,1.76115 1.76145,1.77315 C1.53045,1.78065 1.32495,1.60665 1.30245,1.37715 C1.27845,1.13865 1.45245,0.93315 1.68945,0.92415 C1.92795,0.91215 2.13345,1.09365 2.14995,1.32765" id="Fill-204" fill="#A8AAAB" mask="url(#mask-4)"></path>
                </g>
                <g id="Group-209" transform="translate(130.000000, 0.000000)">
                    <mask id="mask-6" fill="white">
                        <use xlink:href="#path-5"></use>
                    </mask>
                    <g id="Clip-208"></g>
                    <path d="M1.3472,1.2441 C1.3517,1.4796 1.1672,1.6791 0.9362,1.6911 C0.7052,1.7016 0.5102,1.5216 0.4982,1.2861 C0.4877,1.0506 0.6722,0.8511 0.9092,0.8391 C1.1477,0.8271 1.3427,1.0086 1.3472,1.2441" id="Fill-207" fill="#A8AAAB" mask="url(#mask-6)"></path>
                </g>
                <g id="Group-212" transform="translate(131.000000, 0.000000)">
                    <mask id="mask-8" fill="white">
                        <use xlink:href="#path-7"></use>
                    </mask>
                    <g id="Clip-211"></g>
                    <path d="M1.5452,1.27215 C1.5377,1.50765 1.3442,1.69065 1.1132,1.68165 C0.8822,1.67265 0.6947,1.47465 0.6962,1.23915 C0.6977,1.00515 0.8912,0.82065 1.1282,0.82965 C1.3667,0.83865 1.5527,1.03665 1.5452,1.27215" id="Fill-210" fill="#A8AAAB" mask="url(#mask-8)"></path>
                </g>
                <g id="Group-215" transform="translate(133.000000, 0.000000)">
                    <mask id="mask-10" fill="white">
                        <use xlink:href="#path-9"></use>
                    </mask>
                    <g id="Clip-214"></g>
                    <path d="M1.24335,1.3371 C1.22385,1.5711 1.02135,1.7541 0.79035,1.7466 C0.55935,1.7376 0.38235,1.5396 0.39435,1.3041 C0.40635,1.0701 0.61035,0.8871 0.84735,0.8961 C1.08585,0.9051 1.26285,1.1031 1.24335,1.3371" id="Fill-213" fill="#A8AAAB" mask="url(#mask-10)"></path>
                </g>
                <g id="Group-218" transform="translate(134.000000, 0.000000)">
                    <mask id="mask-12" fill="white">
                        <use xlink:href="#path-11"></use>
                    </mask>
                    <g id="Clip-217"></g>
                    <path d="M1.42665,1.5681 C1.39665,1.8021 1.18815,1.9641 0.95865,1.9326 C0.72915,1.9011 0.56115,1.6851 0.58515,1.4511 C0.60915,1.2171 0.81765,1.0536 1.05315,1.0866 C1.28865,1.1196 1.45665,1.3341 1.42665,1.5681" id="Fill-216" fill="#A8AAAB" mask="url(#mask-12)"></path>
                </g>
                <path d="M136.77998,2.53948937 C136.75398,2.69448937 136.60798,2.80248937 136.45498,2.78048937 C136.30198,2.75948937 136.19698,2.61648937 136.21898,2.46148937 C136.24098,2.30648937 136.38698,2.19748937 136.54398,2.21948937 C136.70098,2.24148937 136.80598,2.38448937 136.77998,2.53948937" id="Fill-219" fill="#A8AAAB"></path>
                <path d="M138.776262,2.57017595 C138.743262,2.72317595 138.595262,2.81517595 138.446262,2.77617595 C138.294262,2.74917595 138.193262,2.61117595 138.222262,2.45517595 C138.251262,2.30317595 138.403262,2.19117595 138.559262,2.21917595 C138.712262,2.26017595 138.809262,2.41717595 138.776262,2.57017595" id="Fill-221" fill="#A8AAAB"></path>
                <path d="M139.773018,2.57273184 C139.732018,2.72373184 139.578018,2.81473184 139.429018,2.77573184 C139.280018,2.73573184 139.189018,2.58073184 139.225018,2.42773184 C139.262018,2.27473184 139.416018,2.18473184 139.569018,2.22473184 C139.723018,2.26573184 139.814018,2.42173184 139.773018,2.57273184" id="Fill-223" fill="#A8AAAB"></path>
                <path d="M140.772881,3.57290715 C140.724881,3.72190715 140.564881,3.81090715 140.415881,3.77190715 C140.266881,3.73290715 140.181881,3.57890715 140.224881,3.42790715 C140.268881,3.27690715 140.428881,3.18790715 140.581881,3.22890715 C140.735881,3.26990715 140.820881,3.42390715 140.772881,3.57290715" id="Fill-225" fill="#A8AAAB"></path>
                <path d="M142.76177,3.60553851 C142.70577,3.75253851 142.54477,3.82453851 142.40177,3.76753851 C142.25877,3.70953851 142.18477,3.54353851 142.23577,3.39553851 C142.28677,3.24653851 142.44777,3.17453851 142.59577,3.23353851 C142.74277,3.29253851 142.81777,3.45853851 142.76177,3.60553851" id="Fill-227" fill="#A8AAAB"></path>
                <path d="M143.761878,4.60603797 C143.698878,4.74903797 143.530878,4.81903797 143.387878,4.76203797 C143.244878,4.70503797 143.176878,4.54103797 143.235878,4.39603797 C143.294878,4.25003797 143.461878,4.18003797 143.609878,4.23903797 C143.756878,4.29803797 143.824878,4.46303797 143.761878,4.60603797" id="Fill-229" fill="#A8AAAB"></path>
                <path d="M144.74773,4.63685177 C144.67673,4.77685177 144.50973,4.82985177 144.37473,4.75685177 C144.24073,4.67985177 144.18373,4.50885177 144.24773,4.37085177 C144.31573,4.22485177 144.48473,4.16685177 144.62373,4.24585177 C144.76273,4.32185177 144.81873,4.49685177 144.74773,4.63685177" id="Fill-231" fill="#A8AAAB"></path>
                <path d="M146.747096,5.63664742 C146.669096,5.77264742 146.496096,5.82264742 146.361096,5.74864742 C146.226096,5.67564742 146.176096,5.50364742 146.250096,5.36464742 C146.324096,5.22664742 146.497096,5.17664742 146.636096,5.25264742 C146.776096,5.32864742 146.825096,5.50064742 146.747096,5.63664742" id="Fill-233" fill="#A8AAAB"></path>
                <path d="M147.737031,5.65771178 C147.652031,5.78971178 147.481031,5.82371178 147.355031,5.73471178 C147.221031,5.65871178 147.176031,5.49171178 147.258031,5.35671178 C147.339031,5.22371178 147.519031,5.17471178 147.656031,5.25371178 C147.786031,5.34571178 147.822031,5.52571178 147.737031,5.65771178" id="Fill-235" fill="#A8AAAB"></path>
                <path d="M148.730074,6.66421151 C148.638074,6.79121151 148.461074,6.82221151 148.335074,6.73321151 C148.209074,6.64421151 148.179074,6.46721151 148.267074,6.33721151 C148.356074,6.20821151 148.532074,6.17721151 148.662074,6.26821151 C148.792074,6.36021151 148.822074,6.53721151 148.730074,6.66421151" id="Fill-237" fill="#A8AAAB"></path>
                <path d="M149.720525,7.67842186 C149.619525,7.80242186 149.452525,7.81042186 149.327525,7.72042186 C149.201525,7.63142186 149.177525,7.45842186 149.272525,7.33342186 C149.367525,7.20842186 149.549525,7.18242186 149.679525,7.27342186 C149.807525,7.36742186 149.817525,7.55942186 149.720525,7.67842186" id="Fill-239" fill="#A8AAAB"></path>
                <path d="M150.71126,8.68848836 C150.60626,8.80448836 150.42726,8.81648836 150.31126,8.71548836 C150.19626,8.61348836 150.18426,8.43348836 150.28626,8.31448836 C150.38726,8.19448836 150.56626,8.18248836 150.68526,8.28748836 C150.80526,8.39248836 150.81626,8.57248836 150.71126,8.68848836" id="Fill-241" fill="#A8AAAB"></path>
                <path d="M152.700028,9.70016801 C152.588028,9.81216801 152.416028,9.80716801 152.307028,9.69916801 C152.191028,9.59716801 152.184028,9.42216801 152.292028,9.30816801 C152.399028,9.19416801 152.583028,9.18716801 152.702028,9.29216801 C152.815028,9.40316801 152.810028,9.59016801 152.700028,9.70016801" id="Fill-243" fill="#A8AAAB"></path>
                <path d="M153.692182,10.7080682 C153.576182,10.8130682 153.396182,10.8070682 153.291182,10.6950682 C153.186182,10.5820682 153.192182,10.4030682 153.305182,10.2940682 C153.419182,10.1860682 153.598182,10.1920682 153.706182,10.3080682 C153.815182,10.4230682 153.808182,10.6030682 153.692182,10.7080682" id="Fill-245" fill="#A8AAAB"></path>
                <path d="M153.675278,11.7219462 C153.554278,11.8209462 153.378278,11.8029462 153.284278,11.6819462 C153.193278,11.5569462 153.194278,11.3909462 153.315278,11.2849462 C153.431278,11.1849462 153.624278,11.1869462 153.718278,11.3159462 C153.815278,11.4409462 153.796278,11.6229462 153.675278,11.7219462" id="Fill-247" fill="#A8AAAB"></path>
                <path d="M154.673406,12.7242826 C154.547406,12.8182826 154.368406,12.7952826 154.273406,12.6732826 C154.178406,12.5522826 154.201406,12.3752826 154.324406,12.2782826 C154.447406,12.1812826 154.626406,12.2032826 154.724406,12.3282826 C154.822406,12.4532826 154.799406,12.6302826 154.673406,12.7242826" id="Fill-249" fill="#A8AAAB"></path>
                <path d="M155.655669,13.7374123 C155.525669,13.8254123 155.351669,13.7914123 155.265669,13.6634123 C155.180669,13.5344123 155.215669,13.3564123 155.342669,13.2654123 C155.470669,13.1734123 155.644669,13.2074123 155.732669,13.3394123 C155.819669,13.4714123 155.785669,13.6494123 155.655669,13.7374123" id="Fill-251" fill="#A8AAAB"></path>
                <path d="M156.65568,15.7373817 C156.52168,15.8193817 156.34468,15.7813817 156.25868,15.6523817 C156.17368,15.5233817 156.21168,15.3503817 156.34268,15.2653817 C156.47468,15.1793817 156.65268,15.2173817 156.73968,15.3503817 C156.82668,15.4823817 156.78968,15.6553817 156.65568,15.7373817" id="Fill-253" fill="#A8AAAB"></path>
                <path d="M157.638843,16.7475951 C157.501843,16.8235951 157.328843,16.7755951 157.252843,16.6415951 C157.176843,16.5075951 157.224843,16.3335951 157.359843,16.2545951 C157.494843,16.1755951 157.667843,16.2225951 157.745843,16.3605951 C157.823843,16.4985951 157.775843,16.6715951 157.638843,16.7475951" id="Fill-255" fill="#A8AAAB"></path>
                <path d="M157.623053,17.7550782 C157.483053,17.8250782 157.314053,17.7690782 157.247053,17.6300782 C157.182053,17.4900782 157.232053,17.3210782 157.370053,17.2480782 C157.509053,17.1740782 157.685053,17.2270782 157.752053,17.3700782 C157.821053,17.5130782 157.763053,17.6850782 157.623053,17.7550782" id="Fill-257" fill="#A8AAAB"></path>
                <path d="M158.620597,19.7566968 C158.479597,19.8196968 158.309597,19.7586968 158.241597,19.6196968 C158.173597,19.4806968 158.233597,19.3136968 158.375597,19.2456968 C158.516597,19.1786968 158.687597,19.2396968 158.757597,19.3816968 C158.827597,19.5236968 158.765597,19.6916968 158.620597,19.7566968" id="Fill-259" fill="#A8AAAB"></path>
                <path d="M159.609228,20.7621102 C159.463228,20.8201102 159.296228,20.7511102 159.237228,20.6091102 C159.177228,20.4661102 159.245228,20.3011102 159.389228,20.2401102 C159.534228,20.1781102 159.701228,20.2471102 159.762228,20.3931102 C159.823228,20.5391102 159.755228,20.7041102 159.609228,20.7621102" id="Fill-261" fill="#A8AAAB"></path>
                <path d="M159.596545,21.767068 C159.448545,21.818068 159.285545,21.741068 159.232545,21.597068 C159.179545,21.452068 159.255545,21.290068 159.402545,21.235068 C159.549545,21.180068 159.712545,21.256068 159.766545,21.405068 C159.821545,21.554068 159.744545,21.716068 159.596545,21.767068" id="Fill-263" fill="#A8AAAB"></path>
                <path d="M160.579488,23.7721893 C160.427488,23.8141893 160.276488,23.7281893 160.227488,23.5821893 C160.181488,23.4351893 160.264488,23.2781893 160.414488,23.2301893 C160.563488,23.1831893 160.723488,23.2671893 160.771488,23.4191893 C160.821488,23.5691893 160.729488,23.7301893 160.579488,23.7721893" id="Fill-265" fill="#A8AAAB"></path>
                <path d="M181.168433,228 C181.168433,228 181.626319,231.001685 183.247585,232.500527 C185.99988,235.043491 185.907805,235.986268 185.997391,236.336976 C186.197716,237.126402 174.796597,237.435771 174.148339,235.9756 C173.450311,234.403416 175.442366,229.149468 175.442366,229.149468 L181.168433,228 Z" id="Fill-267" fill="#1F3245"></path>
                <path d="M163.248368,219.88094 C163.248368,219.88094 162.876363,224.527118 163.622861,228.287448 C164.274803,231.568698 167.267015,236.825671 165.389573,237 C165.389573,237 161.40825,233.749742 160.985235,232.74251 C158.593953,227.041322 155.709982,222.858729 156.023512,221.315599 C156.291007,219.994576 159.152582,217 159.152582,217 L163.248368,219.88094 Z" id="Fill-269" fill="#1F3245"></path>
                <polygon id="Fill-271" fill="#1F3245" points="187 134.579458 180.04494 135.085616 181.705464 230.465722 174.455545 231 163 133.716689 163 123.330225 168.668283 113 184.873909 114.602834"></polygon>
                <path d="M172.609064,114 C172.609064,114 168.247468,116.96503 166.252284,128.876469 C164.049161,142.024728 177,231 177,231" id="Stroke-273" stroke="#727983" stroke-width="0.323"></path>
                <path d="M195.25842,115.062321 L197,126.35957 C197,126.35957 195.915787,149.196261 195.915787,165.901223 C195.915787,170.282495 195.573804,174.048672 194.718846,176.611568 C193.84869,179.22316 192.479491,181.527204 189.680296,185.014025 C179.919847,197.180096 164.235491,223 164.235491,223 L158,219.317117 C158,219.317117 169.119515,190.801046 176.199831,181.707889 C177.582963,179.931801 181.821019,174.676581 181.821019,174.676581 L181.285246,134.813285 L184.331428,114 L195.25842,115.062321 Z" id="Fill-275" fill="#2C3E4F"></path>
                <path d="M181.627316,134.330609 C181.627316,134.330609 184.835296,128.977422 190.181505,131.816862 C195.527713,134.655044 196.948099,138 196.948099,138 L198,126.584396 L189.050551,116.848814 L181,116 L181.627316,134.330609 Z" id="Fill-277" fill="#1F3245"></path>
                <path d="M184.399529,114 C184.399529,114 185.750588,124.995275 184.399529,127.963748 C183.048471,130.932221 181,131 181,131" id="Stroke-279" stroke="#727983" stroke-width="0.323"></path>
                <path d="M181.9125,114 L181.0875,135" id="Stroke-281" stroke="#727983" stroke-width="0.323"></path>
                <polygon id="Fill-283" fill="#FFFFFF" points="40.0644925 69.5634087 50.6597448 67.9383334 53.259571 67 59.1994694 73.8135069 66 113.558536 55.997713 115.481414 39.3178429 116 38 69.5980667"></polygon>
                <path d="M38.0321331,70 L42.233252,71.6349823 L46.2626596,71.4764308 C37.2394205,82.5712252 42.3985081,96.679765 44.0755989,100.084181 C48.3373978,108.737284 62.549419,110.038674 62.549419,110.038674 L63,119 L49.4851528,119 C42.6670492,119 36,115.851803 36,115.851803 L38.0321331,70 Z" id="Fill-285" fill="#F6F7F8"></path>
                <path d="M62.5612939,119 L63.6731197,131.636446 C63.6731197,131.636446 66.6124443,169.55598 67.443716,182.223011 C67.5502227,183.846532 68.2775854,186.871837 68.3918852,188.496632 C68.5022885,190.062807 68.2438149,193.198981 68.3724023,194.763881 C69.1257422,203.874204 71,230.520845 71,230.520845 L65.1992825,231 C65.1992825,231 60.4467467,209.513199 59.5609228,202.161478 C59.1816551,199.022756 59.2556903,189.198798 59.2556903,189.198798 L50,139.073548 L50.6819025,119.345349 L62.5612939,119 Z" id="Fill-287" fill="#FCBAA2"></path>
                <path d="M33.4717821,119 L31.567076,131.583149 C31.567076,131.583149 26.2389613,169.370966 24.6050905,182.002718 C24.3962689,183.623256 23.4913753,186.605966 23.2736946,188.223945 C23.064873,189.785647 23.1129652,192.943585 22.8851598,194.502729 C21.5588263,203.578763 18,230.144325 18,230.144325 L23.6090747,231 C23.6090747,231 29.6294647,209.787201 30.9709853,202.481351 C31.5430299,199.363063 32.1112778,189.518329 32.1112778,189.518329 L44.377332,139.916063 L45,120.112761 L33.4717821,119 Z" id="Fill-289" fill="#FCBAA2"></path>
                <polygon id="Fill-291" fill="#F6F7F8" points="33.3993224 116 24 158.366101 41.4786861 160 47.1854176 141.924523 51.4797172 160 67 158.672616 63.7102371 116.173523"></polygon>
                <path d="M61,159.253661 C60.8119394,159.271163 49.6687241,139 49.6687241,139 L48.3034044,139.33629 L48,142.159126 L52.2501688,160 L61,159.253661 Z" id="Fill-293" fill="#E5E8EB"></path>
                <path d="M28.9106418,158.999995 C28.712632,159.017747 37,116 37,116 L33.1388099,116.461561 L24,158.548578 L28.9106418,158.999995 Z" id="Fill-295" fill="#E5E8EB"></path>
                <path d="M61.1709766,79 L57,79.9837355 C57,79.9837355 57.6127975,86.4442039 60.5144078,85.9756966 C63.4174301,85.5058916 61.1709766,79 61.1709766,79" id="Fill-297" fill="#82C0E4"></path>
                <polygon id="Fill-299" fill="#5FAEDD" points="84 53 61 71.6211192 61.4678444 74"></polygon>
                <path d="M171,67 C171,67 173.869765,72 179.862883,72 C184.777929,72 186,67.4280904 186,67.4280904 L184.259281,67.3884079 C184.259281,67.3884079 183.03721,70.5425685 179.946988,70.5425685 C175.370912,70.5425685 173.086059,67 173.086059,67 L171,67 Z" id="Fill-301" fill="#FB8A60"></path>
                <polygon id="Fill-303" fill="#F6F7F8" points="186.426192 67.4876552 175.495079 67 169.982841 67.071865 164 77.1124285 166.149886 110.207532 194 113 192.687863 81.1971823"></polygon>
                <path d="M170.39254,72 C170.39254,72 164.186506,93.2232994 171.764844,102.110468 C174.290957,105.073283 187.212848,107.806423 193.015114,103.37496 C198.795657,98.957533 194.400195,112.445869 194.400195,112.445869 C194.400195,112.445869 174.455787,113.651666 171.336798,112.50584 C168.217809,111.360014 170.39254,72 170.39254,72" id="Fill-305" fill="#F6F7F8"></path>
                <path d="M222,65.4728673 L216.463044,63 L212.296163,87.9995846 L212,87.8108455 C212.124903,91.7268608 214.407932,95.4477172 217.742982,97 C217.82153,96.8664703 217.889776,96.725237 217.934844,96.5724482 L222,65.4728673 Z" id="Fill-307" fill="#2C3E4F"></path>
                <path d="M214.426755,87.2482304 L196.339613,68 L186.165755,68 L179,102.297309 C179,102.297309 179.613951,125.851449 185.413088,130.067123 C189.218812,132.833937 200.740021,128.564884 200.740021,128.564884 L196.528422,109.395451 L198.505138,83.0922902 L214.704189,97.5847017 C215.422178,97.8897248 217.352654,98.5112094 218,97.4360029 C214.675932,95.8930942 212.494994,91.124566 214.426755,87.2482304" id="Fill-309" fill="#2C3E4F"></path>
                <path d="M168.339719,123 L182,102.245014 L171.634738,67 L162.785441,68.1947246 C162.785441,68.1947246 166.256705,75.3962944 164.047254,78.6878565 L164.194125,78.5664674 L165.407407,106.880801 L162,122.23461 L168.339719,123 Z" id="Fill-311" fill="#2C3E4F"></path>
                <path d="M162.757485,80.3585322 C162.800664,78.4836172 166.474674,77 166.474674,77 C165.774923,79.0941436 165.848581,81.2647623 167.876716,87.4834638 C172.772432,102.487881 182,102.556709 182,102.556709 C182,102.556709 171.823768,123.698255 163.737899,126.501068 C158.402774,128.350491 156,124.463006 156,124.463006 C156,124.463006 164.202706,112.00521 164.459239,107.284146 C164.823719,100.553061 162.757485,80.3585322 162.757485,80.3585322" id="Fill-313" fill="#1F3245"></path>
                <path d="M184.832179,47.6944698 C182.877628,48.3091093 181.540575,50.8705358 180.85461,53.2262252 C182.484909,44.688137 176.282795,40.2172134 169.715091,37 C170.003171,37.7432251 164.284204,46.7467935 164.284204,46.7467935 L165.977804,47.8744898 L164.923664,50.8628206 L168.883147,51.2845816 L164.767352,51.8657888 L164,58.4596618 C164,58.4596618 172.493834,61.1381012 173.771462,63.0617428 C175.04909,64.9840985 174.091838,68.5652093 174.091838,68.5652093 C174.091838,68.5652093 175.551615,72.4922155 179.706166,71.9482982 C182.897005,71.5303947 185.351497,67.2716375 185.351497,67.2716375 C185.351497,67.2716375 183.194128,56.7494724 186,47.7973384 C185.695126,47.5967447 185.31791,47.5414529 184.832179,47.6944698" id="Fill-315" fill="#FCBAA2"></path>
                <path d="M166.010819,26.1186504 C166.033608,25.480075 166.090581,24.8440487 166.164012,24.2105717 C166.333665,23.5898407 166.503317,22.9729335 166.751466,22.3815183 C166.728677,23.0213683 166.699557,23.649747 166.712218,24.2794002 C166.632456,24.8963074 166.583079,25.518313 166.559024,26.139044 C166.519776,27.3805061 166.581813,28.6219681 166.886935,29.8175445 C167.174331,31.0220431 167.603527,32.2010497 168.060576,33.3634864 C168.258081,33.8554827 168.466982,34.3436551 168.679681,34.8292784 C168.403679,33.8274414 168.080833,32.5031303 167.717472,30.7531022 C166.433684,24.577657 171.548581,19 171.548581,19 C171.548581,19 171.627076,20.2911715 174.022469,24.7968885 C176.417861,29.3013308 189,38.1368697 189,38.1368697 C189,38.1368697 187.701019,39.2088097 185.511995,46.8181818 C185.437297,47.076926 185.367664,47.3445923 185.301828,47.6186317 C185.003037,47.4210684 184.633347,47.3649859 184.157307,47.5166635 C182.241753,48.1259231 180.931377,50.6649297 180.259098,53 C181.85687,44.5366448 175.778499,40.1048547 169.341832,36.9158013 C168.963279,36.4021368 168.634102,35.8591565 168.290999,35.3187254 C168.033988,34.7413308 167.788372,34.1575633 167.551618,33.5699719 C167.089505,32.3896907 166.652713,31.1953889 166.353922,29.9462793 C166.034874,28.6946204 165.970305,27.3919775 166.010819,26.1186504" id="Fill-317" fill="#2C3E4F"></path>
                <path d="M188.403878,43.9934345 C188.516664,43.9725069 188.614209,43.9035691 188.64774,43.8063176 C189.492113,41.3984187 190.93852,39.4226121 190.953762,39.4029156 C191.046734,39.2761193 190.994914,39.112392 190.839451,39.037299 C190.682465,38.9622061 190.479755,39.0040611 190.386782,39.1308575 C190.325817,39.2133366 188.880933,41.1866812 188.012174,43.6610558 C187.963402,43.8026245 188.065519,43.9503484 188.240795,43.9897414 C188.295664,44.0020517 188.352057,44.0032828 188.403878,43.9934345" id="Fill-319" fill="#2C3E4F"></path>
                <path d="M169.317661,45.941452 C169.721261,46.1270408 170.354647,45.8568799 170.73026,45.3365265 C171.107345,44.8173477 171.086724,44.2441368 170.683124,44.058548 C170.279524,43.8729592 169.646138,44.1431201 169.269053,44.6634735 C168.891967,45.1826523 168.914062,45.7558632 169.317661,45.941452" id="Fill-321" fill="#2C3E4F"></path>
                <path d="M169.454902,50.5666045 C170.248732,51.3432251 171.808243,51.0479693 172.937058,49.9061271 C174.06728,48.7642849 174.338928,47.2096443 173.545098,46.4330237 C172.751268,45.6564031 171.191757,45.9530581 170.062942,47.093501 C168.93272,48.2353433 168.661072,49.7899838 169.454902,50.5666045" id="Fill-323" fill="#FCA889"></path>
                <path d="M176.613878,61.1214099 C179.744699,60.3836423 180.296302,56.8605805 180.296302,56.8605805 L180.296302,56.861846 C180.525819,54.9687064 180.920183,53.5134187 181.301867,52.4618152 C181.329764,52.3871526 181.357661,52.3112245 181.386826,52.2365619 C181.391899,52.2226418 181.396971,52.2099871 181.402043,52.1973324 C181.663262,51.5367583 182.218669,48.972921 182.581331,48.3933369 L184.92596,48.0655808 C185.367242,47.9440959 185.717224,47.99598 186,48.1832692 C183.245791,56.9921891 185.363438,67.3475104 185.363438,67.3475104 C185.363438,67.3475104 182.954139,71.5400045 179.82205,71.950016 C178.712504,72.0955448 177.804579,71.909521 177.062769,71.5703757 C177.218739,71.4362362 177.414019,71.3134858 177.658753,71.2071865 C178.294047,70.9300491 178.756886,70.447906 179.113209,69.8139067 C179.172807,69.5291765 179.875308,65.7403666 177.918704,64.4989428 C176.359,63.5106127 174.350405,62.9044537 173.490666,62.6741386 C172.370976,61.7452854 170.027615,60.724053 168,59.944525 C171.010356,60.9252624 174.75111,61.5605271 176.613878,61.1214099" id="Fill-325" fill="#FCB399"></path>
                <path d="M180.185071,42.1238476 C181.654594,41.4935325 185.784894,35 185.784894,35 C188.188604,36.7726006 190,37.9997856 190,37.9997856 C190,37.9997856 188.640459,39.0803259 186.349382,46.7598799 C186.271201,47.0222969 186.198322,47.2924319 186.129417,47.5689988 C185.816696,47.368327 185.42977,47.3130136 184.931537,47.4660902 C182.926678,48.0809691 181.555212,50.6421068 180.85159,53 C181.723498,48.5466305 180.409011,45.2008147 178,42.5612092 C178.646643,42.5367684 179.462898,42.4325734 180.185071,42.1238476" id="Fill-327" fill="#1F3245"></path>
                <path d="M187.836053,51.1406582 C187.345141,53.041098 185.902433,54.29415 184.612482,53.9401729 C183.322531,53.5861958 182.673639,51.7597816 183.163246,49.8593418 C183.654158,47.958902 185.098172,46.70585 186.388123,47.0598271 C187.678073,47.4138042 188.326966,49.2402184 187.836053,51.1406582" id="Fill-329" fill="#FCB399"></path>
                <path d="M186.998297,50.5898959 C187.029685,51.1333171 186.625921,51.6742682 185.892582,51.9076923 C185.052239,52.1744627 184.313194,51.8175338 184.106319,51.4161431 C183.90087,51.0147525 183.969353,50.1514538 184.522923,49.1905864 C184.875325,48.5780025 185.490245,48 185.490245,48 C185.490245,48 184.913847,48.8892347 184.819683,49.4240105 C184.711251,50.0291841 184.892446,50.1156374 184.892446,50.1156374 C184.892446,50.1156374 185.314757,49.7167169 185.83266,49.6697851 C186.349136,49.6240883 186.959775,49.9316153 186.998297,50.5898959" id="Fill-331" fill="#F29C81"></path>
                <path d="M192.092819,80 L195.918082,80.2237365 C195.918082,80.2237365 196.607428,86.9345315 193.986705,86.9995712 C191.364773,87.0633101 192.092819,80 192.092819,80" id="Fill-333" fill="#1F3245"></path>
                <path d="M222,69.4146597 C221.470962,69.5264126 219.144977,69.3660143 217.940653,69.0938633 C216.54557,68.7783258 216.15515,68 216.15515,68 L216,68.5613938 C216.352268,68.9558156 216.897838,69.383106 218.036032,69.6565718 C219.858415,70.0930653 221.879186,69.9892009 221.879186,69.9892009 L222,69.4146597 Z" id="Fill-335" fill="#1F3245"></path>
                <polygon id="Fill-337" fill="#1F3245" points="198.788778 82.5143504 198 78 215 97"></polygon>
                <path d="M172.867581,129.363816 C173.964083,127.849517 167.889307,122.109239 167.932061,120.630721 C167.953438,119.902325 169.36682,120.396868 169.749087,120.465874 C170.631822,120.624332 172.038916,120.707395 172.270288,119.58413 C172.484056,118.546484 170.414282,119.026971 169.87609,118.790561 C168.882699,118.350967 165.495109,117.464112 165.495109,117.464112 L163.700718,117.439832 C162.274761,117.608514 161.091494,116.268008 160.437616,117.586789 C159.07076,120.34703 161.28137,123.421631 161.956624,124.86948 C162.460865,125.948018 164.917936,131.340711 165.98929,131.016127 C166.816696,130.765661 164.43633,127.063616 164.987096,126.91538 C165.620855,126.742865 168.506719,132.446085 169.678669,131.971988 C171.156181,131.375214 166.325031,126.560127 166.921065,126.184428 C167.652906,125.72311 170.586553,132.351521 171.630243,131.513226 C172.949315,130.4513 168.123195,125.720554 168.702882,125.265626 C169.281313,124.810697 171.921973,130.671097 172.867581,129.363816" id="Fill-339" fill="#FCB297"></path>
                <path d="M147.447027,94.3175416 L163.652052,79.8591549 C165.989764,76.6734955 165.165951,70.5300896 162.114183,68 L139.353976,91.3533931 C137.655886,92.3815621 137.530989,94.8309859 139.115537,96.0320102 L159.16208,122 L162.367761,117.193342 L147.447027,94.3175416 Z" id="Fill-341" fill="#2C3E4F"></path>
                <path d="M70.7629524,231 C70.7629524,231 73.8792825,232.095821 77.1388477,232.848879 C80.3984128,233.603211 84.6993354,233.808359 84.9070908,234.561417 C85.1161365,235.314475 84.9070908,236 84.9070908,236 L65,236 L65,231.479103 L70.7629524,231 Z" id="Fill-343" fill="#FCBAA2"></path>
                <path d="M19.4975571,217 C19.4975571,217 19.3420861,218.030861 19.1056672,219.547516 C19.0234346,220.075833 18.4413818,222.766381 18.3424456,223.390052 C18.2563583,223.940274 18.3707131,224.839701 18.2884805,225.432446 C18.2229513,225.905354 17.7064276,226.478771 17.6319043,226.956833 C17.5303984,227.615295 18.0173697,227.745442 17.6319043,228.246698 C16.0437866,230.316152 17.0781189,231.671735 16.9342118,231.720701 C15.8998794,232.071194 13.5601041,232.830166 11.1419507,233.398428 C7.89633147,234.159977 0.298807119,234.367438 0.0919406521,235.130275 C-0.114925815,235.891824 0.0919406521,237 0.0919406521,237 L23.2288629,237 C24.789998,235.649572 23.8918635,232.809548 23.8918635,232.809548 C23.8918635,232.809548 24.187387,232.113717 24.3068813,231.5854 C24.4610675,230.905032 23.9869449,229.65769 23.9869449,229.65769 C23.9869449,229.65769 25.0418354,228.620385 25.1703239,228.133303 C25.2936729,227.664261 25.0662482,226.436248 25.0662482,226.436248 C25.0662482,226.436248 25.6752837,225.561304 25.8269001,224.947941 C25.9091327,224.612912 26.2457726,221.079634 26.2457726,221.079634 L27,218.194511 L19.4975571,217 Z" id="Fill-345" fill="#E3E6E9"></path>
                <path d="M35,127.5 C35,128.329138 34.3276864,129 33.5,129 C32.6708616,129 32,128.329138 32,127.5 C32,126.670862 32.6708616,126 33.5,126 C34.3276864,126 35,126.670862 35,127.5" id="Fill-347" fill="#FC9789"></path>
                <path d="M40,120.5 C40,121.329138 39.3276864,122 38.5,122 C37.6708616,122 37,121.329138 37,120.5 C37,119.670862 37.6708616,119 38.5,119 C39.3276864,119 40,119.670862 40,120.5" id="Fill-349" fill="#FC9789"></path>
                <path d="M44,127.5 C44,128.329138 43.3276864,129 42.5,129 C41.6708616,129 41,128.329138 41,127.5 C41,126.670862 41.6708616,126 42.5,126 C43.3276864,126 44,126.670862 44,127.5" id="Fill-351" fill="#FC9789"></path>
                <path d="M49,120.5 C49,121.329138 48.3276864,122 47.5,122 C46.6708616,122 46,121.329138 46,120.5 C46,119.670862 46.6708616,119 47.5,119 C48.3276864,119 49,119.670862 49,120.5" id="Fill-353" fill="#FC9789"></path>
                <path d="M54,127.5 C54,128.329138 53.3276864,129 52.5,129 C51.6708616,129 51,128.329138 51,127.5 C51,126.670862 51.6708616,126 52.5,126 C53.3276864,126 54,126.670862 54,127.5" id="Fill-355" fill="#FC9789"></path>
                <path d="M58,120.5 C58,121.329138 57.3276864,122 56.5,122 C55.6708616,122 55,121.329138 55,120.5 C55,119.670862 55.6708616,119 56.5,119 C57.3276864,119 58,119.670862 58,120.5" id="Fill-357" fill="#FC9789"></path>
                <path d="M64,119.5 C64,120.329138 63.3276864,121 62.5,121 C61.6708616,121 61,120.329138 61,119.5 C61,118.670862 61.6708616,118 62.5,118 C63.3276864,118 64,118.670862 64,119.5" id="Fill-359" fill="#FC9789"></path>
                <path d="M63,127.5 C63,128.329138 62.3276864,129 61.5,129 C60.6708616,129 60,128.329138 60,127.5 C60,126.670862 60.6708616,126 61.5,126 C62.3276864,126 63,126.670862 63,127.5" id="Fill-361" fill="#FC9789"></path>
                <path d="M66,134.5 C66,135.329138 65.3276864,136 64.5,136 C63.6708616,136 63,135.329138 63,134.5 C63,133.670862 63.6708616,133 64.5,133 C65.3276864,133 66,133.670862 66,134.5" id="Fill-363" fill="#FC9789"></path>
                <path d="M35,141.5 C35,142.329138 34.3276864,143 33.5,143 C32.6708616,143 32,142.329138 32,141.5 C32,140.670862 32.6708616,140 33.5,140 C34.3276864,140 35,140.670862 35,141.5" id="Fill-365" fill="#FC9789"></path>
                <path d="M40,134.5 C40,135.329138 39.3276864,136 38.5,136 C37.6708616,136 37,135.329138 37,134.5 C37,133.670862 37.6708616,133 38.5,133 C39.3276864,133 40,133.670862 40,134.5" id="Fill-367" fill="#FC9789"></path>
                <path d="M44,141.5 C44,142.329138 43.3276864,143 42.5,143 C41.6708616,143 41,142.329138 41,141.5 C41,140.670862 41.6708616,140 42.5,140 C43.3276864,140 44,140.670862 44,141.5" id="Fill-369" fill="#FC9789"></path>
                <path d="M49,134.5 C49,135.329138 48.3276864,136 47.5,136 C46.6708616,136 46,135.329138 46,134.5 C46,133.670862 46.6708616,133 47.5,133 C48.3276864,133 49,133.670862 49,134.5" id="Fill-371" fill="#FC9789"></path>
                <path d="M53,141.5 C53,142.329138 52.3276864,143 51.5,143 C50.6708616,143 50,142.329138 50,141.5 C50,140.670862 50.6708616,140 51.5,140 C52.3276864,140 53,140.670862 53,141.5" id="Fill-373" fill="#FC9789"></path>
                <path d="M58,134.5 C58,135.329138 57.3276864,136 56.5,136 C55.6708616,136 55,135.329138 55,134.5 C55,133.670862 55.6708616,133 56.5,133 C57.3276864,133 58,133.670862 58,134.5" id="Fill-375" fill="#FC9789"></path>
                <path d="M63,141.5 C63,142.329138 62.3276864,143 61.5,143 C60.6708616,143 60,142.329138 60,141.5 C60,140.670862 60.6708616,140 61.5,140 C62.3276864,140 63,140.670862 63,141.5" id="Fill-377" fill="#FC9789"></path>
                <path d="M31,147.5 C31,148.329138 30.3276864,149 29.5,149 C28.6708616,149 28,148.329138 28,147.5 C28,146.670862 28.6708616,146 29.5,146 C30.3276864,146 31,146.670862 31,147.5" id="Fill-379" fill="#FC9789"></path>
                <path d="M35,154.5 C35,155.329138 34.3276864,156 33.5,156 C32.6708616,156 32,155.329138 32,154.5 C32,153.670862 32.6708616,153 33.5,153 C34.3276864,153 35,153.670862 35,154.5" id="Fill-381" fill="#FC9789"></path>
                <path d="M40,148.5 C40,149.329138 39.3276864,150 38.5,150 C37.6708616,150 37,149.329138 37,148.5 C37,147.670862 37.6708616,147 38.5,147 C39.3276864,147 40,147.670862 40,148.5" id="Fill-383" fill="#FC9789"></path>
                <path d="M43,155.5 C43,156.329138 42.3276864,157 41.5,157 C40.6708616,157 40,156.329138 40,155.5 C40,154.670862 40.6708616,154 41.5,154 C42.3276864,154 43,154.670862 43,155.5" id="Fill-385" fill="#FC9789"></path>
                <path d="M33,134.5 C33,135.329138 32.3276864,136 31.5,136 C30.6708616,136 30,135.329138 30,134.5 C30,133.670862 30.6708616,133 31.5,133 C32.3276864,133 33,133.670862 33,134.5" id="Fill-387" fill="#FC9789"></path>
                <path d="M54,154.5 C54,155.329138 53.3276864,156 52.5,156 C51.6708616,156 51,155.329138 51,154.5 C51,153.670862 51.6708616,153 52.5,153 C53.3276864,153 54,153.670862 54,154.5" id="Fill-389" fill="#FC9789"></path>
                <path d="M56,148.5 C56,149.329138 55.3276864,150 54.5,150 C53.6708616,150 53,149.329138 53,148.5 C53,147.670862 53.6708616,147 54.5,147 C55.3276864,147 56,147.670862 56,148.5" id="Fill-391" fill="#FC9789"></path>
                <path d="M63,154.5 C63,155.329138 62.3276864,156 61.5,156 C60.6708616,156 60,155.329138 60,154.5 C60,153.670862 60.6708616,153 61.5,153 C62.3276864,153 63,153.670862 63,154.5" id="Fill-393" fill="#FC9789"></path>
                <path d="M66,148.5 C66,149.329138 65.3276864,150 64.5,150 C63.6708616,150 63,149.329138 63,148.5 C63,147.670862 63.6708616,147 64.5,147 C65.3276864,147 66,147.670862 66,148.5" id="Fill-395" fill="#FC9789"></path>
                <g id="Group-399" transform="translate(61.000000, 231.000000)">
                    <mask id="mask-14" fill="white">
                        <use xlink:href="#path-13"></use>
                    </mask>
                    <g id="Clip-398"></g>
                    <path d="M25.2349042,0.45012 C22.2873208,0.07332 17.0069875,0.45012 17.0069875,0.45012 L17.0069875,4.80732 L0.4684875,4.80732 L0.4684875,6.00012 L30.5462375,6.00012 C30.5462375,6.00012 30.5462375,1.13052 25.2349042,0.45012" id="Fill-397" fill="#6DCA8C" mask="url(#mask-14)"></path>
                </g>
                <path d="M53.7410051,36.6138142 C54.3761749,34.775615 53.8177982,32.7444628 52.343111,31.5069907 C51.4944825,30.7943509 50.7356629,30.0534113 50.6432509,29.6186238 C50.4232844,28.5856819 48.3563795,26.301118 47.3632759,26.0104021 C46.3688708,25.7209726 44,31.5674494 44,31.5674494 C44,31.5674494 47.1003573,34.1954696 48.3472684,35.0830535 C49.592878,35.9719238 53.0017091,39 53.0017091,39 L53.7410051,36.6138142 Z" id="Fill-400" fill="#FCA180"></path>
                <path d="M72.3296412,52.4104859 L48,41.2608696 L50.0319345,37 L83.2240244,49.4769821 C83.8911315,49.6675192 84.2253229,51.8171355 83.8311812,52.4002558 L61.4084716,73.0370844 L72.5299009,127.451407 L62.2924205,129 L53.4542071,66.6329923 L72.3296412,52.4104859 Z" id="Fill-402" fill="#278BD0"></path>
                <polygon id="Fill-404" fill="#1870A0" points="53 39 55.9633719 41.3761118 72 53 56.8791405 46.9453621 55.6782149 45.9656925 57.5687934 44.3748412"></polygon>
                <path d="M42.5075085,52.5178591 C39.9220705,44.3271909 44.6036405,39.0003028 50.9808874,35 C50.801934,35.771808 50.6780432,35.9734284 50.6780432,35.9734284 L57.2880546,43.8623081 L55.8351536,45.205588 L57.194198,48.0064421 L55.0642776,51.3171261 L57.7673493,50.0277829 L59,55.3662288 C59,55.3662288 50.7819113,58.715439 49.8183163,60.7855797 C48.8534699,62.8557203 51.3550626,67.5045474 51.3550626,67.5045474 C51.3550626,67.5045474 50.1587031,70.1230442 46.7948805,70.8601786 C43.3734926,71.6114393 39.947099,69.0905422 39.947099,69.0905422 C39.947099,69.0905422 39.7643914,55.3341236 37,47.8728846 C37.2627986,47.6340222 37.610694,47.5274331 38.0862344,47.6121907 C39.9996587,47.949937 41.5726962,50.289761 42.5075085,52.5178591" id="Fill-406" fill="#FCBAA2"></path>
                <path d="M41.7878285,52.8078999 C41.8353217,52.9659297 41.8789641,53.1517728 41.9226065,53.354051 C42.5130625,55.059509 44.0469647,58.7965987 46.2111145,59.0292186 C47.7257626,59.1910412 50.9963757,58.9394577 54,57.6941825 C51.8833434,58.739708 49.7538508,59.9837189 49.2866204,60.9470688 C49.1916339,61.1430258 49.1364391,61.3756457 49.1004983,61.6234365 C47.4022954,62.7726295 46.0275596,63.7928701 45.5847176,64.3529279 C44.1201299,66.2037734 44.9685895,70.1165922 44.9711568,70.1292346 C45.1701148,70.4503513 45.3742072,70.7322765 45.5872848,70.9585752 C42.2884325,71.3264687 39.1615826,69.1229006 39.1615826,69.1229006 C39.1615826,69.1229006 38.974177,58.3553794 37,50.9355623 L37.3452884,48 C39.2655542,48.3881213 40.8443824,50.6498444 41.7878285,52.8078999" id="Fill-408" fill="#FCB399"></path>
                <path d="M45.1936006,24.1052033 C46.9967433,19.2936819 46.9084049,18 46.9084049,18 C46.9084049,18 52.7231505,22.8269224 52.2411866,29.1426057 C52.1359599,30.5197096 51.9969569,31.8172418 51.8540565,32.9466466 C51.8865339,32.7913535 51.9242076,32.6373437 51.9553859,32.4820505 C52.219102,31.1575666 52.385386,29.8138315 52.439948,28.4675296 C52.4932108,27.1212277 52.4321534,25.7697921 52.2450839,24.4401745 C52.1957183,24.1167541 52.1203708,23.7894833 52.0385279,23.4647794 C52.0008541,23.3017858 51.9475913,23.141359 51.9008239,22.9796487 C51.8566547,22.8166551 51.8384674,22.6459609 51.8033918,22.4804004 C51.6799779,21.810458 51.5201893,21.1469326 51.3759898,20.4744234 C51.6994643,21.0840453 51.9761714,21.7129185 52.247682,22.3494921 C52.3126368,22.5086355 52.385386,22.667779 52.4360507,22.832056 L52.5633619,23.3351546 C52.6478031,23.6714092 52.7270478,24.0089472 52.7803107,24.3606028 C52.9738757,25.7312896 53.0362322,27.1122438 52.9803712,28.4893477 C52.9258092,29.8651681 52.7556279,31.2358549 52.4867154,32.5860071 C52.356806,33.2623666 52.1853255,33.9284588 52.012546,34.5958344 C51.8306728,35.0411793 51.6254159,35.4762568 51.4045699,35.9023505 C51.3474098,36.2090866 51.295446,36.458069 51.2525759,36.6351802 C46.2042959,37.6169924 39.9387646,44.8143816 42.6239923,53 C41.6535689,50.7732756 40.0206075,48.4348942 38.0329934,48.0973562 C37.5393376,48.0126508 37.1794885,48.1191742 36.9066788,48.3591727 C36.8053494,48.0960728 36.7014219,47.8381064 36.5935971,47.5916908 C33.4316018,40.336548 32,39.4535587 32,39.4535587 C32,39.4535587 43.3904579,28.9167247 45.1936006,24.1052033" id="Fill-410" fill="#2C3E4F"></path>
                <path d="M35.3439461,51.8486854 C36.0422683,53.4370833 37.5739476,54.3455854 38.764825,53.8765283 C39.9557024,53.4086556 40.3543762,51.740897 39.6560539,50.1513146 C38.9564456,48.5629167 37.4247664,47.6544146 36.235175,48.1234717 C35.0442976,48.5925288 34.6456238,50.2602875 35.3439461,51.8486854" id="Fill-412" fill="#FCB399"></path>
                <path d="M48.0019586,48.2117309 C48.0560633,49.3104231 49.2193157,50.105013 50.5989871,49.9886974 C51.9786585,49.8709803 53.0521462,48.885801 52.9980414,47.7871088 C52.942707,46.689818 51.7806843,45.8938267 50.4010129,46.0115437 C49.0213415,46.1278594 47.9478538,47.1130387 48.0019586,48.2117309" id="Fill-414" fill="#FCA889"></path>
                <path d="M37.0102248,51.8332187 C37.0857422,52.3828557 37.5821993,52.8610153 38.3373734,52.9768581 C39.2016282,53.1111864 39.8491201,52.6354916 39.9693886,52.2016973 C40.0910555,51.7666707 39.857511,50.9126383 39.1345016,50.0388879 C38.6744048,49.4806243 37.9667787,49 37.9667787,49 C37.9667787,49 38.6967803,49.7985758 38.8925662,50.3198683 C39.1149231,50.9089412 38.9568959,51.0235516 38.9568959,51.0235516 C38.9568959,51.0235516 38.4702281,50.6908117 37.9597863,50.7265504 C37.450743,50.7635215 36.9193242,51.1677389 37.0102248,51.8332187" id="Fill-416" fill="#F29C81"></path>
                <path d="M31.3417558,43.7620908 L36.682952,30.9447108 L42.3666923,27 L38.0344441,33.7850589 C38.0344441,33.7850589 43.9473775,32.9359498 43.9996933,34.5338898 C44.0482723,36.0758302 38.3097249,35.7815071 38.3097249,35.7815071 C38.3097249,35.7815071 36.4051799,44.8156633 34.626442,47.4333156 C33.7121608,48.7786065 31.7229139,49 31.7229139,49 C30.7052466,48.0844729 29.3338248,46.615462 29,45.7220742 C30.5881589,44.6151068 31.3417558,43.7620908 31.3417558,43.7620908" id="Fill-418" fill="#FCBAA2"></path>
                <path d="M51.7625947,43.9108736 C51.4048665,44.1387977 50.7738918,43.914327 50.3528021,43.4112824 C49.9317123,42.9082377 49.8802311,42.3165559 50.2379594,42.0886318 C50.5943677,41.8618588 51.2253423,42.0851784 51.646432,42.5882231 C52.0675218,43.0912677 52.120323,43.6841006 51.7625947,43.9108736" id="Fill-420" fill="#2C3E4F"></path>
                <polygon id="Fill-422" fill="#5FAEDD" points="53 67 58.1623037 112 59 111.862677"></polygon>
                <path d="M38,69.830405 L36.4576801,131 L26.5835488,127.900836 L30.8846128,78.3754258 L3.43990875,63.5861629 C2.72495949,63.1027953 2.93464426,61.0048014 3.68622519,60.5596951 L29.2854507,46 L32.045458,49.210122 L13.9506733,61.6539679 L38,69.830405 Z" id="Fill-424" fill="#278BD0"></path>
                <path d="M3,63 C3,63 32.2979253,75.8671298 33.3815852,76.1550081 C34.1927533,76.3709168 36.2477963,133.219161 35.9753044,130.932842 L26.1138731,127.809877 L30.4094051,77.9028403 L3,63 Z" id="Fill-426" fill="#1870A0"></path>
                <polygon id="Fill-428" fill="#1870A0" points="38 69 36 130.820839 37.3906634 131"></polygon>
                <polygon id="Fill-430" fill="#ED9558" points="51 67.6389712 52.3088699 120.630303 57.0297163 125 60 119.586565 53.4515984 67"></polygon>
                <polygon id="Fill-432" fill="#ED9558" points="40 69 39.7501157 99 37 96.8422094 37.7621472 69.0348447"></polygon>
                <path d="M15.0770938,21.5343391 C13.6738708,23.609328 12.5064618,26.0073768 11.972641,28.201119 C16.7433402,26.5002665 22.6373953,22.054044 24.266067,18.6089239 C24.9683263,17.1213164 24.7247382,16.1163833 23.5197544,15.5366633 C23.2541397,15.4089717 22.9587244,15.3476797 22.6360997,15.3476797 C20.6316804,15.3476797 17.6399518,17.7444515 15.0770938,21.5343391 M19.7726436,29.130714 C17.8990881,30.7051518 16.2639381,32.8235559 16.0151672,34.6252848 C19.4202182,34.3711785 24.1688909,32.0331448 26.3145394,29.7947105 C27.1113835,28.9621611 27.8874967,27.7976134 27.0569649,26.9688948 C26.6656691,26.5781584 26.1266656,26.4044978 25.4995558,26.4044978 C23.8618144,26.4044978 21.6151027,27.5818146 19.7726436,29.130714 M15.8337718,37.0335489 C15.4567285,36.5266132 15.2610806,35.9634931 15.2157318,35.3684501 C14.0897846,35.3441887 13.1270932,35.0785901 12.4572259,34.4988701 C11.0747337,33.2985688 10.6847336,31.4329941 10.9658965,29.3133131 C9.29576304,29.756403 7.78370274,29.8151412 6.64479871,29.3158669 C5.60047942,28.8587309 4.85546257,28.0529967 4.42788768,26.9216489 C2.68519607,22.2941043 6.81712434,13.5868121 6.99463271,13.2177833 C7.08662609,13.0275228 7.31855308,12.9470771 7.51031394,13.0364612 C7.70466617,13.1258453 7.78758978,13.3544133 7.6955964,13.5459508 C7.65413459,13.6327811 3.52479768,22.3273041 5.15606067,26.6547734 C5.51237308,27.5996914 6.10190816,28.2407034 6.95964931,28.6173937 C7.98971609,29.0681451 9.45383618,28.9672688 11.1071258,28.4833175 C11.598189,26.0878225 12.851113,23.4471597 14.4318445,21.1104029 C17.1722108,17.0574706 21.1486573,13.5485046 23.859223,14.8496823 C25.4567983,15.617109 25.8506854,17.066409 24.9683263,18.9319837 C23.334472,22.389873 16.9895197,27.3609081 11.793837,29.0668682 C11.4556641,31.083119 11.7355313,32.852925 12.9703157,33.9255347 C13.514502,34.3967168 14.299685,34.6176233 15.2286886,34.6457155 C15.4541372,32.609034 17.1722108,30.3105847 19.2686235,28.5484402 C22.0038071,26.2512678 25.779423,24.6065996 27.6089252,26.431313 C28.1816164,27.0020946 28.846301,28.2662417 26.8781609,30.3195231 C24.5835089,32.715018 19.6638063,35.1002977 15.995732,35.3492963 C16.0371938,35.7949401 16.1849015,36.2112148 16.4608817,36.5802436 C19.3774607,40.5016536 30.3583613,36.2597377 30.46979,36.2175994 C30.6680292,36.1384306 30.8934778,36.2354762 30.9725144,36.4308444 C31.0515509,36.6274895 30.9543748,36.849673 30.7548399,36.9275649 C30.4399893,37.0514258 25.3933099,39 21.0838732,39 C18.9136067,39 16.9299184,38.5058334 15.8337718,37.0335489" id="Fill-434" fill="#A2AAB1"></path>
                <g id="Group-438" transform="translate(217.000000, 57.000000)">
                    <mask id="mask-16" fill="white">
                        <use xlink:href="#path-15"></use>
                    </mask>
                    <g id="Clip-437"></g>
                    <path d="M3.92152941,8.22844286 C3.92152941,8.22844286 11.1336471,7.21658571 13.5562353,7.09058571 C15.1661176,7.00701429 19.7369412,6.38472857 19.7304706,5.41658571 L14.9008235,5.42815714 C14.9008235,5.42815714 18.338,2.03901429 17.6883529,1.09272857 C16.8057647,-0.1917 13.0994118,4.75444286 13.0994118,4.75444286 C13.0994118,4.75444286 15.2515294,1.38844286 14.202,0.984728571 C13.19,0.596442857 11.1608235,4.0293 11.1608235,4.0293 C11.1608235,4.0293 4.84941176,2.57644286 2.77235294,3.62944286 C1.2,4.42787143 0.0896470588,6.44258571 0.0896470588,6.44258571 C0.472705882,7.54958571 3.92152941,8.22844286 3.92152941,8.22844286" id="Fill-436" fill="#FCBAA2" mask="url(#mask-16)"></path>
                </g>
                <path d="M19.6765,217 L19.3235,220" id="Stroke-439" stroke="#A6AAA6" stroke-width="0.323"></path>
                <path d="M21.726,217 L21.274,220" id="Stroke-441" stroke="#A6AAA6" stroke-width="0.323"></path>
                <path d="M22.726,217 L22.274,220" id="Stroke-443" stroke="#A6AAA6" stroke-width="0.323"></path>
                <path d="M23.726,217 L23.274,220" id="Stroke-445" stroke="#A6AAA6" stroke-width="0.323"></path>
                <path d="M24.726,217 L24.274,220" id="Stroke-447" stroke="#A6AAA6" stroke-width="0.323"></path>
                <path d="M26.726,218 L26.274,221" id="Stroke-449" stroke="#A6AAA6" stroke-width="0.323"></path>
                <polygon id="Fill-451" fill="#1F3245" points="173.642786 119 164 130.121666 168.496512 135 176 132.691607"></polygon>
                <path d="M166,132 L174,121" id="Stroke-453" stroke="#727983" stroke-width="0.323"></path>
                <path d="M182,99.5 C182,100.328987 181.328987,101 180.5,101 C179.672518,101 179,100.328987 179,99.5 C179,98.671013 179.672518,98 180.5,98 C181.328987,98 182,98.671013 182,99.5" id="Fill-455" fill="#1F3245"></path>
                <path d="M177.036412,70.001247 L176,72 L179,71.6874632 C179,71.6874632 178.445826,69.9468928 177.036412,70.001247" id="Fill-457" fill="#E5E8EB"></path>
                <polygon id="Fill-459" fill="#E5E8EB" points="175.898016 69 177 69.9848419 176.140286 72 174 70.2576873"></polygon>
                <path d="M177,70.7654251 C177,70.7654251 177.314027,70.2523457 178.382975,71.7263293 C179.453179,73.1990333 180.144038,74 180.144038,74 C180.144038,74 184.467561,71.8926642 185.560375,69.7431049 C186.653189,67.5948251 185.364422,65 185.364422,65 C185.364422,65 185.395825,66.0568666 183.917386,67.2416833 C182.440203,68.4277794 177,70.7654251 177,70.7654251" id="Fill-461" fill="#FFFFFF"></path>
                <path d="M174.494493,66 C174.494493,66 173.987243,66.5443314 175.205411,67.9776526 C176.424861,69.409702 177,70.1028343 177,70.1028343 C177,70.1028343 175.525645,69.7848837 174.499617,70.612827 C173.473589,71.4407703 172.383514,73 172.383514,73 C172.383514,73 171.613672,69.3079578 172.25542,68.0336119 C172.895887,66.7605378 174.494493,66 174.494493,66" id="Fill-463" fill="#FFFFFF"></path>
                <path d="M180,97 C181.379661,96.4654129 187.920326,81.0937782 187.920326,81.0937782 L186.12702,79.3277084 L188.909253,77.70076 L190,67" id="Stroke-465" stroke="#727983" stroke-width="0.323"></path>
                <polyline id="Stroke-467" stroke="#727983" stroke-width="0.323" points="180 97 170.003229 78.4453175 171.701647 76.4718537 169.221828 75.4851217 168 67"></polyline>
                <polygon id="Fill-469" fill="#A8AAAB" points="161 27 158 22.0726724 160.639318 21"></polygon>
                <path d="M208.895757,44.3738286 C206.765012,43.9123248 205.087675,42.2349876 204.626171,40.1042432 C204.596484,39.9652523 204.403516,39.9652523 204.373829,40.1042432 C203.912325,42.2349876 202.234988,43.9123248 200.104243,44.3738286 C199.965252,44.403516 199.965252,44.596484 200.104243,44.6261714 C202.234988,45.0876752 203.912325,46.7650124 204.373829,48.8957568 C204.403516,49.0347477 204.596484,49.0347477 204.626171,48.8957568 C205.087675,46.7650124 206.765012,45.0876752 208.895757,44.6261714 C209.034748,44.596484 209.034748,44.403516 208.895757,44.3738286" id="Fill-471" fill="#FFDC90"></path>
                <path d="M142.895757,130.373829 C140.765012,129.912325 139.087675,128.234988 138.626171,126.104243 C138.596484,125.965252 138.403516,125.965252 138.373829,126.104243 C137.912325,128.234988 136.234988,129.912325 134.104243,130.373829 C133.965252,130.403516 133.965252,130.596484 134.104243,130.626171 C136.234988,131.087675 137.912325,132.765012 138.373829,134.895757 C138.403516,135.034748 138.596484,135.034748 138.626171,134.895757 C139.087675,132.765012 140.765012,131.087675 142.895757,130.626171 C143.034748,130.596484 143.034748,130.403516 142.895757,130.373829" id="Fill-473" fill="#FFDC90"></path>
                <path d="M151.953227,59.9440822 C151.005772,59.7390001 150.261,58.9942283 150.055918,58.0467731 C150.042725,57.984409 149.957574,57.984409 149.943183,58.0467731 C149.7393,58.9942283 148.993329,59.7390001 148.045874,59.9440822 C147.984709,59.9572746 147.984709,60.0424256 148.045874,60.0568173 C148.993329,60.2607001 149.7393,61.0066712 149.943183,61.9541264 C149.957574,62.0152912 150.042725,62.0152912 150.055918,61.9541264 C150.261,61.0066712 151.005772,60.2607001 151.953227,60.0568173 C152.015591,60.0424256 152.015591,59.9572746 151.953227,59.9440822" id="Fill-475" fill="#FFDC90"></path>
                <path d="M208.953227,107.944082 C208.005772,107.739 207.261,106.994228 207.055918,106.046773 C207.042725,105.984409 206.957574,105.984409 206.943183,106.046773 C206.7393,106.994228 205.993329,107.739 205.045874,107.944082 C204.984709,107.957275 204.984709,108.042426 205.045874,108.056817 C205.993329,108.2607 206.7393,109.006671 206.943183,109.954126 C206.957574,110.015291 207.042725,110.015291 207.055918,109.954126 C207.261,109.006671 208.005772,108.2607 208.953227,108.056817 C209.015591,108.042426 209.015591,107.957275 208.953227,107.944082" id="Fill-477" fill="#FFDC90"></path>
                <path d="M226.965349,85.4578614 C226.254671,85.3042592 225.696184,84.7442229 225.542634,84.0346624 C225.531763,83.9884459 225.467897,83.9884459 225.458385,84.0346624 C225.304835,84.7442229 224.744989,85.3042592 224.03567,85.4578614 C223.98811,85.4673765 223.98811,85.5326235 224.03567,85.5421386 C224.744989,85.6957408 225.304835,86.2557771 225.458385,86.9653376 C225.467897,87.0115541 225.531763,87.0115541 225.542634,86.9653376 C225.696184,86.2557771 226.254671,85.6957408 226.965349,85.5421386 C227.01155,85.5326235 227.01155,85.4673765 226.965349,85.4578614" id="Fill-479" fill="#FFDC90"></path>
            </g>
        </g>
    </g>
</svg>