<?xml version="1.0" encoding="UTF-8"?>
<svg width="179px" height="241px" viewBox="0 0 179 241" version="1.1" xmlns="http://www.w3.org/2000/svg" xmlns:xlink="http://www.w3.org/1999/xlink">
    <!-- Generator: sketchtool 52.6 (67491) - http://www.bohemiancoding.com/sketch -->
    <title>E844419C-C643-4D8C-97B1-23B40C1F97DF</title>
    <desc>Created with sketchtool.</desc>
    <defs>
        <polygon id="path-1" points="0 240 178.414 240 178.414 0 0 0"></polygon>
    </defs>
    <g id="Desktop" stroke="none" stroke-width="1" fill="none" fill-rule="evenodd">
        <g id="RD-Gorgias" transform="translate(-334.000000, -1402.000000)">
            <g id="Group-134" transform="translate(334.000000, 1402.500000)">
                <polygon id="Fill-1" fill="#E3E6E9" points="32.3518 229.8108 33.4708 223.6638 39.5688 225.2278 38.0298 230.5828 33.5738 231.4818"></polygon>
                <g id="Group-133">
                    <path d="M39.3616,229.8703 C39.1246,234.2363 45.6556,235.0363 45.8896,235.8963 C46.1246,236.7563 45.8896,237.5383 45.8896,237.5383 L33.0266,237.5383 L30.9416,234.6093 L32.3516,229.8113 C32.3516,229.8113 33.0556,230.8033 33.6126,230.3383 C34.9906,229.1893 39.4466,228.3093 39.3616,229.8703" id="Fill-2" fill="#D68158"></path>
                    <path d="M35.8114,232.4495 L39.6994,231.7675" id="Stroke-4" stroke="#5AB4E5" stroke-width="0.229" stroke-linecap="round"></path>
                    <path d="M36.2026,233.417 L40.0906,232.735" id="Stroke-6" stroke="#5AB4E5" stroke-width="0.229" stroke-linecap="round"></path>
                    <path d="M36.8002,234.2366 L40.6882,233.5546" id="Stroke-8" stroke="#5AB4E5" stroke-width="0.229" stroke-linecap="round"></path>
                    <polygon id="Fill-10" fill="#E3E6E9" points="76.8365 50.1807 64.2355 49.6277 57.8795 49.7097 50.9825 61.0897 45.1535 98.6007 77.2605 101.7647 81.7335 65.7197"></polygon>
                    <path d="M59.2685,49.6121 C59.2685,49.6121 62.5435,55.6601 69.3845,55.6601 C74.9945,55.6601 76.3895,50.1291 76.3895,50.1291 L73.8325,49.8621 C73.8325,49.8621 72.6605,53.3761 69.1335,53.3761 C63.9105,53.3761 62.6875,49.6881 62.6875,49.6881 L59.2685,49.6121 Z" id="Fill-12" fill="#FB8A60"></path>
                    <polygon id="Fill-14" fill="#278BD0" points="79.0814 102.3967 80.3264 116.8187 90.6134 227.6687 81.3484 227.6687 63.6254 126.3157 65.7784 102.7907"></polygon>
                    <polygon id="Fill-16" fill="#278BD0" points="68.8423 125.9312 60.2173 126.5672 40.8113 227.6692 32.4543 225.8702 41.8493 124.9502 43.7393 116.5842 48.2243 101.3742 66.4503 103.1992"></polygon>
                    <path d="M52.1964,102.8302 C52.1964,102.8302 52.0834,111.1902 47.2074,125.4972 C42.3324,139.8052 35.1124,226.4422 35.1124,226.4422" id="Stroke-18" stroke="#5AB4E5" stroke-width="0.323"></path>
                    <path d="M75.6033,175.7476 L83.0273,227.6686" id="Stroke-20" stroke="#5AB4E5" stroke-width="0.323"></path>
                    <path d="M58.2388,55.6597 C58.2388,55.6597 42.8668,79.8517 51.4928,89.9837 C54.3688,93.3607 69.0778,96.4767 75.6828,91.4247 C82.2638,86.3897 77.2608,101.7647 77.2608,101.7647 C77.2608,101.7647 54.5568,103.1397 51.0058,101.8337 C47.4558,100.5267 58.2388,55.6597 58.2388,55.6597" id="Fill-22" fill="#F6F7F8"></path>
                    <path d="M104.2327,66.6749 L78.4657,50.1299 L76.3897,50.1299 L75.1507,114.7079 L80.5677,115.6109 L79.0817,102.3969 L85.4927,65.3589 L106.8687,78.5039 C107.6817,78.8539 106.2217,71.0559 104.2327,66.6749" id="Fill-24" fill="#8BD5A4"></path>
                    <path d="M45.2053,113.2422 L60.4353,100.0522 L59.2683,49.6122 L57.1363,49.6282 C57.1363,49.6282 53.1423,59.1702 50.6263,62.9172 L50.7933,62.7772 L42.1493,112.3422 L45.2053,113.2422 Z" id="Fill-26" fill="#8BD5A4"></path>
                    <path d="M50.7937,62.7774 C50.8437,60.6374 53.2917,60.5684 53.2917,60.5684 C52.4897,62.9574 51.3227,64.9244 51.2317,72.3924 C50.9817,92.8954 57.1567,98.3804 57.1567,98.3804 L52.1047,119.9884 L41.0467,119.9884 L50.7937,62.7774 Z" id="Fill-28" fill="#6DCA8C"></path>
                    <polygon id="Fill-30" fill="#A7DFBA" points="59.2685 49.6121 51.2875 98.2171 52.1965 98.2171"></polygon>
                    <polygon id="Fill-32" fill="#6DCA8C" points="76.3895 50.1294 74.9885 113.3614 74.0145 113.6864"></polygon>
                    <path d="M79.1206,64.5669 L83.6656,63.8099 C83.6656,63.8099 86.1086,70.9519 83.0476,71.7089 C79.9866,72.4669 79.1206,64.5669 79.1206,64.5669" id="Fill-34" fill="#A7DFBA"></path>
                    <path d="M61.6495,49.6121 L62.7645,60.1701 L76.3895,60.1701 L74.4025,50.0811 L76.3895,50.1291 C76.3895,50.1291 80.1095,60.5681 80.9045,73.9141 C81.4465,83.0121 79.0815,102.3971 79.0815,102.3971 L88.9275,175.7471 L44.1665,175.7471 L47.1775,103.0611 L43.6545,98.2171 L44.1665,94.1881 L47.1775,95.5671 L59.2685,62.0551 L59.2685,49.6121 L61.6495,49.6121 Z" id="Fill-36" fill="#F6F7F8"></path>
                    <path d="M61.5107,60.1697 C61.5107,60.1697 53.5797,93.6357 53.2917,96.0227 C53.0027,98.4097 50.6487,175.7477 50.6487,175.7477 L47.0247,175.7477 C47.0247,175.7477 49.6177,99.6407 50.5557,94.8117 C51.4927,89.9837 60.4357,60.1697 60.4357,60.1697 L61.5107,60.1697 Z" id="Fill-38" fill="#FC9789"></path>
                    <path d="M63.0072,60.1697 C63.0072,60.1697 57.1132,91.8427 56.4872,96.7677 C55.8622,101.6937 54.5902,175.7477 54.5902,175.7477 L57.3602,175.7477 C57.3602,175.7477 57.9002,105.5637 58.6042,97.1197 C59.3072,88.6757 63.9732,60.1697 63.9732,60.1697 L63.0072,60.1697 Z" id="Fill-40" fill="#FC9789"></path>
                    <path d="M65.6079,60.1697 C65.6079,60.1697 62.3359,91.3737 61.7109,96.2987 C61.0849,101.2247 61.7109,175.3487 61.7109,175.3487 L64.4799,175.3487 C64.4799,175.3487 63.1229,105.0947 63.8269,96.6507 C64.5309,88.2067 66.5739,60.1697 66.5739,60.1697 L65.6079,60.1697 Z" id="Fill-42" fill="#FC9789"></path>
                    <path d="M68.5391,60.1697 C68.5391,60.1697 67.1231,91.5617 66.4981,96.4867 C65.8721,101.4127 67.4571,175.7477 67.4571,175.7477 L70.2271,175.7477 C70.2271,175.7477 67.9111,105.2827 68.6141,96.8387 C69.3181,88.3947 69.5051,60.1697 69.5051,60.1697 L68.5391,60.1697 Z" id="Fill-44" fill="#FC9789"></path>
                    <path d="M71.7593,60.1697 C71.7593,60.1697 71.5373,91.6177 71.0683,99.2357 C70.5993,106.8537 72.2693,175.7477 72.2693,175.7477 L75.6033,175.7477 C75.6033,175.7477 72.4453,103.3447 72.4923,99.2357 C72.5393,95.1267 72.8933,60.1697 72.8933,60.1697 L71.7593,60.1697 Z" id="Fill-46" fill="#FC9789"></path>
                    <path d="M74.4534,60.1697 C74.4534,60.1697 75.0634,64.3377 75.1164,69.6797 C75.2134,79.5877 74.7434,94.2867 74.4394,99.2357 C73.9694,106.8537 78.9924,175.7477 78.9924,175.7477 L82.3274,175.7477 C82.3274,175.7477 75.8164,103.3447 75.8624,99.2357 C75.8934,96.4947 76.2354,80.3387 76.0904,69.6777 C76.0184,64.3547 75.4074,60.1697 75.4074,60.1697 L74.4534,60.1697 Z" id="Fill-48" fill="#FC9789"></path>
                    <path d="M77.1278,60.1697 C77.1278,60.1697 77.8878,64.4067 77.9288,69.3697 C78.0248,80.7517 77.4598,99.1407 77.5108,101.7647 C77.5848,105.5327 86.5488,175.7477 86.5488,175.7477 L88.9268,175.7477 C88.9268,175.7477 79.0008,103.3447 79.3148,99.2357 C79.5288,96.4457 79.5848,79.6087 79.1208,68.9737 C78.9008,63.9457 77.9878,60.1697 77.9878,60.1697 L77.1278,60.1697 Z" id="Fill-50" fill="#FC9789"></path>
                    <path d="M69.1246,22.9728 C70.8026,24.5578 70.8946,27.8218 70.4276,30.5558 C72.9856,21.0638 81.4746,19.5568 89.7156,19.5058 C89.0586,20.1208 90.4126,32.0928 90.4126,32.0928 L88.1416,32.4108 L88.5816,36.0978 L86.4316,35.9418 L88.2466,37.1958 L84.9256,44.1568 C84.9256,44.1568 76.3876,42.8558 74.0146,43.9358 C73.3536,44.2368 73.8536,50.1298 73.8536,50.1298 C73.8536,50.1298 72.0656,54.4908 67.5826,53.4408 C64.0556,52.6158 62.6866,49.6888 62.6866,49.6888 C62.6866,49.6888 66.3196,32.9948 67.8896,22.5048 C68.2976,22.4508 68.7076,22.5788 69.1246,22.9728" id="Fill-52" fill="#FCBAA2"></path>
                    <path d="M98.5316,10.0845 C98.8256,9.4165 99.0836,8.7355 99.3216,8.0475 C99.4556,7.3255 99.5866,6.6065 99.6246,5.8755 C99.3296,6.5435 99.0466,7.2035 98.7206,7.8445 C98.4976,8.5185 98.2386,9.1815 97.9556,9.8305 C97.3776,11.1245 96.6966,12.3705 95.7856,13.4445 C94.8896,14.5365 93.8586,15.5335 92.8076,16.4985 C92.3586,16.9045 91.9006,17.3015 91.4386,17.6935 C92.2226,16.8025 93.2146,15.6045 94.4616,13.9895 C98.8616,8.2905 96.3466,0.0005 96.3466,0.0005 C96.3466,0.0005 95.6226,1.2875 90.9056,4.7145 C86.1886,8.1415 68.7836,10.9145 68.7836,10.9145 C68.7836,10.9145 69.5936,12.6645 68.0716,21.5765 C68.0196,21.8795 67.9576,22.1905 67.8896,22.5045 C68.2976,22.4505 68.7076,22.5785 69.1246,22.9725 C70.8026,24.5585 70.8946,27.8215 70.4276,30.5565 C72.9856,21.0635 81.4746,19.5565 89.7156,19.5055 C90.3636,19.1675 90.9746,18.7745 91.5966,18.3915 C92.1506,17.9265 92.6946,17.4495 93.2316,16.9645 C94.2976,15.9855 95.3426,14.9765 96.2726,13.8435 C97.2256,12.7185 97.9396,11.4125 98.5316,10.0845" id="Fill-54" fill="#2C3E4F"></path>
                    <path d="M66.3005,17.6479 C66.2135,17.5789 66.1665,17.4649 66.1875,17.3469 C66.7015,14.4359 66.4775,11.7329 66.4755,11.7059 C66.4605,11.5329 66.5885,11.3799 66.7615,11.3649 C66.9345,11.3499 67.0875,11.4789 67.1025,11.6519 C67.1125,11.7649 67.3365,14.4649 66.8075,17.4569 C66.7765,17.6279 66.6135,17.7429 66.4425,17.7119 C66.3885,17.7029 66.3405,17.6799 66.3005,17.6479" id="Fill-56" fill="#2C3E4F"></path>
                    <path d="M85.6458,28.6318 C85.1868,28.6658 84.7708,28.0918 84.7158,27.3498 C84.6618,26.6078 84.9898,25.9798 85.4488,25.9458 C85.9088,25.9128 86.3248,26.4868 86.3788,27.2278 C86.4328,27.9698 86.1048,28.5978 85.6458,28.6318" id="Fill-58" fill="#2C3E4F"></path>
                    <path d="M83.1241,33.0616 C82.0341,33.4306 80.7181,32.4516 80.1841,30.8746 C79.6511,29.2976 80.1031,27.7206 81.1931,27.3516 C82.2831,26.9836 83.5991,27.9626 84.1321,29.5396 C84.6661,31.1156 84.2141,32.6926 83.1241,33.0616" id="Fill-60" fill="#FCA889"></path>
                    <path d="M71.0972,40.5819 C68.2352,38.2539 69.4302,34.3339 69.4302,34.3339 L69.4292,34.3339 C70.1422,32.2609 70.4632,30.5589 70.5962,29.2799 C70.6052,29.1879 70.6142,29.0969 70.6222,29.0049 C70.6232,28.9879 70.6242,28.9729 70.6252,28.9559 C70.6872,28.1429 71.3982,25.2119 71.3142,24.4329 L69.0582,22.9199 C68.6642,22.5739 68.2762,22.4529 67.8902,22.5049 C66.3202,32.9939 62.6872,49.6889 62.6872,49.6889 C62.6872,49.6889 63.3442,51.4849 66.6062,53.0609 C67.7622,53.6199 68.8992,53.7869 70.1862,53.4449 C69.8232,53.2589 68.8402,52.5359 67.8292,50.7179 C67.5322,50.1859 65.4162,43.7289 68.0582,43.4239 C70.1632,43.1809 72.5412,43.5589 73.5432,43.7499 C75.1642,43.3489 78.0952,43.4639 80.5792,43.6719 C76.9802,43.1809 72.8002,41.9679 71.0972,40.5819" id="Fill-62" fill="#FCB399"></path>
                    <path d="M76.4464,19.8077 C75.3044,18.4637 74.4264,9.8787 74.4264,9.8787 C71.1764,10.5327 68.7834,10.9137 68.7834,10.9137 C68.7834,10.9137 69.5934,12.6647 68.0714,21.5757 C68.0194,21.8797 67.9584,22.1897 67.8904,22.5047 C68.2984,22.4507 68.7074,22.5787 69.1244,22.9727 C70.8024,24.5587 70.8944,27.8217 70.4274,30.5557 C71.7604,25.6077 74.7084,22.8317 78.3894,21.2987 C77.7634,20.9637 77.0064,20.4677 76.4464,19.8077" id="Fill-64" fill="#1F3245"></path>
                    <path d="M64.1177,25.5218 C63.7147,27.6078 64.5707,29.5278 66.0307,29.8108 C67.4917,30.0928 69.0027,28.6308 69.4057,26.5448 C69.8097,24.4588 68.9527,22.5388 67.4927,22.2558 C66.0317,21.9738 64.5217,23.4358 64.1177,25.5218" id="Fill-66" fill="#FCB399"></path>
                    <path d="M65.4855,25.69 C65.1775,26.252 65.2705,27.005 65.8235,27.578 C66.4565,28.234 67.3195,28.184 67.7145,27.851 C68.1095,27.517 68.4895,26.571 68.4755,25.307 C68.4655,24.501 68.1995,23.616 68.1995,23.616 C68.1995,23.616 68.2715,24.814 68.0835,25.423 C67.8715,26.112 67.6615,26.124 67.6615,26.124 C67.6615,26.124 67.4785,25.512 67.0275,25.234 C66.5765,24.955 65.8585,25.01 65.4855,25.69" id="Fill-68" fill="#F29C81"></path>
                    <polygon id="Fill-70" fill="#6DCA8C" points="85.493 65.3591 84.589 60.1701 107.088 78.5701"></polygon>
                    <path d="M112.7911,100.9119 L119.2221,100.4659 C119.2221,100.4659 112.1811,73.7039 110.5901,71.1439 C109.9921,70.1819 104.233082,66.6749 104.233082,66.6749 C104.2251,66.8509 106.8341,81.0219 106.8691,81.1989 L112.7911,100.9119 Z" id="Fill-72" fill="#8BD5A4"></path>
                    <path d="M150.972,121.3748 L35.113,238.4368" id="Stroke-74" stroke="#A8AAAB" stroke-width="1.653" stroke-linecap="round"></path>
                    <path d="M99.4392,36.7474 C99.4392,37.2334 98.8752,37.6274 98.1782,37.6274 C97.4822,37.6274 96.9182,37.2334 96.9182,36.7474 C96.9182,36.2614 97.4822,35.8674 98.1782,35.8674 C98.8752,35.8674 99.4392,36.2614 99.4392,36.7474" id="Fill-76" fill="#BFCDD3"></path>
                    <mask id="mask-2" fill="white">
                        <use xlink:href="#path-1"></use>
                    </mask>
                    <g id="Clip-79"></g>
                    <polygon id="Fill-78" fill="#BFCDD3" mask="url(#mask-2)" points="98.951 36.747 99.42 36.747 99.42 31.176 98.951 31.176"></polygon>
                    <polygon id="Fill-80" fill="#BFCDD3" mask="url(#mask-2)" points="100.2602 32.975 100.2602 31.978 99.3022 31.177 99.3022 31.861"></polygon>
                    <path d="M106.9427,32.8669 C106.9427,33.3529 106.3787,33.7469 105.6817,33.7469 C104.9857,33.7469 104.4217,33.3529 104.4217,32.8669 C104.4217,32.3809 104.9857,31.9869 105.6817,31.9869 C106.3787,31.9869 106.9427,32.3809 106.9427,32.8669" id="Fill-81" fill="#BFCDD3" mask="url(#mask-2)"></path>
                    <polygon id="Fill-82" fill="#BFCDD3" mask="url(#mask-2)" points="106.454 32.867 106.923 32.867 106.923 27.296 106.454 27.296"></polygon>
                    <polygon id="Fill-83" fill="#BFCDD3" mask="url(#mask-2)" points="109.8024 29.8086 109.8024 28.8116 106.8054 27.2966 106.8054 27.9806"></polygon>
                    <path d="M117.2261,35.2123 C117.2261,35.6983 116.6621,36.0923 115.9651,36.0923 C115.2691,36.0923 114.7051,35.6983 114.7051,35.2123 C114.7051,34.7263 115.2691,34.3323 115.9651,34.3323 C116.6621,34.3323 117.2261,34.7263 117.2261,35.2123" id="Fill-84" fill="#BFCDD3" mask="url(#mask-2)"></path>
                    <polygon id="Fill-85" fill="#BFCDD3" mask="url(#mask-2)" points="116.737 35.212 117.206 35.212 117.206 29.641 116.737 29.641"></polygon>
                    <polygon id="Fill-86" fill="#BFCDD3" mask="url(#mask-2)" points="118.047 31.44 118.047 30.443 117.089 29.642 117.089 30.326"></polygon>
                    <path d="M145.382,32.5524 C145.382,33.0384 144.818,33.4324 144.121,33.4324 C143.425,33.4324 142.861,33.0384 142.861,32.5524 C142.861,32.0664 143.425,31.6724 144.121,31.6724 C144.818,31.6724 145.382,32.0664 145.382,32.5524" id="Fill-87" fill="#BFCDD3" mask="url(#mask-2)"></path>
                    <polygon id="Fill-88" fill="#BFCDD3" mask="url(#mask-2)" points="144.893 32.552 145.362 32.552 145.362 26.981 144.893 26.981"></polygon>
                    <polygon id="Fill-89" fill="#BFCDD3" mask="url(#mask-2)" points="146.2029 28.7801 146.2029 27.7831 145.2449 26.9821 145.2449 27.6661"></polygon>
                    <path d="M110.2851,34.333 C110.2851,34.819 109.7211,35.213 109.0241,35.213 C108.3281,35.213 107.7641,34.819 107.7641,34.333 C107.7641,33.847 108.3281,33.453 109.0241,33.453 C109.7211,33.453 110.2851,33.847 110.2851,34.333" id="Fill-90" fill="#BFCDD3" mask="url(#mask-2)"></path>
                    <polygon id="Fill-91" fill="#BFCDD3" mask="url(#mask-2)" points="109.796 34.333 110.265 34.333 110.265 28.762 109.796 28.762"></polygon>
                    <path d="M127.3217,37.4804 C127.3217,37.9664 126.7577,38.3604 126.0607,38.3604 C125.3647,38.3604 124.8007,37.9664 124.8007,37.4804 C124.8007,36.9944 125.3647,36.6004 126.0607,36.6004 C126.7577,36.6004 127.3217,36.9944 127.3217,37.4804" id="Fill-92" fill="#BFCDD3" mask="url(#mask-2)"></path>
                    <polygon id="Fill-93" fill="#BFCDD3" mask="url(#mask-2)" points="126.833 37.48 127.302 37.48 127.302 31.909 126.833 31.909"></polygon>
                    <polygon id="Fill-94" fill="#BFCDD3" mask="url(#mask-2)" points="130.1814 34.422 130.1814 33.425 127.1844 31.91 127.1844 32.594"></polygon>
                    <path d="M130.664,38.9464 C130.664,39.4324 130.1,39.8264 129.403,39.8264 C128.707,39.8264 128.143,39.4324 128.143,38.9464 C128.143,38.4604 128.707,38.0664 129.403,38.0664 C130.1,38.0664 130.664,38.4604 130.664,38.9464" id="Fill-95" fill="#BFCDD3" mask="url(#mask-2)"></path>
                    <polygon id="Fill-96" fill="#BFCDD3" mask="url(#mask-2)" points="130.175 38.946 130.644 38.946 130.644 33.375 130.175 33.375"></polygon>
                    <path d="M136.3518,33.1601 C136.3518,33.6461 135.7878,34.0401 135.0908,34.0401 C134.3948,34.0401 133.8308,33.6461 133.8308,33.1601 C133.8308,32.6741 134.3948,32.2801 135.0908,32.2801 C135.7878,32.2801 136.3518,32.6741 136.3518,33.1601" id="Fill-97" fill="#BFCDD3" mask="url(#mask-2)"></path>
                    <polygon id="Fill-98" fill="#BFCDD3" mask="url(#mask-2)" points="135.863 33.16 136.332 33.16 136.332 27.589 135.863 27.589"></polygon>
                    <polygon id="Fill-99" fill="#BFCDD3" mask="url(#mask-2)" points="139.2115 30.1017 139.2115 29.1047 136.2145 27.5897 136.2145 28.2737"></polygon>
                    <path d="M139.6942,34.6261 C139.6942,35.1121 139.1302,35.5061 138.4332,35.5061 C137.7372,35.5061 137.1732,35.1121 137.1732,34.6261 C137.1732,34.1401 137.7372,33.7461 138.4332,33.7461 C139.1302,33.7461 139.6942,34.1401 139.6942,34.6261" id="Fill-100" fill="#BFCDD3" mask="url(#mask-2)"></path>
                    <polygon id="Fill-101" fill="#BFCDD3" mask="url(#mask-2)" points="139.205 34.626 139.674 34.626 139.674 29.055 139.205 29.055"></polygon>
                    <polygon id="Fill-102" fill="#6DCA8C" mask="url(#mask-2)" points="53.2912 60.5681 32.4542 87.6281 51.5962 64.1611"></polygon>
                    <path d="M31.9661,88.195 L50.9821,64.444 C53.6771,60.824 60.9471,51.871 57.1561,49.628 C52.1961,46.692 24.1781,85.003 24.1781,85.003 C22.4351,86.472 23.0991,88.128 23.8581,90.278 C27.2021,99.754 36.6291,117.753 36.6291,117.753 L40.8121,115.18 L31.9661,88.195 Z" id="Fill-103" fill="#8BD5A4" mask="url(#mask-2)"></path>
                    <path d="M39.8492,240 L30.5162,240 C29.8572,240 29.3192,239.461 29.3192,238.803 L29.3192,237.715 C29.3192,237.056 29.8572,236.518 30.5162,236.518 L39.8492,236.518 C40.5072,236.518 41.0462,237.056 41.0462,237.715 L41.0462,238.803 C41.0462,239.461 40.5072,240 39.8492,240" id="Fill-104" fill="#9AA5B0" mask="url(#mask-2)"></path>
                    <polygon id="Fill-105" fill="#FC9789" mask="url(#mask-2)" points="59.2685 49.6121 59.2815 61.7031 62.7645 60.1701 61.6495 49.6121"></polygon>
                    <path d="M74.4081,49.9222 L76.1671,60.1702 L79.1201,60.1912 C79.1201,60.1912 76.9901,50.7522 76.3891,50.1292 C75.7891,49.5062 74.4081,49.9222 74.4081,49.9222" id="Fill-106" fill="#FC9789" mask="url(#mask-2)"></path>
                    <path d="M46.2063,124.4451 L46.1033,129.0001 C46.1033,129.0001 65.9083,133.1231 72.4763,141.4501 C79.0433,149.7761 82.3273,175.7481 82.3273,175.7481 L88.9273,175.7481 L81.6283,121.3751 L46.2063,124.4451 Z" id="Fill-107" fill="#EEF0F2" mask="url(#mask-2)"></path>
                    <path d="M137.1328,204.6025 L133.5968,204.6025 C131.4568,204.6025 129.7058,202.8515 129.7058,200.7125 L129.7058,197.1755 C129.7058,195.0365 131.4568,193.2855 133.5968,193.2855 L137.1328,193.2855 C139.2728,193.2855 141.0228,195.0365 141.0228,197.1755 L141.0228,200.7125 C141.0228,202.8515 139.2728,204.6025 137.1328,204.6025" id="Fill-108" fill="#F6F7F8" mask="url(#mask-2)"></path>
                    <path d="M120.6142,115.5908 C120.6142,115.5908 136.8322,112.7248 141.6682,121.3748 C158.2042,150.9488 127.9472,159.9798 128.8852,152.7088 C129.8232,145.4368 155.9752,143.7958 159.7282,160.3308 C165.9682,187.8268 132.5212,186.4728 133.6932,179.9058 C134.7972,173.7228 159.1032,183.0828 150.9722,195.7478 C146.6582,202.4678 134.8662,198.6798 134.8662,198.6798" id="Stroke-109" stroke="#D4D6D9" stroke-width="0.645" mask="url(#mask-2)"></path>
                    <path d="M111.4049,96.0231 C111.8799,95.6291 113.5739,94.9071 114.9309,94.5241 C116.5039,94.0801 117.9009,94.3091 117.9009,94.3091 L117.7659,93.6791 C117.2049,93.4821 115.8329,93.6801 114.5409,94.0271 C112.4749,94.5821 111.2279,95.3981 111.2279,95.3981 L111.4049,96.0231 Z" id="Fill-110" fill="#6DCA8C" mask="url(#mask-2)"></path>
                    <path d="M119.5513,111.5511 L105.2913,111.1931 C99.4593,111.1931 93.8823,113.3841 89.8683,117.2541 L87.0313,119.9891 L121.7713,119.9891 L119.5513,111.5511 Z" id="Fill-111" fill="#BFCDD3" mask="url(#mask-2)"></path>
                    <path d="M101.2189,112.8078 C101.0259,112.8078 100.8309,112.7608 100.6499,112.6598 C100.0839,112.3458 99.8799,111.6318 100.1949,111.0648 L101.1329,109.2828 C102.6709,106.5188 105.5829,104.8068 108.7439,104.8068 L108.7949,104.8068 L118.4989,104.8628 C119.1469,104.8658 119.6689,105.3938 119.6649,106.0418 C119.6609,106.6898 119.1349,107.2198 118.4849,107.2078 L108.7809,107.1518 C106.4509,107.1538 104.3129,108.3918 103.1829,110.4228 L102.2449,112.2048 C102.0309,112.5908 101.6309,112.8078 101.2189,112.8078" id="Fill-112" fill="#BFCDD3" mask="url(#mask-2)"></path>
                    <path d="M115.0631,99.4242 C112.3301,99.7882 110.0841,101.0152 107.4541,102.3522 C105.7061,103.2422 105.7011,105.0212 105.6591,105.9592 C105.6111,107.0172 105.6011,109.2002 107.0841,109.3322 C107.9561,109.4092 108.2421,109.1192 108.2871,108.7672 C108.5121,109.2422 108.7231,109.4202 109.2691,109.4142 C109.7161,109.4082 110.0181,109.0352 110.2071,108.7912 C110.3511,109.1512 110.5971,109.4182 111.0151,109.4422 C111.4351,109.4672 111.7611,109.1842 112.0131,108.7812 C112.0811,109.1422 112.2531,109.3912 112.5981,109.4152 C114.0711,109.5162 114.0921,106.6352 114.1361,106.2752 C115.8481,105.6242 117.7011,104.7462 118.4921,103.7682 C119.7381,102.2282 119.1601,99.7852 119.1601,99.7852 C118.0171,98.9392 116.1001,99.2862 115.0631,99.4242" id="Fill-113" fill="#FCBAA2" mask="url(#mask-2)"></path>
                    <path d="M35.1129,121.3748 L150.9719,238.4368" id="Stroke-114" stroke="#B4B6B7" stroke-width="1.653" stroke-linecap="round" mask="url(#mask-2)"></path>
                    <path d="M1.8007,125.2269 L176.6137,125.2269 C177.6037,125.2269 178.4147,124.4169 178.4147,123.4259 L178.4147,121.7889 C178.4147,120.7989 177.6037,119.9889 176.6137,119.9889 L1.8007,119.9889 C0.8107,119.9889 -0.0003,120.7989 -0.0003,121.7889 L-0.0003,123.4259 C-0.0003,124.4169 0.8107,125.2269 1.8007,125.2269" id="Fill-115" fill="#FB7948" mask="url(#mask-2)"></path>
                    <path d="M54.4691,119.7932 C54.4691,119.7932 68.2811,128.9642 74.0141,130.3742 C79.7471,131.7852 101.7951,197.1552 101.7951,197.1552 L110.2551,188.6902 C110.2551,188.6902 94.8081,138.3692 95.8391,135.5482 C96.8691,132.7262 150.9721,130.3742 150.9721,130.3742 L154.3341,119.7932 L54.4691,119.7932 Z" id="Fill-116" fill="#F6F7F8" mask="url(#mask-2)"></path>
                    <path d="M40.4016,115.1803 C40.4016,115.1803 41.0826,115.9623 42.9466,115.9623 C44.8116,115.9623 47.8216,115.2973 49.0816,115.5713 C50.3416,115.8453 56.6416,118.8553 56.9566,119.2853 C57.2716,119.7153 57.3796,119.9883 55.9956,119.9883 C54.6116,119.9883 51.8196,119.4803 49.7856,119.5583 C47.7516,119.6363 43.2516,119.9883 41.5996,119.9883 C39.9466,119.9883 37.1116,119.9493 36.9016,117.5843 C36.6916,115.2193 40.4016,115.1803 40.4016,115.1803" id="Fill-117" fill="#FCBAA2" mask="url(#mask-2)"></path>
                    <path d="M155.6386,240 L146.3056,240 C145.6466,240 145.1086,239.461 145.1086,238.803 L145.1086,237.715 C145.1086,237.056 145.6466,236.518 146.3056,236.518 L155.6386,236.518 C156.2966,236.518 156.8356,237.056 156.8356,237.715 L156.8356,238.803 C156.8356,239.461 156.2966,240 155.6386,240" id="Fill-118" fill="#9AA5B0" mask="url(#mask-2)"></path>
                    <polygon id="Fill-119" fill="#93AAB5" mask="url(#mask-2)" points="87.0317 119.9886 88.3617 118.5866 121.4337 118.5866 121.7717 119.9886"></polygon>
                    <path d="M115.9324,111.6621 L111.2294,111.6621 C110.9854,111.6621 110.7854,111.4621 110.7854,111.2191 L110.7854,110.8151 C110.7854,110.5721 110.9854,110.3721 111.2294,110.3721 L115.9324,110.3721 C116.1764,110.3721 116.3754,110.5721 116.3754,110.8151 L116.3754,111.2191 C116.3754,111.4621 116.1764,111.6621 115.9324,111.6621" id="Fill-120" fill="#BFCDD3" mask="url(#mask-2)"></path>
                    <polygon id="Fill-121" fill="#FC9789" mask="url(#mask-2)" points="47.1779 95.5676 47.1779 103.0606 43.6549 98.2166 44.1659 94.1886"></polygon>
                    <path d="M138.189,198.8169 C138.189,200.4469 136.868,201.7679 135.238,201.7679 C133.608,201.7679 132.286,200.4469 132.286,198.8169 C132.286,197.1869 133.608,195.8659 135.238,195.8659 C136.868,195.8659 138.189,197.1869 138.189,198.8169" id="Fill-122" fill="#9AA5B0" mask="url(#mask-2)"></path>
                    <path d="M150.972,130.3747 L153.44,122.6077 C153.44,122.6077 95.711,128.9787 95.774,132.2637 C95.793,133.2387 95.864,134.3337 95.955,135.3917 C98.853,132.6397 150.972,130.3747 150.972,130.3747" id="Fill-123" fill="#EEF0F2" mask="url(#mask-2)"></path>
                    <path d="M101.7947,197.1555 L102.8487,196.1005 C102.1937,192.1015 100.2447,182.0725 95.7747,171.1985 C89.9887,157.1255 79.0437,135.7035 78.5207,132.6205 C78.0967,130.1205 81.3247,129.2945 82.5597,129.0715 L74.0147,130.3745 C79.7467,131.7855 101.7947,197.1555 101.7947,197.1555" id="Fill-124" fill="#EEF0F2" mask="url(#mask-2)"></path>
                    <path d="M82.5595,129.0712 L83.0275,129.0002 C83.0275,129.0002 82.8475,129.0192 82.5595,129.0712" id="Fill-125" fill="#EEF0F2" mask="url(#mask-2)"></path>
                    <polygon id="Fill-126" fill="#E3E6E9" mask="url(#mask-2)" points="82.063 228.0109 82.442 230.5799 89.085 230.8179 89.397 229.6839 89.08 227.3269"></polygon>
                    <path d="M89.3973,229.6838 C89.3973,229.6838 92.4493,231.2838 96.1233,232.1438 C99.7983,233.0038 109.3363,233.2378 109.5713,234.0978 C109.8063,234.9578 109.5713,236.2088 109.5713,236.2088 L82.4413,236.2088 C82.4413,236.2088 81.5893,231.5488 82.4413,230.5798 L88.9283,230.6218 L89.3973,229.6838 Z" id="Fill-127" fill="#D68158" mask="url(#mask-2)"></path>
                    <polygon id="Fill-128" fill="#5AB4E5" mask="url(#mask-2)" points="80.796 229.176 90.843 229.176 90.843 226.4 80.796 226.4"></polygon>
                    <polygon id="Fill-129" fill="#5AB4E5" mask="url(#mask-2)" points="41.9464 226.5353 32.1684 224.2283 31.5314 226.9293 41.3094 229.2363"></polygon>
                    <path d="M92.251,231.6188 L93.893,231.2088" id="Stroke-130" stroke="#5AB4E5" stroke-width="0.229" stroke-linecap="round" mask="url(#mask-2)"></path>
                    <path d="M93.8928,232.1431 L95.5348,231.7331" id="Stroke-131" stroke="#5AB4E5" stroke-width="0.229" stroke-linecap="round" mask="url(#mask-2)"></path>
                    <path d="M95.4389,232.5536 L97.0809,232.1436" id="Stroke-132" stroke="#5AB4E5" stroke-width="0.229" stroke-linecap="round" mask="url(#mask-2)"></path>
                </g>
            </g>
        </g>
    </g>
</svg>