<?xml version="1.0" encoding="UTF-8"?>
<svg width="47px" height="33px" viewBox="0 0 47 33" version="1.1" xmlns="http://www.w3.org/2000/svg" xmlns:xlink="http://www.w3.org/1999/xlink">
    <!-- Generator: sketchtool 52.6 (67491) - http://www.bohemiancoding.com/sketch -->
    <title>08C47408-E5E0-45E1-8D2B-C828003D350D</title>
    <desc>Created with sketchtool.</desc>
    <g id="Symbols" stroke="none" stroke-width="1" fill="none" fill-rule="evenodd">
        <g id="content/logos/handy" fill="#6C8092">
            <path d="M2.13415619,19.9056594 C2.13415619,18.5937517 2.84318698,17.7898217 3.95132353,17.5565937 C5.06034305,17.3242491 5.76937384,17.8313434 5.76937384,19.1432511 L5.76937384,25.1656583 L7.90353003,24.7177545 L7.90353003,18.5972854 C7.90353003,16.0132248 6.14552218,15.0184719 3.95132353,15.4787439 C3.2943884,15.6165605 2.67807022,15.8709911 2.13415619,16.2261337 L2.13415619,14.0157681 C2.13415619,12.6914922 3.00388886,11.4361246 4.45638656,11.131338 L47,2.20241473 L47,0 L3.84978113,9.05613857 C1.44190197,9.56146597 0,11.6428495 0,13.8373133 L0,26.3768539 L2.13415619,25.92895 L2.13415619,19.9056594 Z M44.8658438,13.0943406 C44.8649608,14.4053649 44.15593,15.2101783 43.0477935,15.4425229 C41.938774,15.6748675 41.2297432,15.1686566 41.2297432,13.8567489 L41.2297432,7.83345826 L39.095587,8.28224554 L39.095587,14.4027146 C39.095587,16.9858917 40.8535948,17.9815281 43.0477935,17.5212561 C43.7047286,17.3834395 44.3219298,17.1290089 44.8649608,16.7738663 L44.8649608,18.9842319 C44.8649608,20.3076244 43.9961111,21.5638754 42.5427305,21.868662 L0,30.7975853 L0,33 L43.1493359,23.9438614 C45.558098,23.438534 47,21.3562671 47,19.1626867 L47,6.62314612 L44.8649608,7.07104995 L44.8658438,13.0943406 Z M14.0887862,15.6086095 L15.3320183,15.3479949 L15.3320183,21.0806339 L14.0887862,21.3412486 C12.61598,21.6504524 11.4124819,21.0099588 11.4124819,19.0301708 C11.4124819,17.0486159 12.61598,15.9178134 14.0887862,15.6086095 Z M9.18296417,19.4975103 C9.18296417,22.5524442 11.1158015,24.0436901 13.9943076,23.4394175 L17.4679404,22.7105799 L17.4679404,12.8213578 L14.0075523,13.5475451 C11.1158015,14.1544681 9.18296417,16.4434599 9.18296417,19.4975103 Z M21.4280937,11.9900412 L19.3080652,12.4352947 L19.3089481,22.3245168 L21.4280937,21.8792633 L21.4280937,15.601542 L25.5683744,21.0099588 L27.6884029,20.5655887 L27.6884029,10.6763667 L25.5683744,11.1207367 L25.5683744,17.398458 L21.4280937,11.9900412 Z M35.5866351,13.9698292 C35.5866351,15.9505006 34.38402,17.0821866 32.9112138,17.3913905 L31.6670988,17.6520051 L31.6670988,11.9193661 L32.9103308,11.6587514 C34.38402,11.3495476 35.5866351,11.9891578 35.5866351,13.9698292 Z M33.0056924,9.56058253 L29.5320596,10.2894201 L29.5320596,20.1786422 L32.9915647,19.4524549 C35.8841985,18.8455319 37.8170358,16.5565401 37.8170358,13.5016063 C37.8170358,10.4475558 35.8841985,8.9563099 33.0056924,9.56058253 Z" id="handy-copy"></path>
        </g>
    </g>
</svg>