<?xml version="1.0" encoding="UTF-8"?>
<svg width="45px" height="47px" viewBox="0 0 45 47" version="1.1" xmlns="http://www.w3.org/2000/svg" xmlns:xlink="http://www.w3.org/1999/xlink">
    <!-- Generator: sketchtool 52.6 (67491) - http://www.bohemiancoding.com/sketch -->
    <title>037D63C6-04E2-449D-A6FB-2BFD7C1AE3E6</title>
    <desc>Created with sketchtool.</desc>
    <defs>
        <path d="M0.434,20.53 C0.276,22.116 0.417,23.718 0.849,25.253 L4.06,37.316 C4.07,37.374 4.084,37.43 4.104,37.484 C4.301,38.053 4.922,38.357 5.492,38.16 C6.062,37.963 6.365,37.34 6.168,36.77 L2.935,24.707 C2.574,23.436 2.453,22.107 2.58,20.791 C3.642,11.416 11.039,4.018 20.415,2.957 C31.521,1.701 41.543,9.685 42.8,20.791 C42.928,22.106 42.81,23.435 42.45,24.707 L39.218,36.775 C39.199,36.83 39.184,36.887 39.174,36.943 C39.07,37.537 39.467,38.104 40.061,38.208 C40.655,38.313 41.221,37.916 41.325,37.322 L44.537,25.253 C44.985,23.721 45.142,22.119 45.001,20.53 C43.836,10.122 35.62,1.907 25.213,0.741 C24.365,0.647 23.523,0.6 22.69,0.6 C11.424,0.601 1.716,9.071 0.434,20.53 Z M28.809,27.187 L25.532,40.33 C25.531,40.336 25.529,40.341 25.529,40.347 C24.871,43.057 26.535,45.789 29.246,46.447 C29.627,46.539 30.018,46.586 30.409,46.589 C32.73,46.594 34.757,45.018 35.324,42.766 L38.6,29.622 L38.639,29.622 C39.311,26.907 37.656,24.162 34.942,23.49 C34.532,23.388 34.123,23.339 33.719,23.339 C31.447,23.34 29.381,24.881 28.809,27.187 Z M29.732,44.334 C28.195,43.952 27.258,42.398 27.641,40.861 L30.917,27.716 C31.298,26.179 32.854,25.244 34.39,25.624 L34.39,25.619 C35.927,26.003 36.863,27.559 36.482,29.098 L33.206,42.242 C32.881,43.546 31.712,44.419 30.425,44.419 C30.196,44.419 29.964,44.391 29.732,44.334 Z M10.482,23.49 C7.768,24.162 6.113,26.907 6.785,29.622 L9.996,42.778 C10.562,45.028 12.589,46.605 14.911,46.6 C15.325,46.599 15.737,46.548 16.14,46.447 C16.145,46.446 16.151,46.445 16.156,46.443 C18.864,45.776 20.52,43.039 19.853,40.33 L16.615,27.187 C16.043,24.881 13.977,23.339 11.705,23.339 C11.3,23.339 10.891,23.388 10.482,23.49 Z M12.181,42.219 L8.904,29.076 C8.69,27.693 9.505,26.358 10.832,25.916 C12.336,25.417 13.958,26.229 14.458,27.732 L17.735,40.877 L17.745,40.839 C18.126,42.375 17.19,43.93 15.654,44.312 C15.422,44.37 15.189,44.398 14.961,44.398 C13.675,44.398 12.504,43.525 12.181,42.219 Z" id="path-1"></path>
    </defs>
    <g id="Symbols" stroke="none" stroke-width="1" fill="none" fill-rule="evenodd">
        <g id="icon/headphones">
            <mask id="mask-2" fill="white">
                <use xlink:href="#path-1"></use>
            </mask>
            <use id="headphones" fill="#16A7EF" xlink:href="#path-1"></use>
        </g>
    </g>
</svg>