<?xml version="1.0" encoding="UTF-8"?>
<svg width="15px" height="19px" viewBox="0 0 15 19" version="1.1" xmlns="http://www.w3.org/2000/svg" xmlns:xlink="http://www.w3.org/1999/xlink">
    <!-- Generator: sketchtool 52.6 (67491) - http://www.bohemiancoding.com/sketch -->
    <title>28B870ED-394A-4733-A724-E4AE8F9055DA</title>
    <desc>Created with sketchtool.</desc>
    <g id="Symbols" stroke="none" stroke-width="1" fill="none" fill-rule="evenodd">
        <g id="icon/logos/helpscout" fill="#3197D6">
            <path d="M13.8279395,5.5135514 C14.5054367,4.8010514 14.9180424,3.8088785 14.9052594,2.73088006 C14.8917663,1.66471963 14.4663776,0.694742991 13.7938516,0 L1.17209299,13.4753505 C0.494595789,14.1989486 0.081990054,15.1800234 0.0954831847,16.2691199 C0.108266151,17.3352804 0.533654852,18.3059969 1.20689106,19 L13.8279395,5.5135514 Z M13.8883035,7.79310748 L8.66362122,13.3762072 C7.98612402,14.0887072 7.57351828,15.0816199 7.58630125,16.1588785 C7.59979438,17.2257788 8.02518308,18.1957555 8.69770913,18.8904984 L13.9223914,13.3066589 C14.5998886,12.5948988 15.0124943,11.601986 14.9997114,10.5247274 C14.9869284,9.44672897 14.5608295,8.48785047 13.8883035,7.79310748 Z M1.11172898,11.1839564 L6.33641124,5.6008567 C7.01390844,4.8883567 7.42651418,3.8961838 7.41373121,2.81818536 C7.40023808,1.75202492 6.97484938,0.782048287 6.30232333,0.087305296 L1.07693091,5.67040498 C0.399433709,6.38290498 -0.0131720261,7.37507788 0.000321104633,8.45307632 C0.0131040706,9.53107477 0.438492772,10.4899533 1.11172898,11.1839564 Z" id="HS"></path>
        </g>
    </g>
</svg>