<svg xmlns="http://www.w3.org/2000/svg" viewBox="0 0 210 224.57"><defs><style>.cls-1{fill:#f0f6f7;}.cls-2{fill:#c7d8e2;}.cls-3{fill:#dce8ef;}.cls-4{fill:#f0f7f7;}.cls-5{fill:#c0d0d8;}.cls-6{fill:#eff4f4;}.cls-7{fill:#808791;}.cls-8{fill:#c4cbd6;}.cls-9{fill:#6f7475;}.cls-10{fill:#8a9596;}.cls-11{fill:#c8cdce;}.cls-12{fill:#b5b5b5;}.cls-13{fill:#00be5a;}.cls-14{fill:#00a251;}.cls-15{fill:#cad3db;}.cls-16{fill:#d8e1ea;}.cls-17{fill:#a5bdd6;}.cls-18{fill:#fff;}.cls-19{fill:#3e4e5e;}.cls-20{fill:#e2e2e2;}.cls-21{fill:#d68158;}.cls-22{fill:#1e86ce;}.cls-23{fill:#44aae2;}.cls-24{fill:#278bd0;}.cls-25{fill:#f6f7f8;}.cls-26{fill:#1870a0;}.cls-27{fill:#e5e8eb;}.cls-28{fill:#2c3e4f;}.cls-29{fill:#1f3245;}.cls-30{fill:#fcbaa2;}.cls-31{fill:#fca889;}.cls-32{fill:#fcb399;}.cls-33{fill:#f29c81;}.cls-34{fill:#727983;}.cls-35{fill:#de9a79;}</style></defs><title>hurry</title><g id="Layer_2" data-name="Layer 2"><g id="DESIGNED_BY_FREEPIK" data-name="DESIGNED BY FREEPIK"><path class="cls-1" d="M83.08,87.88a21.39,21.39,0,1,1,21.39-21.39A21.42,21.42,0,0,1,83.08,87.88Zm0-34.14A12.75,12.75,0,1,0,95.83,66.49,12.81,12.81,0,0,0,83.08,53.74Z"/><path class="cls-2" d="M206.89,44.56l-27,78.42a2.34,2.34,0,0,1-3.15,1.51l-43.87-15.08a2.34,2.34,0,0,1-1.51-3.15l26.87-78.42a2.52,2.52,0,0,1,3.15-1.65l43.87,15.08A2.61,2.61,0,0,1,206.89,44.56Z"/><path class="cls-3" d="M208.81,45.24l-27,78.42a2.34,2.34,0,0,1-3.15,1.51l-43.87-15.08a2.34,2.34,0,0,1-1.51-3.15l27-78.42a2.52,2.52,0,0,1,3.15-1.65L207.3,42A2.66,2.66,0,0,1,208.81,45.24Z"/><path class="cls-4" d="M203.19,47,192.9,76.78,184.54,101l-3.84,11.11-1,2.6a1.37,1.37,0,0,1-1.78.82l-21-7.27-16.18-5.62a1.37,1.37,0,0,1-.82-1.78L150,72l13.3-38.8a1.28,1.28,0,0,1,1.65-.82h.14l6.31,2.19,14.12,4.8,16.73,5.76a1.59,1.59,0,0,1,1,1.92Z"/><path class="cls-2" d="M157.39,115.58a2.38,2.38,0,1,1,3-1.51A2.41,2.41,0,0,1,157.39,115.58Z"/><path class="cls-2" d="M168.23,32.08a1,1,0,1,1,1.23-.55A1.19,1.19,0,0,1,168.23,32.08Z"/><circle class="cls-5" cx="94.19" cy="17.55" r="17.55"/><path class="cls-6" d="M110.37,17.55a16.1,16.1,0,0,1-6.58,13,18.51,18.51,0,0,1-4,2.19,10.1,10.1,0,0,1-1.92.55c-.41.14-.82.14-1.23.27a14.9,14.9,0,0,1-2.47.14,18.44,18.44,0,0,1-4.8-.69A16.26,16.26,0,0,1,78,17.55a15,15,0,0,1,1.65-7,15.91,15.91,0,0,1,5.62-6.44,7.39,7.39,0,0,1,1.78-1,15.42,15.42,0,0,1,4.25-1.37,20.54,20.54,0,0,1,3-.27,16.15,16.15,0,0,1,15.08,10.28,19.48,19.48,0,0,1,1,5.76Z"/><path class="cls-7" d="M94.19,18.37c-.27,0-.41-.14-.69-.27l-5.35-6.58a.78.78,0,1,1,1.23-1l5.35,6.58a.71.71,0,0,1-.14,1.1C94.6,18.37,94.33,18.37,94.19,18.37Z"/><circle class="cls-5" cx="94.19" cy="17.55" r="3.15"/><path class="cls-5" d="M86,27.83a.82.82,0,0,1-.55-.14.85.85,0,0,1-.14-1.1l8.23-9.46a.78.78,0,1,1,1.23,1l-8.23,9.46c0,.14-.27.27-.55.27Z"/><circle class="cls-8" cx="14.53" cy="93.92" r="7.68"/><path class="cls-9" d="M20.84,51.14,10.69,71a2.25,2.25,0,0,0,1,3L50,93.64a2.25,2.25,0,0,0,3-1L63.2,72.8A2.67,2.67,0,0,0,63.34,71a2,2,0,0,0-1.1-1.23L23.86,50.18A2.29,2.29,0,0,0,22.21,50,1.82,1.82,0,0,0,20.84,51.14Z"/><path class="cls-10" d="M22.21,49.91,31.81,71a7.67,7.67,0,0,0,8.64,4.39L63.2,70.75a2,2,0,0,0-1.1-1.23L23.72,49.91A5.53,5.53,0,0,0,22.21,49.91Z"/><path class="cls-1" d="M19.33,206.34A19.33,19.33,0,1,1,38.66,187,19.31,19.31,0,0,1,19.33,206.34Zm0-30.85A11.52,11.52,0,1,0,30.85,187,11.59,11.59,0,0,0,19.33,175.49Z"/><path class="cls-11" d="M4.66,147.8a.59.59,0,0,1-.55-.55A76.21,76.21,0,0,1,5.9,130.52,77.36,77.36,0,0,1,14,109.41c.14-.27.55-.41.69-.27s.41.55.27.69a77,77,0,0,0-8,20.84,74.1,74.1,0,0,0-1.78,16.59.59.59,0,0,1-.55.55Z"/><path class="cls-11" d="M7.27,167.4c-.27,0-.41-.14-.55-.41-.55-2.19-1.1-4.52-1.51-6.72a.75.75,0,0,1,.41-.69.75.75,0,0,1,.69.41c.41,2.19.82,4.39,1.37,6.58.14.27-.14.55-.41.69Z"/><path class="cls-11" d="M152.73,150.54v0Z"/><path class="cls-11" d="M104.88,79.66c.55.27,1.23.41,1.78.69C106,80.07,105.43,79.93,104.88,79.66Z"/><path class="cls-11" d="M131.34,96.25l1,1A6.34,6.34,0,0,0,131.34,96.25Z"/><path class="cls-11" d="M111.05,82.26a8.39,8.39,0,0,0,1.65.69A8.39,8.39,0,0,0,111.05,82.26Z"/><path class="cls-11" d="M152.32,138.89c0,.41.14.82.14,1.37C152.46,139.71,152.32,139.3,152.32,138.89Z"/><path class="cls-11" d="M152,158.08v0Z"/><path class="cls-11" d="M151.77,135.32c.14.41.14,1,.27,1.37A6,6,0,0,0,151.77,135.32Z"/><path class="cls-11" d="M108,80.89c.55.27,1.1.41,1.65.69C109.13,81.3,108.59,81.16,108,80.89Z"/><path class="cls-11" d="M152.6,142.59a3,3,0,0,0,.14,1.1A3,3,0,0,0,152.6,142.59Z"/><path class="cls-11" d="M98.3,77.74a11.42,11.42,0,0,1,2.06.55C99.67,78.15,99,77.87,98.3,77.74Z"/><path class="cls-11" d="M101.59,78.7c.69.14,1.23.41,1.92.55A10.1,10.1,0,0,0,101.59,78.7Z"/><path class="cls-11" d="M148.62,171.38c-.14.27-.14.41-.27.69C148.48,171.79,148.48,171.65,148.62,171.38Z"/><path class="cls-11" d="M95,77.05l2.19.41Z"/><path class="cls-11" d="M147.39,174.81c-.14.27-.14.41-.27.69A1,1,0,0,1,147.39,174.81Z"/><path class="cls-11" d="M149.58,168.5c0,.14,0,.27-.14.27A.42.42,0,0,0,149.58,168.5Z"/><path class="cls-11" d="M151.5,161.23c0,.27-.14.41-.14.69A1.24,1.24,0,0,1,151.5,161.23Z"/><path class="cls-11" d="M150.68,164.8c0,.27-.14.41-.14.69A1.49,1.49,0,0,1,150.68,164.8Z"/><path class="cls-11" d="M126.41,91.72a6.87,6.87,0,0,1,1.1,1C127.23,92.41,126.82,92.13,126.41,91.72Z"/><path class="cls-11" d="M140.12,106.53c.27.27.41.69.69,1C140.53,107.08,140.26,106.8,140.12,106.53Z"/><path class="cls-11" d="M142,109.55c.14.27.27.41.41.69C142.31,110,142.18,109.82,142,109.55Z"/><path class="cls-11" d="M123.8,89.8c.41.27.69.55,1.1.82A7.61,7.61,0,0,0,123.8,89.8Z"/><path class="cls-11" d="M145.74,178.1c0,.14-.14.27-.14.41A.5.5,0,0,0,145.74,178.1Z"/><path class="cls-11" d="M133.68,98.58c.27.41.69.69,1,1.1A6.87,6.87,0,0,0,133.68,98.58Z"/><path class="cls-11" d="M144.23,113.11c.14.14.14.27.27.41C144.37,113.38,144.23,113.25,144.23,113.11Z"/><path class="cls-11" d="M151.22,132c.14.41.14,1,.27,1.37A6,6,0,0,1,151.22,132Z"/><path class="cls-11" d="M135.87,101c.27.41.55.69.82,1.1C136.55,101.73,136.14,101.46,135.87,101Z"/><path class="cls-11" d="M138.06,103.65c.27.41.55.69.82,1.1C138.61,104.34,138.34,104.06,138.06,103.65Z"/><path class="cls-11" d="M129,93.92c.41.27.69.69,1.1,1A7.84,7.84,0,0,1,129,93.92Z"/><path class="cls-11" d="M150.4,128.6c.14.41.27,1,.41,1.37C150.68,129.56,150.54,129.15,150.4,128.6Z"/><path class="cls-11" d="M149.44,125.45c.14.41.27,1,.41,1.37C149.72,126.27,149.58,125.86,149.44,125.45Z"/><path class="cls-11" d="M114.21,83.63c.55.27,1,.55,1.51.82A15,15,0,0,1,114.21,83.63Z"/><path class="cls-11" d="M117.22,85.42c.41.27.82.41,1.23.69C118,85.83,117.63,85.69,117.22,85.42Z"/><path class="cls-11" d="M148.35,122.16l.41,1.23A12.94,12.94,0,0,1,148.35,122.16Z"/><path class="cls-11" d="M121.2,87.88a4.81,4.81,0,0,0,1.1.69A12.64,12.64,0,0,0,121.2,87.88Z"/><path class="cls-11" d="M145.74,116.13c.14.27.27.69.41,1A6.68,6.68,0,0,0,145.74,116.13Z"/><path class="cls-11" d="M147.11,119.14l.41,1.23A12.94,12.94,0,0,0,147.11,119.14Z"/><path class="cls-11" d="M152.46,154.24v0Z"/><path class="cls-11" d="M126.82,202.36c0,.14-.14.14,0,0C126.68,202.5,126.82,202.5,126.82,202.36Z"/><path class="cls-11" d="M136.69,192.49a1.89,1.89,0,0,0-.41.55A1.89,1.89,0,0,1,136.69,192.49Z"/><path class="cls-11" d="M134.22,195.23l-.14.14C134.22,195.37,134.22,195.37,134.22,195.23Z"/><path class="cls-11" d="M124.22,204.42l-.14.14Z"/><path class="cls-11" d="M129.56,200c-.14.14-.27.27-.41.27C129.29,200.31,129.43,200.17,129.56,200Z"/><path class="cls-11" d="M132,197.57l-.27.27A.29.29,0,0,0,132,197.57Z"/><path class="cls-11" d="M138.89,189.75c-.14.14-.27.27-.27.41C138.61,190,138.75,189.89,138.89,189.75Z"/><path class="cls-11" d="M119.55,199.21a66.35,66.35,0,0,1-15.63,8.5A47,47,0,0,1,96.11,210a66.3,66.3,0,0,1-14.81,1.78,63.15,63.15,0,0,1-19.19-2.88,64.6,64.6,0,0,1-38.94-89.8A65.28,65.28,0,0,1,45.52,93.5a58.5,58.5,0,0,1,7-4.11,64.24,64.24,0,0,1,16.86-5.62,67.7,67.7,0,0,1,11.93-1.1A64.61,64.61,0,0,1,93,83.77l-1.1-4.25a11.69,11.69,0,0,1-.41-3.15,62.7,62.7,0,0,0-10.28-.69,71.57,71.57,0,1,0,42.5,129.15l-1.92-7.4A13.85,13.85,0,0,1,119.55,199.21Z"/><path class="cls-11" d="M144.37,181a1,1,0,0,0-.27.55C144.23,181.39,144.23,181.11,144.37,181Z"/><path class="cls-11" d="M142.59,184a1.89,1.89,0,0,1-.41.55A1.89,1.89,0,0,0,142.59,184Z"/><path class="cls-11" d="M140.67,187.15c-.14.14-.14.27-.27.27C140.53,187.42,140.53,187.28,140.67,187.15Z"/><path class="cls-11" d="M91.58,76.5l2.47.41Z"/><path class="cls-12" d="M69.37,83.77a64.24,64.24,0,0,0-16.86,5.62,58.5,58.5,0,0,0-7,4.11A64.6,64.6,0,0,0,62.11,208.94a63.15,63.15,0,0,0,19.19,2.88A58.41,58.41,0,0,0,96.11,210c2.6-.69,5.21-1.37,7.81-2.33a61.74,61.74,0,0,0,15.63-8.5c.82-.55,1.65-1.23,2.33-1.78l-.41-1.78c-1,.82-1.92,1.51-2.88,2.19a62.75,62.75,0,0,1-15.22,8.23,68.7,68.7,0,0,1-7.54,2.33A63,63,0,0,1,81.3,210a60.27,60.27,0,0,1-18.65-2.88,62.79,62.79,0,0,1-44.15-60.05,61.52,61.52,0,0,1,6.31-27.42,62.93,62.93,0,0,1,21.8-25,68.47,68.47,0,0,1,6.86-4,59.6,59.6,0,0,1,16.45-5.48,64.28,64.28,0,0,1,11.52-1.1,60.4,60.4,0,0,1,12.2,1.23l-.41-1.78a65.81,65.81,0,0,0-11.65-1.1,83.49,83.49,0,0,0-12.2,1.23Z"/><path class="cls-6" d="M93.92,144.37a10.26,10.26,0,0,1,.27,2.88,12.89,12.89,0,0,1-25.78,0A13,13,0,0,1,72,138.34L52,105.84a3.29,3.29,0,1,1,5.62-3.43l20,32.49a11.55,11.55,0,0,1,3.7-.55,12.75,12.75,0,0,1,9.46,4.25l14.26-7.4L93.5,85.69a59.41,59.41,0,0,0-12.2-1.23,63.1,63.1,0,0,0-11.52,1.1A68.28,68.28,0,0,0,53.33,91a68.47,68.47,0,0,0-6.86,4,62.89,62.89,0,0,0,16,112.42,64.64,64.64,0,0,0,18.65,2.88,63.83,63.83,0,0,0,14.53-1.65,48,48,0,0,0,7.54-2.33,62.75,62.75,0,0,0,15.22-8.23c1-.69,1.92-1.51,2.88-2.19l-14.67-58Z"/><path class="cls-13" d="M93.92,144.37l12.89-6.72-1.65-6.58-14.26,7.4A15.07,15.07,0,0,1,93.92,144.37Z"/><path class="cls-9" d="M79.66,150.13a1.89,1.89,0,0,1-.55-.41C79.25,149.85,79.52,150,79.66,150.13Z"/><path class="cls-9" d="M80.48,150.4c-.27,0-.41-.14-.69-.27A1,1,0,0,0,80.48,150.4Z"/><path class="cls-9" d="M80.48,150.4c.27,0,.55.14.82.14A1.74,1.74,0,0,1,80.48,150.4Z"/><path class="cls-9" d="M79,149.58c-.14-.14-.27-.41-.41-.55A1.89,1.89,0,0,0,79,149.58Z"/><path class="cls-9" d="M82.12,150.4Z"/><path class="cls-9" d="M79.11,149.72Z"/><path class="cls-9" d="M82,150.4c-.27,0-.41.14-.69.14A1.24,1.24,0,0,0,82,150.4Z"/><path class="cls-9" d="M79.79,150.13Z"/><path class="cls-9" d="M82.81,150.13c-.27.14-.41.14-.69.27C82.4,150.4,82.54,150.26,82.81,150.13Z"/><path class="cls-9" d="M93.92,144.37a15.07,15.07,0,0,0-3-5.9,12.75,12.75,0,0,0-9.46-4.25,11,11,0,0,0-3.7.55l-20-32.49a3.29,3.29,0,1,0-5.62,3.43l20,32.49a13,13,0,0,0-3.56,8.91,12.89,12.89,0,0,0,25.78,0c-.14-.82-.27-1.78-.41-2.74ZM81.3,150.54a1.74,1.74,0,0,1-.82-.14A1.74,1.74,0,0,0,81.3,150.54Z"/><path class="cls-11" d="M130,94.88c.41.41,1,.82,1.37,1.23A12.36,12.36,0,0,0,130,94.88Z"/><path class="cls-11" d="M131.76,197.84c-.69.69-1.51,1.37-2.19,2.06A15.07,15.07,0,0,0,131.76,197.84Z"/><path class="cls-11" d="M94.05,76.91c.27,0,.69.14,1,.14A2.33,2.33,0,0,0,94.05,76.91Z"/><path class="cls-11" d="M125,90.62c.55.41,1,.82,1.51,1.23A14.56,14.56,0,0,1,125,90.62Z"/><path class="cls-11" d="M129.15,200.31c-.82.69-1.51,1.37-2.33,2.06C127.64,201.68,128.47,201,129.15,200.31Z"/><path class="cls-11" d="M127.51,92.68c.41.41,1,.82,1.37,1.23A12.36,12.36,0,0,0,127.51,92.68Z"/><path class="cls-11" d="M97.21,77.46c.41.14.82.14,1.23.27A4,4,0,0,1,97.21,77.46Z"/><path class="cls-11" d="M126.68,202.5a30.11,30.11,0,0,1-2.47,1.92A30.11,30.11,0,0,0,126.68,202.5Z"/><path class="cls-11" d="M123.8,204.83l.27-.27C123.94,204.69,123.8,204.69,123.8,204.83Z"/><path class="cls-11" d="M103.51,79.25c.41.14.82.27,1.37.41C104.34,79.52,103.92,79.38,103.51,79.25Z"/><path class="cls-11" d="M106.67,80.34c.41.14,1,.41,1.37.55A14.22,14.22,0,0,1,106.67,80.34Z"/><path class="cls-11" d="M122.16,88.57l1.65,1.23Z"/><path class="cls-11" d="M100.36,78.29l1.23.41Z"/><path class="cls-11" d="M118.46,86.1a31,31,0,0,1,2.74,1.78A31,31,0,0,0,118.46,86.1Z"/><path class="cls-11" d="M115.58,84.46c.55.27,1.1.69,1.65,1C116.67,85.14,116.13,84.73,115.58,84.46Z"/><path class="cls-11" d="M109.68,81.58a6.4,6.4,0,0,1,1.37.69A6.4,6.4,0,0,0,109.68,81.58Z"/><path class="cls-11" d="M112.7,82.95a7.35,7.35,0,0,0,1.51.69A5.07,5.07,0,0,1,112.7,82.95Z"/><path class="cls-11" d="M151.36,161.92a21.91,21.91,0,0,1-.69,2.88A21.91,21.91,0,0,1,151.36,161.92Z"/><path class="cls-11" d="M149.58,168.77a21.77,21.77,0,0,1-1,2.74C148.89,170.56,149.3,169.6,149.58,168.77Z"/><path class="cls-11" d="M148.35,172.06a22.86,22.86,0,0,1-1.1,2.74A22.86,22.86,0,0,0,148.35,172.06Z"/><path class="cls-11" d="M150.4,165.48l-.82,2.88A11.38,11.38,0,0,0,150.4,165.48Z"/><path class="cls-11" d="M147,175.49c-.41,1-.82,1.78-1.23,2.74A15.53,15.53,0,0,0,147,175.49Z"/><path class="cls-11" d="M152.73,151.22a24.47,24.47,0,0,1-.27,3.15C152.6,153.28,152.6,152.18,152.73,151.22Z"/><path class="cls-11" d="M151.91,158.22a23.24,23.24,0,0,1-.55,3A19.67,19.67,0,0,0,151.91,158.22Z"/><path class="cls-11" d="M152.46,154.93c-.14,1.1-.27,2.06-.41,3.15C152.18,157,152.32,156,152.46,154.93Z"/><path class="cls-11" d="M132,197.57c.69-.69,1.37-1.37,2.06-2.19C133.4,196.19,132.72,196.88,132,197.57Z"/><path class="cls-11" d="M136.28,193l-1.92,2.33A15.78,15.78,0,0,1,136.28,193Z"/><path class="cls-11" d="M152.87,147.25a26.42,26.42,0,0,1-.14,3.29C152.73,149.44,152.87,148.35,152.87,147.25Z"/><path class="cls-11" d="M138.47,190.16c-.55.82-1.23,1.51-1.78,2.33C137.24,191.81,137.93,191,138.47,190.16Z"/><path class="cls-11" d="M142.31,184.68l-1.65,2.47Z"/><path class="cls-11" d="M144.1,181.52a23.85,23.85,0,0,1-1.51,2.47C143.14,183.17,143.55,182.35,144.1,181.52Z"/><path class="cls-11" d="M140.39,187.42c-.55.82-1.1,1.51-1.65,2.33A12.13,12.13,0,0,0,140.39,187.42Z"/><path class="cls-11" d="M145.6,178.51,144.37,181Z"/><path class="cls-11" d="M142.45,110.23l1.65,2.88A15.43,15.43,0,0,0,142.45,110.23Z"/><path class="cls-11" d="M140.67,107.49c.41.69,1,1.37,1.37,2.19A11.84,11.84,0,0,0,140.67,107.49Z"/><path class="cls-11" d="M132.44,97.21c.41.41.82,1,1.23,1.37C133.26,98.17,132.85,97.62,132.44,97.21Z"/><path class="cls-11" d="M144.37,113.52c.41.82.82,1.65,1.37,2.6C145.33,115.17,144.78,114.34,144.37,113.52Z"/><path class="cls-11" d="M138.89,104.75a20.07,20.07,0,0,1,1.23,1.78A20,20,0,0,0,138.89,104.75Z"/><path class="cls-11" d="M146.15,117.09c.27.69.69,1.37,1,2.06C146.84,118.46,146.43,117.77,146.15,117.09Z"/><path class="cls-11" d="M134.63,99.67a14.58,14.58,0,0,1,1.23,1.51A14.56,14.56,0,0,0,134.63,99.67Z"/><path class="cls-11" d="M136.83,102.14a14.56,14.56,0,0,0,1.23,1.51C137.65,103.1,137.24,102.69,136.83,102.14Z"/><path class="cls-11" d="M151.5,133.4l.41,2.06Z"/><path class="cls-11" d="M152.87,147.25a31,31,0,0,0-.14-3.56C152.73,144.92,152.87,146,152.87,147.25Z"/><path class="cls-11" d="M152,136.83c.14.69.14,1.37.27,2.06C152.18,138.2,152.18,137.51,152,136.83Z"/><path class="cls-11" d="M147.52,120.24c.27.69.55,1.23.82,1.92C148.07,121.61,147.8,120.92,147.52,120.24Z"/><path class="cls-11" d="M152.46,140.26a13.31,13.31,0,0,1,.14,2.33A12.55,12.55,0,0,0,152.46,140.26Z"/><path class="cls-11" d="M150.68,130c.14.69.27,1.23.41,1.92A5.38,5.38,0,0,0,150.68,130Z"/><path class="cls-11" d="M148.76,123.53c.27.69.41,1.23.69,1.92C149.17,124.76,149,124.08,148.76,123.53Z"/><path class="cls-11" d="M149.85,126.68c.14.69.41,1.23.55,1.92A7.86,7.86,0,0,1,149.85,126.68Z"/><path class="cls-11" d="M134.22,195.23a15.78,15.78,0,0,0,1.92-2.33,1.89,1.89,0,0,0,.41-.55,26.35,26.35,0,0,0,1.78-2.33c.14-.14.27-.27.27-.41.55-.69,1.1-1.51,1.65-2.33.14-.14.14-.27.27-.27l1.65-2.47c.14-.14.27-.41.41-.55.55-.82,1-1.65,1.51-2.47a1,1,0,0,0,.27-.55l1.23-2.47c0-.14.14-.27.14-.41.41-.82.82-1.78,1.23-2.74.14-.27.14-.41.27-.69.41-1,.69-1.78,1.1-2.74.14-.27.14-.41.27-.69.27-.82.69-1.78,1-2.74a.48.48,0,0,1,.14-.27l.82-2.88c0-.27.14-.41.14-.69.27-1,.41-1.92.69-2.88,0-.27.14-.41.14-.69.14-1,.41-1.92.55-3v-.14c.14-1.1.27-2.06.41-3.15v-.69c.14-1.1.14-2.06.27-3.15v-.69c0-1.1.14-2.19.14-3.29a31,31,0,0,0-.14-3.56,3,3,0,0,0-.14-1.1c0-.82-.14-1.65-.14-2.33,0-.41-.14-.82-.14-1.37s-.14-1.37-.27-2.06a4.87,4.87,0,0,0-.27-1.37l-.41-2.06c-.14-.41-.14-1-.27-1.37-.14-.69-.27-1.37-.41-1.92s-.27-1-.41-1.37c-.14-.69-.41-1.23-.55-1.92-.14-.41-.27-1-.41-1.37a10.74,10.74,0,0,0-.69-1.92l-.41-1.23c-.27-.69-.55-1.23-.82-1.92l-.41-1.23a13.84,13.84,0,0,0-1-2.06c-.14-.27-.27-.69-.41-1-.41-.82-.82-1.65-1.37-2.6-.14-.14-.14-.27-.27-.41L142.31,110c-.14-.27-.27-.41-.41-.69-.41-.69-1-1.51-1.37-2.19-.27-.27-.41-.69-.69-1-.41-.55-.82-1.23-1.23-1.78s-.55-.69-.82-1.1a14.56,14.56,0,0,0-1.23-1.51c-.27-.41-.55-.69-.82-1.1s-.82-1-1.23-1.51-.69-.69-1-1.1-.82-1-1.23-1.37l-1-1c-.41-.41-1-.82-1.37-1.23s-.69-.69-1.1-1-1-.82-1.37-1.23-.69-.69-1.1-1-1-.82-1.51-1.23-.69-.55-1.1-.82L122.16,88a4.81,4.81,0,0,0-1.1-.69c-.82-.55-1.78-1.23-2.74-1.78-.41-.27-.82-.41-1.23-.69s-1.1-.69-1.65-1-1-.55-1.51-.82a7.35,7.35,0,0,0-1.51-.69,8.39,8.39,0,0,0-1.65-.69c-.41-.27-1-.41-1.37-.69s-1.1-.41-1.65-.69-1-.41-1.37-.55-1.23-.41-1.78-.69-.82-.27-1.37-.41-1.23-.41-1.92-.55l-1.23-.41c-.69-.14-1.37-.41-2.06-.55-.41-.14-.82-.14-1.23-.27-.69-.14-1.37-.27-2.19-.41-.27,0-.69-.14-1-.14L91.17,76H91a12.45,12.45,0,0,0,.41,3.15l1.1,4.25A64.51,64.51,0,0,1,121.47,197l1.92,7.4c.14,0,.14-.14.27-.14l.14-.14c.82-.69,1.65-1.23,2.47-1.92l.14-.14c.82-.69,1.65-1.37,2.33-2.06.14-.14.27-.27.41-.27.69-.69,1.51-1.37,2.19-2.06l.27-.27c.69-.69,1.37-1.37,2.06-2.19.55.14.55.14.55,0Z"/><path class="cls-10" d="M134.22,195.23a15.78,15.78,0,0,0,1.92-2.33,1.89,1.89,0,0,0,.41-.55,26.35,26.35,0,0,0,1.78-2.33c.14-.14.27-.27.27-.41.55-.69,1.1-1.51,1.65-2.33.14-.14.14-.27.27-.27l1.65-2.47c.14-.14.27-.41.41-.55.55-.82,1-1.65,1.51-2.47a1,1,0,0,0,.27-.55l1.23-2.47c0-.14.14-.27.14-.41.41-.82.82-1.78,1.23-2.74.14-.27.14-.41.27-.69.41-1,.69-1.78,1.1-2.74.14-.27.14-.41.27-.69.27-.82.69-1.78,1-2.74a.48.48,0,0,1,.14-.27l.82-2.88c0-.27.14-.41.14-.69.27-1,.41-1.92.69-2.88,0-.27.14-.41.14-.69.14-1,.41-1.92.55-3v-.14c.14-1.1.27-2.06.41-3.15v-.69c.14-1.1.14-2.06.27-3.15v-.69c0-1.1.14-2.19.14-3.29a31,31,0,0,0-.14-3.56,3,3,0,0,0-.14-1.1c0-.82-.14-1.65-.14-2.33,0-.41-.14-.82-.14-1.37s-.14-1.37-.27-2.06a4.87,4.87,0,0,0-.27-1.37l-.41-2.06c-.14-.41-.14-1-.27-1.37-.14-.69-.27-1.37-.41-1.92s-.27-1-.41-1.37c-.14-.69-.41-1.23-.55-1.92-.14-.41-.27-1-.41-1.37a10.74,10.74,0,0,0-.69-1.92l-.41-1.23c-.27-.69-.55-1.23-.82-1.92l-.41-1.23a13.84,13.84,0,0,0-1-2.06c-.14-.27-.27-.69-.41-1-.41-.82-.82-1.65-1.37-2.6-.14-.14-.14-.27-.27-.41L142.31,110c-.14-.27-.27-.41-.41-.69-.41-.69-1-1.51-1.37-2.19-.27-.27-.41-.69-.69-1-.41-.55-.82-1.23-1.23-1.78s-.55-.69-.82-1.1a14.56,14.56,0,0,0-1.23-1.51c-.27-.41-.55-.69-.82-1.1s-.82-1-1.23-1.51-.69-.69-1-1.1-.82-1-1.23-1.37l-1-1c-.41-.41-1-.82-1.37-1.23s-.69-.69-1.1-1-1-.82-1.37-1.23-.69-.69-1.1-1-1-.82-1.51-1.23-.69-.55-1.1-.82L122.16,88a4.81,4.81,0,0,0-1.1-.69c-.82-.55-1.78-1.23-2.74-1.78-.41-.27-.82-.41-1.23-.69s-1.1-.69-1.65-1-1-.55-1.51-.82a7.35,7.35,0,0,0-1.51-.69,8.39,8.39,0,0,0-1.65-.69c-.41-.27-1-.41-1.37-.69s-1.1-.41-1.65-.69-1-.41-1.37-.55-1.23-.41-1.78-.69-.82-.27-1.37-.41-1.23-.41-1.92-.55l-1.23-.41c-.69-.14-1.37-.41-2.06-.55-.41-.14-.82-.14-1.23-.27-.69-.14-1.37-.27-2.19-.41-.27,0-.69-.14-1-.14L91.17,76H91a12.45,12.45,0,0,0,.41,3.15l1.1,4.25A64.51,64.51,0,0,1,121.47,197l1.92,7.4c.14,0,.14-.14.27-.14l.14-.14c.82-.69,1.65-1.23,2.47-1.92l.14-.14c.82-.69,1.65-1.37,2.33-2.06.14-.14.27-.27.41-.27.69-.69,1.51-1.37,2.19-2.06l.27-.27c.69-.69,1.37-1.37,2.06-2.19.55.14.55.14.55,0Z"/><path class="cls-12" d="M144.23,147.25a62.87,62.87,0,0,1-22.76,48.4l.41,1.78A64.51,64.51,0,0,0,93,83.77l.41,1.78A62.82,62.82,0,0,1,144.23,147.25Z"/><path class="cls-9" d="M144.23,147.25a62.87,62.87,0,0,1-22.76,48.4l.41,1.78A64.51,64.51,0,0,0,93,83.77l.41,1.78A62.82,62.82,0,0,1,144.23,147.25Z"/><path class="cls-6" d="M144.23,147.25A62.84,62.84,0,0,0,93.5,85.55L105,131.07l8.5-4.39a3.34,3.34,0,0,1,3.15,5.9l-9.87,5.21,14.67,58A63.37,63.37,0,0,0,144.23,147.25Z"/><path class="cls-11" d="M144.23,147.25A62.84,62.84,0,0,0,93.5,85.55L105,131.07l8.5-4.39a3.34,3.34,0,0,1,3.15,5.9l-9.87,5.21,14.67,58A63.37,63.37,0,0,0,144.23,147.25Z"/><path class="cls-13" d="M116.54,132.58a3.34,3.34,0,0,0-3.15-5.9l-8.5,4.39,1.65,6.58Z"/><path class="cls-14" d="M116.54,132.58a3.34,3.34,0,0,0-3.15-5.9l-8.5,4.39,1.65,6.58Z"/><path class="cls-14" d="M50.18,36.2l5.35,14.67a1.63,1.63,0,0,0,2.06,1L85.83,41.54a1.63,1.63,0,0,0,1-2.06L81.44,24.82c-.14-.41-.55-.69-.82-1a1.51,1.51,0,0,0-1.1,0L51.28,34.14a1.4,1.4,0,0,0-.82.69,1.09,1.09,0,0,0-.27,1.37Z"/><path class="cls-13" d="M50.18,34.82,65.54,40a5.24,5.24,0,0,0,6.31-2.33l8.5-13.85a1.51,1.51,0,0,0-1.1,0L51,34.14a3.63,3.63,0,0,0-.82.69Z"/><path class="cls-15" d="M207.57,134.91l-29.48,9.87a2.23,2.23,0,0,1-3-1.37l-3.84-16.18,34.14-11.38,3.84,16.45a2.28,2.28,0,0,1-1.65,2.6Z"/><path class="cls-13" d="M204.83,114.34l-34.14,11.38-.41-1.23a5,5,0,0,1,3.29-6.44l24.4-8.23a5,5,0,0,1,6.44,3.29Z"/><path class="cls-16" d="M207.85,133l-28.24,9.46a2.91,2.91,0,0,1-3.84-1.92l-4.94-14.81L205,114.34l4.94,14.81a3.35,3.35,0,0,1-2.06,3.84Z"/><path class="cls-17" d="M176.12,127.11l3.77-1.26.91,2.73L177,129.84Z"/><path class="cls-17" d="M183.22,124.65l3.77-1.26.91,2.73-3.77,1.26Z"/><path class="cls-17" d="M190.37,122.31l3.77-1.26.91,2.73L191.28,125Z"/><path class="cls-17" d="M197.51,120l3.77-1.26.91,2.73-3.77,1.26Z"/><path class="cls-17" d="M177.75,131.91l3.77-1.26.91,2.73-3.77,1.26Z"/><path class="cls-17" d="M184.9,129.57l3.77-1.26.91,2.73-3.77,1.26Z"/><path class="cls-17" d="M192,127.1l3.77-1.26.91,2.73-3.77,1.26Z"/><path class="cls-17" d="M199,124.81l3.77-1.26.91,2.73-3.77,1.26Z"/><path class="cls-17" d="M179.39,136.7l3.77-1.26.91,2.73-3.77,1.26Z"/><path class="cls-17" d="M186.41,134.4l3.77-1.26.91,2.73-3.77,1.26Z"/><path class="cls-17" d="M193.51,131.93l3.77-1.26.91,2.73-3.77,1.26Z"/><path class="cls-17" d="M200.65,129.6l3.77-1.26.91,2.73-3.77,1.26Z"/><path class="cls-18" d="M170.72,125.7l34.06-11.41.44,1.3L171.15,127Z"/><ellipse class="cls-17" cx="177" cy="119.01" rx="2.19" ry="2.06" transform="translate(-28.64 62.4) rotate(-18.52)"/><ellipse class="cls-17" cx="196.18" cy="112.56" rx="2.19" ry="2.06" transform="translate(-25.6 68.16) rotate(-18.52)"/><path class="cls-14" d="M177.41,120.1a1.48,1.48,0,0,1-1.92-1l-1-2.74a1.52,1.52,0,0,1,2.88-1l1,2.74A1.48,1.48,0,0,1,177.41,120.1Z"/><path class="cls-14" d="M196.61,113.66a1.48,1.48,0,0,1-1.92-1l-1-2.74a1.52,1.52,0,0,1,2.88-1l1,2.74A1.6,1.6,0,0,1,196.61,113.66Z"/><path class="cls-19" d="M144.37,215.25s.41,2.88,2.19,4.25c2.88,2.47,2.74,3.29,2.88,3.7.14.69-11.52,1.1-12.07-.41s1.37-6.58,1.37-6.58Z"/><circle class="cls-8" cx="175.08" cy="161.92" r="7.68"/><path class="cls-20" d="M51.41,222.24h59.64a1.78,1.78,0,0,0,0-3.56H51.41a1.81,1.81,0,0,0-1.78,1.78A1.92,1.92,0,0,0,51.41,222.24Z"/><path class="cls-21" d="M144.23,214.84s.41,2.88,2.19,4.25c2.88,2.47,2.74,3.29,2.88,3.7.14.69-11.52,1.1-12.07-.41s1.37-6.58,1.37-6.58Z"/><path class="cls-22" d="M142.31,121.75l-6.44,1.51c-.14,0-.27.14-.14.27l9.32,92.68-7.13.55-19.06-92.13-1.65-10.28,3.84-11.11,16-1Z"/><path class="cls-23" d="M138.34,216.62c0-.14-2.19-20.43-5.9-42.23-2.47-14.67-6-28.24-8.36-38.94-1.51-7.13-3.43-12.89-3.43-15.77.14-11.93,3.84-15.63,4-15.77l.27.27s-3.84,3.7-3.84,15.49c0,2.74,1.78,8.64,3.43,15.63,2.33,10.69,5.76,24.27,8.36,38.94,3.7,21.8,5.9,42.09,5.9,42.36Z"/><path class="cls-21" d="M127,206.2a31.55,31.55,0,0,0,.41,8.23c.69,3.29,4.52,9.73,2.47,9.87,0,0-4.8-4.52-5.21-5.48-2.47-5.62-5.76-9.19-5.35-10.69s3.56-4.8,3.56-4.8Z"/><path class="cls-24" d="M147.52,101.46l3.56,10.83s2.88,21.53,6.44,39.21c.82,4.25,1.51,8.64.55,11.24s-2.19,4.94-5.07,8.36c-9.87,12.07-25.64,37.7-25.64,37.7l-6.31-3.7s11.24-28.38,18.23-37.43c1.37-1.78,5.62-7,5.62-7L136.55,123l-.27-21Z"/><path class="cls-25" d="M131.48,56.35l-12.61,1-2.6,1-5.62,11.11,7.4,32.08,28.24-1.78-6.44-31Z"/><path class="cls-26" d="M151.64,112.7l-7.13-5.76c1.51-.41,2.33-.69,2.33-.69l-1.65-5.48a69.76,69.76,0,0,1-9.73,1.51c-5.21.41-13.44.41-13.44.41s-4.25,1.51-3,3.7l-1.23,11.79.69,4.11a16,16,0,0,0,6.86-1c2.47-1,5.48-4.52,7.68-3.15a8.4,8.4,0,0,1,3.43,4.8s2.6-5.62,8.36-3.7,8.09,5.48,8.09,5.48Z"/><path class="cls-27" d="M121.2,67.18c1.65,2.74,10,11.93,10,11.93l10.56,23.44s-18.23.27-17.69,0-7.4-40.31-7.4-40.31L118,60.33a33,33,0,0,0,3.15,6.86Z"/><path class="cls-23" d="M139.43,124.9a2.46,2.46,0,0,0-3-1.92l-.27-2.74c.55-.27,1.65-1,2.33-3.56.69-3.15-2.19-13.57-2.19-14.12l-.27.14c0,.14,3,10.83,2.19,13.85a5.24,5.24,0,0,1-1.92,3.29l-1.92-17.14h-.27L136.42,123c0,.14,0,.14.14.14h.27a2.26,2.26,0,0,1,2.74,1.78l8.23,35.92c-.69.69-5.35,5.48-11.93,17.55a235.9,235.9,0,0,0-12.48,27.69l.27.14a235.9,235.9,0,0,1,12.48-27.69c7-12.89,11.79-17.55,11.93-17.55h.14Z"/><path class="cls-28" d="M171.1,56.9,141.35,54.7l-10.28,1.51L129.7,86.92s6.86,25.78,13.3,28.93c4.11,2.19,10.15.55,10.15.55l-4-22.07-3.7-26.6,25.36-5.35C171.52,62.38,172.06,61,171.1,56.9Z"/><path class="cls-28" d="M121.88,113.93,132,91.31l-15.77-33-8.5,2.6s4.52,6.58,2.88,10.15l.14-.14,5.76,27.69-1,15.63Z"/><path class="cls-29" d="M109.41,72.39c-.27-1.92,1.23-6.31,1.23-6.31a73.3,73.3,0,0,0,4.94,12.48c7.27,14,16.32,12.61,16.32,12.61s3.7,23.44-6.86,29.34c-4.94,2.74-10.56-.14-10.56-.14s1.37-17,.82-21.66C114.76,92,109.41,72.39,109.41,72.39Z"/><path class="cls-30" d="M121.06,36.47c1.51,1.23,1.78,4.11,1.51,6.58,1.65-8.5,9-10.28,16.18-10.69-.55.55,1.37,11,1.37,11l-1.92.41-.14,3.15-3.84-1.1,3.56,2.06L136,54.16s-6.86-.55-8,.27c-1.78,1.37,1.23,2.74,1.23,2.74s-.82,4.11-4.94,4.25c-3.15.14-6.17-3.7-6.17-3.7s.82-12.07,1.65-21.39a1,1,0,0,1,1.23.14Z"/><path class="cls-28" d="M146,23.58a8.87,8.87,0,0,0,.55-1.78,9.05,9.05,0,0,0,.14-1.92c-.27.55-.41,1.23-.69,1.78s-.41,1.23-.55,1.78a14.77,14.77,0,0,1-1.65,3.29,23,23,0,0,1-2.47,2.88l-1.1,1.1c.69-.82,1.37-1.92,2.47-3.43,3.56-5.21.82-12.34.82-12.34S143,16.18,139,19.33,120.1,26,120.1,26s.82,1.51,0,9.32a1.74,1.74,0,0,1-.14.82,1.14,1.14,0,0,1,1.1.27c1.51,1.23,1.78,4.11,1.51,6.58,1.65-8.5,9-10.28,16.18-10.69a11.44,11.44,0,0,0,1.65-1.1,12.93,12.93,0,0,0,1.37-1.37c.82-1,1.78-1.92,2.47-2.88A11.7,11.7,0,0,0,146,23.58Z"/><path class="cls-28" d="M118.32,32.08c-.14,0-.14-.14-.14-.27a14.33,14.33,0,0,0-.14-4.94.27.27,0,0,1,.55,0,21.94,21.94,0,0,1,.14,5.07.6.6,0,0,1-.41.14Z"/><ellipse class="cls-28" cx="135.76" cy="39.33" rx="1.23" ry="0.69" transform="translate(38.56 141.94) rotate(-62.71)"/><ellipse class="cls-31" cx="132.91" cy="42.08" rx="1.78" ry="2.61" transform="translate(-6 53.93) rotate(-22.44)"/><path class="cls-32" d="M123.8,51.82c-2.6-1.92-1.78-5.35-1.78-5.35a15.72,15.72,0,0,0,.69-4.52v-.27a38.74,38.74,0,0,0,.27-4l-2.06-1.23a1.14,1.14,0,0,0-1.1-.27c-.82,9.32-1.65,21.39-1.65,21.39s3,3.84,6.17,3.7a5.4,5.4,0,0,0,2.74-.82c-.14-.14-.41-.14-.69-.27a2.73,2.73,0,0,1-1.65-1.1c-.14-.27-1.92-4.11.41-4.52a53.63,53.63,0,0,1,7-.55C129.15,53.74,125.45,52.92,123.8,51.82Z"/><path class="cls-29" d="M127.37,33.32c-1.1-1.1-2.33-8.5-2.33-8.5-2.74.82-4.94,1.23-4.94,1.23s.82,1.51,0,9.32a1.74,1.74,0,0,1-.14.82,1.14,1.14,0,0,1,1.1.27c1.51,1.23,1.78,4.11,1.51,6.58a11.18,11.18,0,0,1,6.44-8.5A6.45,6.45,0,0,1,127.37,33.32Z"/><ellipse class="cls-32" cx="119.24" cy="39.29" rx="3.43" ry="2.33" transform="matrix(0.13, -0.99, 0.99, 0.13, 65.32, 152.67)"/><path class="cls-33" d="M118,39.07a1.34,1.34,0,0,0,.41,1.65,1.27,1.27,0,0,0,1.65.14,3.74,3.74,0,0,0,.55-2.33,5.72,5.72,0,0,0-.27-1.51,6.2,6.2,0,0,1,0,1.65,1.64,1.64,0,0,1-.27.69s-.14-.55-.55-.69A1.1,1.1,0,0,0,118,39.07Z"/><path class="cls-29" d="M138.06,67.59l4-.41s1.78,6.31-1,6.86S138.06,67.59,138.06,67.59Z"/><path class="cls-29" d="M145.47,68l-1.37-3L170,62.66Z"/><path class="cls-32" d="M112.15,112.29c1.37-.55-1.51-8-1.51-8.36,0-.14.14-.27.41,0,.55.69,1.65,1.65,2.47,1s-1.1-1.65-1.37-2.19a33.17,33.17,0,0,0-3.43-3.7l-1.23-.82c-1.51-.14-3-1.23-3.84-.14-1.92,2.47-.27,5.9,0,7.4.27,1.1,1.65,6.86,2.74,6.86.82-.14-.69-4.11-.14-4.25s1.1,6.31,2.33,6.17c1.65-.27-1-6.17-.27-6.44s1.23,6.86,2.47,6.31c1.51-.82-1.23-6.44-.55-6.72S111.33,112.7,112.15,112.29Z"/><path class="cls-28" d="M87.2,78.56l22.62-4.8c1.78-3.56,1.37-11-2.06-13l-30,13.85a2.92,2.92,0,0,0-.27,4.52c6.86,6.58,25,22.48,25,22.48a5.56,5.56,0,0,0,3-1.37,3.87,3.87,0,0,0,1.78-2.74Z"/><circle class="cls-29" cx="130.36" cy="89.12" r="1.23" transform="translate(-12.54 21.92) rotate(-9.17)"/><path class="cls-27" d="M126.55,59.37l.27,2.06h-2.47S125.17,59.09,126.55,59.37Z"/><path class="cls-27" d="M126.68,58.41l-.41,1.1.27,1.92,2.06-2.06Z"/><path class="cls-18" d="M126.55,59.37s-.82-.27-1.78,1.37a14.47,14.47,0,0,1-1.37,2.33s-4.66-1.51-6-3.43-.41-3.15-.41-3.15.14-.55,1.78.55A67.82,67.82,0,0,0,126.55,59.37Z"/><path class="cls-18" d="M127.78,55s.27.69-.55,2.19a10.87,10.87,0,0,0-1.1,2.19,2.66,2.66,0,0,1,2.19.27A4.87,4.87,0,0,1,130,61.56s1-3.56.27-4.66A6.27,6.27,0,0,0,127.78,55Z"/><path class="cls-34" d="M135.73,64.71l-.69-9h-.41l.69,8.77-2.6,2.19,2.19,1.51c-1.23,4.66-4.25,16.18-5.21,18.1L117.22,71.16l1.37-2.33L115,67.45l-1.92-8.36-.41.14,1.92,8.5v.14l3.29,1.23-1.23,2.06,12.75,15.49.14-.14.14.14c1.1-1.37,5.21-17.82,5.35-18.51V68l-1.92-1.37Z"/><path class="cls-30" d="M152.6,63.48c-1.78,1-5.21,4.11-6.86,5.62-1.1,1.1-2.33,7-1.37,7,1.23,0,2.06-4.66,2.06-4.66s1.23,5.35,2.33,5.62c1.51.41-.55-5.21-.55-5.21s1.78,3.43,2.88,3-1-3.7-1-3.7,5.62-3,6.44-5.21c0-.14,1.92-.55,2.06-.69.41-1.65-1.65-3.43-1.65-3.43a12.37,12.37,0,0,0-4.39,1.65Z"/><path class="cls-35" d="M147.25,221s-.14-1.1-2.47-1.1a10.64,10.64,0,0,0-4.94,1.78,45.53,45.53,0,0,1,5.21-.27C146.43,221.7,147.39,221.7,147.25,221Z"/><path class="cls-19" d="M130,224.44s-4.52-4.94-4.66-5.21-6.17-11-6.17-11l-1,1.23,2.74,4.25.41-.27,3.29,5.9,4.94,5.21Z"/><path class="cls-28" d="M155.75,61.42a2.87,2.87,0,0,1,1.65,1.92,9,9,0,0,1,0,3s9.6-2.6,12.89-3.43a3.93,3.93,0,0,0,2.33-4.11c-.27-1.78-2.74-3-3.56-2.88-5.76.69-13.3,5.48-13.3,5.48Z"/><path class="cls-29" d="M160.27,59.09a9.64,9.64,0,0,1,1.51,3.15,5.71,5.71,0,0,1,.14,2.6l.55-.14a5.86,5.86,0,0,0-.14-2.6,10.38,10.38,0,0,0-1.51-3Z"/><path class="cls-24" d="M154.51,63.75a4.15,4.15,0,0,1,1.23,1.37,4.22,4.22,0,0,1,0,1.92l1.51-.55a3.83,3.83,0,0,0-.41-2.47C156.43,62.79,154.51,63.75,154.51,63.75Z"/><ellipse class="cls-4" cx="155.38" cy="63.1" rx="2.06" ry="1.78" transform="translate(-11.58 47.34) rotate(-16.71)"/><path class="cls-34" d="M155.06,63.2v-.14s-.27-1.23-.27-1.37,0-.14.14-.14.14,0,.14.14.14.82.14,1.1l1.23-.82h.14v.14Z"/></g></g></svg>