<?xml version="1.0" encoding="UTF-8"?>
<svg width="191px" height="191px" viewBox="0 0 191 191" version="1.1" xmlns="http://www.w3.org/2000/svg" xmlns:xlink="http://www.w3.org/1999/xlink">
    <!-- Generator: sketchtool 52.6 (67491) - http://www.bohemiancoding.com/sketch -->
    <title>4E93F831-E289-4522-8198-2CDBAC6BB866</title>
    <desc>Created with sketchtool.</desc>
    <defs>
        <circle id="path-1" cx="94.5" cy="94.5" r="94.5"></circle>
    </defs>
    <g id="Desktop" stroke="none" stroke-width="1" fill="none" fill-rule="evenodd">
        <g id="RD-Prices" transform="translate(-275.000000, -2225.000000)">
            <g id="moneyBack" transform="translate(186.000000, 2166.000000)">
                <g id="Group-4-Copy" transform="translate(90.000000, 60.000000)">
                    <g id="ill">
                        <mask id="mask-2" fill="white">
                            <use xlink:href="#path-1"></use>
                        </mask>
                        <use id="Mask" stroke="#DADADB" fill="#F6F7F8" xlink:href="#path-1"></use>
                        <polygon id="Fill-1" fill="#F29C81" mask="url(#mask-2)" points="154 64.907918 132.946111 47 113.411999 57.3579133 109 71.1581272 144.263472 76"></polygon>
                        <path d="M112.80532,80.6108284 C110.456853,79.5825165 109.316362,76.8059412 110.429859,74.5275376 L119.833174,52.5420424 C120.829248,50.2116905 124.880354,49.4124843 127.22882,50.4407962 C129.576612,51.4697742 130.639496,54.2030592 129.602931,56.5234211 L118.968021,78.2671564 C117.851149,80.551554 115.153787,81.6391404 112.80532,80.6108284" id="Fill-2" fill="#F29C81" mask="url(#mask-2)"></path>
                        <path d="M123.429294,80.8508904 C120.998939,80.2112197 119.46033,77.6769116 120.176499,75.2796286 L127.017401,52.3950961 C127.733571,49.9971544 130.169207,48.5089813 132.599562,49.148652 C135.029257,49.7883227 136.486678,52.2923272 135.851037,54.719255 L129.010795,77.6051051 C128.292645,80.0096345 125.858989,81.4905611 123.429294,80.8508904" id="Fill-4" fill="#F29C81" mask="url(#mask-2)"></path>
                        <path d="M133.894912,80.9993118 C131.247803,81.0427943 128.960874,79.0201971 129.000508,76.5186329 L129.377375,52.6381496 C129.416313,50.1359266 131.459183,48.0428349 134.106291,48.00067 C136.7534,47.9578463 138.948546,49.9731965 139,52.4820077 L138.623828,76.362491 C138.584195,78.8713023 136.54202,80.9571469 133.894912,80.9993118" id="Fill-6" fill="#F29C81" mask="url(#mask-2)"></path>
                        <path d="M160,56.1770138 C145.998625,44.960772 127.162116,58.4620796 119,71.5944105 L144.511446,75 L160,56.1770138 Z" id="Fill-8" fill="#FCA889" mask="url(#mask-2)"></path>
                        <path d="M153.654452,57.4109495 C162.450373,54.6459229 170.872083,66.4961326 169.927333,73.1580641 C168.983243,79.8193254 161.125484,83.7175705 151.890788,82.889939 C142.654776,82.0623074 137.457336,74.2343202 138.045004,70.7455348 C138.632014,67.2567494 144.858532,60.1773164 153.654452,57.4109495" id="Fill-10" fill="#FCBAA2" mask="url(#mask-2)"></path>
                        <path d="M164.451936,64.503624 C163.190257,66.7051233 160.055318,67.88762 158.176081,66.2012942 L135.236107,45.6157083 C133.357534,43.9287152 132.285107,41.510336 133.546122,39.3081694 C134.808465,37.1066702 137.627984,36.3472564 139.821977,37.6111665 L162.762615,58.1974198 C164.649156,59.8897514 165.713615,62.3021248 164.451936,64.503624" id="Fill-12" fill="#FCBAA2" mask="url(#mask-2)"></path>
                        <path d="M114.294474,51.0152093 C113.404477,48.6548537 114.605744,46.0348921 116.902996,45.0801266 L134.857261,37.3357699 C137.141433,36.3504625 139.812078,37.6232619 140.702075,39.9836175 C141.592726,42.3446371 140.417616,45.0084196 138.094207,45.9180363 L120.139289,53.6630569 C117.847923,54.6510201 115.185125,53.3762289 114.294474,51.0152093" id="Fill-15" fill="#FCBAA2" mask="url(#mask-2)"></path>
                        <path d="M96.1769144,67.5106109 C94.4850209,65.6551619 94.6164561,62.7314634 96.5765848,61.1544619 L115.289343,46.1000824 C117.250142,44.5224302 120.149094,44.6330285 121.840988,46.487827 C123.532881,48.343276 123.349811,51.1980131 121.439976,52.8433254 L102.727889,67.8983555 C100.762395,69.4799111 97.8688079,69.3654093 96.1769144,67.5106109" id="Fill-17" fill="#FCBAA2" mask="url(#mask-2)"></path>
                        <path d="M131,48.9056631 C134.593713,51.2672022 148.815555,61.0565556 139.335646,66.3843458 C129.855077,71.712136 158,72 158,72 L155.559125,54.3592703 C155.559125,54.3592703 142.730184,35.2811967 131,48.9056631" id="Fill-19" fill="#FCBAA2" mask="url(#mask-2)"></path>
                        <path d="M156,55 C156.628533,75.1841731 167.890921,82.6228981 172,60.6110139 L156,55 Z" id="Fill-21" fill="#FCBAA2" mask="url(#mask-2)"></path>
                        <path d="M171.207204,59 L162,86.3797565 L198.279211,98 C198.857605,96.768602 199.437963,95.2396052 200,93.5386624 L200,68.1607543 L171.207204,59 Z" id="Fill-23" fill="#FFFFFF" mask="url(#mask-2)"></path>
                        <polygon id="Fill-25" fill="#6C8092" mask="url(#mask-2)" points="177.808168 59 167 90.921023 200 101 200 65.7455499"></polygon>
                        <polygon id="Fill-27" fill="#6DCA8C" mask="url(#mask-2)" points="125 64.8850633 104.465368 127 74 117.114282 94.5346316 55"></polygon>
                        <path d="M121,65.7955234 L103.296,119.373376 C101.054,118.64585 98.652,119.820728 97.9326667,122 L77,115.204477 L94.704,61.6266244 C96.9466667,62.3548106 99.348,61.1786115 100.068,59 L121,65.7955234 Z" id="Fill-29" fill="#8BD5A4" mask="url(#mask-2)"></path>
                        <path d="M108.500696,94.1117947 C106.782262,99.3584295 101.135509,102.219572 95.888759,100.500518 C90.6413509,98.782122 87.780803,93.135493 89.499237,87.8888582 C91.2176711,82.6415655 96.8644243,79.7804226 102.111832,81.4994767 C107.35924,83.2185309 110.219131,88.864502 108.500696,94.1117947" id="Fill-31" fill="#6DCA8C" mask="url(#mask-2)"></path>
                        <path d="M148.999681,73.1534822 C149.032977,75.7872236 146.45914,78.1490373 143.30594,77.992647 L114.817259,76.5749204 C111.664059,76.41853 109.033618,74.4722679 109.000321,71.8378881 C108.967024,69.2041467 111.527543,67.0338314 114.694062,67 L143.183408,68.4170882 C146.344599,68.5741169 148.966384,70.5197407 148.999681,73.1534822" id="Fill-35" fill="#FCBAA2" mask="url(#mask-2)"></path>
                        <path d="M86.9398159,149.829819 C78.6168405,155.476611 43.3173138,149.110383 42.1315313,142.086829 C40.9450872,135.063275 47.9128826,128.579945 57.8709409,126.41258 C67.8283374,124.245216 98.4317156,131.143904 98.9564508,134.852361 C99.4805243,138.560819 95.2627913,144.181732 86.9398159,149.829819" id="Fill-37" fill="#FCBAA2" mask="url(#mask-2)"></path>
                        <path d="M73.9129119,151.945326 C72.3071683,149.507493 72.8441668,145.99393 75.3309031,144.531901 L121.519995,128.396605 C126.810546,126.548949 131.166274,131.537284 132,135.510917 L81.1689564,153.393941 C78.4498271,154.350966 75.5186556,154.383158 73.9129119,151.945326" id="Fill-39" fill="#FCBAA2" mask="url(#mask-2)"></path>
                        <path d="M64.0000022,133.103045 C64.0026775,130.299858 66.4151247,127.812757 69.3305272,128.011111 L95.6774997,129.809092 C98.5929022,130.007446 101.002005,132.104878 100.999999,134.908705 C100.997323,137.711893 98.5995904,139.995521 95.6688049,140 L69.3218325,138.202658 C66.3984041,138.003025 63.9973269,135.906233 64.0000022,133.103045" id="Fill-41" fill="#F29C81" mask="url(#mask-2)"></path>
                        <path d="M57.0000022,131.35941 C57.0026356,128.415397 59.3772966,125.80335 62.2470353,126.011669 L94.7608649,128.296454 C97.6312619,128.498052 100.002631,130.708246 99.9999978,133.652931 C99.9973644,136.596944 97.6378454,138.995296 94.7529647,139 L62.2384767,136.715215 C59.3601796,136.512944 56.9973688,134.303423 57.0000022,131.35941" id="Fill-43" fill="#FCBAA2" mask="url(#mask-2)"></path>
                        <path d="M31.006332,145.991418 C31.1474433,143.122317 33.6355959,140.690532 36.4834182,141.032123 L78.0292007,143.564222 C80.890806,143.738623 83.1348033,146.166475 82.993692,149.035575 C82.8525807,151.904676 80.3893687,154.128622 77.5166058,153.994215 L35.9708233,151.462116 C33.1000294,151.287058 30.8652207,148.860518 31.006332,145.991418" id="Fill-45" fill="#FCBAA2" mask="url(#mask-2)"></path>
                        <path d="M46.365256,130.508675 L47,159 L6.33687656,159 C5.26953213,151.748101 6.95976851,136.209083 8.3247315,132.193419 C9.69035295,128.177086 8.74021228,131.020928 8.96145086,130.441714 L46.365256,130.508675 Z" id="Fill-47" fill="#FFFFFF" mask="url(#mask-2)"></path>
                        <polygon id="Fill-49" fill="#278BD0" mask="url(#mask-2)" points="39.0988792 128.043553 40 161 -1 161 -1 128"></polygon>
                        <path d="M32,158 C33.6526316,158 35,156.65193 35,155 C35,153.347368 33.6526316,152 32,152 C30.3473684,152 29,153.347368 29,155 C29,156.65193 30.3473684,158 32,158" id="Fill-51" fill="#FFFFFF" mask="url(#mask-2)"></path>
                        <path d="M177,91 C178.652632,91 180,89.6519298 180,88 C180,86.3473684 178.652632,85 177,85 C175.347368,85 174,86.3473684 174,88 C174,89.6519298 175.347368,91 177,91" id="Fill-53" fill="#FFFFFF" mask="url(#mask-2)"></path>
                        <path d="M116.369438,74.999962 L115.160845,74.9858403 C107.937161,74.9011103 108.627785,66.6591887 115.171041,67.0109467 L116.451007,67.0796294 C118.935487,67.2137853 118.072207,75.0198607 116.369438,74.999962" id="Fill-55" fill="#FBE1D7" mask="url(#mask-2)"></path>
                        <path d="M92.3011086,137.777956 L93.4608214,137.93384 C100.393443,138.865059 100.883509,129.667226 94.5646205,129.113804 L93.3279445,129.004889 C90.5691043,128.763235 90.3086129,137.558765 92.3011086,137.777956" id="Fill-57" fill="#FBE1D7" mask="url(#mask-2)"></path>
                        <path d="M132.225,134 C129.691371,134.734519 127.323664,135.44206 126.926713,135.58737 C126.049499,135.908032 125.864675,136.869405 126.084504,138 L133,135.914163 C132.84738,135.291232 132.584146,134.641324 132.225,134" id="Fill-59" fill="#FBE1D7" mask="url(#mask-2)"></path>
                    </g>
                </g>
            </g>
        </g>
    </g>
</svg>