<svg xmlns="http://www.w3.org/2000/svg" xmlns:xlink="http://www.w3.org/1999/xlink" viewBox="0 0 369.76 373.41"><defs><style>.cls-1{fill:none;}.cls-2,.cls-21{fill:#fff;}.cls-3{fill:#ffdc90;}.cls-4{fill:#b0c1c9;}.cls-5{fill:#9eb3bd;}.cls-6{fill:#90a8b3;}.cls-7{fill:#bee1f3;}.cls-8{fill:#bfcdd3;}.cls-9{clip-path:url(#clip-path);}.cls-10{fill:#cfe8f5;}.cls-11{fill:#e3e6e9;}.cls-12{fill:#92b0c1;}.cls-13{fill:#89a8bb;}.cls-14{fill:#a7c2d1;}.cls-15{fill:#d1d5db;}.cls-16{fill:#8eacbe;}.cls-17{fill:#d1d0d3;}.cls-18{fill:#e5e8eb;}.cls-19{fill:#d2eaf7;}.cls-20{fill:#90c7e8;}.cls-21{opacity:0.2;isolation:isolate;}.cls-22{fill:#d3774b;}.cls-23{fill:#d68158;}.cls-24{fill:#5ab4e5;}.cls-25{fill:#f6f7f8;}.cls-26{fill:#e8ebee;}.cls-27{fill:#2c3e4f;}.cls-28{fill:#1f3245;}.cls-29{fill:#384756;}.cls-30{fill:#27394a;}.cls-31{fill:#fcbaa2;}.cls-32{fill:#fca889;}.cls-33{fill:#fcb399;}.cls-34{fill:#f29c81;}.cls-35{fill:#278bd0;}.cls-36{fill:#727983;}.cls-37{fill:#15293d;}.cls-38{fill:#1870a0;}</style><clipPath id="clip-path"><path class="cls-1" d="M287.63,304.27l-64.92-9.64a5.41,5.41,0,0,1-4.5-5.79L252.92,6.43a5.13,5.13,0,0,1,5.36-4.5l59.78,2.79A5.19,5.19,0,0,1,323,10.5l-31.5,290.77c0,1.71-1.93,3.21-3.86,3Z"/></clipPath></defs><title>mirror_1</title><g id="Layer_2" data-name="Layer 2"><g id="DESIGNED_BY_FREEPIK" data-name="DESIGNED BY FREEPIK"><circle class="cls-2" cx="184.88" cy="188.53" r="184.88"/><path class="cls-3" d="M186.92,86.14a9,9,0,0,1-6.86-6.86c0-.21-.43-.21-.43,0a9,9,0,0,1-6.86,6.86c-.21,0-.21.43,0,.43a9,9,0,0,1,6.86,6.86c0,.21.43.21.43,0a9,9,0,0,1,6.86-6.86C187.35,86.57,187.35,86.14,186.92,86.14Z"/><path class="cls-3" d="M66.08,152.78a9,9,0,0,1-6.86-6.86c0-.21-.43-.21-.43,0a9,9,0,0,1-6.86,6.86c-.21,0-.21.43,0,.43a9,9,0,0,1,6.86,6.86c0,.21.43.21.43,0a9,9,0,0,1,6.86-6.86C66.29,153.2,66.29,153,66.08,152.78Z"/><path class="cls-3" d="M68.22,67.92a4.65,4.65,0,0,1-3.43-3.43c0-.21-.21-.21-.21,0a4.65,4.65,0,0,1-3.43,3.43c-.21,0-.21.21,0,.21a4.65,4.65,0,0,1,3.43,3.43c0,.21.21.21.21,0A5.31,5.31,0,0,1,68.22,67.92Z"/><path class="cls-3" d="M163.57,147.42a4.65,4.65,0,0,1-3.43-3.43c0-.21-.21-.21-.21,0a4.65,4.65,0,0,1-3.43,3.43c-.21,0-.21.21,0,.21a4.65,4.65,0,0,1,3.43,3.43c0,.21.21.21.21,0a5.31,5.31,0,0,1,3.43-3.64C163.78,147.63,163.78,147.42,163.57,147.42Z"/><path class="cls-3" d="M153.71,18.86a4.65,4.65,0,0,1-3.43-3.43c0-.21-.21-.21-.21,0a4.65,4.65,0,0,1-3.43,3.43c-.21,0-.21.21,0,.21a4.65,4.65,0,0,1,3.43,3.43c0,.21.21.21.21,0A5.31,5.31,0,0,1,153.71,18.86Z"/><path class="cls-3" d="M192.5,109.92a2.75,2.75,0,0,1-2.14-2.14h-.21a2.75,2.75,0,0,1-2.14,2.14v.21a2.75,2.75,0,0,1,2.14,2.14h.21A2.69,2.69,0,0,1,192.5,109.92Z"/><path class="cls-4" d="M362.41,342.19l-23.14-3L309.7,121.06l-5.57.64,15.64,115.06L299.63,262.7l-29.78-38.78s.21,3.86.86,4.5c.43.21,13.71,17.57,27.86,35.78l-45.43,58.5v2.79l46.5-59.78c11.78,15.43,24,31.07,29.36,38.14l4.71,34.71-24.64-3a3.42,3.42,0,0,0-3.86,3l-.21,1.07a3.41,3.41,0,0,0,3,3.86l53.57,6.64a3.42,3.42,0,0,0,3.86-3l.21-1.07c-.21-1.93-1.5-3.64-3.21-3.86Zm-61.92-77.78L320,239.34l8.36,61.28Z"/><path class="cls-5" d="M319.77,196.92s-1.71-.64-2.79,5.36c-1.29,6,4.07,44.78,4.07,44.78l-12.21-90.21,2.36-21.21Z"/><path class="cls-6" d="M287.42,305.77l-63.21-9.43c-4.71-1.07-6-5.79-5.57-8.57L254.42,8.14a5.13,5.13,0,0,1,5.36-4.5l56.78,1.29c5.36.43,8.14,4.29,7.93,7.29L293.2,301.27a5,5,0,0,1-5.79,4.5Z"/><path class="cls-7" d="M287.85,304.27l-62.14-9.21a8.74,8.74,0,0,1-7.29-9.43L252.28,9.43a8.59,8.59,0,0,1,8.79-7.5L314.42,4.5a8.59,8.59,0,0,1,8.14,9.43L291.49,301.27a3.12,3.12,0,0,1-3.64,3Z"/><path class="cls-8" d="M249.35,300.13,244.78,348l-24.43-3a3.41,3.41,0,0,0-3.86,3l-.21,1.07a3.41,3.41,0,0,0,3,3.86L275.85,360a3.41,3.41,0,0,0,3.86-3l.21-1.07a3.75,3.75,0,0,0-3-4.29h0l-24.64-3L257,301.33Z"/><g class="cls-9"><path class="cls-10" d="M275.63,92.78l18.43-.64h9.43l10.07,16.71-3.64,55.28-47.14,4.71,5.57-53.14Z"/><path class="cls-11" d="M281.42,353.12l.21,4.07-9.86.21-.43-1.5-.43-3.86Z"/><path class="cls-12" d="M261.06,169.7l19.5.64v.43l25.71-2.57,6.64,22.5,2.79,12.43s10.71,43.71,15,59.14c6.21,21.86,25.07,92.35,25.07,92.35l-14.57,3.21s-20.78-64.5-28.71-84.85c-6-15.43-21.43-59.78-23.57-66.21a1.42,1.42,0,0,0-1.07-.86h-1.29a1.75,1.75,0,0,0-1.93,1.71c0,6-.21,24.64-.43,31.71-.21,8.57,0,25.5.21,34.07.21,10.71,1.07,18.86,1.5,29.57.43,9.64-2.79,55.28-2.79,55.28H266.2s0-58.92-1.5-78c-1.71-21.86-4.93-88.92-4.93-88.92Z"/><path class="cls-13" d="M261.06,205.7s1.07-3,10.5-6c18-5.57,44.78,4.29,44.78,4.29l-9.21-36.64s-7.29,11.14-25.5,10.71S260,174.85,260,174.85Z"/><path class="cls-14" d="M285.49,170.35h-.64l1.29,28.93c-.64,0-2.57-.64-3.86-4.5-1.71-5.14-.86-23.78-.86-24h-.64c0,.86-.86,19.07.86,24.21,1.29,4.29,3.64,4.93,4.5,4.93l.21,4.5a4.7,4.7,0,0,0-4.07,2.57c-2.14,4.07-3,62.35-2.57,69.85a16.3,16.3,0,0,0,.21,3c.64,10.71,2.14,36-1.5,77.57h.64c3.64-41.57,2.14-66.85,1.5-77.57,0-1.07-.21-2.14-.21-3-.43-9.21.43-65.78,2.57-69.42,1.07-2.14,3.86-2.14,3.86-2.14h.43Z"/><path class="cls-12" d="M304.35,162.2a53.36,53.36,0,0,1-20.78,4.71c-12,0-19.28-2.36-19.28-2.36l-1.5,12.64A119.25,119.25,0,0,0,284.42,180a64.48,64.48,0,0,0,21-3.64Z"/><path class="cls-12" d="M219.07,123.42l46.07-30.64h11.14L281,156.85s-3.21,27-14.78,34.93c-2.79,1.93-13.28-.21-13.28-.21l7.93-60.64L258.92,117l-30,14.36C227.64,131.78,218.85,129.85,219.07,123.42Z"/><path class="cls-12" d="M296,191.56c-11.14-7.29-10.71-34.5-10.71-34.5l16.28-65.14h13.93s-4.93,14.14-1.07,19.5l-.21-.21L309.7,159l7.07,31.5c-.21,0-14.36,5.36-20.78,1.07Z"/><path class="cls-15" d="M299,59.78c-3.21.86-5.79,4.93-7.07,8.79C295.35,54.43,285.49,46.5,275,40.5c.43,1.29-9.86,15.64-9.86,15.64l2.79,2.14L266,63.21l6.43,1.07-6.86.64-1.93,10.93s13.71,5.36,15.64,8.57-.21,8.36-.21,8.36,1.93,6.64,8.79,6.43c5.36-.21,9.86-7.07,9.86-7.07s-2.36-17.36,3-31.93c-.21-.43-.86-.64-1.71-.43Z"/><path class="cls-12" d="M270.49,22.07a16.53,16.53,0,0,1,.43-3.21c.43-1.07.64-2.14,1.07-3,0,1.07-.21,2.14-.21,3.21a16.81,16.81,0,0,0-.43,3,20.18,20.18,0,0,0,.21,6.21,49,49,0,0,0,1.71,6c.21.86.64,1.71.86,2.57A67.22,67.22,0,0,1,272.85,30c-1.5-10.5,7.5-19.28,7.5-19.28s0,2.14,3.64,10.07c3.64,7.71,24,23.78,24,23.78s-2.36,1.71-6.64,14.14c-.21.43-.21.86-.43,1.29-.43-.43-1.07-.43-1.93-.21-3.21.86-5.79,4.93-7.07,8.79C295.35,54.43,285.49,46.5,275,40.5c-.64-.86-1.07-1.93-1.71-2.79-.43-1.07-.64-1.93-1.07-3a52.6,52.6,0,0,1-1.71-6.21A32.23,32.23,0,0,1,270.49,22.07Z"/><path class="cls-16" d="M306.49,54.85c.21,0,.21-.21.43-.21a45.91,45.91,0,0,1,3.64-7.5c.21-.21,0-.43-.21-.64s-.43,0-.64.21a44.6,44.6,0,0,0-3.86,7.71.79.79,0,0,0,.21.64l.43-.21Z"/><ellipse class="cls-13" cx="274.87" cy="53.55" rx="1.93" ry="1.29" transform="translate(79.19 253.88) rotate(-56.7)"/><ellipse class="cls-17" cx="277.19" cy="59.83" rx="4.5" ry="3" transform="translate(31.64 201.66) rotate(-42.19)"/><path class="cls-17" d="M284,81c5.36-.86,6.64-6.86,6.64-6.86a30.12,30.12,0,0,1,2.14-7.29c0-.21.21-.21.21-.43.43-1.07,1.71-5.36,2.36-6.21l4.07-.43a2.12,2.12,0,0,1,1.71.21c-5.57,14.57-3,31.93-3,31.93s-4.71,6.86-9.86,7.07a8.71,8.71,0,0,1-4.5-1.07,1.64,1.64,0,0,1,1.07-.43,5,5,0,0,0,2.57-2.14c.21-.43,1.93-6.21-1.29-8.57a23.62,23.62,0,0,0-7.29-3.43c-1.71-1.71-5.57-3.64-9-5.14,4.71,1.93,10.93,3.43,14.14,2.79Z"/><path class="cls-16" d="M291.92,50.35c2.36-.86,9.64-11.36,9.64-11.36,3.64,3.21,6.43,5.36,6.43,5.36s-2.36,1.71-6.64,14.14c-.21.43-.21.86-.43,1.29-.43-.43-1.07-.43-1.93-.21-3.21.86-5.79,4.93-7.07,8.79a18.89,18.89,0,0,0-3.64-17.57A7.4,7.4,0,0,0,291.92,50.35Z"/><ellipse class="cls-17" cx="299.97" cy="65.54" rx="5.57" ry="4.07" transform="matrix(0.31, -0.95, 0.95, 0.31, 144.14, 330.1)"/><path class="cls-17" d="M301.77,65.78a2.26,2.26,0,0,1-1.71,2.14,1.9,1.9,0,0,1-2.57-1.07,6.19,6.19,0,0,1,.86-3.86,11.35,11.35,0,0,1,1.5-1.93,13.14,13.14,0,0,0-1.07,2.36c-.21,1.07,0,1.29,0,1.29a2.37,2.37,0,0,1,1.5-.64,1.66,1.66,0,0,1,1.5,1.71Z"/><path class="cls-13" d="M258.92,117.21l.21-6.64s-8.36,7.93-16.93,10.71a73.51,73.51,0,0,1-15.86,2.79l1.93,9.21Z"/><path class="cls-12" d="M259.13,127.06l.86,12.86s-29.57-3.64-37.5-4.71c-3.21-.43-9.64-5.57-3.43-12,.21,0,40.07,3.86,40.07,3.86Z"/><path class="cls-13" d="M315.27,92.14s-3.43,11.57-7.07,24.86c-1.07,4.07-3.64,7.29-4.5,11.57-3.43,18.64-3.43,32.78-.86,41.78,3.86,14.57,13.71,20.14,13.71,20.14s-4.93-25.93-4.71-34.5c.21-10.71,7.5-41.35,7.5-41.35Z"/><path class="cls-18" d="M286.13,97.71v3.64l3.86-1.07S288.28,97.28,286.13,97.71Z"/><path class="cls-18" d="M283.78,96.85l2.36.86v3.64l-4.5-2.57Z"/><path class="cls-19" d="M286.13,97.71s1.29-.43,3.43,1.71a35.57,35.57,0,0,1,2.57,3s6.64-4.71,8.36-8.36-2.79-6-2.79-6,.86,1.93-1.71,4.07-9.86,5.57-9.86,5.57Z"/><path class="cls-19" d="M279.92,90.21s-.86,1.93,1.29,4.29a12.38,12.38,0,0,0,5.14,3.21A5.76,5.76,0,0,0,282.28,99a22.61,22.61,0,0,0-3,4.29s-4.07-8.36-3-10.5c.86-1.93,3.64-2.57,3.64-2.57Z"/><path class="cls-20" d="M291.7,100.06c.21-1.29.86-2.36.21-2.79-.86-.64-3.86.86-4.93,1.29a1.11,1.11,0,0,0-.86-.43c-.43,0-.64,0-.86.21-.64-.43-3.43-2.36-4.29-1.71-.64.43-.21,1.5-.43,2.57s-.86,2.36-.21,2.79c.86.86,4.71-.86,4.71-.86a1.62,1.62,0,0,0,.86.43c.43,0,.64-.21,1.07-.43.86.64,3.43,2.36,4.5,1.93.64-.21,0-1.71.21-3Z"/><circle class="cls-13" cx="276.92" cy="158.56" r="2.36"/><path class="cls-14" d="M285.28,157.49l.64-2.57,16.93-39L300.27,114l4.07-3,1.5-18.86h.64L305,111.42,301.56,114l2.14,1.71-.21.21Z"/><path class="cls-14" d="M280.78,157.06,269.2,114.21l2.79-2.36-3.86-1.5,1.93-17.57h.64l-1.93,17.14,4.5,1.71-3.43,2.79,10.93,40.5Z"/><ellipse class="cls-13" cx="309.34" cy="136.56" rx="6.43" ry="1.5" transform="translate(119.5 416.39) rotate(-79.67)"/><path class="cls-15" d="M311.2,132c-.21-4.07-2.36-7.5-4.29-11.78-1.29-2.79-4.5-3.21-6-3.64-1.93-.43-7.07-1.93-7.5.21-.21,1.29.21,1.71.86,1.93-.86.21-1.29.43-1.29,1.29a2.54,2.54,0,0,0,.86,1.5c-.64.21-1.29.43-1.29,1.07-.21.64.43,1.07,1.07,1.71a1.3,1.3,0,0,0-1.29.64c-.43,2.14,6,3.86,6.64,4.07.86,2.79,2.14,5.57,3.64,7.07,2.57,2.14,7.93,3.43,7.93,3.43a29.61,29.61,0,0,0,.64-7.5Z"/><ellipse class="cls-16" cx="259.87" cy="133.49" rx="1.71" ry="6.43" transform="translate(-10.04 21.69) rotate(-4.69)"/><path class="cls-15" d="M258.28,135.85s4.5,1.07,8.14-.64c1.93-.86,4.07-3.21,5.57-5.57.64,0,7.29.43,7.5-1.71,0-.43-.43-.86-1.07-1.07a1.88,1.88,0,0,0,1.5-1.29,1.45,1.45,0,0,0-.86-1.29c.43-.21,1.29-.64,1.29-1.29.21-.86,0-1.07-.86-1.71.64,0,1.29-.21,1.29-1.5.21-2.14-5.14-2.36-7.07-2.57-1.71-.21-4.93-.64-6.86,1.5-3,3.43-7.07,5.79-8.57,9.64-.43,1.07-.43,5.57,0,7.5Z"/><path class="cls-17" d="M294.06,118.92s7.71.21,7.5,1.07S294.06,118.92,294.06,118.92Z"/><path class="cls-17" d="M293.63,121.71s7.07.43,6.86,1.07C300.06,123.63,293.63,121.71,293.63,121.71Z"/><path class="cls-17" d="M293.2,124.28s6.43.86,6.21,1.5S293.2,124.28,293.2,124.28Z"/><path class="cls-17" d="M279.7,121.28s-7.5-1.93-7.5-1.07S279.7,121.28,279.7,121.28Z"/><path class="cls-17" d="M279.06,124.06s-7.07-1.71-6.86-.86C272.2,123.85,279.06,124.06,279.06,124.06Z"/><path class="cls-17" d="M278.63,126.63s-6.43-1.07-6.43-.43C272.2,127.06,278.63,126.63,278.63,126.63Z"/></g><path class="cls-21" d="M237.92,128.35,296.2,258.41l-4.93,46.28-60-122.13Z"/><path class="cls-21" d="M278.85,303.19,228.71,202.27l-1.07,10.07,43.07,89.57Z"/><path class="cls-4" d="M248.85,305.77a5,5,0,0,1,3.64.86c2.14,1.29,3.21,5.14,3.21,5.14l1.07-10.5-7.5-1.07Z"/><path class="cls-22" d="M55.36,347.55c-.43,6.43,9,7.71,9.43,9a5,5,0,0,1,.21,2.36H46.79a1.18,1.18,0,0,1-1.07-.64l-2.57-3.64a2.76,2.76,0,0,1-.21-2.57l2.36-4.5s1.07,1.5,1.93.86C48.93,346.69,55.58,345.41,55.36,347.55Z"/><path class="cls-11" d="M119,343.69l-.21,4.07,9.86.43.43-1.71.43-3.86Z"/><path class="cls-23" d="M129.29,346c1.5-.21,4.29,2.79,9.64,4.07s19.5,1.71,19.71,2.79a15.11,15.11,0,0,1,0,3.21H118.57s-1.29-6.86,0-8.36h9.64S128.21,346.26,129.29,346Z"/><path class="cls-24" d="M135.71,350.33c-.21,0-.21,0-.21-.21s0-.21.21-.21l2.36-.64c.21,0,.21,0,.21.21s0,.21-.21.21Z"/><path class="cls-24" d="M137.86,351c-.21,0-.21,0-.21-.21s0-.21.21-.21l2.36-.64c.21,0,.21,0,.21.21s0,.21-.21.21Z"/><path class="cls-11" d="M45.08,346.69l3.43-8.79,9,2.36-4.07,7.5L47,349Z"/><path class="cls-23" d="M55.36,346.69c-.43,6.43,9.21,7.71,9.64,8.79a3.92,3.92,0,0,1,0,2.36H46.79a1.18,1.18,0,0,1-1.07-.64l-2.57-3.64a2.08,2.08,0,0,1-.21-1.93l2.14-5.14s1.29,1.71,1.93.86c1.71-3.21,8.57-3,8.36-.64Z"/><path class="cls-24" d="M50.22,350.76c-.21,0-.21,0-.21-.21s0-.21.21-.21L56,349.26c.21,0,.21,0,.21.21s0,.21-.21.21Z"/><path class="cls-24" d="M50.86,352.26c-.21,0-.21,0-.21-.21s0-.21.21-.21l5.79-1.07c.21,0,.21,0,.21.21s0,.21-.21.21Z"/><path class="cls-24" d="M51.72,353.33c-.21,0-.21,0-.21-.21s0-.21.21-.21l5.79-1.07c.21,0,.21,0,.21.21s0,.21-.21.21Z"/><path class="cls-24" d="M133.14,349.48c-.21,0-.21,0-.21-.21s0-.21.21-.21l2.36-.64c.21,0,.21,0,.21.21s0,.21-.21.21Z"/><path class="cls-22" d="M118.79,356.12h39.85v1.07H118.79Z"/><path class="cls-25" d="M124.36,82.28l-18.43-.86H96.5L86.43,98.35l3.64,55.07,47.14,4.71L131.64,105Z"/><path class="cls-26" d="M106.57,90.21a130.2,130.2,0,0,0-.86,17.36c.21,8.79,6.43,25.93,11.57,30.21,2.79,2.36,10.93-.86,10.93-.86l5.36,21.64-23.36.64L99.29,103.28,97.14,82.07l6.43,2.57Z"/><path class="cls-11" d="M118.79,342.41l-.43,4.07,9.86.21.43-1.5.43-3.86Z"/><path class="cls-27" d="M138.93,159.2l-19.5.64v.43L93.72,157.7l-6.64,22.5-2.79,12.43s-10.71,43.71-15,59.14c-6.21,21.86-25.07,92.35-25.07,92.35l14.57,3.21s20.78-64.5,28.71-84.85c6-15.43,21.43-59.78,23.57-66.21a1.42,1.42,0,0,1,1.07-.86h1.29a1.75,1.75,0,0,1,1.93,1.71c0,6,.21,24.64.43,31.71.21,8.57,0,25.5-.21,34.07-.21,10.71-1.07,18.86-1.5,29.57-.43,9.64,2.79,55.28,2.79,55.28h16.93s0-58.92,1.5-78c1.71-21.86,4.93-88.92,4.93-88.92Z"/><path class="cls-28" d="M138.93,195s-1.07-3-10.5-6c-18-5.57-44.78,4.29-44.78,4.29l9.21-36.64s7.29,11.14,25.5,10.71S140,164.13,140,164.13Z"/><path class="cls-29" d="M120.29,269.13c0-1.07.21-2.14.21-3,.43-7.5-.43-65.78-2.57-69.85a5.89,5.89,0,0,0-4.07-2.57l.21-4.5c.86,0,3.21-.64,4.5-4.93,1.71-5.14.86-23.57.86-24.21h-.64c0,.21.86,19.07-.86,24-1.29,3.86-3.21,4.5-3.86,4.5l1.29-28.93h-.64l-1.5,34.28v.43h.43s2.79,0,3.86,2.14c1.93,3.64,3,60.21,2.57,69.42a16.3,16.3,0,0,1-.21,3c-.64,10.71-2.14,36,1.5,77.57H122c-3.86-41.57-2.36-66.64-1.71-77.35Z"/><path class="cls-29" d="M48.08,344.33l-.64-.21c.21-.43,13.93-47.78,26.78-88.49,4.93-16.28,9.21-32.14,12.21-43.93,2.14-8.36,3.86-15,5.14-18.64,7.07-20.78,7.29-33.21,7.29-33.21h.64c0,.21-.21,12.64-7.29,33.43-1.29,3.43-3,10.07-5.14,18.43-3,11.78-7.29,27.86-12.21,43.93C62.22,296.55,48.29,343.69,48.08,344.33Z"/><path class="cls-30" d="M95.64,151.49a53.36,53.36,0,0,0,20.78,4.71c12,0,19.28-2.36,19.28-2.36l1.5,12.64a119.25,119.25,0,0,1-21.64,2.79,64.48,64.48,0,0,1-21-3.64Z"/><path class="cls-27" d="M181.14,112.71,135.07,82.07H123.93l-4.71,64.07s3.21,27,14.78,34.93c2.79,1.93,13.28-.21,13.28-.21l-7.93-60.64,1.93-13.93,30,14.36C172.35,121.28,181.35,119.14,181.14,112.71Z"/><path class="cls-27" d="M104,181.06c11.14-7.29,10.71-35.14,10.71-35.14L98.43,81.42H84.5s4.93,14.14,1.07,19.5l.21-.21,4.5,47.78L83.22,180C83.65,179.77,97.57,185.13,104,181.06Z"/><path class="cls-31" d="M101,49.07c3.21.86,5.79,4.93,7.07,8.79C104.64,43.71,114.5,35.78,125,29.78c-.43,1.29,9.86,15.64,9.86,15.64l-2.79,2.14L134,52.5l-6.43,1.07,6.86.64,1.93,10.93s-13.71,5.36-15.64,8.57.21,8.36.21,8.36-1.93,6.64-8.79,6.43c-5.36-.21-9.86-7.07-9.86-7.07s2.36-17.36-3-31.93c.21-.43.86-.64,1.71-.43Z"/><path class="cls-27" d="M129.5,11.36a16.53,16.53,0,0,0-.43-3.21c-.43-1.07-.64-2.14-1.07-3,0,1.07.21,2.14.21,3.21a16.81,16.81,0,0,1,.43,3,20.18,20.18,0,0,1-.21,6.21,49,49,0,0,1-1.71,6c-.21.86-.64,1.71-.86,2.57a67.22,67.22,0,0,0,1.29-6.86c1.5-10.5-7.5-19.28-7.5-19.28s0,2.14-3.64,10.07c-3.64,7.71-24,23.78-24,23.78S94.36,35.57,98.64,48c.21.43.21.86.43,1.29.43-.43,1.07-.43,1.93-.21,3.21.86,5.79,4.93,7.07,8.79C104.64,43.71,114.5,35.78,125,29.78c.64-.86,1.07-1.93,1.71-2.79.43-1.07.64-1.93,1.07-3a52.6,52.6,0,0,0,1.71-6.21,32.23,32.23,0,0,0,0-6.43Z"/><path class="cls-27" d="M93.5,44.14c-.21,0-.21-.21-.43-.21a45.92,45.92,0,0,0-3.64-7.5c-.21-.21,0-.43.21-.64s.43,0,.64.21a44.59,44.59,0,0,1,3.86,7.71.79.79,0,0,1-.21.64c-.21,0-.43,0-.43-.21Z"/><ellipse class="cls-27" cx="125.27" cy="42.8" rx="1.29" ry="1.93" transform="translate(-2.92 75.81) rotate(-33.3)"/><ellipse class="cls-32" cx="122.84" cy="49.06" rx="3" ry="4.5" transform="translate(3.99 107.12) rotate(-47.81)"/><path class="cls-33" d="M116,70.28c-5.36-.86-6.64-6.86-6.64-6.86a30.12,30.12,0,0,0-2.14-7.29c0-.21-.21-.21-.21-.43-.43-1.07-1.71-5.36-2.36-6.21l-4.07-.43a2.12,2.12,0,0,0-1.71.21c5.57,14.57,3,31.93,3,31.93s4.71,6.86,9.86,7.07a8.71,8.71,0,0,0,4.5-1.07,1.64,1.64,0,0,0-1.07-.43,5,5,0,0,1-2.57-2.14c-.21-.43-1.93-6.21,1.29-8.57a23.62,23.62,0,0,1,7.29-3.43c1.71-1.71,5.57-3.64,9-5.14-4.71,1.93-10.93,3.43-14.14,2.79Z"/><path class="cls-28" d="M108.07,39.85C105.72,39,98.43,28.5,98.43,28.5,94.79,31.71,92,33.85,92,33.85S94.36,35.57,98.64,48c.21.43.21.86.43,1.29.43-.43,1.07-.43,1.93-.21,3.21.86,5.79,4.93,7.07,8.79a18.89,18.89,0,0,1,3.64-17.57A11.24,11.24,0,0,1,108.07,39.85Z"/><ellipse class="cls-33" cx="100.07" cy="54.53" rx="4.07" ry="5.57" transform="translate(-12.02 33.93) rotate(-18.17)"/><path class="cls-34" d="M98.22,55.28a2.26,2.26,0,0,0,1.71,2.14,1.9,1.9,0,0,0,2.57-1.07,6.19,6.19,0,0,0-.86-3.86,11.35,11.35,0,0,0-1.5-1.93,13.14,13.14,0,0,1,1.07,2.36c.21,1.07,0,1.29,0,1.29a2.37,2.37,0,0,0-1.5-.64c-.64-.21-1.5.43-1.5,1.71Z"/><path class="cls-28" d="M141.07,106.49l-.21-6.64s8.36,7.93,16.93,10.71a73.51,73.51,0,0,0,15.86,2.79l-1.93,9.21Z"/><path class="cls-27" d="M140.86,116.56,140,129.42s29.57-3.64,37.5-4.71c3.21-.43,9.64-5.57,3.43-12-.21-.21-40.07,3.86-40.07,3.86Z"/><path class="cls-28" d="M96.29,117.85c-.86-4.29-3.43-7.5-4.5-11.57C87.93,93,84.72,81.42,84.72,81.42L43.58,115.28c-.86,2.36.21,6.86.21,6.86,4.93,2.14,6.43-4.29,11.78-4.29l25.71-12.21c1.5,6.43,6.86,30.64,7.07,39.64.21,8.57-4.71,34.5-4.71,34.5s9.86-5.36,13.71-20.14C99.72,150.63,99.72,136.49,96.29,117.85Z"/><path class="cls-18" d="M113.86,87.21v3.64L110,89.78C110,89.57,111.71,86.57,113.86,87.21Z"/><path class="cls-18" d="M116.21,86.14l-2.36,1.07v3.43l4.5-2.57Z"/><path class="cls-2" d="M113.86,87.21s-1.29-.43-3.43,1.71a35.57,35.57,0,0,0-2.57,3s-6.64-4.71-8.36-8.36,2.79-6,2.79-6-.86,1.93,1.71,4.07c2.57,1.93,9.86,5.57,9.86,5.57Z"/><path class="cls-2" d="M120.07,79.49s.86,1.93-1.29,4.29A12.38,12.38,0,0,1,113.64,87a5.76,5.76,0,0,1,4.07,1.29,22.61,22.61,0,0,1,3,4.29s4.07-8.36,3-10.5a5.38,5.38,0,0,0-3.64-2.57Z"/><path class="cls-27" d="M89.65,119.78a37.67,37.67,0,0,0-.21,4.71c0,3.86,2.36,7.93,2.36,7.93l-41.14-3.21s-7.93-1.71-9-7.07c-.86-4.29.86-6.43,2.57-7.07,5.36-2.14,45.43,4.71,45.43,4.71Z"/><path class="cls-35" d="M114.5,87.85s3.43-2.57,4.5-1.93c.64.43.21,1.5.43,2.57s.86,2.36.21,2.79c-.86.86-4.71-.86-4.71-.86Z"/><path class="cls-35" d="M108.07,86.57c1.07-.86,5.14,1.5,5.14,1.5v2.57s-3.64,2.57-4.71,1.93c-.64-.43-.21-1.93-.21-3.21s-.64-2.36-.21-2.79Z"/><path class="cls-35" d="M114.07,91.07c.86,0,1.29-.64,1.29-1.5v-.64c0-.86-.64-1.29-1.5-1.29s-1.29.64-1.29,1.5v.64A1.43,1.43,0,0,0,114.07,91.07Z"/><circle class="cls-28" cx="123.07" cy="147.85" r="2.36"/><path class="cls-36" d="M114.93,147.42,96.29,105l2.36-1.71L95,100.71v-.21L93.5,81.42h.86l1.29,18.86,4.07,3-2.57,1.93,17.78,40.5Z"/><path class="cls-36" d="M119.21,147.2v-1.29l10.93-42.21-3.43-2.79,4.5-1.71-1.93-17.14h.64l1.93,17.57-3.64,1.5,2.79,2.36-.21.21Z"/><ellipse class="cls-37" cx="90.55" cy="126.1" rx="1.5" ry="6.43" transform="translate(-21.15 18.29) rotate(-10.33)"/><path class="cls-31" d="M89.86,128.78s5.36-1.29,7.93-3.43c1.5-1.5,2.79-4.29,3.64-7.07.64-.21,7.07-1.93,6.64-4.07,0-.43-.64-.64-1.29-.64a2.19,2.19,0,0,0,1.07-1.71c-.21-.64-.64-.86-1.29-1.07.43-.43,1.07-.86.86-1.5,0-.86-.43-1.07-1.29-1.29.64-.21,1.07-.64.86-1.93-.43-2.14-5.79-.64-7.5-.21-1.71.21-4.71.86-6,3.64-1.93,4.29-4.07,7.71-4.29,11.78-.64,2.36,0,5.36.64,7.5Z"/><ellipse class="cls-37" cx="140.25" cy="122.67" rx="6.43" ry="1.71" transform="matrix(0.08, -1, 1, 0.08, 6.53, 252.43)"/><path class="cls-31" d="M141.71,117.64c-1.5-3.86-5.36-6.21-8.57-9.64-2.14-2.36-5.14-1.71-6.86-1.5-1.93.21-7.29.43-7.07,2.57,0,1.29.64,1.71,1.29,1.5-.86.43-1.07.86-.86,1.71a2.5,2.5,0,0,0,1.29,1.29c-.64.21-1.07.64-.86,1.29,0,.64.64,1.07,1.5,1.29-.64.21-1.07.43-1.07,1.07.21,2.14,6.86,1.93,7.5,1.71,1.71,2.36,3.64,4.71,5.57,5.57,3.64,1.71,8.14.64,8.14.64a17.57,17.57,0,0,0,0-7.5Z"/><path class="cls-33" d="M105.93,108.21s-7.71.21-7.5,1.07C98.86,109.92,105.93,108.21,105.93,108.21Z"/><path class="cls-33" d="M106.57,111s-7.07.43-6.86,1.07C99.93,112.92,106.57,111,106.57,111Z"/><path class="cls-33" d="M106.79,113.56s-6.43.86-6.21,1.5C100.79,115.92,106.79,113.56,106.79,113.56Z"/><path class="cls-33" d="M120.5,110.56s7.5-1.93,7.5-1.07S120.5,110.56,120.5,110.56Z"/><path class="cls-33" d="M120.93,113.35s7.07-1.71,6.86-.86C127.79,113.14,120.93,113.35,120.93,113.35Z"/><path class="cls-33" d="M121.36,115.92s6.43-1.07,6.43-.43C127.79,116.56,121.36,115.92,121.36,115.92Z"/><path class="cls-38" d="M115.14,89.35s2.57-1.71,2.79-.64S115.14,89.35,115.14,89.35Z"/><path class="cls-38" d="M112.79,89.35s-2.79-1.07-3,0S112.79,89.35,112.79,89.35Z"/></g></g></svg>