<?xml version="1.0" encoding="UTF-8"?>
<svg width="39px" height="26px" viewBox="0 0 39 26" version="1.1" xmlns="http://www.w3.org/2000/svg" xmlns:xlink="http://www.w3.org/1999/xlink">
    <!-- Generator: sketchtool 52.6 (67491) - http://www.bohemiancoding.com/sketch -->
    <title>92AFB5A7-978B-45C5-BE2D-C8E192CE1DFA</title>
    <desc>Created with sketchtool.</desc>
    <g id="Symbols" stroke="none" stroke-width="1" fill="none" fill-rule="evenodd">
        <g id="content/logos/quicksilver" fill="#6C8092">
            <g id="quicksilver-copy">
                <path d="M19.6933868,23.0788227 C18.8641728,22.7735115 18.4019149,22.759134 18.4019149,22.3557172 C18.4019149,22.1265223 18.6958361,21.9590663 19.077043,21.9590663 C19.5170341,21.9590663 19.8697395,22.1121448 20.0532175,22.3345737 L20.8085059,21.7916103 C20.5012247,21.3822733 19.906257,21 19.0476509,21 C18.1382766,21 17.2859051,21.4998309 17.2859051,22.3700947 C17.2859051,23.0805142 17.8514807,23.5245264 18.585393,23.7740189 C19.2970385,24.0243572 19.8697395,24.1292287 19.8697395,24.5537889 C19.8697395,24.7829838 19.67112,25.0333221 19.1064351,25.0333221 C18.512358,25.0333221 18.0643509,24.7762179 17.8220886,24.3930988 L17,24.9292963 C17.3161879,25.5128552 17.9975507,26 19.0993097,26 C20.3979069,26 21,25.3741543 21,24.5182679 C21,23.8230717 20.6179025,23.412889 19.6933868,23.0788227" id="Fill-41"></path>
                <polygon id="Fill-43" points="11 26 12 26 12 21 11 21"></polygon>
                <polygon id="Fill-45" points="22 26 23 26 23 21 22 21"></polygon>
                <polygon id="Fill-46" points="25.1275405 21 24 21 24 26 27 26 27 24.9956597 25.1275405 24.9956597"></polygon>
                <polygon id="Fill-47" points="28.5351979 24.3038194 27.2909056 21 26 21 27.95586 26 29.1145358 26 31 21 29.7081431 21"></polygon>
                <polygon id="Fill-48" points="31 26 33.9915326 26 33.9915326 24.9956597 32.0795936 24.9956597 32.0795936 24.1345486 33.6316681 24.1345486 33.6316681 23.1831597 32.0795936 23.1831597 32.0795936 22.0043403 34 22.0043403 34 21 31 21"></polygon>
                <path d="M37.713051,24.2077764 C38.3292999,23.9612914 38.6707001,23.3034195 38.6707001,22.6507551 C38.6707001,21.7177573 37.9049265,21 36.9749352,21 L35,21 L35,26 L36.0950735,26 L36.0950735,24.3362263 L36.0950735,23.3607013 L36.0950735,22.0050338 L36.9464131,22.0050338 C37.2973207,22.0050338 37.5687122,22.277556 37.5687122,22.6646416 C37.5687122,23.0873112 37.2826275,23.3607013 36.8530683,23.3607013 L36.613656,23.3607013 L36.613656,24.2876237 L37.7554019,26 L39,26 L37.713051,24.2077764 Z" id="Fill-49"></path>
                <path d="M8.96130346,23.7042037 C8.96130346,24.5654477 8.57678208,24.8978127 8.00325866,24.8978127 C7.42321792,24.8978127 7.03869654,24.5654477 7.03869654,23.7042037 L7.03869654,21 L6,21 L6,23.930622 C6,25.3215995 6.90427699,26 8.00325866,26 C9.09653768,26 10,25.3215995 10,23.930622 L10,21 L8.96130346,21 L8.96130346,23.7042037 Z" id="Fill-50"></path>
                <path d="M4.95638831,23.4991588 C4.95638831,22.1011104 3.85721208,21 2.47859796,21 C1.10563722,21 0,22.1011104 0,23.4991588 C0,24.9056191 1.10563722,26 2.47859796,26 C2.69827168,26 2.91148441,25.9713997 3.11500565,25.9184051 L2.45033113,25.0292732 C1.6443224,25.0149731 1.02568244,24.3554845 1.02568244,23.4991588 C1.02568244,22.6554509 1.65885963,21.9698856 2.47859796,21.9698856 C3.29752867,21.9698856 3.93070586,22.6621803 3.93070586,23.4991588 C3.93070586,23.7851615 3.85801971,24.0501346 3.73283799,24.2780956 L3.02778226,23.3637281 L2.25811662,24.0257402 L3.7231465,25.9217699 L5,25.9217699 L4.37893717,25.1159152 C4.73994508,24.6843876 4.95638831,24.1233176 4.95638831,23.4991588" id="Fill-51"></path>
                <polygon id="Fill-52" points="17.8667549 21 16.3793234 21 14.2048762 23.3671875 14.2048762 21 14.1425061 21 13 21 13 26 14.1425061 26 14.2048762 26 14.2048762 24.9800347 14.9230769 24.1996528 16.4993385 26 16.5910036 26 17.99433 26 18 26 15.7036477 23.3602431"></polygon>
                <path d="M39,20 L2.16929738,20 C0.904171726,20 0.0107214039,18.9716431 0,17.9840733 L0,9.9837166 C1.58587432,9.9837166 3.00467343,9.24520879 3.52108772,8.88506691 C6.80451765,6.60879665 9.53579529,2.17514634 13.0327598,0.733710996 C14.0557605,0.310218854 16.0454743,-0.37535244 18.5569632,0.254678901 L21.5598497,3.15664145 C21.5598497,3.15664145 19.990951,2.44069674 17.6652998,2.44069674 C15.0573183,2.44069674 10.0209388,4.52604841 10.0209388,9.97764192 C10.0209388,14.3687695 13.1372935,17.4521047 18.2567639,17.4521047 L36.3678954,17.4521047 L39,20 Z" id="Fill-53"></path>
                <path d="M18.3214632,9.28137178 C18.1313792,9.46227592 18.2335271,9.66975838 18.4822351,9.66118472 L20.5473999,9.66118472 L21.999677,8.4771629 C22.3043443,8.18994544 22.5983527,8.2431021 22.5983527,8.55346843 L22.5983527,10.9146532 C22.5912468,11.2876072 22.935885,11.2876072 23.1437339,11.0363991 L24.6537468,9.66118472 L26.6336402,9.66118472 C26.7899709,9.65775526 26.9027778,9.46227592 26.6895995,9.26336711 L23.1153101,5.87420109 C22.8603844,5.62813718 22.3096738,5.62813718 22.0645187,5.87420109 C21.9748062,5.95479345 18.3214632,9.28137178 18.3214632,9.28137178 Z M35,15 L18.2175388,15 C16.3140342,15 13.7683301,14.1237724 13,12.4193297 C13,12.4193297 20.5473999,5.00226033 20.9133559,4.64816836 C21.816699,3.78394388 23.4270833,3.78394388 24.2087371,4.64816836 L35,15 Z" id="Fill-54"></path>
            </g>
        </g>
    </g>
</svg>