<?xml version="1.0" encoding="utf-8"?>
<!-- Generator: Adobe Illustrator 22.1.0, SVG Export Plug-In . SVG Version: 6.00 Build 0)  -->
<svg version="1.1" id="Слой_1" xmlns="http://www.w3.org/2000/svg" xmlns:xlink="http://www.w3.org/1999/xlink" x="0px" y="0px"
	 viewBox="0 0 186 60" style="enable-background:new 0 0 186 60;" xml:space="preserve">
<style type="text/css">
	.st0{fill:none;}
	.st1{fill:#6C8092;}
	.st2{fill:#6D8091;}
</style>
<g>
	<path class="st0" d="M21.6,44"/>
	<path class="st1" d="M9.4,28.2h13.9v-4.8l-1.6-1.8H4.3L0,16c0,0,16.3,0.1,20.7,0c5.8-0.1,8.4,5.8,8.4,7.8s0,9.9,0,9.9h-7.4L29.1,44
		h-7.4L9.4,28.2z"/>
	<path class="st1" d="M50.1,28.2c0-2.4,0-6.8,0-6.8s-0.4-3.8-3.6-3.8c-3.1,0-10.8,0-10.8,0v24.8h5.4v-8.6c0,0,2.6,0,3.2,0
		s0.5,0.5,0.5,0.5v8.1H50c0,0,0-5.6,0-7.8c0-2.2-2.6-3.3-2.6-3.3S50.1,30.5,50.1,28.2z M45,28.2c0,0.9-0.6,1-0.6,1h-3.1v-6.7h3
		c0,0,0.8-0.3,0.8,0.9S45,27.3,45,28.2z"/>
	<polygon class="st1" points="66.7,38 59.4,38 59.4,32.4 65.4,32.4 65.4,27.4 59.4,27.4 59.4,22.5 66.7,22.5 66.7,17.6 54,17.6 
		54,42.4 66.7,42.4 	"/>
	<path class="st1" d="M81.4,17.6h-8.7l-4.4,24.8l5.4-0.1l0.6-4.3h5.4l0.8,4.4h5.4L81.4,17.6z M75.4,32.9l1.4-10.3h0.9l1.3,10.3H75.4
		z"/>
	<polygon class="st1" points="88.1,17.6 88.1,42.4 99.7,42.4 99.7,38 93.6,38 93.6,17.7 	"/>
	<polygon class="st1" points="100.3,22.6 100.3,17.6 114.5,17.6 114.5,22.5 109.8,22.5 109.8,42.4 104.7,42.4 104.7,22.5 	"/>
	<path class="st1" d="M130.8,28.1c0-2.4,0-6.8,0-6.8s-0.3-3.7-3.6-3.7c-3.1,0-10.8,0-10.8,0v24.7h5.4v-8.5c0,0,2.6,0,3.2,0
		s0.5,0.5,0.5,0.5v8.1h5.1c0,0,0-5.6,0-7.8c0-2.2-2.6-3.3-2.6-3.3S130.8,30.4,130.8,28.1z M125.8,28.1c0,0.9-0.6,1-0.6,1H122v-6.7h3
		c0,0,0.8-0.3,0.8,0.9S125.8,27.2,125.8,28.1z"/>
	<path class="st1" d="M134.6,17.6c0,0,0,16.4,0,20.6s3.3,4.1,4.2,4.1c0.9,0.1,3.1,0,6.8,0c3.7,0,3.3-4.3,3.3-4.3V17.6h-5.1
		c0,0,0,18.3,0,19.2s-0.8,1-0.8,1h-2.4c0,0-0.8-0.1-0.8-0.9c0-0.8,0-19.4,0-19.4L134.6,17.6z"/>
	<path class="st2" d="M153.2,21.3c0,2.9,0,14.8,0,17.3c0,2.6,1.6,3.8,3.8,3.8c2.5,0,4.8,0,6.4,0c1.5,0,3.8-0.9,3.8-3.3s0-6,0-6h-5.1
		c0,0,0,4.7,0,4.2c0-0.5,0,0.6-0.8,0.6s-2.8,0-2.4,0c0.3,0-0.6-0.1-0.6-1c0-0.9,0-14.1,0-14.1s0-0.9,0.6-0.9c0.6,0,2.7,0,2.7,0
		s0.5,0,0.5,0.8s0,4.2,0,4.2h5.1c0,0,0-5.1,0-5.7c0-0.6-0.9-3.8-3.7-3.7s-5-0.1-6.6,0C155,17.6,153.2,18.3,153.2,21.3z"/>
	<path class="st2" d="M170.7,17.6v24.8h5.1V31.3c0,0,0.4-0.2,0.5,0c0.1,0.3,4,11,4,11h5.7c0,0-5.5-12.4-5.4-12.1
		c0.1,0.3-0.2-0.4,0-1c0.2-0.4,5-11.7,5-11.7h-5.6l-3.6,10.6h-0.6V17.6H170.7z"/>
</g>
</svg>
