<svg xmlns="http://www.w3.org/2000/svg" viewBox="0 0 204.7 176.3"><defs><style>.cls-1{fill:#a8aaab;}.cls-2{fill:#ffdc90;}.cls-3{fill:#1f3245;}.cls-4{fill:#727983;}.cls-5{fill:#2c3e4f;}.cls-6{fill:#1a2d40;}.cls-7{fill:#f6f7f8;}.cls-8{fill:#e5e8eb;}.cls-9{fill:#fcbaa2;}.cls-10{fill:#fca889;}.cls-11{fill:#fcb399;}.cls-12{fill:#f29c81;}.cls-13{fill:#fcb297;}.cls-14{fill:#fff;}.cls-15{fill:#3e4e5e;}.cls-16{fill:#d7dce1;}.cls-17{fill:#82c0e4;}.cls-18{fill:#5faedd;}.cls-19{fill:#e3e6e9;}.cls-20{fill:#fc9789;}.cls-21{fill:#6dca8c;}.cls-22{fill:#fca180;}.cls-23{fill:#278bd0;}.cls-24{fill:#1870a0;}.cls-25{fill:#ed9558;}.cls-26{fill:#a6aaa6;}.cls-27{fill:#ea8640;}.cls-28{fill:#50c076;}.cls-29{fill:#a2aab1;}</style></defs><title>reborn</title><g id="Layer_2" data-name="Layer 2"><g id="DESIGNED_BY_FREEPIK" data-name="DESIGNED BY FREEPIK"><path class="cls-1" d="M57.8,61.4c.1.3-.1.6-.5.7a.75.75,0,0,1-.7-.5.5.5,0,0,1,.5-.6A.53.53,0,0,1,57.8,61.4Z"/><path class="cls-1" d="M60.2,60.4a.54.54,0,0,1-.2.8c-.3.2-.6,0-.8-.2a.57.57,0,0,1,.2-.7A.61.61,0,0,1,60.2,60.4Z"/><path class="cls-1" d="M62.1,58.8a.57.57,0,1,1-.8,0A.61.61,0,0,1,62.1,58.8Z"/><path class="cls-1" d="M63.7,56.8a.57.57,0,1,1-.7.9.57.57,0,1,1,.7-.9Z"/><path class="cls-1" d="M65,54.6a.52.52,0,0,1,.2.8.58.58,0,0,1-1-.6A.72.72,0,0,1,65,54.6Z"/><circle class="cls-1" cx="65.9" cy="52.87" r="0.6" transform="translate(-11.03 87.79) rotate(-63.16)"/><circle class="cls-1" cx="66.99" cy="50.61" r="0.6" transform="translate(-8.06 88.25) rotate(-63.71)"/><circle class="cls-1" cx="68.09" cy="48.36" r="0.6" transform="translate(-6.14 86.63) rotate(-62.66)"/><circle class="cls-1" cx="69.37" cy="46.06" r="0.6" transform="translate(-5.07 83.37) rotate(-60.2)"/><circle class="cls-1" cx="70.66" cy="43.91" r="0.6" transform="translate(-5.04 78.41) rotate(-56.36)"/><circle class="cls-1" cx="72.2" cy="41.87" r="0.6" transform="translate(-5.7 71.82) rotate(-51.14)"/><path class="cls-1" d="M74.3,39.6a.57.57,0,1,1-.8,0A.61.61,0,0,1,74.3,39.6Z"/><path class="cls-1" d="M76.2,38a.61.61,0,0,1-.1.8.57.57,0,1,1-.7-.9A.52.52,0,0,1,76.2,38Z"/><path class="cls-1" d="M78.4,36.6a.63.63,0,0,1-.2.8.58.58,0,1,1,.2-.8Z"/><path class="cls-1" d="M80.6,35.5a.54.54,0,1,1-.7-.3A.52.52,0,0,1,80.6,35.5Z"/><path class="cls-1" d="M83.1,34.8a.57.57,0,1,1-.7-.4A.57.57,0,0,1,83.1,34.8Z"/><path class="cls-1" d="M85.6,34.4a.55.55,0,1,1-.6-.5A.56.56,0,0,1,85.6,34.4Z"/><path class="cls-1" d="M88.1,34.5a.55.55,0,1,1-.5-.6A.5.5,0,0,1,88.1,34.5Z"/><path class="cls-1" d="M90.6,35a.57.57,0,1,1-.4-.7A.57.57,0,0,1,90.6,35Z"/><path class="cls-1" d="M93,35.7a.54.54,0,1,1-1-.4.57.57,0,0,1,.7-.4A.71.71,0,0,1,93,35.7Z"/><path class="cls-1" d="M95.3,36.8A.6.6,0,1,1,95,36C95.4,36.2,95.5,36.5,95.3,36.8Z"/><path class="cls-1" d="M97.5,38.1a.58.58,0,0,1-1-.6.58.58,0,0,1,1,.6Z"/><path class="cls-1" d="M99.6,39.6a.57.57,0,0,1-.9-.7.52.52,0,0,1,.8-.1A.61.61,0,0,1,99.6,39.6Z"/><circle class="cls-1" cx="101.05" cy="40.8" r="0.6" transform="translate(2.25 86.77) rotate(-46.94)"/><path class="cls-1" d="M103.2,43.1a.53.53,0,0,1-.8-.1.57.57,0,0,1,.8-.8A.56.56,0,0,1,103.2,43.1Z"/><path class="cls-1" d="M104.8,45.1a.61.61,0,0,1-.8-.1.57.57,0,1,1,.8.1Z"/><path class="cls-1" d="M106.1,47.3a.78.78,0,0,1-.8-.2.58.58,0,1,1,.8.2Z"/><path class="cls-1" d="M107.1,49.6a.61.61,0,0,1-.7-.3.54.54,0,1,1,1-.4A.46.46,0,0,1,107.1,49.6Z"/><path class="cls-1" d="M107.5,52.1a.55.55,0,1,1-.1-1.1.55.55,0,1,1,.1,1.1Z"/><path class="cls-1" d="M107,54.5a.52.52,0,0,1-.3-.7.67.67,0,0,1,.7-.4.57.57,0,0,1,.4.7.54.54,0,0,1-.8.4Z"/><path class="cls-1" d="M105.3,56.4a.61.61,0,0,1,.1-.8.62.62,0,0,1,.8.1.53.53,0,0,1-.1.8A.62.62,0,0,1,105.3,56.4Z"/><path class="cls-1" d="M103,57.2c0-.3.1-.6.4-.6a.57.57,0,1,1,.3,1.1C103.3,57.7,103,57.5,103,57.2Z"/><path class="cls-1" d="M100.5,57.1a.57.57,0,0,1,1.1.3c0,.3-.3.5-.7.4A.51.51,0,0,1,100.5,57.1Z"/><path class="cls-1" d="M98.4,55.6a.57.57,0,0,1,.8.8.62.62,0,0,1-.8.1A.75.75,0,0,1,98.4,55.6Z"/><path class="cls-1" d="M97.1,53.4a.52.52,0,0,1,.7.3.67.67,0,0,1-.3.8c-.3.2-.6,0-.8-.3,0-.3.1-.7.4-.8Z"/><path class="cls-1" d="M96.4,51a.57.57,0,1,1-.4.7C95.9,51.3,96.1,51,96.4,51Z"/><path class="cls-1" d="M96.2,48.5a.55.55,0,1,1-.5.6A.46.46,0,0,1,96.2,48.5Z"/><path class="cls-1" d="M96.2,45.9a.55.55,0,1,1-.1,1.1.65.65,0,0,1-.6-.6A.94.94,0,0,1,96.2,45.9Z"/><path class="cls-1" d="M96.4,43.4a.55.55,0,1,1-.6.5A.56.56,0,0,1,96.4,43.4Z"/><path class="cls-1" d="M96.9,40.9a.57.57,0,1,1-.7.4A.57.57,0,0,1,96.9,40.9Z"/><path class="cls-1" d="M97.6,38.5a.57.57,0,1,1-.7.4A.51.51,0,0,1,97.6,38.5Z"/><path class="cls-1" d="M98.5,36.1a.54.54,0,0,1-.4,1,.46.46,0,0,1-.3-.7C97.8,36.1,98.2,36,98.5,36.1Z"/><circle class="cls-1" cx="99.32" cy="34.28" r="0.6" transform="translate(24.31 107.86) rotate(-63.49)"/><path class="cls-1" d="M100.8,31.6a.58.58,0,1,1-.6,1,.54.54,0,0,1-.2-.8A.55.55,0,0,1,100.8,31.6Z"/><circle class="cls-1" cx="101.98" cy="30" r="0.6" transform="translate(15.25 91.47) rotate(-51.72)"/><path class="cls-1" d="M104,27.7a.57.57,0,1,1-.8,0A.52.52,0,0,1,104,27.7Z"/><path class="cls-1" d="M106,26a.62.62,0,0,1-.1.8.57.57,0,1,1-.7-.9A.62.62,0,0,1,106,26Z"/><path class="cls-1" d="M108.1,24.6a.58.58,0,1,1-.8-.2A.63.63,0,0,1,108.1,24.6Z"/><path class="cls-1" d="M110.3,23.5a.54.54,0,1,1-1,.4.55.55,0,1,1,1-.4Z"/><path class="cls-1" d="M112.8,22.7a.57.57,0,1,1-.7-.4A.57.57,0,0,1,112.8,22.7Z"/><path class="cls-1" d="M115.2,22.2a.55.55,0,0,1-1.1.1.5.5,0,0,1,.5-.6A.56.56,0,0,1,115.2,22.2Z"/><circle class="cls-1" cx="117.21" cy="22.1" r="0.6" transform="translate(-1.04 6.5) rotate(-3.16)"/><path class="cls-1" d="M120.3,22.1a.55.55,0,1,1-.5-.6A.56.56,0,0,1,120.3,22.1Z"/><path class="cls-1" d="M122.8,22.4a.63.63,0,0,1-.6.5.74.74,0,0,1-.5-.6.56.56,0,0,1,.6-.5A.46.46,0,0,1,122.8,22.4Z"/><path class="cls-1" d="M125.3,22.9a.57.57,0,1,1-.4-.7A.57.57,0,0,1,125.3,22.9Z"/><path class="cls-1" d="M127.7,23.8a.55.55,0,0,1-.7.3.52.52,0,0,1-.3-.7c.1-.3.5-.5.7-.3A.52.52,0,0,1,127.7,23.8Z"/><path class="cls-1" d="M129.9,25a.58.58,0,0,1-1-.6.58.58,0,0,1,1,.6Z"/><path class="cls-1" d="M132,26.5a.62.62,0,0,1-.8.1.61.61,0,0,1-.1-.8.52.52,0,0,1,.8-.1A.61.61,0,0,1,132,26.5Z"/><path class="cls-1" d="M133.8,28.2a.57.57,0,1,1,0-.8A.47.47,0,0,1,133.8,28.2Z"/><path class="cls-1" d="M135.5,30.1a.61.61,0,0,1-.8-.1.57.57,0,0,1,.9-.7A.59.59,0,0,1,135.5,30.1Z"/><path class="cls-1" d="M136.9,32.3a.58.58,0,1,1,.2-.8A.78.78,0,0,1,136.9,32.3Z"/><path class="cls-1" d="M138,34.5a.54.54,0,1,1,.3-.7A.52.52,0,0,1,138,34.5Z"/><path class="cls-1" d="M140.2,39.5l-2.6-3.3,2.1-.9Z"/><path class="cls-2" d="M182.6,24.9a4.19,4.19,0,0,1-3.2-3.2c0-.1-.2-.1-.2,0a4.19,4.19,0,0,1-3.2,3.2c-.1,0-.1.2,0,.2a4.19,4.19,0,0,1,3.2,3.2c0,.1.2.1.2,0a4.19,4.19,0,0,1,3.2-3.2C182.7,25.1,182.7,25,182.6,24.9Z"/><path class="cls-2" d="M117.4,78.1a4.19,4.19,0,0,1-3.2-3.2c0-.1-.2-.1-.2,0a4.19,4.19,0,0,1-3.2,3.2c-.1,0-.1.2,0,.2a4.19,4.19,0,0,1,3.2,3.2c0,.1.2.1.2,0a4.19,4.19,0,0,1,3.2-3.2C117.5,78.3,117.5,78.1,117.4,78.1Z"/><path class="cls-2" d="M128.8,47.1a4.19,4.19,0,0,1-3.2-3.2c0-.1-.2-.1-.2,0a4.19,4.19,0,0,1-3.2,3.2c-.1,0-.1.2,0,.2a4.19,4.19,0,0,1,3.2,3.2c0,.1.2.1.2,0a4.19,4.19,0,0,1,3.2-3.2C128.9,47.3,128.9,47.1,128.8,47.1Z"/><path class="cls-2" d="M183.1,74a2.17,2.17,0,0,1-1.6-1.6c0-.1-.1-.1-.1,0a2.17,2.17,0,0,1-1.6,1.6c-.1,0-.1.1,0,.1a2.17,2.17,0,0,1,1.6,1.6c0,.1.1.1.1,0a2.48,2.48,0,0,1,1.6-1.7C183.2,74.1,183.2,74,183.1,74Z"/><path class="cls-2" d="M134.8,92.2a2.17,2.17,0,0,1-1.6-1.6c0-.1-.1-.1-.1,0a2.17,2.17,0,0,1-1.6,1.6c-.1,0-.1.1,0,.1a2.17,2.17,0,0,1,1.6,1.6c0,.1.1.1.1,0A2.29,2.29,0,0,1,134.8,92.2Z"/><path class="cls-2" d="M197.1,56.9a1.28,1.28,0,0,1-1-1H196a1.28,1.28,0,0,1-1,1V57a1.28,1.28,0,0,1,1,1h.1a1.25,1.25,0,0,1,1-1.1Z"/><path class="cls-3" d="M161.2,168.6a6.65,6.65,0,0,0,1.7,3.4c2.2,1.9,2.1,2.6,2.2,2.9.2.6-9,.8-9.5-.3s1-5.1,1-5.1Z"/><path class="cls-3" d="M165.9,94.7l-5.2.4a.22.22,0,0,0-.2.2l1.3,74.4-5.6.4L147.3,94V85.9l4.4-8.1,12.5,1.3Z"/><path class="cls-4" d="M156.5,170.1c0-.2-1.5-15.8-3.4-33l-.6-5.2c-2-17.9-4-36.5-3.2-41.4,1.6-9.2,4.9-11.6,5.1-11.7l.2.3s-3.4,2.4-4.9,11.5c-.8,4.9,1.2,23.4,3.2,41.3l.6,5.2c1.9,17.3,3.4,32.9,3.4,33Z"/><path class="cls-3" d="M147.6,161.9a27,27,0,0,0,.3,6.5c.5,2.5,3.5,7.6,2,7.8,0,0-3.8-3.5-4.1-4.3-1.9-4.4-4.5-7.2-4.3-8.4.2-1,2.8-3.8,2.8-3.8Z"/><path class="cls-5" d="M172.4,79.6l1.4,8.8s-.9,17.8-.9,30.9a31.6,31.6,0,0,1-.9,8.4,22.58,22.58,0,0,1-4,6.6c-7.7,9.5-20.1,29.6-20.1,29.6L143,161s8.8-22.3,14.4-29.3c1.1-1.4,4.4-5.5,4.4-5.5l-.4-31.1,2.4-16.2Z"/><path class="cls-3" d="M161.4,95.1s2.5-4.3,6.7-2,5.3,4.9,5.3,4.9l.8-9.1-7-7.7-6.3-.7Z"/><path class="cls-6" d="M152.6,77.4s6.4,1.1,10.5,1.4a55.45,55.45,0,0,0,7.7,0l.6,4.5s-13,2.3-19.1-1.2S152.6,77.4,152.6,77.4Z"/><path class="cls-7" d="M165.7,42.7l-9.9-.9-2.2.5-5.7,7.9,1.7,25.7,22.1,2.2-1-24.8Z"/><path class="cls-8" d="M156.3,49.8c.9,2.4,6.3,10.5,6.3,10.5l-1.3,19.5s-7.6-.7-7.2-.8-.7-33.5-.7-33.5l1.3-1.3a36.53,36.53,0,0,0,1.6,5.6Z"/><path class="cls-4" d="M163.3,96.8a2.09,2.09,0,0,0-2.1-2l.1-2.2c.5-.1,1.4-.6,2.2-2.5,1-2.4,0-10.8,0-11.2h-.3c0,.1.9,8.7,0,11a4.19,4.19,0,0,1-1.9,2.3l.6-13.5h-.3l-.7,16.1c0,.1,0,.1.1.2a.35.35,0,0,0,.2.1,1.79,1.79,0,0,1,1.9,1.6l.6,29.5c-.5.5-4.2,4.3-9.3,13.8a201.8,201.8,0,0,0-9.8,21.8l.3.1a183.9,183.9,0,0,1,9.8-21.7c5.5-10.1,9.3-13.8,9.3-13.8h.1Z"/><path class="cls-5" d="M191.2,41a6.25,6.25,0,0,1-2.1-1.1l-2.8,16.7-13-14h-7.9l-4.8,23-.7,4s.5,18.5,5,21.9c3,2.2,11.9-1.2,11.9-1.2l-3.3-15.1L175,54.5l12.6,11.4c.6.2,2.1.7,2.6-.1l-.6-.3.6.3a.37.37,0,0,0,.1-.3l3.2-24.3a7.5,7.5,0,0,1-2.3-.2Z"/><path class="cls-5" d="M151,86.1l10.7-16.2-1.1-4.2-7-23.4-6.9.9s2.7,5.6,1,8.2l.1-.1,1,22.2-2.7,12Z"/><path class="cls-3" d="M146.6,52.4c0-1.5,1.7-4.7,1.7-4.7A50.77,50.77,0,0,0,150.6,58c3.9,11.8,11.1,11.8,11.1,11.8s-5.4,15.5-14.4,18.8c-4.2,1.5-6.1-1.6-6.1-1.6s6.5-9.8,6.7-13.5c.3-5.2-1.3-21.1-1.3-21.1Z"/><path class="cls-9" d="M163.9,27.1c-1.5.5-2.5,2.5-3.1,4.3,1.3-6.6-3.5-10.1-8.6-12.6.2.6-4.2,7.6-4.2,7.6l1.3.9-.8,2.3,3.1.3-3.2.5-.6,5.1s6.6,2.1,7.6,3.6.2,4.3.2,4.3a4,4,0,0,0,4.3,2.6c2.5-.3,4.4-3.6,4.4-3.6s-1.7-8.2.5-15.1a.63.63,0,0,0-.9-.2Z"/><path class="cls-5" d="M149.6,10.3c0-.5.1-1,.1-1.5a5.78,5.78,0,0,1,.5-1.4V8.9a7.57,7.57,0,0,0-.1,1.5,9.55,9.55,0,0,0,.3,2.9c.2.9.6,1.9.9,2.8a11.73,11.73,0,0,0,.5,1.1c-.2-.8-.5-1.8-.8-3.2-1-4.8,3-9.2,3-9.2s.1,1,2,4.5,11.8,10.5,11.8,10.5-1,.8-2.8,6.8c-.1.2-.1.4-.2.6-.2-.2-.5-.2-.9-.1-1.5.5-2.5,2.5-3.1,4.3,1.3-6.6-3.5-10.1-8.6-12.6a5.67,5.67,0,0,1-.8-1.3c-.2-.5-.4-.9-.6-1.4a15.17,15.17,0,0,1-.9-2.8A10.21,10.21,0,0,1,149.6,10.3Z"/><path class="cls-5" d="M167.3,24.6c.1,0,.1-.1.2-.2a19.84,19.84,0,0,1,1.5-3.6c.1-.1,0-.2-.1-.3s-.2,0-.3.1a23.06,23.06,0,0,0-1.6,3.7.37.37,0,0,0,.1.3Z"/><ellipse class="cls-5" cx="152.46" cy="24.76" rx="0.9" ry="0.6" transform="translate(54.73 144.37) rotate(-59.97)"/><ellipse class="cls-10" cx="153.67" cy="27.58" rx="2.1" ry="1.4" transform="translate(26.24 117.79) rotate(-45.47)"/><path class="cls-11" d="M157.4,37.4c2.5-.6,2.9-3.4,2.9-3.4a18.38,18.38,0,0,1,.8-3.5c0-.1,0-.1.1-.2.2-.5.6-2.5.9-3l1.8-.3a.75.75,0,0,1,.8.1c-2.2,7-.5,15.1-.5,15.1s-1.9,3.3-4.4,3.6a3.82,3.82,0,0,1-2.2-.3,2.19,2.19,0,0,1,.5-.3,2,2,0,0,0,1.1-1.1c0-.2.6-3.2-.9-4.2a10.08,10.08,0,0,0-3.5-1.4,24.22,24.22,0,0,0-4.3-2.2c2.5.9,5.5,1.4,6.9,1.1Z"/><path class="cls-3" d="M160.3,22.9c1.1-.5,4.2-5.5,4.2-5.5,1.8,1.4,3.2,2.3,3.2,2.3s-1,.8-2.8,6.8c-.1.2-.1.4-.2.6-.2-.2-.5-.2-.9-.1-1.5.5-2.5,2.5-3.1,4.3a8.6,8.6,0,0,0-2.2-8.1A4.84,4.84,0,0,0,160.3,22.9Z"/><ellipse class="cls-11" cx="164.52" cy="29.63" rx="2.6" ry="1.9" transform="translate(93.59 181.01) rotate(-75.1)"/><path class="cls-12" d="M165.4,29.8a1.27,1.27,0,0,1-.8,1.1,1.13,1.13,0,0,1-1.3-.4,2.64,2.64,0,0,1,.3-1.8,3.65,3.65,0,0,1,.7-1,5.19,5.19,0,0,0-.5,1.2c-.1.5.1.6.1.6a1.7,1.7,0,0,1,.7-.4c.3-.1.7.2.8.7Z"/><path class="cls-3" d="M169.4,52.2l3.2.2s.6,5.2-1.6,5.2S169.4,52.2,169.4,52.2Z"/><path class="cls-3" d="M193.1,44.5a8.27,8.27,0,0,1-2.7-.1,4.4,4.4,0,0,1-1.9-.9l-.1.5a4.18,4.18,0,0,0,1.9.9,8.37,8.37,0,0,0,2.7.1Z"/><path class="cls-3" d="M175,54.5l-.6-3.6,13.4,15Z"/><path class="cls-13" d="M154.8,90.8c.9-1.2-4-5.7-3.9-6.8,0-.6,1.1-.2,1.4-.1.7.1,1.8.2,2-.7s-1.5-.4-1.9-.6c-.8-.3-3.5-1-3.5-1h-1.4c-1.1.1-2.1-.9-2.6.1-1.1,2.2.7,4.6,1.2,5.7.4.8,2.4,5.1,3.2,4.8s-1.2-3.1-.8-3.2,2.8,4.3,3.7,4c1.2-.5-2.7-4.2-2.2-4.5s2.9,4.8,3.7,4.2c1-.8-2.8-4.5-2.3-4.9s2.7,4.1,3.4,3Z"/><path class="cls-5" d="M135.1,64.8l11.6-11.2c1.9-2.5,2.4-8.4,0-10.3l-18,19.3a2.3,2.3,0,0,0-.2,3.7l15.9,19.3a7.73,7.73,0,0,0,1.9-1.6,4.94,4.94,0,0,0,1.2-2.2Z"/><path class="cls-3" d="M155.4,83.3l-7.3,8.6,3.4,3.7,5.6-1.8Z"/><path class="cls-4" d="M149.1,93.2l-.2-.2,6.6-8.4.2.2Z"/><circle class="cls-3" cx="160.7" cy="68" r="1"/><path class="cls-8" d="M157.6,44.8v1.6l1.9-.2S158.6,44.5,157.6,44.8Z"/><path class="cls-8" d="M157.1,44.1l.5.7v1.6l-1.9-1.3Z"/><path class="cls-14" d="M157.6,44.8s.6-.3,1.5.9,1.3,1.7,1.3,1.7,3.4-1.6,4.3-3.3a4.34,4.34,0,0,0-.2-3.7s0,.8-1.2,1.8-5.7,2.6-5.7,2.6Z"/><path class="cls-14" d="M155.9,41.5s-.2.6.6,1.6a13.54,13.54,0,0,1,1.1,1.6,2,2,0,0,0-1.6.4,4.09,4.09,0,0,0-1.1,1.6s-1.2-2.6-.7-3.6A5.3,5.3,0,0,1,155.9,41.5Z"/><path class="cls-4" d="M168.6,42.6h-.3l-.6,6.9-2.3,1.3,1.5,1.4c-1.5,3.5-5.3,12-6.3,13.3l-7.7-13.2,1.4-1.6-2.6-1.5-.5-6.7h-.3l.5,6.9,2.4,1.4-1.3,1.5,8.1,13.8c1-.9,6.4-13.4,6.6-13.9v-.1l-1.3-1.3,2.1-1.2Z"/><path class="cls-2" d="M134.8,12.6a2.17,2.17,0,0,1-1.6-1.6c0-.1-.1-.1-.1,0a2.17,2.17,0,0,1-1.6,1.6c-.1,0-.1.1,0,.1a2.17,2.17,0,0,1,1.6,1.6c0,.1.1.1.1,0A2.14,2.14,0,0,1,134.8,12.6Z"/><ellipse class="cls-3" cx="191.33" cy="40.58" rx="0.5" ry="2.3" transform="translate(97.37 212.12) rotate(-73.26)"/><path class="cls-9" d="M192.4,41.4l.1-.6c.7-.1,5.6-.8,7.4-.9,1.2-.1,4.8-.5,4.8-1.3H201s2.7-2.6,2.2-3.4c-.7-1-3.5,2.8-3.5,2.8s1.7-2.6.9-2.9-2.3,2.4-2.3,2.4-4.9-1.1-6.5-.3c-1.2.6-2.4,3-2.4,3A6.11,6.11,0,0,0,192.4,41.4Z"/><path class="cls-15" d="M163.6,173.5s-.1-.8-1.9-.8a8.07,8.07,0,0,0-3.8,1.4,22.5,22.5,0,0,1,4.1-.2c.9.2,1.6.1,1.6-.4Z"/><path class="cls-15" d="M150,176.2s-3.6-3.9-3.7-4.1-4.8-8.6-4.8-8.6l-.8,1,2.1,3.3.3-.2,2.6,4.6,3.8,4.1Z"/><path class="cls-16" d="M40.4,115.1a24,24,0,0,0,6.8,0,22.61,22.61,0,0,0,5.4-1l-5.5-.6Z"/><path class="cls-16" d="M18.7,113.8s.8.8,6.4,1.3c5.9.5,7.4,0,7.4,0s-5.6-2.1-7.7-2.1A30.55,30.55,0,0,0,18.7,113.8Z"/><path class="cls-9" d="M25.9,82.9l-1.5,9.8s-4.2,29.5-5.5,39.4c-.2,1.3-.9,3.6-1.1,4.9s-.1,3.7-.3,4.9c-1,7.1-3.9,27.9-3.9,27.9l4.4.7s4.8-16.6,5.8-22.3c.5-2.4.9-10.1.9-10.1L35.6,99.2l-.7-15.4Z"/><path class="cls-11" d="M17.9,167h1.3c1.5-5.2,4.1-14.7,4.8-18.7.5-2.4.9-10.1.9-10.1l.6-2.2a17.09,17.09,0,0,0-2.3,5.4,41.29,41.29,0,0,1-.6,7.1C20.8,155.9,17.9,167,17.9,167Z"/><path class="cls-9" d="M48.8,83l.9,9.9s2.3,29.8,2.9,39.7c.1,1.3.6,3.6.7,4.9s-.1,3.7,0,4.9c.6,7.1,2,28.1,2,28.1l-4.5.4s-3.7-16.9-4.3-22.6c-.3-2.5-.2-10.2-.2-10.2L38.4,98.3l1.3-15.1Z"/><path class="cls-11" d="M46,119.8c3-2.2,5.3-1.5,5.3-1.5l.2-.3c-.2-3.1-.5-6.2-.7-9.2l-10,2.2,5.4,27.1s-.1,7.7.2,10.2c.7,5.8,4.3,22.6,4.3,22.6l.9-.1a129.22,129.22,0,0,0-1.7-13.4,178.82,178.82,0,0,1-2.1-19c-.1-2.4-4.7-16.4-1.8-18.6Z"/><path class="cls-11" d="M30.6,117.3s-6.1-.7-7.3,2.6-4.6,14.4-4.6,14.4l2.9-20.8,9.8,1.1Z"/><path class="cls-14" d="M31.1,44.3,39.3,43l2.1-.7L46,47.6l5.3,31-7.8,1.5-13,.4-1-36.2Z"/><path class="cls-7" d="M29.5,44.3l3.3,1.3,3.1-.1c-7,8.7-3,19.9-1.7,22.6,3.3,6.8,14.3,7.8,14.3,7.8l.3,7.1s-7.5.4-13.4.4a84.4,84.4,0,0,1-11.1-.9Z"/><path class="cls-7" d="M26.1,80.3l-7.4,33.4a38.31,38.31,0,0,1,7.3.2c3.1.4,6.5,1.1,6.5,1.1L37,100.7,40.4,115a55.17,55.17,0,0,1,6.6-1,29.78,29.78,0,0,1,5.7,0L50.1,80.4Z"/><path class="cls-8" d="M47,114.1c-.5-1-8.7-15.8-8.7-15.8l-1.1.3-.2,2.3,3.4,14.3,3-.5a27,27,0,0,1,3.6-.6Z"/><path class="cls-8" d="M22.7,113.7c-.1,0,6-33.5,6-33.5l-3.4.4-6.7,33.1Z"/><path class="cls-17" d="M47.3,51.8l-3,.8s.4,5,2.5,4.6S47.3,51.8,47.3,51.8Z"/><path class="cls-18" d="M65.2,31.2l-18,14.3.4,1.8Z"/><path class="cls-9" d="M55.3,170.5a47.61,47.61,0,0,0,4.9,1.5c2.5.6,5.9.8,6,1.3a3.59,3.59,0,0,1,0,1.1H49.5a3.85,3.85,0,0,1,1.3-3.5Z"/><path class="cls-19" d="M15.1,159.2s-.1.8-.3,2c-.1.4-.5,2.5-.6,3a8.53,8.53,0,0,0,0,1.6c-.1.4-.5.8-.5,1.2s.3.6,0,1a2.67,2.67,0,0,0-.5,2.7A33.94,33.94,0,0,1,8.7,172c-2.5.6-8.3,1.6-8.5,2.2a5.28,5.28,0,0,0-.2,1.4H19.1a3.48,3.48,0,0,0-.6-4,8.49,8.49,0,0,0,.3-.9,4.39,4.39,0,0,0-.2-1.5,4.55,4.55,0,0,0,.9-1.2,4.15,4.15,0,0,0-.1-1.3,4.16,4.16,0,0,0,.6-1.2c.1-.3.3-3,.3-3l.6-2.2Z"/><circle class="cls-20" cx="26.4" cy="89.4" r="1"/><circle class="cls-20" cx="29.9" cy="84.4" r="1"/><circle class="cls-20" cx="32.7" cy="89.4" r="1"/><circle class="cls-20" cx="37.1" cy="84.4" r="1"/><circle class="cls-20" cx="40.7" cy="89.4" r="1"/><circle class="cls-20" cx="44.2" cy="84.4" r="1"/><circle class="cls-20" cx="49" cy="83" r="1"/><circle class="cls-20" cx="47.8" cy="89.4" r="1"/><ellipse class="cls-20" cx="49.59" cy="94.79" rx="0.8" ry="1" transform="translate(-7.39 4.25) rotate(-4.57)"/><circle class="cls-20" cx="26.8" cy="100.2" r="1"/><circle class="cls-20" cx="29.9" cy="95.2" r="1"/><circle class="cls-20" cx="33.5" cy="100.2" r="1"/><circle class="cls-20" cx="37.1" cy="95.2" r="1"/><ellipse class="cls-20" cx="40" cy="100.21" rx="0.9" ry="1" transform="translate(-14.4 7.03) rotate(-8.52)"/><circle class="cls-20" cx="44.2" cy="95.2" r="1"/><circle class="cls-20" cx="47.1" cy="100.2" r="1"/><ellipse class="cls-20" cx="23.82" cy="105.44" rx="1" ry="0.9" transform="translate(-83.8 115.53) rotate(-82.63)"/><circle class="cls-20" cx="26.4" cy="111" r="1"/><circle class="cls-20" cx="29.9" cy="106" r="1"/><ellipse class="cls-20" cx="32.7" cy="111.33" rx="1" ry="0.7" transform="translate(-82.66 123.81) rotate(-79.8)"/><ellipse class="cls-20" cx="20.67" cy="109.96" rx="1" ry="0.7" transform="translate(-91.21 110.84) rotate(-79.8)"/><ellipse class="cls-20" cx="34.83" cy="104.87" rx="1" ry="0.7" transform="translate(-75.36 113.17) rotate(-75.94)"/><ellipse class="cls-20" cx="23.03" cy="99.19" rx="1" ry="0.7" transform="translate(-78.78 97.42) rotate(-75.94)"/><ellipse class="cls-20" cx="25.33" cy="93.12" rx="1" ry="0.8" transform="translate(-69.6 110.49) rotate(-85.16)"/><ellipse class="cls-20" cx="41.02" cy="110.99" rx="0.8" ry="1" transform="translate(-20.67 10.02) rotate(-11.14)"/><ellipse class="cls-20" cx="51.7" cy="110.4" rx="0.6" ry="1"/><ellipse class="cls-20" cx="50.9" cy="100.2" rx="0.6" ry="1"/><ellipse class="cls-20" cx="38.81" cy="105.49" rx="0.6" ry="1" transform="translate(-19.65 9.49) rotate(-11.14)"/><ellipse class="cls-20" cx="43.21" cy="105.81" rx="0.9" ry="1" transform="translate(-15.19 7.57) rotate(-8.52)"/><circle class="cls-20" cx="46.8" cy="111" r="1"/><ellipse class="cls-20" cx="49.7" cy="105.4" rx="0.9" ry="1" transform="translate(-8.23 4.29) rotate(-4.57)"/><path class="cls-21" d="M67.5,170.8a42.27,42.27,0,0,0-6.4,0v3.6H48.3v1H71.6A4.64,4.64,0,0,0,67.5,170.8Z"/><path class="cls-22" d="M41.6,18.3a3.61,3.61,0,0,0-1.1-4,4,4,0,0,1-1.3-1.5A6.22,6.22,0,0,0,36.7,10c-.8-.2-2.6,4.3-2.6,4.3s2.4,2,3.3,2.7S41,20,41,20Z"/><path class="cls-23" d="M56.2,31.2,37.1,22.5l1.6-3.3,26,9.8c.5.1.8,1.8.5,2.3L47.6,47.4l8.5,41.4-7.9,1.8L41.4,42.4Z"/><path class="cls-24" d="M41.1,20.2,43.4,22l12.8,9.2L44.1,26.4l-.9-.8,1.5-1.2Z"/><path class="cls-9" d="M32.9,31.1c-2.1-6.4,1.7-10.5,6.8-13.6a3.27,3.27,0,0,1-.2.8l5.3,6.1-1.2,1,1.1,2.2L43,30.2l2.2-1,1,4.2s-6.6,2.6-7.3,4.2,1.2,5.2,1.2,5.2a5.52,5.52,0,0,1-3.6,2.6C33.8,46,31,44,31,44s-.1-10.7-2.4-16.5a.9.9,0,0,1,.9-.2c1.4.3,2.6,2.1,3.4,3.8Z"/><path class="cls-11" d="M32.9,31.1c0,.1.1.3.1.4.5,1.3,1.7,4.3,3.3,4.5a14.49,14.49,0,0,0,6.1-1.1c-1.6.8-3.3,1.8-3.7,2.6a.9.9,0,0,0-.1.5,12,12,0,0,0-2.7,2.2c-1.1,1.5-.5,4.6-.5,4.6a4.23,4.23,0,0,0,.5.7,8,8,0,0,1-5-1.5s-.1-8.5-1.7-14.4l.3-2.3c1.4.3,2.6,2.1,3.4,3.8Z"/><path class="cls-5" d="M34.9,8.6c1.4-3.7,1.3-4.8,1.3-4.8s4.5,3.8,4.1,8.7q-.15,1.65-.3,3c0-.1.1-.2.1-.4.2-1,.3-2.1.4-3.1a16.15,16.15,0,0,0-.2-3.1,2.35,2.35,0,0,0-.2-.8c0-.1-.1-.3-.1-.4a.6.6,0,0,0-.1-.4c-.1-.5-.2-1-.3-1.6.2.5.5,1,.7,1.5.1.1.1.2.1.4l.1.4c.1.3.1.5.2.8.1,1.1.2,2.1.2,3.2a17.51,17.51,0,0,1-.4,3.2,12.44,12.44,0,0,1-.4,1.6,4.67,4.67,0,0,1-.5,1c0,.2-.1.4-.1.6-3.9.8-8.7,6.4-6.6,12.8-.7-1.7-2-3.6-3.5-3.8a.9.9,0,0,0-.9.2,1.42,1.42,0,0,1-.2-.6c-2.4-5.7-3.5-6.3-3.5-6.3s8.7-8.3,10.1-12.1Z"/><path class="cls-11" d="M27.5,30.7c.5,1.3,1.7,2.1,2.7,1.7s1.2-1.8.7-3.1-1.7-2.1-2.7-1.7S26.9,29.3,27.5,30.7Z"/><path class="cls-10" d="M37.4,27.8c0,.8,1,1.4,2.1,1.3s2-.8,2-1.6-1-1.4-2.1-1.3S37.3,27,37.4,27.8Z"/><path class="cls-12" d="M28.6,30.4a1.18,1.18,0,0,0,.9.9,1.12,1.12,0,0,0,1.2-.6,2.66,2.66,0,0,0-.6-1.8,2.63,2.63,0,0,0-.8-.8,5.18,5.18,0,0,1,.7,1.1c.2.5,0,.6,0,.6a.79.79,0,0,0-.7-.2A.67.67,0,0,0,28.6,30.4Z"/><path class="cls-9" d="M24.4,24.1l4.3-9.8,4.6-3-3.5,5.2s4.7-.7,4.8.6-4.6,1-4.6,1S28.5,25,27,27a3.72,3.72,0,0,1-2.3,1.2,9.87,9.87,0,0,1-2.2-2.5,10.73,10.73,0,0,0,1.9-1.6Z"/><ellipse class="cls-5" cx="39.89" cy="23.29" rx="0.6" ry="1" transform="translate(-6.06 28) rotate(-36.13)"/><path class="cls-23" d="M29.5,44.3l-.9,46.9-9.5-1.5L23.9,51,2.2,39.4c-.6-.4-.4-2,.2-2.4L22.7,25.6l2.2,2.5L10.6,37.9Z"/><path class="cls-24" d="M2.1,39.4s23.2,10,24.1,10.2c.6.2,2.4,40.8,2.4,41.6l-9.5-1.5L23.9,51Z"/><path class="cls-25" d="M39.9,42.8l1,41.6,3.5,3.5,2.2-4.3L41.8,42.3Z"/><path class="cls-25" d="M31.1,44.3l-.2,23.2-2-1.6.6-21.6Z"/><path class="cls-26" d="M15.5,161.5h-.3l.3-2.2h.3Z"/><path class="cls-26" d="M16,161.64l.46-2.25.29.06-.46,2.25Z"/><path class="cls-26" d="M16.92,161.73l.46-2.25.29.06-.46,2.25Z"/><path class="cls-26" d="M18,162l.46-2.25.29.06L18.28,162Z"/><path class="cls-26" d="M19,162.13l.46-2.25.29.06-.46,2.25Z"/><path class="cls-26" d="M19.95,162.29l.46-2.25.29.06-.46,2.25Z"/><path class="cls-27" d="M45.7,85.5l-4.8-2.8v1.7l4,2.6Z"/><path class="cls-27" d="M46.6,83.6l-5.8-3.1V78.8l5.6,2.9Z"/><path class="cls-27" d="M46,78.2l-5.3-2.1V74.3l5.1,2.1Z"/><path class="cls-27" d="M45.5,74.1l-4.9-1.9V70.4l4.7,1.9Z"/><path class="cls-27" d="M45,69.8,40.5,68V66.3L44.8,68Z"/><path class="cls-27" d="M44.5,65.5l-4.1-1.6V62.2l3.9,1.5Z"/><path class="cls-27" d="M44,61.2l-3.7-1.4V58l3.5,1.4Z"/><path class="cls-27" d="M43.4,56.5l-3.2-1.2V53.5l3,1.2Z"/><path class="cls-27" d="M42.9,52.3l-2.8-1.1V49.5l2.6,1Z"/><path class="cls-27" d="M42.5,48.4l-2.4-1L40,46l2.3.9Z"/><path class="cls-27" d="M42.1,44.8,40,44l-.1-1.2,2,.6Z"/><path class="cls-27" d="M29,64.1V61.6l1.9,1.2v2.3Z"/><path class="cls-27" d="M29.1,56.4v1.8l1.8,1V57Z"/><path class="cls-27" d="M29.3,51.1v1.5l1.7.6V51.5Z"/><path class="cls-27" d="M29.4,45.5l1.7.3v1.6L29.4,47Z"/><path class="cls-28" d="M71.5,174.4H48.3v1H71.6Z"/><path class="cls-29" d="M9.8,20.2a2.39,2.39,0,0,1-.5-1.4A3.51,3.51,0,0,1,7,18.1a4.72,4.72,0,0,1-1.2-4.4,5.51,5.51,0,0,1-3.6,0,3.24,3.24,0,0,1-1.8-2C-1,7.8,2.4.5,2.5.2A.4.4,0,0,1,2.9,0a.4.4,0,0,1,.2.4C3.1.5-.4,7.8,1,11.4A2.65,2.65,0,0,0,2.5,13a5,5,0,0,0,3.4-.1A17.06,17.06,0,0,1,8.7,6.7C11,3.3,14.3.3,16.5,1.4c1.3.6,1.6,1.9.9,3.4C16,7.7,10.8,11.9,6.5,13.3a4.33,4.33,0,0,0,1,4.1,2.71,2.71,0,0,0,1.9.6c.2-1.7,1.6-3.6,3.3-5.1,2.3-1.9,5.4-3.3,6.9-1.8.5.5,1,1.5-.6,3.3a16.07,16.07,0,0,1-9,4.2,1.78,1.78,0,0,0,.4,1c2.4,3.3,11.5-.3,11.6-.3s.4,0,.4.2,0,.4-.2.4a26.16,26.16,0,0,1-8,1.7c-1.9.3-3.5-.1-4.4-1.4ZM13,13.6a8.24,8.24,0,0,0-3.1,4.6,15.15,15.15,0,0,0,8.5-4.1c.7-.7,1.3-1.7.6-2.4a1.9,1.9,0,0,0-1.3-.5A9.58,9.58,0,0,0,13,13.6ZM9.1,7.2a18.88,18.88,0,0,0-2.6,5.6c3.9-1.4,8.8-5.2,10.2-8.1.6-1.3.4-2.1-.6-2.6a1.85,1.85,0,0,0-.7-.2C13.7,2,11.3,4,9.1,7.2Z"/></g></g></svg>