<?xml version="1.0" encoding="UTF-8"?>
<svg width="34px" height="37px" viewBox="0 0 34 37" version="1.1" xmlns="http://www.w3.org/2000/svg" xmlns:xlink="http://www.w3.org/1999/xlink">
    <!-- Generator: sketchtool 52.6 (67491) - http://www.bohemiancoding.com/sketch -->
    <title>F9975295-874F-417A-84B2-097AB53B3F58</title>
    <desc>Created with sketchtool.</desc>
    <g id="Symbols" stroke="none" stroke-width="1" fill="none" fill-rule="evenodd">
        <g id="content/logos/volcom" fill="#6C8092">
            <g id="volcom-copy">
                <path d="M21.565968,29.5904743 L17.236368,29.5904743 L17.236368,26.5188171 L12.961328,18.1674171 L17.236368,4.24664571 L17.236368,2.14041714 L27.142528,20.7545886 L21.565968,29.5904743 Z M8.601808,21.1115314 L12.089248,17.7688457 L16.843008,27.1627314 L8.601808,21.1115314 Z M17.239888,0.678102857 L6.808368,20.5801029 L13.099488,30.1334171 L22.098368,30.1334171 L27.833328,20.5801029 L17.239888,0.678102857 Z" id="Fill-22"></path>
                <polygon id="Fill-25" points="18 4 18 26 22 17.7505464"></polygon>
                <polygon id="Fill-27" points="22.6070667 18 18 27 26 20.9988288"></polygon>
                <path d="M30.2087343,32.1011367 L28.0958295,32.1011367 C27.9893925,34.2066199 27.8292973,35.8047476 27.6533685,36.8905048 L28.9886681,36.8905048 C29.0115389,36.3622534 29.03353,35.9351387 29.0643175,35.6091608 L29.2710338,33.2729856 L29.965073,36.3764627 C30.0108144,36.579572 30.0407223,36.7525911 30.0565559,36.8905048 L31.2994929,36.8905048 C31.3531512,36.6664995 31.4217634,36.4775995 31.4833385,36.3112671 L32.5811342,33.2437312 C32.5582635,33.9090605 32.5512263,34.300234 32.5433095,34.4013708 L32.4518266,36.0655299 C32.4412708,36.3413574 32.4148815,36.616349 32.3752975,36.8905048 L33.8706923,36.8905048 C33.856618,36.6347375 33.8495809,36.3789702 33.8478216,36.1232029 C33.8478216,36.0070211 33.8557384,35.9067202 33.8557384,35.8264794 L33.9542585,33.092444 C33.9621753,32.903544 33.9692125,32.5784019 34,32.1011367 L31.8413536,32.1011367 C31.785936,32.3184554 31.7199627,32.5332665 31.6434337,32.7447342 L30.8271241,35.1753594 L30.2931802,32.5859244 C30.2606333,32.4246072 30.2324847,32.2632899 30.2087343,32.1011367 Z M22.8628273,34.4958208 C22.8628273,33.6198596 23.3659836,33.1066533 24.2209976,33.1066533 C25.0980027,33.1066533 25.5712512,33.5621866 25.5712512,34.4231026 C25.5712512,35.3567369 25.0751319,35.8841525 24.2209976,35.8841525 C23.313205,35.8841525 22.8628273,35.4210966 22.8628273,34.4958208 Z M24.1515057,36.9924774 C26.0972783,36.9924774 27.2029908,36.0145436 27.2029908,34.4022066 C27.2029908,32.8684386 26.1509366,32 24.2130808,32 C22.3368002,32 21.2310877,32.9904714 21.2310877,34.589435 C21.230208,36.1014711 22.2910587,36.9924774 24.1515057,36.9924774 Z M20.7727931,33.2512538 L20.711218,32.152123 C20.2353306,32.0518221 19.7497672,32.0008358 19.2624444,32 C17.3395426,32 16.2417469,32.9620528 16.2417469,34.6044801 C16.2417469,36.1524574 17.2331057,37 19.1093863,37 C19.6134223,37 20.078754,36.9498495 20.5132981,36.8537279 L20.6892269,35.7328653 C20.2766739,35.834002 19.8878713,35.8849883 19.483235,35.8849883 C18.3924765,35.8849883 17.8664493,35.4796055 17.8664493,34.5752257 C17.8664493,33.6206954 18.4918762,33.0565028 19.559764,33.0565028 C19.9485667,33.0565028 20.3611197,33.1208626 20.7727931,33.2512538 Z M14.0602297,32.1011367 L12.4126565,32.1011367 C12.381869,34.1121698 12.2974232,35.7111334 12.1601987,36.8905048 L15.9285936,36.8905048 L15.9901687,35.7688064 C15.7227569,35.7905383 15.2732588,35.8273153 14.6469523,35.8273153 C14.3804202,35.8273153 14.1209252,35.8122701 13.869347,35.7905383 C13.8614302,35.6099967 13.854393,35.4361418 13.854393,35.2556001 C13.8535134,34.1046473 13.9300424,33.0272484 14.0602297,32.1011367 Z M7.27905412,34.4958208 C7.27905412,33.6198596 7.78221049,33.1066533 8.63634482,33.1066533 C9.51334989,33.1066533 9.98659836,33.5621866 9.98659836,34.4231026 C9.98659836,35.3567369 9.49047915,35.8841525 8.63634482,35.8841525 C7.72855221,35.8841525 7.27905412,35.4210966 7.27905412,34.4958208 Z M8.56773259,36.9924774 C10.5126255,36.9924774 11.6192176,36.0145436 11.6192176,34.4022066 C11.6192176,32.8684386 10.5662838,32 8.62842802,32 C6.75214737,32 5.64643485,32.9904714 5.64643485,34.589435 C5.64643485,36.1014711 6.70640588,36.9924774 8.56773259,36.9924774 Z M3.68570837,36.3112671 L5.89009624,32.1011367 L4.21173549,32.1011367 C4.12377109,32.3452023 4.02788989,32.5859244 3.92233261,32.8241391 L2.67147884,35.5222334 L1.80942771,32.6653293 C1.75049157,32.4806085 1.70650937,32.2917085 1.6792404,32.1011367 L0,32.1011367 L1.44261616,36.3764627 C1.48835765,36.5210632 1.54201594,36.6940822 1.60271137,36.889669 L3.4182966,36.889669 C3.49482562,36.6949181 3.5863086,36.4993313 3.68570837,36.3112671 Z" id="Fill-29"></path>
            </g>
        </g>
    </g>
</svg>