<?xml version="1.0" encoding="UTF-8"?>
<svg width="159px" height="13px" viewBox="0 0 159 13" version="1.1" xmlns="http://www.w3.org/2000/svg" xmlns:xlink="http://www.w3.org/1999/xlink">
    <!-- Generator: sketchtool 52.6 (67491) - http://www.bohemiancoding.com/sketch -->
    <title>26318265-B89D-4DF0-857F-F9BB46FE6BE3</title>
    <desc>Created with sketchtool.</desc>
    <g id="Symbols" stroke="none" stroke-width="1" fill="none" fill-rule="evenodd">
        <g id="content/logos/weatherTech">
            <g id="weatherTech-Copy">
                <path d="M74.9009118,12.27616 L70.2985588,12.27616 L70.2985588,11.8090267 L70.2985588,7.60656 C70.2985588,6.60902667 69.8220882,6.11849333 68.8215,6.03096 C67.5050294,5.93649333 66.8670882,6.49809333 66.8670882,7.78856 C66.8512059,9.12582667 66.8670882,10.4474933 66.8670882,11.7856267 L66.8670882,12.26056 L62.2735588,12.26056 L62.2735588,0.26936 L66.8512059,0.26936 L66.8512059,4.55936 C67.2067941,4.32189333 67.4970882,4.08442667 67.8279706,3.91022667 C69.6932647,2.95256 71.5903235,3.02362667 73.4070882,3.96569333 C74.4244412,4.48829333 74.8523824,5.50142667 74.9009118,6.57782667 C74.9415,8.46109333 74.9009118,10.3452267 74.9009118,12.27616 M6.88738235,7.59096 L7.79091176,4.13209333 C8.10591176,2.93696 8.40502941,1.74182667 8.72002941,0.546693333 C8.75179412,0.43576 8.8815,0.25376 8.96179412,0.25376 C10.3506176,0.237293333 11.7315,0.237293333 13.1203235,0.237293333 C13.7335588,2.71509333 14.3556176,5.14522667 14.9688529,7.59096 L15.0579706,7.59096 C15.6473824,5.14522667 16.2447353,2.70729333 16.8341471,0.26156 L21.9120882,0.26156 C21.5812059,1.25909333 21.2662059,2.24796 20.9512059,3.21342667 C20.0070882,6.09509333 19.0541471,8.97589333 18.1259118,11.8644933 C18.0288529,12.1894933 17.8832647,12.3160267 17.5206176,12.29956 C16.1150294,12.26836 14.7262059,12.26836 13.3135588,12.29956 C12.9103235,12.3160267 12.7400294,12.2050933 12.6517941,11.7934267 C12.1347353,9.75156 11.5938529,7.70102667 11.0609118,5.65916 C11.0291471,5.56469333 11.0044412,5.46156 10.9320882,5.23969333 C10.3179706,7.64556 9.72855882,9.93356 9.10738235,12.28396 L6.79826471,12.28396 C5.93444118,12.28396 5.09444118,12.26836 4.23061765,12.28396 C4.02855882,12.28396 3.91561765,12.2284933 3.84326471,12.0152933 C2.58326471,8.14476 1.31620588,4.29762667 0.0562058824,0.44356 C0.0403235294,0.388093333 0.0244411765,0.348226667 -0.000264705883,0.24596 L1.30826471,0.24596 C2.43061765,0.24596 3.54414706,0.26156 4.6665,0.229493333 C4.95767647,0.229493333 5.07061765,0.301426667 5.14297059,0.577893333 C5.66002941,2.78616 6.17620588,4.97882667 6.70914706,7.17149333 C6.74179412,7.31362667 6.78238235,7.44016 6.80620588,7.56669333 C6.84679412,7.60656 6.86267647,7.59096 6.88738235,7.59096 Z M31.8325406,9.02134267 C33.2057759,9.02134267 34.586954,9.02134267 36.0484434,9.00542421 C35.76603,9.80488444 35.2488605,10.3540712 34.6028398,10.7821008 C33.6982343,11.3878864 32.6727205,11.6708812 31.6145527,11.815916 C29.5882365,12.10687 27.5928091,12.0343526 25.6874011,11.2021711 C23.9514411,10.4345478 22.9091591,8.8922263 23.0062387,7.12350899 C23.0874325,5.38751294 24.0476382,4.18390081 25.5417817,3.39239981 C26.9388456,2.66545699 28.4409319,2.44702041 30.0074439,2.50361936 C31.4857016,2.54429986 32.8986513,2.85117231 34.1509783,3.66655099 C35.692779,4.67648858 36.4517651,6.10561217 36.4358794,8.00433021 L27.6254632,8.00433021 C27.5769234,8.61807512 27.9078766,9.00542421 28.3120808,9.32025589 C29.1196067,9.94991926 30.8237952,10.0392395 31.5580701,9.15045903 C31.6145527,9.07794162 31.7363435,9.02134267 31.8325406,9.02134267 Z M87.4732797,3.13416708 C89.5649041,3.99818549 90.8490026,5.87214149 90.7201515,8.02820789 L81.9097353,8.02820789 C81.9097353,8.73923226 82.2971712,9.15930262 82.8143408,9.4741343 C83.6298096,9.9746813 85.2201501,10.023321 85.8829391,9.15930262 C85.9473647,9.08590085 86.0762158,9.04610471 86.1732954,9.04610471 C87.5377053,9.02930189 88.9188834,9.02930189 90.3644871,9.02930189 C90.0661879,9.80488444 89.5649041,10.3699896 88.9188834,10.7980192 C88.0142779,11.3878864 86.9887642,11.6867997 85.9314789,11.8318345 C83.9845914,12.10687 82.0306436,12.0502711 80.1649499,11.2746885 C78.7599431,10.6857057 77.7423723,9.74032626 77.3955333,8.19004553 C76.999272,6.30813031 77.9118203,4.42621508 79.7369171,3.46491722 C81.1586921,2.72205595 82.6687214,2.46382322 84.2431762,2.50361936 C85.3498838,2.5283814 86.4398231,2.70613749 87.4732797,3.13416708 Z M28.1585185,5.10451817 C27.7710826,5.34683244 27.5848663,5.75098435 27.6254632,6.21881008 L31.7848833,6.21881008 C31.7442864,5.55642545 31.3400822,5.18499481 30.8237952,4.94268054 C29.9271326,4.53145376 29.0066413,4.5712499 28.1585185,5.10451817 Z M81.966218,6.20289162 L86.1326985,6.20289162 C86.0603301,5.28227426 85.1151276,4.62784886 83.9925343,4.66852935 C82.6687214,4.72512831 81.9821038,5.24159376 81.966218,6.20289162 Z M51.1337328,11.5010843 C51.1734472,11.5329213 51.1902155,11.5895202 51.2466982,11.6867997 L46.4412573,11.6867997 C46.3688889,11.4038049 46.2965204,11.1137353 46.2400378,10.8546182 C45.6257886,11.1296537 45.0362506,11.4604038 44.4069982,11.6461192 C42.7998893,12.0989108 41.1760121,12.1475505 39.5689032,11.6142823 C38.5760436,11.2667293 37.848829,10.6689028 37.6873238,9.56257017 C37.5346441,8.48895875 38.1638965,7.51085808 39.3270868,7.02711389 C40.4011403,6.57432226 41.5396194,6.47792717 42.6860414,6.34792644 C43.5262213,6.24357212 44.3743441,6.14629267 45.2224669,6.00125785 C45.561363,5.9446589 45.981453,5.83146099 45.9655672,5.35479167 C45.9487989,4.91084363 45.561363,4.77376803 45.1898129,4.74104676 C44.6726433,4.71716908 44.1563562,4.70036627 43.655955,4.77376803 C43.4132559,4.79764572 43.1228996,5.01608231 42.993166,5.21771608 C42.8396037,5.46003035 42.6948668,5.51662931 42.436282,5.51662931 C41.2492631,5.48390804 40.0534188,5.49982649 38.8663999,5.49982649 L38.4224813,5.49982649 C38.4224813,4.74104676 38.6731232,4.16798235 39.2220643,3.70723149 C39.8919136,3.15008554 40.6994395,2.89185281 41.5316765,2.76273645 C43.8174601,2.39926504 46.1103041,2.31790404 48.3634337,2.87505 C49.9378885,3.26328345 50.5680234,4.09458058 50.6006775,5.73418154 C50.632449,7.22874767 50.6165632,8.73038867 50.6006775,10.2249548 C50.5847917,10.7414203 50.6571602,11.2021711 51.1337328,11.5010843 Z M43.8086347,9.98264053 C45.2621813,10.07992 46.1103041,9.19113953 45.9329132,7.81861489 C45.1333302,7.97956817 44.34169,8.12548735 43.5668182,8.29439985 C43.2676365,8.3509988 42.9613945,8.46419671 42.7345812,8.64991203 C42.2747768,9.00542421 42.3471453,9.53869248 42.8802006,9.78100675 C43.162614,9.91012312 43.4944498,9.94991926 43.8086347,9.98264053 Z M97.2288983,11.6302007 L92.6335024,11.6302007 L92.6335024,2.78661413 L96.7929226,2.78661413 L96.7929226,4.43417431 C97.7540107,2.77069567 99.231386,2.36654377 101,2.51157859 L101,5.96853658 C100.499599,5.96853658 100.023026,5.95261812 99.5543963,5.96853658 C98.0770211,6.04105399 97.2694952,6.85731703 97.244784,8.33508035 C97.2288983,9.26365694 97.244784,10.1842743 97.244784,11.1048917 C97.2288983,11.2826478 97.2288983,11.4285669 97.2288983,11.6302007 Z M60.7269637,4.79764572 L58.514431,4.79764572 L58.514431,5.53254776 C58.514431,6.39656617 58.4985453,7.26942817 58.514431,8.1414058 C58.5303168,8.84358658 58.7403618,9.06998239 59.4349223,9.11862212 C59.8391265,9.15045903 60.2345053,9.17522107 60.670481,9.19113953 L60.670481,11.662922 C60.6545953,11.6788404 60.6387095,11.7027181 60.6139983,11.7027181 C59.0068895,11.7920383 57.3997806,11.9052362 55.7926717,11.6302007 C54.5412272,11.4117641 54.040826,10.8873394 53.9437463,9.60325066 C53.8713779,8.51283644 53.8872637,7.42242221 53.8713779,6.33200799 C53.8546096,5.84737944 53.8713779,5.35479167 53.8713779,4.8215234 L52.2801548,4.8215234 L52.2801548,2.78661413 L53.9278606,2.78661413 L53.9278606,0 L58.4738341,0 L58.4738341,2.75389286 L60.7110779,2.75389286 C60.7269637,3.48083568 60.7269637,4.12730186 60.7269637,4.79764572 Z" id="Combined-Shape" fill="#C0CCD8"></path>
                <path d="M143.98611,6.40726156 L139.330623,6.40726156 C138.807585,5.31562875 137.948372,4.94947513 136.745831,5.33952689 C135.919699,5.60411342 135.624652,6.25107016 135.527197,6.9842309 C135.469975,7.35806606 135.486069,7.74811782 135.54329,8.10658989 C135.673826,9.08897408 136.296108,9.62668219 137.392253,9.72739577 C138.406142,9.82128131 139.077598,9.40818492 139.412879,8.46506197 L144.067472,8.46506197 C143.903855,9.36124215 143.487212,10.0705048 142.775523,10.6244295 C141.965484,11.2637047 141.015969,11.590597 140.002079,11.7698331 C137.86701,12.1445218 135.772175,12.1052605 133.735455,11.3260105 C131.149769,10.3436263 130.102799,7.79506059 131.378654,5.52644447 C131.861459,4.65330892 132.63037,4.06865804 133.546804,3.65556165 C135.305464,2.86863009 137.179461,2.7824261 139.085645,2.97787873 C140.3615,3.11785354 141.597122,3.42170129 142.644093,4.18558821 C143.37277,4.74719446 143.8064,5.47182015 143.98611,6.40726156 Z M102,3.04786613 L102,0 L116.808687,0 L116.808687,3.01628645 L112.071838,3.01628645 L112.071838,11.75447 L106.76993,11.75447 L106.76993,3.04786613 L102,3.04786613 Z M150.817794,4.26411067 C151.561671,3.69482287 152.257267,3.24246526 153.083399,3.10249045 C154.360149,2.85326701 155.611864,2.89167473 156.846592,3.3363508 C158.196656,3.81943459 158.900299,4.80181878 158.957521,6.1187769 C159.030835,7.95808004 158.990602,9.81359977 158.973614,11.668266 C158.973614,11.6998457 158.957521,11.7228903 158.93338,11.7621515 L154.384289,11.7621515 C154.368195,11.6529029 154.351208,11.5129281 154.351208,11.4036795 L154.351208,7.26503403 C154.351208,6.62575883 154.236765,6.01720981 153.525076,5.76798637 C152.772258,5.50339984 151.971161,5.50339984 151.299705,6.0334264 C150.866075,6.37568188 150.817794,6.90570845 150.817794,7.42037192 C150.800807,8.72196695 150.817794,10.0081989 150.817794,11.3097939 L150.817794,11.7698331 L146.203435,11.7698331 L146.203435,0 L150.79276,0 C150.817794,1.38779903 150.817794,2.76706301 150.817794,4.26411067 Z M128.99362,7.95718833 C129.009023,8.02635283 128.99362,8.10395202 128.978216,8.22709856 L120.450687,8.22709856 C120.435284,8.86644842 120.779294,9.26709642 121.241398,9.56737155 C122.063772,10.1299657 123.637493,10.1679218 124.318668,9.32107847 C124.373436,9.26709642 124.467568,9.21311438 124.553999,9.21311438 C125.893245,9.19793192 127.231635,9.19793192 128.63335,9.19793192 C128.312444,9.97561078 127.819533,10.5145878 127.161463,10.922827 C126.284321,11.4702387 125.313047,11.7317142 124.295563,11.8708867 C122.424042,12.1171798 120.567925,12.0480153 118.775133,11.3386574 C116.990042,10.6453255 115.932338,9.16672355 116.003365,7.44098502 C116.081238,5.78525445 116.973783,4.64488372 118.407161,3.88238732 C119.737849,3.18146419 121.18663,2.96553601 122.69018,3.0043356 C124.091895,3.0431352 125.438842,3.30461074 126.652293,4.02915101 C127.991539,4.82960354 128.78225,6.00877386 128.978216,7.55654034 C128.99362,7.6957128 128.99362,7.81885934 128.99362,7.95718833 Z M120.497753,6.54775085 L124.522336,6.54775085 C124.506933,5.67729036 123.504852,4.99154968 122.392379,5.04553172 C121.139564,5.10710499 120.411323,5.66969913 120.497753,6.54775085 Z" id="Combined-Shape" fill="#6C8092"></path>
            </g>
        </g>
    </g>
</svg>