<svg xmlns="http://www.w3.org/2000/svg" viewBox="0 0 77.83 33.01"><defs><style>.cls-1{fill:#2c3e4f;}.cls-2{fill:#16a7ef;}</style></defs><title>logo_new</title><g id="Layer_2" data-name="Layer 2"><g id="DESIGNED_BY_FREEPIK" data-name="DESIGNED BY FREEPIK"><g id="_Группа_" data-name=" Группа "><path id="_Контур_" data-name=" Контур " class="cls-1" d="M19.92,7.52s28-14.73,45.79-3l.76-1.61,2.24,4.93L63.58,9.22l.78-1.49S50.65-2.48,19.92,7.52Z"/><path id="_Контур_2" data-name=" Контур 2" class="cls-2" d="M58.06,25.33S30.17,40.21,12.31,28.54l-.75,1.61L9.28,25.23l5.12-1.37-.75,1.5S27.39,35.5,58.06,25.33Z"/><g id="_Группа_2" data-name=" Группа 2"><path id="_Составной_контур_" data-name=" Составной контур " class="cls-2" d="M6.45,21.42a5.26,5.26,0,0,1-2.16.4A4,4,0,0,1,.06,18a5.51,5.51,0,0,1,1.56-4.93,4.78,4.78,0,0,1,3.26-1.19,4.26,4.26,0,0,1,1.86.34l-.3,1.33a4,4,0,0,0-1.59-.27,2.9,2.9,0,0,0-2.13.91,4.38,4.38,0,0,0-.94,3.54c.2,1.56,1,2.68,2.74,2.66a4.26,4.26,0,0,0,1.65-.32Z"/><path id="_Составной_контур_2" data-name=" Составной контур 2" class="cls-2" d="M7.55,21.66l.68-10.09,1.62,0-.26,4.12h0a2.39,2.39,0,0,1,2.06-1.18,1.8,1.8,0,0,1,1.84,1.74,7.52,7.52,0,0,1,0,1.23l-.29,4.12-1.62,0,.3-4a5.65,5.65,0,0,0,0-.91.83.83,0,0,0-.88-.83c-.75,0-1.48.93-1.57,2.29l-.25,3.52Z"/><path id="_Составной_контур_3" data-name=" Составной контур 3" class="cls-2" d="M19.35,21.53c-.05-.4-.06-.91-.07-1.47h0a2.34,2.34,0,0,1-2.14,1.63,2.3,2.3,0,0,1-2.21-2.25c-.29-2.3.9-5,4.1-5a7,7,0,0,1,2.06.28l-.3,3.7a15.65,15.65,0,0,0,.1,3.09Zm0-5.81a2.5,2.5,0,0,0-.62-.07c-1.51,0-2.35,2-2.17,3.44.09.73.4,1.28,1.06,1.28s1.47-1,1.59-2.63Z"/><path id="_Составной_контур_4" data-name=" Составной контур 4" class="cls-2" d="M22.34,21.5l.31-4.76c.07-.84.08-1.61.09-2.2l1.45,0v1.17h0a2.48,2.48,0,0,1,2.19-1.34,1.82,1.82,0,0,1,1.89,1.77,6.7,6.7,0,0,1,0,1.17L28,21.44l-1.62,0,.3-4.08a4.89,4.89,0,0,0,0-.83c-.06-.51-.32-.88-.89-.88s-1.49.89-1.58,2.42L24,21.49Z"/><path id="_Составной_контур_5" data-name=" Составной контур 5" class="cls-2" d="M29.82,21.42l.31-4.76c.07-.84.08-1.61.09-2.2l1.45,0v1.17h0a2.47,2.47,0,0,1,2.19-1.36A1.82,1.82,0,0,1,35.79,16a6.7,6.7,0,0,1,0,1.17l-.29,4.15-1.62,0,.3-4.08a4.89,4.89,0,0,0,0-.83c-.06-.51-.32-.88-.89-.88S31.8,16.46,31.7,18l-.23,3.39Z"/><path id="_Составной_контур_6" data-name=" Составной контур 6" class="cls-2" d="M42.48,20.92a5,5,0,0,1-2.27.53,2.85,2.85,0,0,1-3.06-2.74c-.27-2.07.87-4.49,3.24-4.51a2.18,2.18,0,0,1,2.36,1.88c.23,1.8-1.51,2.42-4,2.4a2.39,2.39,0,0,0,.3,1,1.58,1.58,0,0,0,1.43.71,3.56,3.56,0,0,0,1.73-.45Zm-1.25-4.8a.81.81,0,0,0-.79-.7h-.11c-.92,0-1.47.89-1.58,1.85,1.54,0,2.59-.28,2.48-1.14Z"/><path id="_Составной_контур_7" data-name=" Составной контур 7" class="cls-2" d="M43.82,21.27l.69-10.09,1.62,0-.69,10.09Z"/><path id="_Составной_контур_8" data-name=" Составной контур 8" class="cls-1" d="M48,11.75a10.29,10.29,0,0,1,2.21-.24,4.14,4.14,0,0,1,2.41.6,2.32,2.32,0,0,1,1,1.68,2.57,2.57,0,0,1-1.84,2.83v0c.65.24,1,.89,1.21,1.88a18.38,18.38,0,0,0,.61,2.65L52,21.2a18.54,18.54,0,0,1-.52-2.32c-.21-1.24-.68-1.68-1.53-1.67h-.7l-.26,4-1.62,0ZM49.33,16h.81A1.73,1.73,0,0,0,52,14.09h0V14a1.47,1.47,0,0,0-1.66-1.24,3.31,3.31,0,0,0-.8.08Z"/><path id="_Составной_контур_9" data-name=" Составной контур 9" class="cls-1" d="M59.93,20.73a5,5,0,0,1-2.27.53,2.85,2.85,0,0,1-3.06-2.74c-.26-2.05.87-4.47,3.25-4.49a2.18,2.18,0,0,1,2.36,1.88c.23,1.8-1.51,2.42-4,2.4a2.39,2.39,0,0,0,.3,1A1.58,1.58,0,0,0,57.9,20a3.56,3.56,0,0,0,1.73-.45Zm-1.25-4.8a.81.81,0,0,0-.79-.7h-.11c-.92,0-1.47.89-1.58,1.85,1.54,0,2.59-.28,2.48-1.14Z"/><path id="_Составной_контур_10" data-name=" Составной контур 10" class="cls-1" d="M61,23.9l.49-7.26c.06-.84.07-1.86.08-2.55l1.47,0,0,1.16h0a2.32,2.32,0,0,1,4.39,1.11c.3,2.37-1,4.82-3.29,4.85a2.87,2.87,0,0,1-1.29-.26h0l-.2,2.93ZM63,19.67a1.59,1.59,0,0,0,1,.3c1.33,0,2-2,1.82-3.45-.08-.6-.38-1.26-1.13-1.25s-1.5.95-1.58,2.42Z"/><path id="_Составной_контур_11" data-name=" Составной контур 11" class="cls-1" d="M68.66,21l.69-10.09,1.62,0L70.28,21Z"/><path id="_Составной_контур_12" data-name=" Составной контур 12" class="cls-1" d="M73.37,14l.84,3.41c.19.73.31,1.2.42,1.72h0c.11-.49.23-1,.45-1.71l1-3.46,1.71,0L76,19.24A11,11,0,0,1,73.91,23a3.79,3.79,0,0,1-1.75,1.08l-.62-1.35a4,4,0,0,0,1.11-.61,3.5,3.5,0,0,0,1-1.37.42.42,0,0,0,0-.33l-2-6.44Z"/></g></g></g></g></svg>